<svg width="578" height="484" viewBox="0 0 578 484" fill="none" xmlns="http://www.w3.org/2000/svg">
<path opacity="0.15" d="M528.264 483.315H22.3309C22.3309 483.315 -17.9286 461.398 -18.9879 390.167C-20.0471 318.936 48.5283 300.024 39.7806 234.866C31.0329 169.708 54.5367 140.558 72.653 133.554C90.7693 126.549 144.032 100.806 152.725 63.7019C161.417 26.598 210.918 -15.4464 254.638 6.58035C298.358 28.6071 308.75 34.6069 350.826 27.5843C392.903 20.5617 423.584 40.9081 432.149 64.7795C440.714 88.651 427.172 130.896 446.439 152.823C465.706 174.749 532.848 164.548 556.872 206.191C580.896 247.833 553.731 298.124 538.509 323.996C523.287 349.867 537.194 393.4 556.872 416.23C576.55 439.061 528.264 483.315 528.264 483.315Z" fill="white"/>
<path d="M577.661 482.046H48.7661V484H577.661V482.046Z" fill="#ADADAD"/>
</svg>
