<svg width="59" height="57" viewBox="0 0 59 57" fill="none" xmlns="http://www.w3.org/2000/svg">
<path d="M54.926 22.248L49.9221 22.0654C49.525 20.5225 48.952 19.0303 48.2146 17.618L52.278 13.9652C52.607 13.67 52.8736 13.3118 53.0618 12.9119C53.25 12.5119 53.3561 12.0782 53.3738 11.6365C53.3932 11.184 53.3225 10.7322 53.1657 10.3074C53.0089 9.88248 52.7693 9.49304 52.4606 9.16167L49.5295 6.08414C48.9021 5.42536 48.0443 5.0347 47.1355 4.99385C46.2267 4.953 45.3374 5.26513 44.6534 5.86497L40.7088 9.46303C39.1176 8.44048 37.3982 7.63289 35.5953 7.06128L35.714 3.71891C35.7436 2.80785 35.4117 1.92206 34.7908 1.25482C34.1698 0.587577 33.3101 0.193067 32.3993 0.157376L28.0072 0.0021298C27.0956 -0.0299365 26.2085 0.301164 25.5408 0.922711C24.8731 1.54426 24.4794 2.40543 24.4461 3.3171L24.3273 6.63207C22.5765 7.02457 20.8828 7.63831 19.2869 8.4585L15.6344 4.68692C14.995 4.04096 14.1307 3.66702 13.2221 3.6432C12.3135 3.61937 11.4308 3.9475 10.7584 4.55907L7.61724 7.41743C7.27971 7.72041 7.00701 8.0886 6.81556 8.49979C6.6241 8.91099 6.51785 9.3567 6.50323 9.81005C6.48659 10.2498 6.55889 10.6884 6.71579 11.0995C6.8727 11.5106 7.11097 11.8859 7.41635 12.2027L11.0688 15.9743C10.1398 17.4318 9.38876 18.9954 8.83168 20.6316L3.95562 20.4216C3.50348 20.4057 3.05265 20.4792 2.6289 20.6377C2.20516 20.7962 1.81682 21.0367 1.48608 21.3454C1.15534 21.6541 0.888678 22.025 0.701367 22.4369C0.514056 22.8488 0.409771 23.2935 0.394448 23.7457L0.248345 27.8552C0.216282 28.7669 0.54734 29.6541 1.16882 30.3218C1.79031 30.9896 2.65141 31.3834 3.56298 31.4167L8.12859 31.5811C8.48282 33.4827 9.09734 35.3265 9.95483 37.0604L5.86404 40.7132C5.53362 41.0053 5.26611 41.3616 5.07773 41.7604C4.88936 42.1591 4.78408 42.5921 4.76831 43.0328C4.74592 43.4842 4.81528 43.9354 4.97223 44.3592C5.12918 44.783 5.37045 45.1706 5.68143 45.4985L8.6034 48.5851C9.23076 49.2432 10.0876 49.6341 10.9957 49.6766C11.9038 49.7191 12.7934 49.41 13.4795 48.8134L17.2963 45.3798C19.0075 46.5167 20.8745 47.3995 22.839 48.0007L22.6746 52.7037C22.6563 53.1594 22.7284 53.6141 22.8868 54.0417C23.0452 54.4693 23.2868 54.8613 23.5976 55.195C23.9083 55.5287 24.2821 55.7975 24.6973 55.9859C25.1125 56.1743 25.5609 56.2786 26.0166 56.2927L30.4087 56.4479H30.5274C31.4196 56.4462 32.2764 56.099 32.9181 55.4793C33.5599 54.8596 33.9369 54.0154 33.9699 53.1238L34.1434 48.3934C36.1923 47.904 38.1582 47.1163 39.9782 46.0555L43.3659 49.6445C44.0039 50.2898 44.8666 50.6635 45.7737 50.6873C46.6808 50.7112 47.5619 50.3833 48.2329 49.7723L51.4197 46.9048C51.7576 46.6016 52.0312 46.2336 52.2242 45.8226C52.4171 45.4116 52.5254 44.9659 52.5428 44.5122C52.5568 44.0728 52.4834 43.6349 52.3266 43.2242C52.1698 42.8134 51.9329 42.4379 51.6297 42.1196L47.8128 38.138C48.7165 36.5457 49.416 34.8459 49.8948 33.0788L54.5517 33.2431C55.0041 33.2602 55.4554 33.1876 55.8797 33.0296C56.304 32.8715 56.6928 32.6311 57.0238 32.3221C57.3548 32.0132 57.6214 31.6418 57.8083 31.2294C57.9952 30.8169 58.0987 30.3716 58.1129 29.919L58.2589 25.8187C58.2885 24.9037 57.9544 24.0142 57.3298 23.345C56.7051 22.6758 55.8408 22.2814 54.926 22.248ZM37.5037 36.4577C35.2487 38.5767 32.2703 39.7557 29.176 39.7544H28.7286C25.8972 39.6553 23.1878 38.5773 21.062 36.7042C18.9363 34.831 17.5257 32.2787 17.0708 29.482C16.6159 26.6853 17.1448 23.8174 18.5673 21.367C19.9897 18.9166 22.2178 17.0353 24.8718 16.0438C27.5258 15.0522 30.4415 15.0118 33.122 15.9293C35.8025 16.8468 38.0819 18.6655 39.5718 21.0754C41.0618 23.4854 41.67 26.3375 41.2929 29.1457C40.9158 31.954 39.5767 34.5445 37.5037 36.4759V36.4577Z" fill="url(#paint0_linear_530_223)"/>
<defs>
<linearGradient id="paint0_linear_530_223" x1="0.246216" y1="28.224" x2="58.2607" y2="28.224" gradientUnits="userSpaceOnUse">
<stop stop-color="#FF9E1F" stop-opacity="0.26"/>
<stop offset="1" stop-color="#F7910A"/>
</linearGradient>
</defs>
</svg>
