<svg width="79" height="78" viewBox="0 0 79 78" fill="none" xmlns="http://www.w3.org/2000/svg">
<path d="M4.04674 30.9222L10.5025 33.6619C9.91585 36.6701 9.80795 39.7521 10.1829 42.794L2.42136 45.8076C1.94195 45.9955 1.50543 46.2783 1.13789 46.639C0.770356 46.9996 0.479352 47.4308 0.282399 47.9066C0.0854455 48.3824 -0.0134495 48.8931 -0.00835786 49.408C-0.00326624 49.9229 0.105725 50.4315 0.312048 50.9034L2.61313 56.3827C3.02271 57.3571 3.79273 58.1357 4.76251 58.556C5.73229 58.9763 6.82693 59.0057 7.81793 58.6383L15.1229 55.7982C16.9453 58.457 19.1981 60.7934 21.7887 62.7112L19.0493 69.3777C18.8456 69.8602 18.7393 70.3782 18.7365 70.9019C18.7337 71.4257 18.8345 71.9448 19.0331 72.4294C19.2317 72.9141 19.5241 73.3546 19.8936 73.7258C20.2631 74.097 20.7023 74.3914 21.186 74.5922L26.8473 76.9665C27.3299 77.169 27.8477 77.2744 28.3711 77.2765C28.8944 77.2787 29.4131 77.1777 29.8974 76.9792C30.3816 76.7807 30.822 76.4887 31.1933 76.1199C31.5646 75.751 31.8596 75.3126 32.0613 74.8296L34.8737 68.1174C38.1328 68.6119 41.4524 68.5471 44.6897 67.9257L47.6848 74.93C48.1162 75.8916 48.902 76.6496 49.8785 77.046C50.8549 77.4424 51.9466 77.4466 52.9261 77.0578L58.4139 74.8296C58.8945 74.6476 59.3335 74.3707 59.7047 74.0154C60.0759 73.6601 60.3718 73.2336 60.5746 72.7614C60.7774 72.2893 60.8831 71.7811 60.8852 71.2672C60.8874 70.7533 60.786 70.2442 60.5872 69.7704L57.3 62.0902C59.5949 60.274 61.5994 58.1184 63.2443 55.6977L69.8645 58.4374C70.3483 58.6398 70.8673 58.7448 71.3917 58.7465C71.9161 58.7482 72.4357 58.6465 72.9208 58.4471C73.4059 58.2478 73.8469 57.9548 74.2187 57.5849C74.5905 57.215 74.8858 56.7754 75.0875 56.2913L77.3064 50.9856C77.5103 50.5024 77.6168 49.9837 77.6197 49.4593C77.6226 48.9349 77.5219 48.4151 77.3233 47.9297C77.1248 47.4444 76.8323 47.003 76.4627 46.631C76.0932 46.259 75.6537 45.9637 75.1697 45.762L68.1387 42.8214C68.4813 40.2575 68.4813 37.6595 68.1387 35.0956L75.8545 32.0911C76.3339 31.9032 76.7705 31.6205 77.1381 31.2598C77.5056 30.8991 77.7965 30.468 77.9935 29.9922C78.1905 29.5164 78.2893 29.0057 78.2843 28.4908C78.2792 27.9758 78.1702 27.4672 77.9638 26.9954L75.6628 21.5161C75.2534 20.5418 74.4828 19.7638 73.5125 19.3451C72.5423 18.9263 71.4477 18.8993 70.458 19.2696L62.9796 22.2193C61.2448 19.7808 59.1443 17.6246 56.7521 15.8268L58.7609 10.9046C59.1627 9.92473 59.1596 8.82554 58.7522 7.84803C58.3448 6.87052 57.5664 6.09449 56.5877 5.69011L50.9263 3.32488C49.9591 2.92472 48.8735 2.92065 47.9033 3.31354C46.9331 3.70643 46.1561 4.46483 45.7398 5.42528L43.7036 10.2927C40.8706 9.84862 37.9878 9.824 35.1476 10.2197L32.0339 2.91393C31.5874 1.96264 30.7929 1.21907 29.8142 0.836712C28.8354 0.454357 27.7472 0.462408 26.7743 0.859202L21.2499 3.05092C20.7686 3.23181 20.3287 3.50811 19.9568 3.86323C19.5849 4.21835 19.2885 4.64497 19.0855 5.11747C18.8826 5.58998 18.7772 6.09863 18.7757 6.6129C18.7741 7.12716 18.8765 7.63643 19.0767 8.11013L22.2087 15.4158C19.9538 17.0311 17.9374 18.9555 16.2186 21.1326L9.35197 18.2651C8.86953 18.0613 8.35154 17.955 7.82785 17.9522C7.30417 17.9494 6.78509 18.0502 6.3005 18.2488C5.81592 18.4474 5.3754 18.7399 5.00428 19.1095C4.63315 19.479 4.33876 19.9183 4.13803 20.402L1.91915 25.7078C1.7164 26.1899 1.61057 26.7072 1.60777 27.2302C1.60497 27.7531 1.70525 28.2716 1.90282 28.7558C2.10039 29.24 2.39141 29.6806 2.75926 30.0523C3.12712 30.424 3.56463 30.7196 4.04674 30.9222ZM45.4659 24.1462C48.4424 25.3909 50.9828 27.4906 52.7659 30.1796C54.549 32.8686 55.4945 36.0261 55.4829 39.2526C55.4712 42.4792 54.5029 45.6298 52.7005 48.3058C50.898 50.9819 48.3425 53.0631 45.3571 54.2863C42.3716 55.5095 39.0905 55.8196 35.9288 55.1774C32.7672 54.5353 29.8669 52.9697 27.5951 50.6787C25.3233 48.3877 23.782 45.4743 23.1662 42.3071C22.5503 39.1399 22.8876 35.8611 24.1354 32.8856C24.9622 30.911 26.1697 29.1186 27.6891 27.6108C29.2085 26.1029 31.01 24.9092 32.9907 24.0976C34.9715 23.2861 37.0927 22.8727 39.2332 22.881C41.3737 22.8893 43.4915 23.3192 45.4659 24.1462Z" fill="url(#paint0_linear_530_222)"/>
<defs>
<linearGradient id="paint0_linear_530_222" x1="-0.00854492" y1="38.951" x2="78.2844" y2="38.951" gradientUnits="userSpaceOnUse">
<stop stop-color="#FF9E1F" stop-opacity="0.26"/>
<stop offset="1" stop-color="#F7910A"/>
</linearGradient>
</defs>
</svg>
