<svg width="166" height="107" viewBox="0 0 166 107" fill="none" xmlns="http://www.w3.org/2000/svg">
<path d="M48.2806 20.5797C49.1364 18.7731 49.6069 16.8082 49.6619 14.8098C49.7169 12.8115 49.3553 10.8237 48.6002 8.97273C47.5684 6.38802 45.7976 4.16485 43.5093 2.5812C41.2209 0.997544 38.5166 0.123688 35.7343 0.0688861C32.8101 -0.00771825 29.9324 0.811559 27.487 2.41688C25.0415 4.0222 23.1453 6.33683 22.0524 9.05047C20.9595 11.7641 20.7222 14.747 21.3724 17.5993C22.0225 20.4516 23.5291 23.037 25.69 25.0088L12.9793 27.5019L0.825684 29.8853L15.7917 106.239L92.1378 91.2625L88.9145 74.8246L87.143 65.9391C85.4873 67.118 83.6 67.9317 81.6061 68.3261C79.6122 68.7204 77.5572 68.6866 75.5774 68.2267C73.5976 67.7668 71.7381 66.8914 70.1221 65.6585C68.5061 64.4256 67.1706 62.8633 66.2039 61.0752C65.2373 59.2871 64.6616 57.3139 64.5151 55.2865C64.3685 53.259 64.6544 51.2236 65.3539 49.315C66.0533 47.4064 67.1503 45.6683 68.5722 44.2158C69.9941 42.7632 71.7083 41.6295 73.6014 40.8896C76.3119 39.8333 79.2781 39.6201 82.1117 40.2777L77.1352 14.936L48.2806 20.5797Z" fill="#0D2A3E"/>
<path d="M89.6812 42.2776C88.0876 41.414 86.3315 40.8925 84.5249 40.7462C82.7183 40.6 80.9012 40.8323 79.1895 41.4283C76.7985 42.2329 74.699 43.7271 73.1554 45.7226C71.6118 47.7182 70.693 50.1259 70.5148 52.6426C70.3572 54.5867 70.6389 56.5414 71.3391 58.3619C72.0393 60.1824 73.1399 61.822 74.5596 63.1594C75.9793 64.4968 77.6816 65.4976 79.5405 66.0879C81.3994 66.6781 83.3672 66.8426 85.2982 66.5691C88.0651 66.1766 90.6291 64.8944 92.6032 62.9162L94.2468 74.5414L95.8174 85.6644L165.635 75.8017L155.773 6.02295L140.725 8.15074L132.598 9.31965C133.857 11.3354 134.541 13.6574 134.575 16.034C134.609 18.4106 133.992 20.7512 132.79 22.8021C131.589 24.853 129.85 26.5359 127.76 27.6686C125.671 28.8013 123.311 29.3405 120.937 29.2277C118.318 29.1144 115.796 28.2023 113.71 26.614C111.624 25.0257 110.074 22.8371 109.268 20.3422C108.446 17.8365 108.395 15.1421 109.122 12.6072L85.9466 15.8857L89.6812 42.2776Z" fill="#F7910A"/>
</svg>
