<svg width="207" height="428" viewBox="0 0 207 428" fill="none" xmlns="http://www.w3.org/2000/svg">
<path d="M68.4382 74.8008C68.4382 74.8008 88.4721 78.9742 99.9683 103.001C111.464 127.028 114.715 151.703 114.715 151.703C128.64 157.839 147.515 155.693 160.746 151.867L170.142 171.711C150.4 199.025 111.921 163.346 88.746 155.611C57.3347 145.137 83.0482 126.754 68.4382 74.8008Z" fill="#E6E6E8"/>
<path d="M66.8769 62.2624C66.8769 62.2624 68.2374 62.372 69.6162 69.6321C69.6162 69.6321 68.9405 73.7506 58.4944 69.5681C52.6736 67.3155 47.0787 64.5178 41.7843 61.2122L50.6598 57.3311L66.8769 62.2624Z" fill="#050E12"/>
<path d="M132.676 363.102L152.518 409.055C151.742 413.923 148.282 417.713 144.163 418.461C138.685 419.448 132.485 415.009 131.635 408.014L106.579 361.002L132.676 363.102Z" fill="#E7BB9E"/>
<path d="M150.783 398.334C153.322 397.53 155.76 405.11 155.76 405.11C155.76 405.11 165.238 409.21 171.128 410.589C172.452 410.863 174.013 411.146 175.693 411.439C184.021 412.845 195.316 414.261 195.316 414.261L200.375 422.626V424.836H121.016L128.896 401.512C130.303 401.207 131.765 401.267 133.142 401.686C129.316 414.882 143.789 413.968 143.789 413.968C143.789 413.968 146.227 404.38 148.574 400.562C149.012 399.574 149.799 398.781 150.783 398.334Z" fill="#050E12"/>
<path d="M201.078 422.589H121.016V427H201.078V422.589Z" fill="#ADADAD"/>
<path d="M151.916 411.54C151.003 409.604 158.162 406.106 158.162 406.106C158.162 406.106 171.31 408.489 171.931 409.658C172.552 410.827 168.589 410.827 167.494 410.38C166.398 409.932 169.694 411.713 169.32 412.435C168.946 413.156 163.695 411.521 163.695 411.521C163.695 411.521 166.727 413.841 166.106 414.827C165.485 415.813 152.637 412.964 151.916 411.54Z" fill="#ADADAD"/>
<path d="M86.3446 360.628L60.695 403.631C56.2937 405.841 51.1985 405.257 48.1852 402.353C44.1857 398.508 44.1492 390.864 49.3175 386.079C57.1216 370.128 64.9319 354.181 72.7482 338.236L86.3446 360.628Z" fill="#E7BB9E"/>
<path d="M97.9778 415.302L78.4644 410.982L77.4599 409.832C74.6746 406.613 72.6298 402.822 71.4699 398.727C70.3285 394.517 70.3467 390.362 67.9635 389.513C66.9725 389.277 65.929 389.424 65.0415 389.924C61.0877 391.458 60.4759 395.403 58.3301 395.312C57.2617 395.312 56.5038 394.307 55.8281 393.421C52.9335 389.54 55.3715 385.595 52.76 381.906C51.9537 380.805 50.8827 379.925 49.6463 379.349L30.3429 392.435L52.3126 409.11L70.3924 422.809L73.1957 424.927L76.0081 427.064L92.6999 427.32C92.6269 427.183 92.5538 427.082 92.499 426.991C91.9786 426.397 91.4581 425.795 90.9285 425.165L102.616 425.338V423.283V422.06C102.927 422.745 97.7951 415.183 97.9778 415.302Z" fill="#050E12"/>
<path d="M63.6624 401.229C63.8359 399.083 71.8166 399.841 71.8166 399.841C71.8166 399.841 81.8061 408.699 81.7331 410.024C81.66 411.348 78.2724 409.284 77.5693 408.334C76.8662 407.384 78.7563 410.626 78.0806 411.074C77.4049 411.521 73.7341 407.421 73.7341 407.421C73.7341 407.421 75.1221 410.992 74.0811 411.503C73.0402 412.014 63.5346 402.828 63.6624 401.229Z" fill="#ADADAD"/>
<path d="M70.6207 427.338L28.3979 394.526L31.0916 391.038L73.9809 424.187L70.6207 427.338Z" fill="#ADADAD"/>
<path d="M104.954 422.927H70.2645V427.338H104.954V422.927Z" fill="#ADADAD"/>
<path d="M67.9178 69.5679C74.4278 79.6696 80.3574 90.1337 85.678 100.909C97.1925 124.242 118.057 192.834 118.057 192.834C118.057 192.834 104.269 210.924 70.9494 219.116C37.6296 227.308 50.4772 67.084 50.4772 67.084L67.9178 69.5679Z" fill="#ADADAD"/>
<path d="M62.6947 71.6591C63.1892 70.3083 63.5412 68.9096 63.7448 67.4857C64.0188 65.5131 63.8909 64.2803 64.7858 63.3031C65.3501 62.7366 66.0846 62.3708 66.8768 62.2621C61.9748 59.5699 56.5764 57.9032 51.01 57.3631C45.4436 56.8231 39.8256 57.421 34.4975 59.1206C33.8036 62.6091 33.1066 66.0915 32.4065 69.5678C36.4699 70.2436 40.8711 70.8098 45.5646 71.1842C51.262 71.649 56.9803 71.8075 62.6947 71.6591Z" fill="#050E12"/>
<path d="M10.9756 222.458C10.9756 222.458 19.3307 240.22 107.072 202.614L69.4975 70.5999C69.2006 69.5515 68.5385 68.6438 67.6308 68.0409C66.7232 67.438 65.6299 67.1796 64.5484 67.3124L42.3139 69.979L10.9756 222.458Z" fill="#050E12"/>
<path d="M129.608 284.539C127.271 289.939 124.927 295.342 122.577 300.748C114.365 319.707 106.147 338.668 97.9229 357.632L87.9243 380.719C75.8993 377.246 64.9918 370.688 56.2846 361.696C63.4131 343.724 70.5445 325.74 77.6791 307.744L87.5682 282.794C78.1569 263.215 68.8187 242.978 59.5536 222.084C53.0096 207.272 46.7425 192.66 40.7524 178.25C45.7464 175.447 51.0887 173.316 56.6407 171.912C60.1742 171.01 63.7794 170.417 67.4156 170.14C75.5075 169.538 83.6421 170.379 91.4398 172.624C92.3529 174.451 93.266 176.277 94.1792 178.104C108.962 207.582 121.102 238.313 130.457 269.936C131.888 274.754 131.588 279.92 129.608 284.539Z" fill="#3A3125"/>
<path d="M75.5971 313.004L77.6881 307.743L87.5773 282.794C86.2898 280.119 69.8719 180.98 68.5844 178.286L130.174 283.041C130.001 283.543 129.818 284.046 129.608 284.539C127.271 289.939 124.927 295.342 122.577 300.748C114.365 319.707 106.147 338.668 97.9229 357.632L92.6907 369.705L75.5971 313.004Z" fill="#050E12"/>
<path d="M31.2742 71.9973C31.4244 71.9957 31.5701 71.9461 31.6901 71.8557C31.81 71.7654 31.8979 71.6389 31.9408 71.495C31.9919 71.3194 31.9717 71.1308 31.8844 70.97C31.7972 70.8093 31.6501 70.6894 31.4751 70.6366C31.0487 70.5394 30.6712 70.2924 30.4115 69.9404C30.1518 69.5885 30.027 69.155 30.0598 68.7188C30.1286 68.5429 30.2331 68.3831 30.3667 68.2496C30.5003 68.116 30.66 68.0115 30.8359 67.9426C31.1148 67.8248 31.4159 67.7687 31.7185 67.7782C32.0211 67.7876 32.3181 67.8624 32.5891 67.9974C32.7526 68.0785 32.9416 68.0914 33.1145 68.0332C33.2875 67.9749 33.4302 67.8504 33.5114 67.6869C33.5925 67.5234 33.6053 67.3344 33.5471 67.1614C33.4889 66.9884 33.3644 66.8457 33.2009 66.7646C32.7495 66.5379 32.2539 66.413 31.749 66.3988C31.2441 66.3846 30.7423 66.4814 30.2789 66.6824C29.917 66.829 29.5914 67.0529 29.3248 67.3384C29.0583 67.6239 28.8573 67.9641 28.7357 68.3353C28.5838 69.129 28.7427 69.9507 29.1795 70.6305C29.6162 71.3104 30.2975 71.7964 31.0825 71.9881C31.1457 71.9998 31.2102 72.0029 31.2742 71.9973Z" fill="#050E12"/>
<path d="M30.4068 101.284C30.6229 101.284 30.831 101.202 30.9887 101.055C31.1465 100.907 31.2421 100.705 31.256 100.489L32.6166 78.7638C32.6311 78.5385 32.5556 78.3167 32.4066 78.1472C32.2576 77.9776 32.0474 77.8742 31.8222 77.8597C31.5969 77.8451 31.3752 77.9207 31.2056 78.0697C31.0361 78.2187 30.9327 78.4289 30.9182 78.6542L29.585 100.38C29.5763 100.493 29.5904 100.606 29.6263 100.714C29.6622 100.821 29.7193 100.921 29.7942 101.006C29.8691 101.091 29.9603 101.16 30.0624 101.209C30.1644 101.259 30.2753 101.287 30.3886 101.293L30.4068 101.284Z" fill="#050E12"/>
<path d="M31.3929 86.2888C31.515 86.2859 31.6353 86.2585 31.7466 86.2084C31.858 86.1582 31.9582 86.0861 32.0412 85.9965C32.1156 85.9123 32.1725 85.8141 32.2086 85.7077C32.2448 85.6013 32.2595 85.4888 32.2519 85.3766C32.2442 85.2645 32.2144 85.155 32.1641 85.0545C32.1138 84.954 32.0441 84.8645 31.959 84.7911C31.7673 84.6267 27.2108 80.7364 22.983 83.2021C22.8865 83.2585 22.802 83.3333 22.7344 83.4223C22.6668 83.5113 22.6174 83.6128 22.589 83.7209C22.5606 83.829 22.5537 83.9417 22.5689 84.0525C22.584 84.1632 22.6208 84.2699 22.6771 84.3664C22.7335 84.463 22.8083 84.5475 22.8973 84.6151C22.9863 84.6827 23.0878 84.7321 23.1959 84.7606C23.304 84.789 23.4167 84.7958 23.5274 84.7807C23.6382 84.7655 23.7449 84.7287 23.8414 84.6724C27.0099 82.8459 30.7993 86.0422 30.8359 86.0787C30.9929 86.209 31.189 86.2829 31.3929 86.2888Z" fill="#050E12"/>
<path d="M151.194 376.472C138.709 384.041 124.168 387.512 109.611 386.398L97.9412 357.632L77.6973 307.743L75.3689 302.017C61.9764 277.909 48.5687 253.8 35.1459 229.691C28.5353 217.798 24.6171 204.599 23.668 191.025L20.189 141.237L60.3663 153.93L67.4156 170.14L109.638 266.484L122.577 300.73L151.194 376.472Z" fill="#3A3125"/>
<path d="M129.763 385.102L128.248 381.778L129.079 381.394L130.594 384.746L129.763 385.102ZM126.741 378.444L125.234 375.12L126.065 374.746L127.572 378.07L126.741 378.444ZM123.728 371.796L122.221 368.472L123.052 368.089L124.559 371.422L123.728 371.796ZM120.705 365.139L119.199 361.815L120.03 361.44L121.536 364.764L120.705 365.139ZM117.692 358.491L116.185 355.157L117.016 354.783L118.523 358.116L117.692 358.491ZM114.67 351.87L113.163 348.546L113.994 348.171L115.5 351.495L114.67 351.87ZM111.656 345.222L110.15 341.824L110.981 341.45L112.487 344.774L111.656 345.222ZM108.643 338.564L107.127 335.24L107.967 334.857L109.474 338.19L108.643 338.564ZM105.666 331.88L104.16 328.546L104.99 328.172L106.497 331.496L105.666 331.88ZM102.653 325.222L101.101 321.898L101.932 321.515L103.438 324.848L102.653 325.222ZM99.6305 318.565L98.1238 315.241L98.9547 314.866L100.461 318.19L99.6305 318.565ZM96.6172 311.917L95.1105 308.593L95.9415 308.209L97.4481 311.533L96.6172 311.917ZM93.6039 305.259L92.0881 301.935L92.919 301.561L94.4348 304.885L93.6039 305.259ZM90.5814 298.611L89.0291 295.251L89.8601 294.876L91.3667 298.2L90.5814 298.611ZM87.5681 291.954L86.0615 288.63L86.8924 288.246L88.3169 291.598L87.5681 291.954ZM84.5457 285.306L83.0391 281.972L83.87 281.598L85.3766 284.922L84.5457 285.306ZM81.5324 278.648L80.0258 275.324L80.8567 274.941L82.3634 278.274L81.5324 278.648ZM78.51 271.991L77.0033 268.667L77.8342 268.292L79.3409 271.617L78.51 271.991ZM75.4967 265.343L73.99 262.01L74.821 261.635L76.3276 264.959L75.4967 265.343ZM72.4834 258.685L70.9676 255.361L71.7985 254.987L73.3143 258.311L72.4834 258.685ZM69.4609 252.037L67.9086 248.677L68.7396 248.302L70.2462 251.626L69.4609 252.037ZM66.4476 245.38L64.941 242.056L65.7719 241.672L67.2786 245.005L66.4476 245.38ZM63.4252 238.723L61.8364 235.398L62.6673 235.024L64.174 238.348L63.4252 238.723ZM60.4119 232.074L58.9053 228.75L59.7362 228.367L61.2429 231.7L60.4119 232.074ZM57.3895 225.417L55.8828 222.093L56.7138 221.719L58.2204 225.043L57.3895 225.417ZM54.3762 218.769L52.8695 215.445L53.7005 215.061L55.2071 218.385L54.3762 218.769ZM51.3629 212.111L49.8471 208.787L50.678 208.413L52.1938 211.737L51.3629 212.111ZM48.3404 205.463L46.7881 202.103L47.6191 201.728L49.1257 205.052L48.3404 205.463ZM45.3272 198.806L43.8205 195.482L44.6514 195.098L46.1581 198.432L45.3272 198.806ZM42.3047 192.149L41.4373 190.231L42.2682 189.856L43.1813 191.774L42.3047 192.149Z" fill="#111111"/>
<path d="M97.5302 171.848C97.7573 172.703 97.7407 173.604 97.4826 174.449C97.2244 175.295 96.7348 176.051 96.0692 176.633C95.4865 177.135 94.8769 177.604 94.243 178.04C85.057 184.332 68.9313 186.186 54.2301 186.368C44.5585 186.442 34.8907 185.957 25.275 184.916H25.2111C24.2366 184.801 23.3211 184.389 22.5891 183.736C21.8572 183.082 21.3443 182.219 21.1203 181.263C17.1532 164.424 14.3071 147.34 12.6008 130.123C12.126 125.393 11.7882 121.064 11.5599 117.11C10.5076 98.9567 16.437 81.0883 28.133 67.1663L28.2883 66.9836C28.723 66.4509 29.2723 66.0232 29.8954 65.7325C31.0594 65.2 32.2512 64.7305 33.4657 64.3262L54.2027 67.2941C54.9955 67.4095 55.7462 67.7237 56.385 68.2073C58.2322 69.5985 59.9946 71.0989 61.6628 72.7003C74.1452 84.6726 77.9986 99.1105 80.464 108.224C85.267 126.014 91.1749 147.155 97.5302 171.848Z" fill="#F7910A"/>
<path d="M178.168 119.046H178.405C179.495 119.029 180.581 118.907 181.647 118.68C181.792 118.663 181.931 118.615 182.056 118.541C182.182 118.466 182.29 118.366 182.375 118.247C182.459 118.129 182.518 117.994 182.548 117.851C182.577 117.708 182.577 117.561 182.546 117.418C182.516 117.275 182.456 117.141 182.37 117.023C182.285 116.905 182.176 116.805 182.05 116.732C181.924 116.658 181.784 116.611 181.639 116.595C181.495 116.578 181.348 116.592 181.209 116.635C180.278 116.832 179.33 116.939 178.378 116.955C177.931 116.955 177.465 116.955 177.109 116.955C176.972 116.945 176.835 116.962 176.705 117.006C176.575 117.049 176.455 117.118 176.351 117.208C176.248 117.298 176.163 117.407 176.102 117.53C176.041 117.652 176.004 117.786 175.995 117.923C175.985 118.059 176.003 118.196 176.046 118.326C176.089 118.456 176.158 118.577 176.248 118.68C176.338 118.784 176.447 118.868 176.57 118.929C176.692 118.991 176.826 119.027 176.963 119.037C177.364 119 177.803 119.046 178.168 119.046Z" fill="#F66F6F"/>
<path d="M65.2515 42.2901C66.3655 42.4637 61.0512 73.6134 61.0512 73.6134C61.0512 73.6134 53.4631 75.8599 40.4329 67.4766L47.7378 40.8838L65.2515 42.2901Z" fill="#E7BB9E"/>
<path d="M61.188 50.8015C64.1922 56.1803 64.6214 61.2121 62.366 62.3628C60.1105 63.5134 45.9298 60.6459 44.2314 47.8244C42.533 35.0029 61.188 50.8015 61.188 50.8015Z" fill="#050E12"/>
<path d="M75.9623 15.8982C76.8803 21.2277 77.1866 26.6447 76.8754 32.0438C76.7841 33.5963 76.3458 38.0619 76.1723 39.4226C75.5697 44.1804 65.2149 61.4584 64.1374 61.7963C63.416 62.0246 57.2525 59.4402 53.6913 57.833C51.2724 56.8805 48.9885 55.6156 46.8977 54.0705C46.3571 53.6348 45.8503 53.1585 45.3819 52.6459C40.8163 47.6872 40.7341 41.0207 40.6976 34.5186C40.6976 29.0393 40.6154 21.6423 45.7745 15.5603C46.8905 14.19 48.2119 13.0009 49.6918 12.0353C59.5535 5.83455 74.8118 15.1676 75.9623 15.8982Z" fill="#E7BB9E"/>
<path d="M74.8391 29.1855C69.9357 40.2719 53.6547 48.2168 44.3135 42.8015C43.93 42.5732 43.5647 42.3266 43.2178 42.0709C41.9046 41.0841 40.7737 39.8757 39.8758 38.5002C38.6781 36.6658 37.7552 34.666 37.1364 32.5644C36.689 31.1397 34.9358 25.5052 37.3738 19.8524C37.9873 18.4209 38.819 17.0931 39.8392 15.9165C44.8249 10.1358 53.8556 7.8619 61.0145 8.83904C62.6125 9.05821 72.7024 10.4463 75.7249 17.8707C77.6972 22.7199 75.5331 27.5417 74.8391 29.1855Z" fill="#E7BB9E"/>
<path d="M48.2766 17.5694C49.3216 17.6656 50.3533 17.8738 51.3538 18.1903C54.9564 19.1612 58.3898 20.6763 61.5352 22.6834C65.4068 24.8111 74.1271 23.0486 78.2453 22.035L80.4824 21.4414C81.4172 19.7631 81.9559 17.8932 82.0574 15.9747C82.1589 14.0563 81.8205 12.14 81.0681 10.3724C80.3157 8.60478 79.1691 7.0326 77.716 5.77603C76.263 4.51946 74.5419 3.61175 72.6844 3.1223C68.9497 2.12689 65.3794 1.67029 63.2701 2.5835C60.2842 3.87113 58.9601 0.702281 55.5451 0.811867C48.9889 1.03104 47.2174 6.04458 45.3547 6.34594C40.4695 7.14957 37.8123 10.5285 35.3103 17.0488C35.1551 17.4872 36.0225 17.3228 48.2766 17.5694Z" fill="#050E12"/>
<path d="M57.4899 19.9619C54.4739 20.5838 51.7188 22.1096 49.5914 24.3362C47.8656 26.2266 47.336 27.9891 45.7107 31.9524C44.688 34.4638 43.1448 38.0618 41.0446 42.4087C40.9168 42.2809 39.401 40.765 37.4834 38.5093C36.2036 36.5038 35.2224 34.3227 34.5706 32.0346C34.0958 30.473 32.233 24.3271 34.8263 18.1446C35.4872 16.5904 36.3766 15.1437 37.4652 13.8525C38.981 13.4324 47.4638 11.2499 54.0201 16.2269C55.377 17.2695 56.5498 18.532 57.4899 19.9619Z" fill="#050E12"/>
<path d="M46.3133 30.4184C46.3133 30.4184 41.7934 26.6468 39.675 28.1262C37.5565 29.6056 35.2737 35.7241 41.3642 39.0848C47.4547 42.4454 46.3133 30.4184 46.3133 30.4184Z" fill="#E7BB9E"/>
<path d="M51.4085 23.0304C51.2077 24.3637 51.0251 25.77 50.8607 27.1581C50.5594 29.8977 50.3858 32.4547 50.2945 34.9022C49.6462 34.9022 48.1944 35.3405 47.7196 34.3634C47.2447 33.3862 44.1766 22.4916 44.1766 22.4916C44.1766 22.1811 44.341 19.9711 45.665 19.3045C47.1352 18.5465 49.9658 19.7702 51.4085 23.0304Z" fill="#050E12"/>
<path d="M42.4417 36.9937L40.4876 34.6376C40.1362 34.3031 39.898 33.8672 39.8064 33.3908C39.7147 32.9144 39.7741 32.4212 39.9763 31.9801C40.5516 30.9756 42.1221 30.5373 44.0488 30.8478L43.9118 31.761C42.3687 31.5144 41.1268 31.761 40.7342 32.4641C40.4877 32.8934 40.6429 33.487 41.1633 34.1171L43.1174 36.4823L42.4417 36.9937Z" fill="#050E12"/>
<path d="M77.3594 32.044C77.2589 31.9253 74.9122 29.3043 71.1593 31.3956L70.7393 30.6285C71.8668 29.9041 73.2102 29.5919 74.5416 29.7451C75.873 29.8982 77.1105 30.5071 78.0442 31.4687L77.3594 32.044Z" fill="#050E12"/>
<path d="M54.7323 31.4775L54.1753 30.7926C60.3754 25.7425 66.959 29.8793 67.0321 29.9341L66.5572 30.6738C64.7468 29.5632 62.6355 29.0438 60.5165 29.1878C58.3975 29.3319 56.3759 30.1321 54.7323 31.4775Z" fill="#050E12"/>
<path d="M67.5708 44.2899C67.3151 44.2899 67.0503 44.2899 66.7946 44.2899L64.1831 44.1712V43.258L66.8038 43.3767C67.3608 43.3767 69.05 43.4863 69.607 42.911C69.685 42.8222 69.7419 42.7169 69.7735 42.6031C69.8051 42.4893 69.8106 42.3697 69.7897 42.2535L68.4383 34.4181L69.3514 34.272L70.7028 42.1348C70.7421 42.3814 70.7248 42.6338 70.652 42.8727C70.5792 43.1117 70.4529 43.3309 70.2827 43.5137C69.5154 44.1179 68.5416 44.3967 67.5708 44.2899Z" fill="#050E12"/>
<path d="M75.0401 35.2311C74.8758 36.4183 74.127 37.3041 73.3691 37.1945C72.6112 37.0849 72.1182 36.0439 72.2916 34.8476C72.4651 33.6513 73.2048 32.7746 73.9626 32.875C74.7205 32.9755 75.2045 34.0713 75.0401 35.2311Z" fill="#050E12"/>
<path d="M63.6627 33.7791C63.5805 35.0668 62.8409 36.0622 62.0282 35.9982C61.2156 35.9343 60.6129 34.8659 60.7042 33.5782C60.7955 32.2906 61.526 31.3043 62.3387 31.3591C63.1514 31.4139 63.754 32.5006 63.6627 33.7791Z" fill="#050E12"/>
<path d="M60.3023 88.7455C60.506 89.1881 60.594 89.6751 60.558 90.161C58.4274 122.227 56.2968 154.296 54.1661 186.368C53.5574 195.299 52.97 204.234 52.4038 213.171C52.3615 213.892 52.0531 214.571 51.5386 215.077C51.024 215.583 50.3399 215.88 49.6188 215.911C43.8298 216.144 38.0667 216.816 32.3791 217.92C20.8007 220.175 18.0613 222.139 10.9481 225.572C11.5051 211.016 8.72925 197.729 9.28625 183.172C10.4003 153.757 8.06265 124.818 9.17666 95.4029C9.32382 91.5232 10.7637 87.8041 13.2674 84.837C18.4601 78.6454 23.6557 72.4599 28.8544 66.2804L29.7676 65.148C30.1916 64.642 30.7748 64.295 31.4219 64.1639C32.0689 64.0329 32.7412 64.1255 33.3287 64.4266L52.9334 74.2528C53.5186 74.5516 53.9876 75.0368 54.2666 75.6318L60.3023 88.7455Z" fill="#ADADAD"/>
<path d="M60.6128 90.4621C60.2263 83.0952 58.0748 75.9291 54.3397 69.5678C54.3397 69.5678 38.6705 64.3442 34.4975 59.1206L27.4026 68.0336C37.0645 77.4088 48.3076 85.0018 60.6128 90.4621Z" fill="#E6E6E8"/>
<path d="M44.9711 85.3572L45.4094 85.138C49.975 82.855 51.1894 79.056 52.2486 75.8689C51.3486 77.4359 49.9619 78.6663 48.299 79.3734C46.6362 80.0804 44.788 80.2255 43.0352 79.7866C36.1503 78.2067 25.4668 69.5403 25.6403 69.7412C30.4031 76.4989 36.9194 81.8287 44.4871 85.1563L44.9711 85.3572Z" fill="#050E12"/>
<path d="M8.16314 122.808L20.1798 101.284L57.9465 129.703C56.239 155.501 55.3259 159.492 53.6183 185.299C53.5727 185.93 8.87538 138.214 8.87538 138.844L8.04443 127.045C8.05356 125.63 8.10836 124.224 8.16314 122.808Z" fill="#050E12"/>
<path d="M22.7183 86.3073C29.448 89.0469 30.7994 96.8458 35.6938 108.608C39.7768 118.389 44.9211 127.693 51.0342 136.351L105.1 130.352C105.563 139.07 106.022 147.791 106.479 156.515C95.8036 161.922 84.4352 165.834 72.6934 168.14C54.9332 171.62 40.9442 174.359 27.7953 166.917C12.884 158.47 8.28187 142.141 4.77549 129.712C2.40137 121.274 -4.13659 98.0878 6.93044 89.0195C11.1125 85.6224 17.6596 84.2434 22.7183 86.3073Z" fill="#E6E6E8"/>
<path d="M106.479 156.515C100.877 159.348 95.0793 161.774 89.1297 163.775C85.742 154.049 88.8831 138.205 90.3533 131.986L105.082 130.352C105.563 139.076 106.029 147.797 106.479 156.515Z" fill="#050E12"/>
<path d="M143.159 133.612L140.483 134.342C142.848 135.42 151.77 139.63 152.738 142.753C152.856 143.019 152.917 143.307 152.917 143.598C152.917 143.889 152.856 144.177 152.738 144.443C152.244 145.137 150.838 144.79 149.669 144.443L149.131 144.269C150.072 144.976 150.807 145.922 151.258 147.009C151.474 147.548 151.474 148.15 151.258 148.689C150.783 149.392 149.478 149.045 148.373 148.689C145.854 147.849 143.443 146.718 141.187 145.319C142.252 146.945 143.323 148.567 144.401 150.187C144.401 151.712 143.908 153.84 140.666 153.63L137.927 151.136C137.716 150.944 137.465 150.8 137.191 150.716C136.918 150.633 136.63 150.611 136.347 150.652C135.57 150.717 134.798 150.833 134.037 150.999C132.32 151.584 128.869 151.301 123.6 151.41C122.267 151.41 120.806 151.502 119.235 151.602C117.818 151.739 116.394 151.794 114.971 151.767H114.679L113.236 151.675H113.099L112.588 151.62C112.295 151.62 112.04 151.557 111.821 151.52C110.853 151.392 110.058 151.237 109.437 151.1L109.109 150.771C108.707 150.369 108.351 149.977 108.022 149.593C105.502 146.68 104.835 144.233 105.127 142.233C105.123 142.205 105.123 142.178 105.127 142.15C105.122 142.129 105.122 142.107 105.127 142.086C105.127 141.959 105.127 141.831 105.2 141.703C105.217 141.62 105.239 141.537 105.264 141.456C105.26 141.411 105.26 141.365 105.264 141.319C106.369 137.667 110.606 135.74 110.935 135.594L124.02 132.69C148.154 127.21 154.153 127.21 154.509 128.489C154.682 129.183 153.331 130.571 152.591 131.183C151.614 131.995 150.646 132.306 147.378 132.918C146.327 133.064 144.857 133.329 143.159 133.612Z" fill="#E7BB9E"/>
<path d="M141.278 146.187C141.526 146.195 141.768 146.105 141.949 145.935C142.131 145.766 142.237 145.531 142.246 145.283C142.254 145.034 142.164 144.793 141.994 144.611C141.825 144.43 141.59 144.323 141.342 144.315L131.754 143.666C131.505 143.649 131.259 143.732 131.07 143.897C130.882 144.061 130.767 144.293 130.75 144.543C130.733 144.792 130.815 145.038 130.98 145.227C131.144 145.415 131.377 145.531 131.626 145.547L141.214 146.187H141.278Z" fill="#E7BB9E"/>
<path d="M148.994 145.072C149.213 145.103 149.436 145.052 149.62 144.931C149.805 144.809 149.94 144.625 149.999 144.412C150.058 144.199 150.038 143.972 149.942 143.772C149.846 143.573 149.681 143.415 149.478 143.328L141.114 138.26C140.396 137.821 139.561 137.613 138.721 137.666L129.508 138.452C129.388 138.462 129.271 138.496 129.164 138.551C129.058 138.606 128.963 138.682 128.885 138.774C128.807 138.866 128.749 138.972 128.712 139.087C128.676 139.202 128.662 139.323 128.672 139.442C128.683 139.562 128.716 139.679 128.772 139.786C128.827 139.893 128.903 139.988 128.995 140.065C129.087 140.143 129.193 140.202 129.308 140.238C129.423 140.275 129.543 140.288 129.663 140.278L138.849 139.502C139.302 139.474 139.753 139.589 140.137 139.831L148.51 144.89C148.65 144.996 148.818 145.059 148.994 145.072Z" fill="#E7BB9E"/>
<path d="M130.996 135.767L143.606 135.246C143.726 135.241 143.844 135.213 143.953 135.163C144.062 135.112 144.16 135.041 144.241 134.953C144.323 134.865 144.386 134.761 144.427 134.649C144.469 134.536 144.488 134.416 144.483 134.296C144.478 134.176 144.45 134.059 144.399 133.95C144.349 133.841 144.278 133.743 144.19 133.661C144.102 133.58 143.998 133.517 143.886 133.475C143.773 133.434 143.653 133.415 143.533 133.42L130.923 133.931C130.797 133.931 130.672 133.956 130.556 134.007C130.44 134.057 130.336 134.131 130.25 134.224C130.164 134.317 130.099 134.426 130.057 134.545C130.016 134.665 130 134.791 130.01 134.917C130.018 135.038 130.05 135.156 130.104 135.265C130.158 135.373 130.233 135.469 130.325 135.549C130.417 135.628 130.524 135.688 130.639 135.725C130.754 135.762 130.875 135.777 130.996 135.767Z" fill="#E7BB9E"/>
<path d="M140.666 154.515C140.43 154.514 140.203 154.426 140.027 154.269L137.625 152.004C136.822 152.004 135.69 151.922 134.356 151.894H134.11C130.657 151.852 127.203 151.989 123.764 152.305H123.445C120.658 152.606 117.855 152.716 115.053 152.634H114.715C114.131 152.634 113.546 152.561 113.199 152.534H112.971L112.551 152.488L111.738 152.378C111.254 152.305 110.917 152.232 110.679 152.186C109.454 151.799 108.342 151.118 107.438 150.205C106.28 149.212 105.384 147.95 104.829 146.529C104.273 145.109 104.075 143.574 104.251 142.059C104.251 141.995 104.251 141.922 104.251 141.84L104.324 141.447C104.324 141.337 104.324 141.228 104.397 141.155C104.406 141.099 104.422 141.044 104.443 140.99C104.881 139.488 105.686 138.118 106.784 137.002C107.881 135.886 109.239 135.06 110.734 134.598H110.807L123.929 131.676H124.111C154.683 124.754 155.157 126.744 155.541 128.205C155.924 129.667 153.925 131.347 153.313 131.858C152.126 132.835 150.93 133.182 147.67 133.794C146.181 134.077 144.766 134.315 143.342 134.534L143.168 134.589C147.907 136.918 152.829 139.895 153.623 142.479C153.793 142.882 153.87 143.317 153.847 143.754C153.825 144.19 153.705 144.616 153.495 144.999C153.288 145.265 153.019 145.475 152.712 145.614C152.405 145.752 152.069 145.814 151.733 145.794C151.911 146.08 152.052 146.386 152.153 146.707C152.306 147.103 152.374 147.526 152.352 147.949C152.33 148.373 152.219 148.786 152.025 149.164C151.112 150.515 149.067 149.849 148.081 149.538C146.697 149.082 145.346 148.532 144.036 147.894C144.2 148.141 144.364 148.397 144.538 148.643C144.944 149.237 145.179 149.931 145.216 150.65C145.253 151.369 145.091 152.084 144.748 152.716C144.378 153.322 143.848 153.813 143.216 154.136C142.584 154.458 141.876 154.599 141.168 154.543C141.001 154.542 140.833 154.533 140.666 154.515ZM141.68 144.47C143.875 145.826 146.219 146.926 148.665 147.748C149.215 147.96 149.794 148.089 150.382 148.132H150.473C150.473 148.132 150.546 147.894 150.354 147.219C149.957 146.318 149.327 145.539 148.528 144.963C148.315 144.842 148.159 144.641 148.094 144.405C148.029 144.168 148.06 143.916 148.181 143.703C148.302 143.49 148.503 143.333 148.739 143.268C148.976 143.203 149.228 143.235 149.441 143.356L149.971 143.52C150.61 143.795 151.303 143.92 151.998 143.885C151.998 143.885 152.08 143.666 151.87 143.018C151.322 141.255 146.821 138.251 140.118 135.173C139.927 135.107 139.763 134.978 139.653 134.809C139.543 134.639 139.492 134.437 139.509 134.235C139.525 134.034 139.609 133.843 139.745 133.694C139.882 133.545 140.065 133.445 140.264 133.411L142.931 132.68H143.04C144.465 132.461 145.871 132.214 147.359 131.941C150.656 131.32 151.377 131.027 152.153 130.397C152.723 129.931 153.222 129.383 153.632 128.772C152.372 128.388 146.939 128.434 124.413 133.548H124.221L111.337 136.406C110.148 136.777 109.069 137.434 108.194 138.32C107.318 139.205 106.673 140.291 106.315 141.484V141.621C106.315 141.685 106.315 141.739 106.269 141.831C106.223 141.922 106.223 142.05 106.196 142.159C106.201 142.183 106.201 142.208 106.196 142.232C106.2 142.25 106.2 142.269 106.196 142.287C106.066 143.505 106.237 144.735 106.692 145.872C107.147 147.008 107.873 148.016 108.807 148.808C109.48 149.5 110.306 150.025 111.218 150.342L112.131 150.506L112.871 150.597H113.282H113.483C113.775 150.597 114.332 150.661 114.907 150.689H115.181C117.924 150.765 120.67 150.659 123.399 150.369H123.719C127.212 150.045 130.72 149.905 134.229 149.949H134.484C136.064 149.949 137.352 150.04 138.137 150.077C138.357 150.088 138.567 150.175 138.73 150.324L141.177 152.588C142.748 152.588 143.122 151.94 143.259 151.675C143.427 151.347 143.501 150.979 143.473 150.612C143.446 150.245 143.318 149.892 143.104 149.593C142.246 148.296 141.378 146.999 140.529 145.694C140.424 145.554 140.361 145.388 140.348 145.214C140.335 145.039 140.371 144.865 140.454 144.712C140.537 144.558 140.662 144.431 140.814 144.346C140.967 144.261 141.14 144.222 141.314 144.232C141.453 144.278 141.578 144.357 141.68 144.461V144.47Z" fill="#E7BB9E"/>
<path d="M94.7636 164.56C88.8191 152.899 95.7589 128.032 95.7589 128.032L112.469 128.479L111.675 157.702L94.7636 164.56Z" fill="#ADADAD"/>
<path d="M58.0105 154.689L60.4668 151.839H70.5477L71.9538 154.835L58.0105 154.689Z" fill="#050E12"/>
<path d="M70.365 154.707L72.8121 151.867H82.9022L84.3083 154.862L70.365 154.707Z" fill="#050E12"/>
<path d="M83.2769 154.707L85.724 151.867H95.814L97.2202 154.862L83.2769 154.707Z" fill="#050E12"/>
<path d="M95.8134 154.707L98.2605 151.867H108.351L109.757 154.862L95.8134 154.707Z" fill="#ADADAD"/>
<path d="M181.821 152.972H57.3438C54.8778 152.972 52.8787 154.971 52.8787 157.437V158.351C52.8787 160.817 54.8778 162.816 57.3438 162.816H181.821C184.287 162.816 186.286 160.817 186.286 158.351V157.437C186.286 154.971 184.287 152.972 181.821 152.972Z" fill="#0D2A3E"/>
<path d="M119.655 93.3297L202.987 93.6675C203.515 93.6691 204.036 93.8004 204.502 94.0498C204.968 94.2993 205.366 94.6592 205.661 95.0982C205.955 95.5372 206.138 96.0417 206.192 96.5677C206.247 97.0936 206.171 97.6249 205.973 98.1149L183.145 154.013L89.3031 153.702L114.679 96.3524C115.148 95.4378 115.861 94.6712 116.74 94.1376C117.618 93.604 118.627 93.3243 119.655 93.3297Z" fill="#0D2A3E"/>
<path d="M181.355 152.606L93.6952 152.323L116.733 99.0007C117.201 98.0785 117.916 97.3043 118.798 96.7642C119.68 96.2241 120.694 95.9393 121.728 95.9414L199.343 96.2702C199.907 96.2726 200.461 96.4129 200.957 96.6787C201.454 96.9445 201.878 97.3279 202.192 97.7952C202.502 98.2599 202.693 98.7934 202.749 99.349C202.805 99.9047 202.723 100.465 202.512 100.982L181.355 152.606ZM95.0923 151.41L180.743 151.684L201.653 100.635C201.81 100.258 201.87 99.8475 201.829 99.441C201.787 99.0345 201.645 98.6447 201.416 98.3066C201.187 97.9615 200.876 97.6783 200.512 97.4823C200.147 97.2863 199.739 97.1837 199.325 97.1834L121.71 96.8546C120.848 96.8519 120.002 97.0876 119.265 97.5357C118.529 97.9837 117.931 98.6266 117.537 99.3934L95.0923 151.41Z" fill="white"/>
<path d="M149.505 128.297C152.339 128.297 154.637 125.999 154.637 123.164C154.637 120.33 152.339 118.032 149.505 118.032C146.671 118.032 144.373 120.33 144.373 123.164C144.373 125.999 146.671 128.297 149.505 128.297Z" fill="#F7910A"/>
<path d="M169.822 171.154C175.082 167.903 175.027 160.771 170.735 156.323C163.147 148.47 151.487 137 148.893 137.858C144.967 139.155 151.477 145.712 151.477 145.712L161.896 158.816C161.896 158.816 144.93 139.155 141.04 140.452C137.151 141.748 139.716 144.369 139.716 144.369C139.716 144.369 135.799 145.666 137.087 149.593C138.374 153.52 150.117 165.318 150.117 165.318C147.761 162.524 139.936 153.447 137.078 154.816C136.501 155.086 136.036 155.547 135.763 156.122C135.215 157.52 136.42 159.191 137.059 160.049C143.232 168.369 148.994 170.697 151.149 171.601C154.684 173.082 158.526 173.678 162.344 173.336C164.962 173.143 167.51 172.399 169.822 171.154Z" fill="#E7A182"/>
<path d="M172.753 166.981C175.566 161.565 168.471 140.497 164.855 139.182C159.805 137.356 165.183 149.456 165.183 149.456L161.686 164.752L172.753 166.981Z" fill="#E7A182"/>
<path d="M153.158 147.796L152.483 148.412L161.337 158.122L162.012 157.507L153.158 147.796Z" fill="#111111"/>
<path d="M63.9457 55.1757H63.8544C61.4712 54.984 59.8824 49.2764 59.7089 48.628C59.6841 48.5282 59.6931 48.423 59.7344 48.3288C59.7757 48.2347 59.847 48.1568 59.9372 48.1074C60.0297 48.0578 60.1366 48.0416 60.2397 48.0615C60.3428 48.0815 60.4359 48.1364 60.5033 48.217C60.5033 48.217 61.3251 49.1302 64.2471 49.9521C65.1602 50.2261 68.0548 50.5457 68.0913 50.5549C68.1694 50.5653 68.2436 50.5949 68.3074 50.6411C68.3712 50.6874 68.4224 50.7487 68.4566 50.8197C68.4882 50.8919 68.5007 50.971 68.4927 51.0494C68.4846 51.1279 68.4565 51.2029 68.4109 51.2672C67.9361 51.9338 65.5346 55.1757 63.9457 55.1757ZM60.969 49.6417C61.6812 51.7329 62.8409 54.2077 63.9275 54.2625C64.5393 54.2625 66.0094 52.8927 67.1965 51.3676C66.1185 51.2508 65.0483 51.0709 63.9914 50.8288C62.9443 50.5425 61.931 50.1445 60.969 49.6417Z" fill="#050E12"/>
</svg>
