<svg width="139" height="169" viewBox="0 0 139 169" fill="none" xmlns="http://www.w3.org/2000/svg">
<path d="M138.679 0.20166H0.897827L4.21246 14.5391L69.802 13.9821L135.382 14.5391L138.679 0.20166Z" fill="#E2E2E2"/>
<path d="M6.62307 168.498C6.53228 168.512 6.43991 168.512 6.34912 168.498C6.17839 168.465 6.01627 168.397 5.8728 168.299C5.72934 168.201 5.60761 168.074 5.51514 167.927C5.42267 167.779 5.36144 167.615 5.33526 167.443C5.30909 167.271 5.31852 167.095 5.36296 166.927L39.3311 13.1328C39.3589 12.9623 39.4212 12.7994 39.5142 12.6538C39.6071 12.5083 39.7288 12.3833 39.8717 12.2864C40.0147 12.1895 40.1759 12.1229 40.3455 12.0904C40.5151 12.058 40.6895 12.0606 40.8581 12.0979C41.0267 12.1352 41.1859 12.2066 41.326 12.3075C41.466 12.4085 41.584 12.537 41.6727 12.6852C41.7614 12.8334 41.819 12.9981 41.8418 13.1693C41.8647 13.3404 41.8523 13.5145 41.8056 13.6807L7.86491 167.503C7.80091 167.784 7.6433 168.036 7.41776 168.217C7.19223 168.398 6.9121 168.497 6.62307 168.498Z" fill="#E2E2E2"/>
<path d="M134.286 168.498C133.997 168.498 133.716 168.4 133.49 168.219C133.264 168.038 133.107 167.785 133.044 167.503L99.0852 13.708C99.0385 13.5418 99.0262 13.3678 99.0491 13.1966C99.0719 13.0254 99.1294 12.8607 99.2181 12.7125C99.3068 12.5644 99.4248 12.4359 99.5649 12.3349C99.7049 12.2339 99.8642 12.1626 100.033 12.1252C100.201 12.0879 100.376 12.0854 100.545 12.1178C100.715 12.1502 100.876 12.2169 101.019 12.3138C101.162 12.4106 101.284 12.5357 101.377 12.6812C101.47 12.8267 101.532 12.9897 101.56 13.1601L135.519 166.927C135.596 167.248 135.543 167.586 135.372 167.869C135.201 168.151 134.926 168.354 134.606 168.434C134.504 168.474 134.396 168.496 134.286 168.498Z" fill="#E2E2E2"/>
<path d="M112.527 76.8566H28.3828C28.0582 76.8566 27.747 76.7277 27.5176 76.4982C27.2881 76.2687 27.1592 75.9574 27.1592 75.6329C27.1592 75.3083 27.2881 74.9971 27.5176 74.7676C27.747 74.5381 28.0582 74.4092 28.3828 74.4092H112.527C112.851 74.4092 113.163 74.5381 113.392 74.7676C113.622 74.9971 113.75 75.3083 113.75 75.6329C113.75 75.9574 113.622 76.2687 113.392 76.4982C113.163 76.7277 112.851 76.8566 112.527 76.8566Z" fill="#E2E2E2"/>
<path d="M46.0243 168.452H45.9695C45.8091 168.445 45.6518 168.406 45.5065 168.338C45.3612 168.27 45.2309 168.174 45.1231 168.055C45.0152 167.936 44.932 167.797 44.8782 167.646C44.8245 167.494 44.8013 167.334 44.8099 167.174L52.5896 13.3792C52.6066 13.0547 52.7518 12.7502 52.9932 12.5327C53.2347 12.3152 53.5526 12.2025 53.8771 12.2194C54.2017 12.2364 54.5061 12.3816 54.7236 12.6231C54.9411 12.8645 55.0538 13.1825 55.0368 13.5071L47.2479 167.292C47.2293 167.605 47.0926 167.899 46.8653 168.114C46.6381 168.33 46.3374 168.45 46.0243 168.452Z" fill="#E2E2E2"/>
<path d="M95.6981 168.452C95.386 168.45 95.0863 168.329 94.8606 168.113C94.6348 167.898 94.5 167.604 94.4837 167.292L86.6948 13.5068C86.6745 13.3403 86.6887 13.1714 86.7364 13.0105C86.7842 12.8497 86.8645 12.7004 86.9724 12.5719C87.0803 12.4434 87.2135 12.3385 87.3637 12.2637C87.5138 12.1889 87.6778 12.1457 87.8453 12.1369C88.0128 12.1281 88.1804 12.1539 88.3375 12.2126C88.4947 12.2713 88.6381 12.3617 88.7589 12.4782C88.8796 12.5947 88.9751 12.7348 89.0394 12.8897C89.1038 13.0447 89.1355 13.2112 89.1328 13.379L96.9217 167.173C96.9303 167.334 96.907 167.494 96.8533 167.645C96.7995 167.797 96.7163 167.936 96.6085 168.055C96.5007 168.173 96.3703 168.27 96.225 168.338C96.0797 168.406 95.9224 168.445 95.762 168.452H95.6981Z" fill="#E2E2E2"/>
<path d="M135.382 11.0321H3.14418C2.99126 11.046 2.83712 11.0279 2.69158 10.979C2.54604 10.93 2.41229 10.8512 2.29889 10.7477C2.18548 10.6442 2.0949 10.5181 2.03293 10.3776C1.97096 10.2371 1.93896 10.0852 1.93896 9.93164C1.93896 9.77807 1.97096 9.62618 2.03293 9.48568C2.0949 9.34517 2.18548 9.21915 2.29889 9.1156C2.41229 9.01206 2.54604 8.93328 2.69158 8.88432C2.83712 8.83536 2.99126 8.81728 3.14418 8.83123H135.382C135.535 8.81728 135.689 8.83536 135.835 8.88432C135.981 8.93328 136.114 9.01206 136.228 9.1156C136.341 9.21915 136.432 9.34517 136.494 9.48568C136.556 9.62618 136.588 9.77807 136.588 9.93164C136.588 10.0852 136.556 10.2371 136.494 10.3776C136.432 10.5181 136.341 10.6442 136.228 10.7477C136.114 10.8512 135.981 10.93 135.835 10.979C135.689 11.0279 135.535 11.046 135.382 11.0321Z" fill="#E2E2E2"/>
</svg>
