<svg width="118" height="244" viewBox="0 0 118 244" fill="none" xmlns="http://www.w3.org/2000/svg">
<path d="M54.6255 130.085C55.9711 154.101 58.8534 178.007 63.2545 201.654C63.4189 202.476 63.565 203.28 63.7111 204.047C63.7111 203.252 63.6106 202.467 63.5558 201.654H68.3862C69.9842 177.792 72.4588 134.35 72.4588 93.3833C72.4588 32.755 96.273 -40.8592 67.044 28.4173C54.8538 57.3205 52.8266 95.4472 54.6255 130.085Z" fill="#0D2A3E"/>
<path d="M1.00697 147.519C6.42178 149.683 19.4064 138.852 32.4001 110.707C32.4001 110.707 50.0781 165.5 59.3462 201.654H63.2544C63.4188 202.476 63.5649 203.28 63.711 204.047C63.711 203.252 63.6106 202.467 63.5558 201.654C62.2409 181.563 59.6385 153.884 54.6254 130.086C50.8816 112.351 45.7956 96.7532 38.8924 87.9681C15.0782 57.6585 -4.40784 145.355 1.00697 147.519Z" fill="#0D2A3E"/>
<path d="M106.016 93.3834C90.6116 110.25 77.1978 166.888 70.1393 201.654H76.2116C83.1018 185.353 90.8936 169.447 99.551 154.012C105.217 144.151 109.582 133.598 112.536 122.615C117.202 105.264 118.927 84.5526 114.882 83.3472C112.335 82.5983 108.801 90.3332 106.016 93.3834Z" fill="#0D2A3E"/>
<path d="M61.3915 195.901H83.8086C84.4818 195.9 85.1464 196.051 85.7529 196.343C86.3593 196.635 86.8919 197.061 87.3108 197.588C87.7297 198.115 88.024 198.729 88.1718 199.386C88.3196 200.043 88.317 200.725 88.1642 201.38L79.2613 240.338C79.0233 241.315 78.4632 242.183 77.6713 242.803C76.8795 243.423 75.902 243.757 74.8966 243.753H54.8901C53.8772 243.754 52.894 243.412 52.1011 242.781C51.3083 242.151 50.7527 241.27 50.5254 240.283L41.6224 201.326C41.4695 200.669 41.467 199.987 41.6153 199.329C41.7636 198.672 42.0587 198.056 42.4786 197.529C42.8986 197.002 43.4323 196.577 44.0399 196.285C44.6475 195.994 45.3133 195.844 45.9872 195.846L61.3915 195.901Z" fill="#CFCFD1"/>
<path d="M63.2545 187.427C63.2545 186.577 58.4424 102.151 60.7982 75.01C63.1541 47.8692 79.2433 1.56926 79.4076 1.10352L80.266 1.40486C80.1107 1.8706 64.0581 48.0427 61.7113 75.0922C59.3646 102.142 64.1129 186.504 64.1676 187.418L63.2545 187.427Z" fill="white"/>
<path d="M32.3515 93.7017L31.4737 93.9531L58.0173 186.653L58.8952 186.402L32.3515 93.7017Z" fill="white"/>
<path d="M109.659 93.6727L76.6985 184.29L77.5566 184.602L110.517 93.9848L109.659 93.6727Z" fill="white"/>
</svg>
