<svg width="311" height="358" viewBox="0 0 311 358" fill="none" xmlns="http://www.w3.org/2000/svg">
<path d="M64.6144 202.818C58.0733 202.268 51.494 203.242 45.3922 205.662C39.2905 208.082 33.8323 211.883 29.4455 216.766C25.0588 221.65 21.8629 227.483 20.1083 233.809C18.3537 240.135 18.0883 246.781 19.3327 253.227C21.7616 265.811 25.5967 277.519 31.7603 284.45C49.6848 304.614 40.4623 341.498 87.9903 354.347C100.418 357.708 231.35 356.813 242.554 355.023C253.758 353.233 274.148 335.079 290.721 292.925C307.295 250.771 318.499 172.837 304.61 142.819C290.721 112.802 263.392 89.9443 245.467 92.5927C227.543 95.241 214.111 140.08 214.111 153.988C214.111 167.896 213.663 207.749 205.144 211.338C199.537 213.758 119.265 207.448 64.6144 202.818Z" fill="#CFCFD1"/>
<path d="M228.638 325.992C217.279 329.645 84.7395 333.718 71.6453 330.184C61.2175 327.362 53.3829 323.444 47.3563 318.814C53.1364 333.426 62.2311 347.398 87.9628 354.347C100.39 357.708 231.323 356.813 242.527 355.023C253.731 353.233 274.121 335.079 290.694 292.925C306.527 252.725 269.966 312.677 228.638 325.992Z" fill="#ADADAD"/>
<path d="M95.6514 235.437C101.03 212.607 75.791 212.936 78.0281 226.826C80.2653 240.716 99.1395 233.556 114.179 237.647C155.36 248.862 168.756 250.204 195.62 245.09C231.186 238.305 231.615 211.484 237.441 189.968C241.029 176.718 261.118 109.396 240.819 98.5648C213.937 84.2273 186.05 220.598 99.6052 214.205C81.2789 212.908 95.6514 235.437 95.6514 235.437Z" fill="#ADADAD"/>
<path d="M143.234 268.085C115.101 268.085 85.9448 265.519 77.2154 258.039C57.6198 241.2 72.8872 207.036 73.0424 206.689L73.8734 207.064C73.7181 207.402 58.7338 240.953 77.8089 257.345C86.5292 264.834 119.812 268.55 162.729 266.797C197.647 265.373 237.532 259.948 247.942 251.044C267.756 234.113 272.285 161.156 268.03 135.413C263.163 105.761 241.239 94.8023 236.893 92.9119L237.258 92.0718C241.678 93.9987 263.985 105.149 268.934 135.258C273.189 161.156 268.542 234.615 248.508 251.738C237.916 260.779 197.793 266.258 162.693 267.674C156.474 267.929 149.909 268.085 143.234 268.085Z" fill="black"/>
<path d="M57.7477 293.902C56.0934 306.892 56.7113 320.072 59.5739 332.85L37.732 330.96C38.6627 322.16 38.7269 313.289 37.9238 304.477C37.0738 295.039 35.2376 285.716 32.4451 276.66L57.7477 293.902Z" fill="#E7BB9E"/>
<path d="M31.4133 339.078C30.0801 340.293 28.1078 341.818 17.616 345.06L16.8307 345.297C14.9314 345.873 12.9317 346.475 10.8224 347.124C8.93222 347.662 6.94162 348.21 4.88709 348.777L3.06085 349.261C2.72399 349.349 2.42132 349.536 2.19186 349.798C1.96239 350.06 1.81663 350.385 1.77335 350.731L1.52681 353.014L1.17982 355.991C1.07938 356.831 56.1315 357.361 64.2765 356.311C64.5191 356.277 64.7516 356.191 64.9584 356.06C65.1653 355.929 65.3417 355.755 65.4757 355.55C65.6098 355.345 65.6984 355.114 65.7357 354.872C65.773 354.629 65.758 354.382 65.6918 354.146C65.427 353.142 64.7239 348.74 64.6143 347.927C63.199 337.937 60.8158 326.138 59.7931 321.088C54.8713 321.334 47.9773 321.928 43.0464 322.184L38.1064 322.421C37.5951 332.722 33.2852 337.38 31.4133 339.078Z" fill="#0D2A3E"/>
<path d="M36.3715 328.494L29.377 340.274L13.1234 345.471C13.1234 345.471 24.0809 344.557 28.5917 342.402C34.1207 339.703 38.5582 335.191 41.1654 329.617C42.4011 327.341 43.0477 324.792 43.0464 322.202C42.0511 319.517 43.8043 317.59 42.809 316.376C41.5945 314.878 31.7876 316.896 31.678 316.933L36.3715 328.494Z" fill="#050E12"/>
<path d="M0.796265 358L66.888 356.795L62.6694 335.992L1.38066 347.717L0.796265 358Z" fill="#153547"/>
<path d="M65.6553 349.699L66.888 356.795L0.796265 358L1.52676 353.023L65.6553 349.699Z" fill="#050E12"/>
<path d="M37.0107 341.206L29.0392 341.014L29.0575 340.101L35.4036 340.247L31.9429 334.257L41.1746 332.375L35.8876 329.225L36.3533 328.439L43.6674 332.805L33.3674 334.905L37.0107 341.206Z" fill="white"/>
<path d="M140.869 166.216C111.649 173.266 37.7868 178.846 35.3123 186.389C34.7524 188.106 34.6208 189.933 34.9288 191.713C36.5359 200.927 28.9935 279.847 28.9935 279.847L25.131 288.55C25.131 288.55 30.8106 306.887 30.8197 307.116C42.3068 306.449 59.3182 308.997 70.8053 308.339L68.7964 294.568L69.4082 273.984L73.2707 220.963L70.9057 218.278L201.208 180.654L140.869 166.216Z" fill="#111111"/>
<path d="M164.154 166.216L71.0701 188.827L56.7706 212.662L69.2895 278.075L69.4082 274.012L73.2707 220.99L70.9057 218.306L201.208 180.681L164.154 166.216Z" fill="#111111"/>
<path d="M115.694 293.901C114.017 306.889 114.616 320.069 117.466 332.85L95.6239 330.96C97.5503 312.693 95.7422 294.225 90.3096 276.678L115.694 293.901Z" fill="#E7BB9E"/>
<path d="M89.3508 339.078C88.0176 340.293 86.0453 341.818 75.5627 345.06L74.7774 345.297C72.8781 345.873 70.8692 346.475 68.7599 347.124C66.8728 347.659 64.8944 348.21 62.8246 348.777L60.9984 349.261C60.6615 349.349 60.3588 349.536 60.1294 349.798C59.8999 350.06 59.7542 350.385 59.7109 350.731L59.51 353.014L59.1721 355.991C59.0717 356.831 114.124 357.361 122.26 356.311C122.502 356.276 122.735 356.191 122.942 356.06C123.149 355.929 123.326 355.755 123.461 355.55C123.596 355.346 123.685 355.114 123.724 354.872C123.762 354.63 123.749 354.383 123.684 354.146C123.41 353.142 122.716 348.74 122.598 347.927C121.182 337.937 118.808 326.138 117.776 321.088C112.855 321.334 105.96 321.928 101.039 322.184L96.0896 322.421C95.5326 332.722 91.2318 337.38 89.3508 339.078Z" fill="#0D2A3E"/>
<path d="M94.3181 328.494L87.3328 340.274L71.0701 345.471C71.0701 345.471 82.0275 344.557 86.5292 342.402C92.0582 339.703 96.4958 335.191 99.1029 329.617C100.337 327.34 100.986 324.792 100.993 322.202C99.9977 319.517 101.742 317.59 100.756 316.376C99.532 314.878 89.7251 316.896 89.6156 316.933L94.3181 328.494Z" fill="#050E12"/>
<path d="M58.7429 358L124.825 356.795L120.607 335.992L59.3182 347.717L58.7429 358Z" fill="#153547"/>
<path d="M123.593 349.699L124.825 356.795L58.7429 358L59.4643 353.023L123.593 349.699Z" fill="#050E12"/>
<path d="M94.9482 341.206L86.9767 341.014L87.0041 340.101L93.3503 340.247L89.8804 334.257L99.1212 332.375L93.8251 329.225L94.2908 328.439L101.614 332.805L91.3049 334.905L94.9482 341.206Z" fill="white"/>
<path d="M160.666 172.846C131.446 179.896 77.261 182.891 77.8089 201.448C77.8637 203.274 77.1149 204.991 77.4254 206.772C79.0325 215.986 82.1462 278.751 82.1462 278.751L78.2746 287.454C78.2746 287.454 83.9542 305.792 83.9634 306.02C95.4504 305.353 110.736 303.28 122.223 302.641L121.949 293.509L118.671 291.938L126.414 219.904L124.049 217.219C124.049 217.219 156.794 226.351 167.24 226.506C176.179 226.661 195.291 226.78 203.765 222.15C216.01 215.438 220.201 185.731 220.201 185.731L221.114 183.613L160.666 172.846Z" fill="#111111"/>
<path d="M104.353 298.614C104.207 295.116 100.883 212.653 105.029 202.955C109.248 193.064 194.953 193.905 198.606 193.95V194.864C173.951 194.59 109.193 195.567 105.887 203.311C101.824 212.826 105.248 297.728 105.285 298.577L104.353 298.614Z" fill="white"/>
<path d="M166.683 75.5246C156.109 85.3142 151.16 89.999 145.079 97.3413C143.983 98.6563 138.331 104.647 137.244 105.871L139.691 106.409C139.691 106.409 135.454 110.601 132.642 111.533L77.7725 121.432L78.6856 136.29C101.03 136.29 116.699 139.139 139.043 139.139C151.516 119.003 189.1 91.9076 201.573 71.7712C196.341 65.8262 185.384 59.7259 166.683 75.5246Z" fill="#050E12"/>
<path d="M74.6313 124.92C69.7095 124.747 64.1121 124.619 64.1121 124.619L52.8899 131.459C52.6194 131.624 52.4018 131.862 52.2625 132.147C52.1231 132.431 52.068 132.749 52.1035 133.064C52.139 133.379 52.2637 133.677 52.4628 133.923C52.662 134.169 52.9274 134.354 53.2277 134.454C53.5925 134.58 53.9795 134.63 54.3643 134.6C54.7492 134.57 55.1238 134.461 55.4649 134.28L64.6874 129.459L76.4758 130.098C76.9247 129.709 77.2457 129.194 77.3969 128.619C77.5481 128.045 77.5223 127.438 77.323 126.879C77.1237 126.319 76.7601 125.833 76.2798 125.483C75.7995 125.134 75.2249 124.937 74.6313 124.92Z" fill="#E7BB9E"/>
<path d="M78.0007 125.624C77.398 125.313 60.1765 124.92 60.1765 124.92L48.9634 131.76C48.6928 131.925 48.4747 132.163 48.3347 132.446C48.1947 132.73 48.1387 133.048 48.1733 133.363C48.2078 133.677 48.3314 133.976 48.5296 134.222C48.7278 134.469 48.9924 134.654 49.2921 134.756C49.659 134.879 50.047 134.928 50.433 134.898C50.8189 134.868 51.1949 134.761 51.5384 134.582L60.7609 129.76L72.5493 130.4L78.0007 125.624Z" fill="#E7BB9E"/>
<path d="M73.2068 124.71C72.6042 124.4 55.3827 124.007 55.3827 124.007L44.1696 130.847C43.899 131.011 43.6809 131.249 43.5409 131.533C43.4009 131.817 43.3449 132.135 43.3794 132.449C43.414 132.764 43.5376 133.062 43.7358 133.309C43.934 133.556 44.1986 133.741 44.4983 133.842C44.8651 133.966 45.2532 134.014 45.6392 133.985C46.0251 133.955 46.4011 133.847 46.7446 133.669L55.9671 128.847L67.7555 129.486L73.2068 124.71Z" fill="#E7BB9E"/>
<path d="M80.1282 134.427C79.5246 134.842 78.8998 135.226 78.2563 135.577C74.8202 137.424 70.9609 138.34 67.0615 138.235C62.7059 138.765 55.1909 139.148 54.6704 137.267C54.3873 136.208 56.378 134.463 58.0124 133.66C59.9574 132.746 61.7288 132.82 62.9707 132.5C63.2534 132.454 63.5233 132.349 63.7625 132.192C64.0017 132.035 64.2049 131.828 64.3586 131.587C64.3638 131.55 64.3638 131.513 64.3586 131.477C66.3546 130.308 68.6043 129.64 70.9148 129.532C74.8504 129.276 78.859 131.605 80.1282 134.427Z" fill="#E7BB9E"/>
<path d="M80.1374 122.884L55.0631 120.035C40.5262 127.258 38.7091 129.797 38.9922 130.829C39.1375 131.332 39.4624 131.764 39.9053 132.043C41.0193 132.683 42.6447 131.779 43.2291 131.459C45.5666 130.19 50.0227 128.171 56.1497 125.505L57.8664 126.646C58.9256 127.331 60.3683 128.254 61.9207 129.185C64.681 130.647 67.5189 131.958 70.4218 133.112C73.9008 134.619 75.5809 136.016 77.5989 135.642C78.4735 135.469 79.3091 135.138 80.0644 134.664C80.7292 134.217 81.3025 133.646 81.7536 132.984C82.8031 131.024 83.0581 128.735 82.4659 126.592C82.0294 125.172 81.2262 123.893 80.1374 122.884Z" fill="#E7BB9E"/>
<path d="M140.869 166.216C140.869 166.216 156.392 135.678 156.392 111.624C156.392 97.4782 164.336 83.1407 173.139 71.1502C183.238 57.3972 221.288 65.8718 221.288 65.8718L221.461 151.54L222 187.622L193.41 182.937L153.342 172.846L140.869 166.216Z" fill="#4F483F"/>
<path d="M171.495 130.5L191.2 139.066C204.667 124.961 215.136 108.272 221.972 90.0079L207.883 89.2773L171.495 130.5Z" fill="#111111"/>
<path d="M231.104 130.089C215.005 150.518 216.01 156.07 208.23 157.321C181.567 161.604 130.87 130.664 128.332 129.842L128.031 129.742C124.624 128.606 121.158 127.655 117.648 126.893H117.511C116.151 126.591 115 126.39 114.188 126.235L111.202 127.934C111.01 128.041 110.789 128.083 110.572 128.052C110.38 128.052 110.197 127.989 110.033 127.943C109.294 127.857 108.596 127.559 108.024 127.083C107.453 126.607 107.032 125.974 106.814 125.263C106.596 124.552 106.59 123.793 106.797 123.078C107.004 122.364 107.414 121.725 107.979 121.24L108.645 120.601C107.187 120.936 105.707 121.171 104.216 121.304C103.157 121.395 100.938 121.587 100.345 120.016C100.239 119.59 100.224 119.146 100.301 118.713C100.378 118.28 100.546 117.869 100.792 117.505C100.968 117.201 101.183 116.922 101.431 116.674C101.089 116.615 100.766 116.475 100.49 116.265C100.213 116.055 99.9914 115.782 99.8426 115.468C99.7192 115.036 99.6962 114.58 99.7753 114.137C99.8544 113.694 100.034 113.275 100.299 112.911C101.605 110.674 106.572 108.921 111.521 107.688C111.896 107.596 116.169 108.729 116.534 108.601L113.841 106.775C113.448 106.61 112.361 106.208 111.969 106.053C110.974 105.642 109.796 105.049 108.764 104.601C105.641 103.222 103.769 102.391 102.819 101.14C102.317 100.483 100.993 99.3867 101.705 98.0808C102.418 96.7749 103.376 94.8206 132.432 108.893C132.495 108.906 132.557 108.928 132.615 108.957L141.134 113.039C159.917 121.112 192.47 127.413 191.913 126.737C191.858 126.664 204.842 105.405 209.691 98.6013C215.416 90.5924 219.114 84.7752 225.123 84.5104C231.789 84.209 225.433 76.4558 226.145 77.3599C230.51 82.9579 230.574 89.2317 230.556 91.6335C230.51 100.537 237.569 121.852 231.104 130.089Z" fill="#E7BB9E"/>
<path d="M112.262 112.044L100.492 117.034L100.848 117.874L112.618 112.884L112.262 112.044Z" fill="#111111"/>
<path d="M230.556 145.34C230.556 145.34 224.529 146.947 222.383 145.806C205.354 136.673 197.866 140.235 191.2 125.961C191.2 125.961 211.289 77.835 219.507 65.5249C222.31 65.99 224.969 67.0929 227.278 68.7485C229.661 70.3661 231.686 72.4566 233.227 74.8901C234.768 77.3236 235.792 80.0481 236.235 82.8942C236.582 85.0768 236.382 94.766 236.235 98.1267C235.943 103.88 233.186 142.564 230.556 145.34Z" fill="#443D35"/>
<path d="M233.916 126.363C232.17 126.272 230.446 125.937 228.793 125.368C217.836 121.861 197.665 114.08 197.017 112.354C197.83 110.473 198.697 108.464 199.619 106.382C201.144 106.74 202.63 107.245 204.057 107.889C212.713 111.542 227.552 115.368 234.756 117.687C234.5 120.564 234.217 123.514 233.916 126.363Z" fill="white"/>
<path d="M212.321 7.69098C213.554 4.53126 216.229 0.978852 218.338 0.768813C220.448 0.558773 231.423 7.51747 231.012 10.0836C230.601 12.6497 228.273 20.2477 228.273 20.2477L221.297 23.5627L212.321 7.69098Z" fill="#D67B0D"/>
<path d="M177.22 13.8824C189.849 -13.7515 224.027 14.7956 224.027 14.7956C224.027 14.7956 231.332 26.4573 220.165 38.2652C208.997 50.0731 204.523 49.2238 204.523 49.2238L177.22 13.8824Z" fill="#F7910A"/>
<path d="M193.182 63.4336C188.452 64.1459 187.32 64.6573 188.297 68.6755C189.274 72.6936 195.693 73.1685 200.569 72.721C205.445 72.2735 210.988 72.2827 213.672 68.7942C215.964 65.808 214.923 64.4473 213.49 63.9998C212.056 63.5523 193.182 63.4336 193.182 63.4336Z" fill="white"/>
<path d="M211.627 45.2608C211.627 48.4114 211.189 52.4935 211.408 56.0824C211.645 59.8722 212.604 63.3333 213.06 66.5935C212.385 67.2601 207.682 70.1733 200.66 70.3468C196.286 70.4564 192.442 69.3331 191.465 68.2647C192.378 61.3699 194.424 52.1373 195.346 45.2334L211.627 45.2608Z" fill="#E7BB9E"/>
<path d="M195.282 45.6989C194.673 50.3868 194.049 55.0746 193.41 59.7624L205.728 61.2327C205.728 61.2327 211.499 57.5799 211.408 56.073C211.188 52.4841 211.59 48.4021 211.627 45.2515H195.638L195.282 45.6989Z" fill="#050E12"/>
<path d="M176.435 20.4483C175.649 25.5656 175.453 30.7562 175.851 35.9182C175.969 37.4067 176.472 41.6623 176.663 42.9591C177.33 47.5252 184.818 60.6937 188.927 61.7622C192.716 62.7576 195.127 61.7622 198.514 60.1823C200.798 59.2232 202.947 57.9707 204.906 56.4564C205.412 56.0269 205.888 55.5631 206.331 55.0683C210.641 50.2374 210.568 43.854 210.485 37.635C210.422 32.4023 210.321 25.3158 205.281 19.5808C204.19 18.2856 202.902 17.17 201.464 16.2749C191.913 10.5582 177.513 19.6904 176.435 20.4483Z" fill="#E7BB9E"/>
<path d="M205.774 32.3018C205.774 32.3018 210.34 28.9777 212.257 30.5211C214.175 32.0644 215.992 38.046 209.974 40.8404C203.957 43.6348 205.774 32.3018 205.774 32.3018Z" fill="#E7BB9E"/>
<path d="M208.924 40.0551L208.203 39.4889L210.029 37.1968C210.312 36.8406 210.732 36.174 210.412 35.6443C210.093 35.1146 209.052 34.7311 207.399 35.0416L207.235 34.1284C209.061 33.7905 210.613 34.1832 211.198 35.1603C211.402 35.584 211.468 36.0608 211.388 36.5242C211.308 36.9876 211.085 37.4143 210.75 37.7447L208.924 40.0551Z" fill="#050E12"/>
<path d="M175.412 35.9456L174.709 35.3611C175.594 34.4272 176.773 33.8266 178.049 33.6603C179.325 33.494 180.618 33.7721 181.713 34.4479L181.284 35.2515C180.376 34.6712 179.294 34.4233 178.224 34.5498C177.154 34.6764 176.16 35.1695 175.412 35.9456Z" fill="#050E12"/>
<path d="M197.008 35.0052C195.417 33.7533 193.476 33.0272 191.454 32.9273C189.431 32.8275 187.428 33.359 185.722 34.4482L185.21 33.6902C185.274 33.6445 191.529 29.5442 197.574 34.2838L197.008 35.0052Z" fill="#050E12"/>
<path d="M186.26 47.8539C185.137 47.8539 182.864 47.6804 182.206 46.2649C181.677 45.1417 182.307 43.644 184.133 41.6988L183.649 35.8908L184.562 35.8086L185.092 42.0367L184.945 42.1828C183.375 43.8175 182.699 45.1325 183.037 45.8357C183.521 46.8676 185.986 46.9407 186.799 46.8859L186.863 47.7991C186.772 47.8448 186.562 47.8539 186.26 47.8539Z" fill="#050E12"/>
<path d="M177.659 38.9322C177.841 40.0737 178.572 40.9047 179.302 40.7586C180.033 40.6125 180.471 39.6262 180.288 38.4938C180.106 37.3615 179.375 36.5213 178.645 36.6674C177.914 36.8135 177.476 37.7907 177.659 38.9322Z" fill="#050E12"/>
<path d="M188.525 37.3428C188.625 38.5665 189.347 39.5071 190.132 39.434C190.917 39.361 191.456 38.3199 191.356 37.0962C191.255 35.8725 190.525 34.9319 189.748 35.005C188.972 35.078 188.415 36.1282 188.525 37.3428Z" fill="#050E12"/>
<path d="M189.091 56.0272C187.046 56.0272 185.384 53.5341 185.302 53.4154C185.255 53.3401 185.23 53.2531 185.23 53.1643C185.23 53.0755 185.255 52.9885 185.302 52.9131C185.351 52.8398 185.42 52.782 185.501 52.7464C185.582 52.7108 185.671 52.699 185.758 52.7122C186.678 52.8298 187.613 52.7457 188.497 52.4657C189.203 52.2381 189.854 51.8699 190.413 51.3833C190.972 50.8968 191.426 50.3019 191.748 49.6347C191.788 49.5372 191.859 49.4557 191.949 49.4028C192.04 49.3499 192.146 49.3287 192.25 49.3425C192.355 49.3594 192.451 49.4125 192.521 49.4926C192.591 49.5726 192.631 49.6745 192.634 49.7808C192.634 49.9726 192.743 54.493 190.305 55.7441C189.93 55.9359 189.513 56.033 189.091 56.0272ZM186.671 53.6711C187.393 54.4747 188.653 55.4975 189.858 54.9222C190.917 54.3834 191.392 52.8127 191.575 51.4794C190.804 52.3086 189.841 52.9358 188.771 53.3058C188.097 53.5453 187.387 53.6688 186.671 53.6711Z" fill="#050E12"/>
<path d="M171.943 33.7268L182.58 30.147L185.502 19.7728L187.612 28.8045L197.912 28.284L202.733 29.115L204.687 31.4255L209.791 31.2337H212.531L204.148 11.5083L192.552 9.46266C188.592 8.74068 184.508 9.1889 180.799 10.7525C177.09 12.316 173.917 14.9271 171.669 18.266C171.187 18.9441 170.8 19.6845 170.518 20.4669C169.422 23.9006 171.943 33.7268 171.943 33.7268Z" fill="#D67B0D"/>
<path d="M165.688 174.015L163.241 171.175H153.151L151.744 174.17L165.688 174.015Z" fill="#050E12"/>
<path d="M152.776 174.015L150.329 171.175H140.239L138.833 174.17L152.776 174.015Z" fill="#050E12"/>
<path d="M140.239 174.015L137.783 171.175H127.702L126.296 174.17L140.239 174.015Z" fill="#ADADAD"/>
<path d="M54.2321 182.124L178.709 182.124C181.175 182.124 183.174 180.125 183.174 177.658V176.745C183.174 174.279 181.175 172.28 178.709 172.28L54.2321 172.28C51.7661 172.28 49.767 174.279 49.767 176.745V177.658C49.767 180.125 51.7661 182.124 54.2321 182.124Z" fill="#ADADAD"/>
<path d="M116.397 112.628L33.0569 112.975C32.529 112.978 32.0098 113.111 31.5448 113.361C31.0799 113.611 30.6832 113.971 30.3896 114.41C30.0959 114.848 29.9141 115.352 29.8602 115.878C29.8062 116.403 29.8817 116.933 30.0801 117.423L52.9081 173.32L146.786 173.019L121.42 115.66C120.945 114.739 120.224 113.969 119.337 113.433C118.451 112.898 117.433 112.619 116.397 112.628Z" fill="#ADADAD"/>
<path d="M54.6887 171.905L54.5791 171.622L33.5773 120.29C33.3636 119.774 33.281 119.213 33.3367 118.657C33.3925 118.101 33.5849 117.567 33.8969 117.103C34.2107 116.635 34.6346 116.251 35.1313 115.986C35.6281 115.72 36.1825 115.58 36.7459 115.578L114.361 115.24C115.392 115.238 116.403 115.519 117.285 116.054C118.166 116.589 118.882 117.356 119.356 118.272L142.394 171.622H141.691L54.6887 171.905ZM114.297 116.153L36.7276 116.491C36.3132 116.49 35.9049 116.592 35.5398 116.788C35.1747 116.984 34.8643 117.268 34.6365 117.615C34.4072 117.953 34.2654 118.342 34.2239 118.749C34.1825 119.155 34.2427 119.566 34.3991 119.943L55.3005 170.992L140.951 170.718L118.47 118.665C118.073 117.905 117.475 117.268 116.74 116.825C116.006 116.382 115.164 116.15 114.306 116.153H114.297Z" fill="white"/>
<path d="M81.4249 142.472C81.4249 141.457 81.7261 140.464 82.2904 139.62C82.8547 138.776 83.6567 138.118 84.5949 137.73C85.5332 137.341 86.5655 137.24 87.5612 137.439C88.5569 137.638 89.4713 138.128 90.1886 138.846C90.9059 139.565 91.3939 140.48 91.5909 141.476C91.7879 142.473 91.685 143.505 91.2952 144.442C90.9053 145.38 90.2462 146.181 89.4011 146.744C88.556 147.307 87.5629 147.606 86.5475 147.604C85.1881 147.602 83.8852 147.06 82.9247 146.098C81.9643 145.136 81.4249 143.832 81.4249 142.472Z" fill="#F7910A"/>
</svg>
