<svg width="36" height="26" viewBox="0 0 36 26" fill="none" xmlns="http://www.w3.org/2000/svg">
<path d="M17.7381 13.5995C17.7381 14.7185 17.3905 15.8489 16.6954 16.9908C16.0004 18.1098 14.9577 19.1603 13.5676 20.1423C12.1774 21.1243 10.4744 21.935 8.4587 22.5744C8.55138 23.1454 8.71357 23.6478 8.94526 24.0817C9.03794 24.2644 9.20012 24.4585 9.43182 24.664C9.68668 24.8924 9.81411 25.0294 9.81411 25.0751C9.81411 25.2806 9.6751 25.4862 9.39706 25.6917C9.1422 25.8972 8.87575 26 8.59772 26C8.18067 26 7.80996 25.7374 7.48558 25.2121C7.30023 24.8924 7.14963 24.5156 7.03378 24.0817C6.91793 23.6706 6.84842 23.3052 6.82525 22.9855C6.77892 22.9855 6.69782 22.9855 6.58198 22.9855C6.46613 23.0083 6.29236 23.0198 6.06066 23.0198C4.32296 23.0198 2.95596 22.289 1.95967 20.8274C0.986558 19.343 0.5 17.4589 0.5 15.1752C0.5 12.2064 1.28776 9.38603 2.86328 6.7141C4.46197 4.01932 6.59356 1.91831 9.25805 0.411065C9.4434 0.274043 9.65193 0.171277 9.88362 0.102765C10.1385 0.0342549 10.3354 0 10.4744 0C10.7061 0 10.9262 0.0799294 11.1348 0.239788C11.3433 0.37681 11.4476 0.570926 11.4476 0.822134C11.4476 1.25604 11.1464 1.64427 10.544 1.98682C7.53192 3.6996 5.37717 5.62933 4.07968 7.77602C2.80536 9.9227 2.1682 12.4234 2.1682 15.278C2.1682 16.9451 2.52733 18.3724 3.24558 19.5599C3.96383 20.7246 5.15706 21.307 6.82525 21.307C7.03378 19.0461 7.50875 17.0935 8.25018 15.4493C9.01477 13.805 9.94154 12.5604 11.0305 11.7154C12.1426 10.8704 13.3127 10.448 14.5407 10.448C15.5833 10.448 16.3711 10.7448 16.904 11.3386C17.46 11.9324 17.7381 12.686 17.7381 13.5995ZM16.1741 13.9078C16.1741 12.6746 15.5949 12.058 14.4364 12.058C12.9536 12.058 11.6677 12.8458 10.5787 14.4216C9.48974 15.9745 8.77149 18.1897 8.42395 21.0672C9.81411 20.7246 11.1 20.1537 12.2817 19.3544C13.4633 18.5323 14.4017 17.6302 15.0967 16.6482C15.815 15.6662 16.1741 14.7527 16.1741 13.9078Z" fill="#F7910A"/>
<path d="M35.5 13.5995C35.5 14.7185 35.1525 15.8489 34.4574 16.9908C33.7623 18.1098 32.7197 19.1603 31.3295 20.1423C29.9393 21.1243 28.2364 21.935 26.2206 22.5744C26.3133 23.1454 26.4755 23.6478 26.7072 24.0817C26.7999 24.2644 26.9621 24.4585 27.1938 24.664C27.4486 24.8924 27.5761 25.0294 27.5761 25.0751C27.5761 25.2806 27.437 25.4862 27.159 25.6917C26.9041 25.8972 26.6377 26 26.3597 26C25.9426 26 25.5719 25.7374 25.2475 25.2121C25.0622 24.8924 24.9116 24.5156 24.7957 24.0817C24.6799 23.6706 24.6104 23.3052 24.5872 22.9855C24.5409 22.9855 24.4598 22.9855 24.3439 22.9855C24.2281 23.0083 24.0543 23.0198 23.8226 23.0198C22.0849 23.0198 20.7179 22.289 19.7216 20.8274C18.7485 19.343 18.2619 17.4589 18.2619 15.1752C18.2619 12.2064 19.0497 9.38603 20.6252 6.7141C22.2239 4.01932 24.3555 1.91831 27.02 0.411065C27.2053 0.274043 27.4139 0.171277 27.6456 0.102765C27.9004 0.0342549 28.0974 0 28.2364 0C28.4681 0 28.6882 0.0799294 28.8967 0.239788C29.1052 0.37681 29.2095 0.570926 29.2095 0.822134C29.2095 1.25604 28.9083 1.64427 28.3059 1.98682C25.2939 3.6996 23.1391 5.62933 21.8416 7.77602C20.5673 9.9227 19.9301 12.4234 19.9301 15.278C19.9301 16.9451 20.2893 18.3724 21.0075 19.5599C21.7258 20.7246 22.919 21.307 24.5872 21.307C24.7957 19.0461 25.2707 17.0935 26.0121 15.4493C26.7767 13.805 27.7035 12.5604 28.7924 11.7154C29.9046 10.8704 31.0746 10.448 32.3026 10.448C33.3452 10.448 34.133 10.7448 34.6659 11.3386C35.222 11.9324 35.5 12.686 35.5 13.5995ZM33.9361 13.9078C33.9361 12.6746 33.3568 12.058 32.1984 12.058C30.7155 12.058 29.4296 12.8458 28.3406 14.4216C27.2517 15.9745 26.5334 18.1897 26.1859 21.0672C27.5761 20.7246 28.862 20.1537 30.0436 19.3544C31.2252 18.5323 32.1636 17.6302 32.8587 16.6482C33.5769 15.6662 33.9361 14.7527 33.9361 13.9078Z" fill="#F7910A"/>
</svg>
