<svg xmlns="http://www.w3.org/2000/svg" width="64" height="64" viewBox="0 0 64 64" fill="none">
  <path fill-rule="evenodd" clip-rule="evenodd" d="M25.1337 24.4294H38.8586C41.9145 24.4294 44.401 26.9122 44.401 29.9687V34.0321C44.401 37.0884 41.9144 39.5709 38.8586 39.5709H25.1337C22.0812 39.5709 19.5994 37.0837 19.5994 34.0321V29.9687C19.5992 26.9169 22.081 24.4294 25.1337 24.4294ZM34.0994 32.0001C34.0994 33.8974 35.6451 35.4401 37.542 35.4401C39.4397 35.4401 40.9766 33.8964 40.9766 32.0001C40.9766 30.1038 39.4396 28.5601 37.542 28.5601C35.6454 28.5601 34.0994 30.1028 34.0994 32.0001ZM26.4584 28.5601C24.5617 28.5601 23.0157 30.1028 23.0157 32.0001C23.0157 33.8976 24.5615 35.4401 26.4584 35.4401C28.3551 35.4401 29.9009 33.8974 29.9009 32.0001C29.9009 30.1028 28.355 28.5601 26.4584 28.5601Z" fill="#F7910A"/>
  <path fill-rule="evenodd" clip-rule="evenodd" d="M40.0954 32C40.0954 33.4118 38.9542 34.56 37.5419 34.56C36.1295 34.56 34.9804 33.4116 34.9804 32C34.9804 30.5886 36.1294 29.4404 37.5419 29.4404C38.9542 29.4404 40.0954 30.5886 40.0954 32ZM33.8792 32C33.8792 34.0182 35.523 35.66 37.5419 35.66C39.5607 35.66 41.1965 34.0182 41.1965 32C41.1965 29.982 39.5607 28.34 37.5419 28.34C35.5231 28.34 33.8792 29.982 33.8792 32ZM44.1809 29.9686C44.1809 27.0355 41.795 24.6495 38.8585 24.6495H25.1337C22.2052 24.6495 19.8194 27.0355 19.8194 29.9686V34.032C19.8194 36.9648 22.2052 39.3509 25.1337 39.3509H38.8586C41.795 39.3509 44.181 36.9648 44.181 34.032L44.1809 29.9686ZM25.1337 23.5495C21.5989 23.5495 18.7181 26.429 18.7181 29.9686V34.032C18.7181 37.5714 21.5987 40.4509 25.1337 40.4509H38.8586C42.4015 40.4509 45.2821 37.5714 45.2821 34.032V29.9686C45.2821 26.429 42.4015 23.5495 38.8586 23.5495H25.1337ZM57.5706 46.7625C56.9801 47.7778 55.6795 48.1265 54.666 47.5409C53.6526 46.9545 53.3015 45.6516 53.884 44.6364C54.283 43.9552 54.9931 43.5737 55.7352 43.5737C56.0944 43.5737 56.4534 43.6654 56.7885 43.8584C57.81 44.4444 58.1531 45.7472 57.5706 46.7625ZM34.1267 59.3989C34.1267 60.5711 33.1691 61.5246 31.9962 61.5246C30.8312 61.5246 29.8736 60.5711 29.8736 59.3989C29.8736 58.2265 30.8311 57.2728 31.9962 57.2728C33.1691 57.2728 34.1267 58.2266 34.1267 59.3989ZM10.3236 46.2497C10.18 46.7984 9.82887 47.2569 9.33424 47.5409C8.32087 48.1269 7.02012 47.7779 6.42962 46.7625C5.84712 45.7472 6.19025 44.4444 7.21162 43.8584C7.54675 43.6654 7.90587 43.5737 8.265 43.5737C9.00712 43.5737 9.71725 43.9552 10.1162 44.6364C10.3955 45.1283 10.4752 45.7011 10.3236 46.2497ZM57.3392 42.9055C58.8794 43.7951 59.4139 45.7723 58.5202 47.3126C57.9217 48.3463 56.8365 48.925 55.7194 48.925C55.1767 48.925 54.6181 48.786 54.1155 48.4933C52.735 47.6979 52.1685 46.0321 52.7031 44.5868L46.4711 40.99C43.4709 45.8104 38.2202 48.8415 32.5467 49.026V56.2204C34.0709 56.4825 35.2279 57.8073 35.2279 59.3989C35.2279 61.1777 33.7756 62.625 31.9961 62.625C30.2167 62.625 28.7724 61.1777 28.7724 59.3989C28.7724 57.8074 29.9294 56.4826 31.4455 56.2204V49.026C25.78 48.8415 20.5295 45.8105 17.5291 40.99L11.2971 44.5864C11.5285 45.207 11.5604 45.8819 11.3849 46.5345C11.1614 47.3667 10.6347 48.0625 9.88475 48.4933C9.382 48.786 8.82337 48.925 8.28087 48.925C7.16375 48.925 6.0785 48.3465 5.48 47.3126C4.58625 45.7723 5.12087 43.7951 6.66099 42.9055C7.40312 42.4747 8.27287 42.3604 9.10275 42.5832C9.757 42.7581 10.3236 43.1244 10.7465 43.6336L17.4494 39.767C17.7126 39.6149 18.0479 39.705 18.1995 39.968C21.0402 44.8822 26.3306 47.9351 31.9961 47.9351C37.6696 47.9351 42.96 44.8822 45.8007 39.968C45.9524 39.705 46.2875 39.6149 46.5509 39.767L53.2536 43.634C54.2351 42.4504 55.9587 42.1097 57.3392 42.9055ZM26.4584 34.56C25.046 34.56 23.8969 33.4116 23.8969 32C23.8969 30.5886 25.0459 29.4404 26.4584 29.4404C27.8707 29.4404 29.0197 30.5888 29.0197 32C29.0197 33.4116 27.8707 34.56 26.4584 34.56ZM26.4584 28.34C28.4772 28.34 30.121 29.982 30.121 32C30.121 34.0182 28.4772 35.66 26.4584 35.66C24.4395 35.66 22.7957 34.0182 22.7957 32C22.7957 29.982 24.4395 28.34 26.4584 28.34ZM6.42962 17.2377C6.71687 16.7459 7.17175 16.394 7.72237 16.2471C8.273 16.1 8.83949 16.1755 9.33424 16.4594C9.82887 16.7434 10.1801 17.2019 10.3236 17.7505C10.4752 18.2991 10.3955 18.8719 10.1161 19.3635C9.52562 20.3787 8.225 20.7275 7.21162 20.1419C6.19025 19.5556 5.84712 18.253 6.42962 17.2377ZM29.8735 4.6015C29.8735 3.42913 30.831 2.47537 31.9961 2.47537C33.1691 2.47537 34.1266 3.42913 34.1266 4.6015C34.1266 5.77375 33.169 6.72725 31.9961 6.72725C30.8311 6.72725 29.8735 5.77375 29.8735 4.6015ZM54.6661 16.4595C55.0012 16.2665 55.3604 16.1752 55.7274 16.1752C56.4615 16.1752 57.1796 16.5565 57.5706 17.2379C58.1531 18.2531 57.81 19.5556 56.7886 20.142C55.7752 20.7283 54.4745 20.3791 53.8841 19.3636C53.3015 18.3484 53.6527 17.0457 54.6661 16.4595ZM6.66099 21.0947C5.12099 20.2052 4.58637 18.2284 5.48 16.6876C5.91087 15.9415 6.60512 15.4075 7.435 15.1847C8.27287 14.9615 9.13462 15.0759 9.88475 15.5068C10.6347 15.9379 11.1614 16.6336 11.3849 17.4657C11.5604 18.1181 11.5285 18.793 11.2971 19.414L17.5291 23.0104C20.5295 18.1896 25.78 15.1589 31.4455 14.9741V7.77987C29.9294 7.51775 28.7724 6.19263 28.7724 4.6015C28.7724 2.82263 30.2167 1.375 31.9961 1.375C33.7756 1.375 35.2279 2.82263 35.2279 4.6015C35.2279 6.19263 34.0707 7.51775 32.5467 7.77987V14.974C38.2202 15.1587 43.4707 18.1895 46.4711 23.0103L52.7031 19.4135C52.1685 17.9681 52.735 16.3024 54.1155 15.5066C55.6555 14.6174 57.6345 15.1469 58.5202 16.6876C59.414 18.2281 58.8794 20.2052 57.3392 21.0947C56.8365 21.3871 56.278 21.5261 55.7354 21.5261C54.7937 21.5261 53.8761 21.1138 53.2537 20.3656L46.551 24.2332C46.4632 24.2834 46.3675 24.3071 46.2796 24.3071C46.0881 24.3071 45.9046 24.2086 45.8009 24.0321C42.9601 19.1179 37.6697 16.0651 31.9962 16.0651C26.3307 16.0651 21.0404 19.118 18.1996 24.0321C18.048 24.2952 17.7129 24.385 17.4495 24.2332L10.7466 20.3666C10.3237 20.8756 9.75712 21.2423 9.10287 21.4171C8.8315 21.4914 8.54437 21.5284 8.265 21.5284C7.70637 21.5284 7.15574 21.3819 6.66099 21.0947Z" fill="#0D2A3E"/>
</svg>