<svg width="360" height="240" viewBox="0 0 360 240" fill="none" xmlns="http://www.w3.org/2000/svg">
<g clip-path="url(#clip0_322_1446)">
<path d="M47.2046 88.3873C47.102 88.144 46.9824 87.9139 46.8547 87.6906C48.9768 86.1032 50.8154 84.2269 52.3348 82.1399C52.5597 82.265 52.7912 82.3817 53.0354 82.4812C56.3138 83.8157 60.0524 82.2395 61.3857 78.9606C62.7191 75.6818 61.1424 71.942 57.864 70.6075C57.6198 70.508 57.3724 70.4296 57.1243 70.3621C57.493 67.8068 57.4856 65.1793 57.0741 62.5604C57.3214 62.4897 57.5677 62.4084 57.8107 62.3059C61.0717 60.9311 62.6004 57.172 61.2252 53.9099C59.8498 50.6477 56.0914 49.1179 52.8303 50.4927C52.5872 50.5951 52.3572 50.7147 52.1339 50.8425C50.5462 48.7195 48.6703 46.8798 46.5835 45.3597C46.7083 45.1349 46.8249 44.9032 46.9242 44.6589C48.2575 41.3799 46.6808 37.6401 43.4025 36.3057C40.1242 34.9711 36.3855 36.5473 35.0522 39.8262C34.9528 40.0705 34.8747 40.3176 34.8073 40.566C32.2524 40.1967 29.6254 40.2033 27.0073 40.6141C26.9366 40.3668 26.8554 40.1206 26.7529 39.8774C25.3777 36.6152 21.6191 35.0852 18.358 36.4602C15.097 37.835 13.5684 41.5941 14.9437 44.8562C15.0463 45.0995 15.1659 45.3296 15.2936 45.5529C13.1716 47.1403 11.3327 49.0164 9.81348 51.1036C9.58856 50.9785 9.35709 50.8619 9.11289 50.7623C5.83447 49.4278 2.09584 51.0039 0.762466 54.2829C-0.570911 57.5617 1.00574 61.3015 4.28417 62.636C4.5285 62.7355 4.77571 62.8139 5.02397 62.8814C4.65532 65.4367 4.66266 68.0642 5.0742 70.683C4.82686 70.7537 4.58056 70.835 4.33755 70.9374C1.0763 72.3122 -0.452354 76.0713 0.92299 79.3334C2.29833 82.5955 6.05676 84.1254 9.31788 82.7505C9.56089 82.6481 9.79092 82.5285 10.0143 82.4008C11.6019 84.5238 13.4779 86.3634 15.5648 87.8835C15.44 88.1083 15.3234 88.3402 15.2241 88.5844C13.8907 91.8632 15.4675 95.6031 18.7458 96.9376C22.0242 98.2721 25.7629 96.6958 27.0962 93.417C27.1956 93.1727 27.2737 92.9256 27.3411 92.6772C29.8961 93.0468 32.523 93.0401 35.1411 92.6291C35.2118 92.8764 35.293 93.1227 35.3955 93.366C36.7707 96.6282 40.5293 98.158 43.7903 96.7832C47.0513 95.4084 48.5799 91.6493 47.2046 88.3873ZM20.1087 71.2447C17.5546 65.1867 20.3934 58.2057 26.4494 55.6526C32.5054 53.0994 39.4853 55.9408 42.0393 61.9987C44.5934 68.0566 41.7546 75.0376 35.6986 77.5908C29.6426 80.1441 22.6627 77.3027 20.1087 71.2447Z" fill="#FFF3E2"/>
<path d="M86.9253 55.9724C86.8558 55.7982 86.7739 55.6332 86.6863 55.4729C88.2147 54.3749 89.546 53.0678 90.6533 51.6067C90.8113 51.6987 90.974 51.7846 91.146 51.8587C93.4555 52.851 96.1317 51.783 97.1233 49.4732C98.1149 47.1633 97.0464 44.4863 94.7371 43.4939C94.565 43.42 94.3904 43.3609 94.2152 43.3095C94.512 41.5002 94.5427 39.6345 94.2863 37.7695C94.463 37.7227 94.639 37.6684 94.8129 37.5989C97.1472 36.6673 98.2839 34.0192 97.3521 31.6841C96.4202 29.349 93.7725 28.2113 91.4382 29.143C91.2641 29.2125 91.0992 29.2942 90.9389 29.3818C89.8407 27.8526 88.5338 26.5208 87.0729 25.4129C87.1647 25.255 87.2506 25.092 87.3243 24.9199C88.316 22.61 87.2476 19.933 84.9381 18.9406C82.6286 17.9482 79.9525 19.0162 78.9609 21.3261C78.8871 21.4981 78.8282 21.6726 78.7769 21.848C76.9679 21.5509 75.1026 21.5196 73.2381 21.7755C73.1912 21.599 73.1369 21.423 73.0674 21.2488C72.1355 18.9137 69.4878 17.776 67.1535 18.7076C64.8192 19.6391 63.6824 22.2872 64.6143 24.6223C64.6838 24.7965 64.7655 24.9615 64.8533 25.1217C63.3249 26.2198 61.9935 27.5267 60.8862 28.988C60.7281 28.896 60.5655 28.81 60.3935 28.7362C58.084 27.7438 55.4078 28.8117 54.4161 31.1216C53.4245 33.4315 54.4929 36.1085 56.8024 37.1009C56.9744 37.1749 57.1489 37.2339 57.3242 37.2851C57.0274 39.0945 56.9967 40.9602 57.2531 42.8253C57.0765 42.8722 56.9006 42.9265 56.7266 42.9958C54.3923 43.9274 53.2555 46.5755 54.1874 48.9106C55.1194 51.2457 57.7671 52.3834 60.1013 51.4518C60.2752 51.3823 60.4403 51.3006 60.6005 51.213C61.6989 52.7422 63.0057 54.074 64.4666 55.1819C64.375 55.3398 64.2889 55.5029 64.2151 55.6749C63.2235 57.9848 64.2918 60.6618 66.6013 61.6542C68.9108 62.6466 71.587 61.5785 72.5786 59.2688C72.6525 59.0966 72.7114 58.9223 72.7626 58.7468C74.5717 59.0441 76.437 59.0753 78.3015 58.8193C78.3483 58.996 78.4026 59.1718 78.4721 59.346C79.4041 61.6811 82.0518 62.8188 84.3861 61.8871C86.7203 60.9556 87.8572 58.3074 86.9253 55.9724ZM67.9207 43.4298C66.1901 39.0935 68.3013 34.1756 72.6361 32.4455C76.971 30.7156 81.8881 32.8285 83.6186 37.1649C85.3493 41.5011 83.2381 46.4192 78.9032 48.1491C74.5684 49.8791 69.6513 47.7662 67.9207 43.4298Z" fill="#FFF3E2"/>
<path d="M47.9302 23.9071C47.8418 23.811 47.7478 23.7238 47.6511 23.6412C48.3745 22.5482 48.9177 21.368 49.2772 20.1429C49.4027 20.1637 49.5301 20.1794 49.6603 20.185C51.4093 20.2598 52.8872 18.9024 52.9613 17.1534C53.0354 15.4045 51.6776 13.926 49.9286 13.8513C49.7983 13.8456 49.6701 13.8505 49.5433 13.8603C49.2889 12.609 48.8473 11.3869 48.219 10.2362C48.3223 10.1621 48.4236 10.0831 48.5196 9.99488C49.8086 8.81101 49.8936 6.80577 48.7093 5.51619C47.5251 4.22662 45.52 4.14098 44.2308 5.32485C44.1346 5.41311 44.0474 5.50714 43.9648 5.6038C42.8716 4.88 41.6914 4.33626 40.4662 3.97652C40.4869 3.85101 40.5025 3.72367 40.5079 3.59344C40.582 1.84446 39.2242 0.366029 37.4752 0.291275C35.7263 0.216521 34.2484 1.5739 34.1743 3.32288C34.1687 3.45324 34.1736 3.58124 34.1836 3.70819C32.9324 3.96223 31.7104 4.40341 30.5598 5.03121C30.4857 4.92787 30.4068 4.82675 30.3185 4.73062C29.1341 3.44105 27.1291 3.35541 25.84 4.53941C24.5509 5.72327 24.4659 7.72852 25.6502 9.01796C25.7384 9.11409 25.8325 9.20131 25.9293 9.28393C25.2059 10.3769 24.6625 11.5571 24.3032 12.7823C24.1775 12.7616 24.0503 12.7458 23.9201 12.7402C22.1711 12.6654 20.6932 14.0228 20.6191 15.7718C20.545 17.5208 21.9028 18.9992 23.6518 19.074C23.7821 19.0796 23.9103 19.0748 24.0371 19.0649C24.2915 20.3162 24.7331 21.5384 25.3614 22.6892C25.2581 22.7633 25.1569 22.8422 25.0608 22.9305C23.7718 24.1144 23.6868 26.1196 24.871 27.4092C26.0553 28.6987 28.0604 28.7844 29.3496 27.6005C29.4456 27.5123 29.5329 27.4182 29.6156 27.3216C30.7088 28.0454 31.889 28.5891 33.1142 28.9488C33.0936 29.0744 33.0779 29.2017 33.0725 29.3321C32.9984 31.081 34.3562 32.5595 36.1051 32.6342C37.8541 32.709 39.332 31.3516 39.4061 29.6026C39.4116 29.4723 39.4068 29.3443 39.3968 29.2173C40.6481 28.9634 41.8701 28.5222 43.0206 27.8943C43.0947 27.9976 43.1736 28.0988 43.2619 28.195C44.4461 29.4846 46.4512 29.5702 47.7404 28.3862C49.0295 27.2018 49.1145 25.1967 47.9302 23.9071ZM32.4554 20.4435C30.2561 18.0488 30.4139 14.325 32.8078 12.1263C35.2018 9.92773 38.9256 10.0868 41.1249 12.4816C43.3243 14.8763 43.1665 18.6001 40.7725 20.7988C38.3786 22.9974 34.6548 22.8383 32.4554 20.4435Z" fill="#FFF3E2"/>
<path d="M338.327 170.773H283.367C283.207 170.773 283.078 170.644 283.078 170.485C283.078 170.326 283.208 170.196 283.367 170.196H338.039V140.67C338.039 140.511 338.168 140.382 338.327 140.382C338.487 140.382 338.616 140.511 338.616 140.67V170.485C338.616 170.644 338.487 170.773 338.327 170.773Z" fill="#F7910A"/>
<path d="M338.342 114.967C340.504 114.961 342.251 113.203 342.245 111.04C342.238 108.877 340.481 107.129 338.319 107.136C336.157 107.142 334.41 108.9 334.416 111.063C334.422 113.226 336.18 114.974 338.342 114.967Z" fill="white"/>
<path d="M338.327 115.26C336.01 115.26 334.125 113.374 334.125 111.056C334.125 108.738 336.01 106.852 338.327 106.852C340.645 106.852 342.53 108.738 342.53 111.056C342.53 113.374 340.645 115.26 338.327 115.26ZM338.327 107.428C336.328 107.428 334.701 109.056 334.701 111.056C334.701 113.056 336.328 114.683 338.327 114.683C340.327 114.683 341.953 113.056 341.953 111.056C341.953 109.056 340.327 107.428 338.327 107.428Z" fill="black"/>
<path d="M338.342 126.395C340.504 126.389 342.251 124.631 342.245 122.468C342.239 120.305 340.481 118.557 338.319 118.564C336.158 118.57 334.41 120.328 334.416 122.491C334.423 124.654 336.18 126.402 338.342 126.395Z" fill="white"/>
<path d="M338.327 126.688C336.01 126.688 334.125 124.802 334.125 122.484C334.125 120.166 336.01 118.28 338.327 118.28C340.645 118.28 342.53 120.166 342.53 122.484C342.53 124.802 340.645 126.688 338.327 126.688ZM338.327 118.856C336.328 118.856 334.701 120.484 334.701 122.484C334.701 124.484 336.328 126.112 338.327 126.112C340.327 126.112 341.953 124.484 341.953 122.484C341.953 120.484 340.327 118.856 338.327 118.856Z" fill="black"/>
<path d="M338.342 137.824C340.504 137.817 342.251 136.059 342.245 133.896C342.239 131.734 340.481 129.986 338.319 129.992C336.158 129.998 334.41 131.756 334.417 133.919C334.423 136.082 336.18 137.83 338.342 137.824Z" fill="white"/>
<path d="M338.327 138.117C336.01 138.117 334.125 136.23 334.125 133.912C334.125 131.594 336.01 129.708 338.327 129.708C340.645 129.708 342.53 131.594 342.53 133.912C342.53 136.23 340.645 138.117 338.327 138.117ZM338.327 130.285C336.328 130.285 334.701 131.912 334.701 133.912C334.701 135.912 336.328 137.54 338.327 137.54C340.327 137.54 341.953 135.912 341.953 133.912C341.953 131.912 340.327 130.285 338.327 130.285Z" fill="black"/>
<path d="M338.327 105.479C338.168 105.479 338.039 105.349 338.039 105.19V71.8543C338.039 71.695 338.168 71.5659 338.327 71.5659C338.487 71.5659 338.616 71.6951 338.616 71.8543V105.19C338.616 105.349 338.487 105.479 338.327 105.479Z" fill="#F7910A"/>
<path d="M310.778 240H252.294C252.135 240 252.006 239.871 252.006 239.712C252.006 239.553 252.135 239.423 252.294 239.423H310.49V233.624C310.49 233.465 310.619 233.335 310.778 233.335H359.423C359.582 233.335 359.711 233.465 359.711 233.624C359.711 233.783 359.582 233.912 359.423 233.912H311.067V239.712C311.067 239.871 310.938 240 310.778 240Z" fill="black"/>
<path d="M333.604 220.005C333.604 220.005 324.969 201.078 329.922 176.542C329.922 176.542 343.305 187.756 338.48 220.005H333.604Z" fill="white"/>
<path d="M338.48 220.294H333.604C333.491 220.294 333.388 220.228 333.341 220.125C333.254 219.935 324.724 200.831 329.639 176.484C329.659 176.385 329.73 176.303 329.826 176.269C329.922 176.236 330.029 176.255 330.107 176.32C330.246 176.437 333.54 179.249 336.278 186.072C338.793 192.341 341.267 203.325 338.765 220.048C338.744 220.189 338.623 220.294 338.48 220.294ZM333.792 219.717H338.232C340.649 203.289 338.227 192.5 335.761 186.332C333.604 180.938 331.041 178.049 330.103 177.11C325.683 199.81 332.971 217.795 333.792 219.717Z" fill="black"/>
<path d="M335.716 218.32C335.71 218.32 335.705 218.32 335.699 218.32C335.54 218.311 335.418 218.175 335.427 218.016C336.088 205.92 330.633 180.096 330.578 179.836C330.545 179.68 330.644 179.527 330.8 179.494C330.956 179.46 331.109 179.56 331.142 179.716C331.197 179.976 336.668 205.875 336.003 218.047C335.995 218.201 335.868 218.32 335.716 218.32Z" fill="black"/>
<path d="M345.615 185.926C343.853 187.762 341.975 190.142 340.396 193.146C334.914 203.573 336.911 214.144 337.857 218.032H341.437C342.479 215.213 343.453 212.042 344.227 208.54C346.173 199.726 346.166 191.908 345.615 185.926Z" fill="white"/>
<path d="M341.437 218.32H337.857C337.724 218.32 337.609 218.229 337.577 218.1C336.321 212.94 334.983 202.82 340.14 193.011C341.526 190.375 343.298 187.924 345.406 185.726C345.485 185.645 345.604 185.617 345.71 185.654C345.816 185.691 345.891 185.787 345.902 185.9C346.609 193.574 346.14 201.212 344.508 208.602C343.796 211.823 342.854 215.029 341.708 218.132C341.666 218.245 341.558 218.32 341.437 218.32ZM338.085 217.743H341.236C342.342 214.724 343.254 211.608 343.945 208.477C345.519 201.351 346.002 193.992 345.384 186.593C343.505 188.629 341.915 190.876 340.651 193.28C335.655 202.783 336.865 212.599 338.085 217.743Z" fill="black"/>
<path d="M339.529 221.848C339.377 221.848 339.249 221.729 339.241 221.575C338.994 216.999 339.175 212.375 339.778 207.832C340.369 203.377 341.373 198.949 342.763 194.671C342.813 194.52 342.975 194.437 343.127 194.486C343.279 194.535 343.361 194.698 343.312 194.85C341.933 199.094 340.936 203.488 340.349 207.907C339.751 212.415 339.572 217.003 339.817 221.544C339.826 221.703 339.704 221.839 339.545 221.847C339.539 221.848 339.534 221.848 339.529 221.848Z" fill="black"/>
<path d="M321.05 196.726C321.05 196.726 330.527 199.96 333.959 219.103H330.231C330.231 219.103 322.452 208.59 321.05 196.726Z" fill="white"/>
<path d="M333.959 219.392H330.231C330.14 219.392 330.054 219.348 329.999 219.275C329.921 219.169 322.158 208.563 320.763 196.76C320.752 196.662 320.792 196.564 320.869 196.502C320.946 196.44 321.049 196.421 321.143 196.453C321.537 196.588 330.821 199.961 334.243 219.052C334.258 219.137 334.235 219.223 334.18 219.288C334.126 219.354 334.044 219.392 333.959 219.392ZM330.379 218.815H333.613C330.64 202.73 323.283 198.128 321.4 197.197C322.845 207.985 329.546 217.649 330.379 218.815Z" fill="black"/>
<path d="M331.921 218.853C331.783 218.853 331.66 218.752 331.637 218.611C330.228 210.094 324.129 201.516 324.067 201.431C323.974 201.301 324.004 201.121 324.133 201.028C324.263 200.935 324.443 200.965 324.536 201.095C324.598 201.181 330.775 209.869 332.206 218.517C332.232 218.674 332.126 218.823 331.969 218.849C331.953 218.851 331.937 218.853 331.921 218.853Z" fill="black"/>
<path d="M324.706 217.584H348.088L348.612 228.643C348.741 231.355 346.577 233.624 343.862 233.624H330.509C327.297 233.624 324.694 231.018 324.697 227.806L324.706 217.584Z" fill="white"/>
<path d="M343.862 233.912H330.509C328.878 233.912 327.345 233.277 326.193 232.123C325.041 230.97 324.407 229.437 324.408 227.806L324.418 217.583C324.418 217.424 324.547 217.295 324.706 217.295H348.088C348.242 217.295 348.369 217.416 348.376 217.57L348.901 228.63C348.966 230.021 348.473 231.342 347.512 232.349C346.551 233.357 345.255 233.912 343.862 233.912ZM324.994 217.872L324.985 227.807C324.984 229.283 325.558 230.671 326.601 231.716C327.645 232.76 329.032 233.335 330.509 233.335H343.862C345.096 233.335 346.243 232.844 347.095 231.951C347.946 231.059 348.382 229.889 348.324 228.657L347.813 217.872H324.994Z" fill="black"/>
<path d="M264.657 184.079H44.7868C39.2547 184.079 34.77 179.594 34.77 174.062V55.1054C34.77 49.5733 39.2546 45.0886 44.7868 45.0886H264.657C270.189 45.0886 274.674 49.5732 274.674 55.1054V174.062C274.674 179.594 270.189 184.079 264.657 184.079Z" fill="white"/>
<path d="M264.657 184.367H44.7869C39.1045 184.367 34.4817 179.744 34.4817 174.062V55.1054C34.4817 49.423 39.1045 44.8 44.7869 44.8H264.657C270.34 44.8 274.962 49.423 274.962 55.1054V174.062C274.962 179.744 270.34 184.367 264.657 184.367ZM44.7869 45.3771C39.4227 45.3771 35.0586 49.7412 35.0586 55.1054V174.062C35.0586 179.426 39.4227 183.79 44.7869 183.79H264.657C270.021 183.79 274.385 179.426 274.385 174.062V55.1054C274.385 49.7412 270.021 45.3771 264.657 45.3771H44.7869Z" fill="black"/>
<path d="M262.277 176.047H47.166C44.6161 176.047 42.5491 173.98 42.5491 171.43V57.7365C42.5491 55.1866 44.6161 53.1196 47.166 53.1196H262.277C264.827 53.1196 266.894 55.1866 266.894 57.7365V171.43C266.894 173.98 264.827 176.047 262.277 176.047Z" fill="white"/>
<path d="M262.278 176.336H47.1661C44.4613 176.336 42.2607 174.135 42.2607 171.43V57.7366C42.2607 55.0318 44.4613 52.8313 47.1661 52.8313H262.278C264.982 52.8313 267.183 55.0318 267.183 57.7366V171.43C267.183 174.135 264.982 176.336 262.278 176.336ZM47.1661 53.4082C44.7793 53.4082 42.8377 55.3499 42.8377 57.7366V171.43C42.8377 173.817 44.7793 175.759 47.1661 175.759H262.278C264.664 175.759 266.606 173.817 266.606 171.43V57.7366C266.606 55.3499 264.664 53.4082 262.278 53.4082H47.1661Z" fill="black"/>
<path d="M289.807 210.753H19.6366C12.9907 210.753 6.95244 208.853 4.17303 205.887L0.288574 201.742H309.155L305.271 205.888C302.491 208.853 296.453 210.753 289.807 210.753Z" fill="white"/>
<path d="M289.807 211.042H19.6367C12.9372 211.042 6.78466 209.096 3.96262 206.085L0.0780318 201.94C-0.000525615 201.856 -0.0220338 201.733 0.0238678 201.628C0.0695072 201.522 0.173638 201.454 0.288524 201.454H309.155C309.27 201.454 309.374 201.522 309.42 201.628C309.466 201.733 309.444 201.856 309.366 201.94L305.481 206.085C302.659 209.096 296.507 211.042 289.807 211.042ZM0.954097 202.031L4.38334 205.69C7.10177 208.591 13.0889 210.465 19.6366 210.465H289.807C296.355 210.465 302.342 208.591 305.06 205.69L308.49 202.031H0.954097Z" fill="black"/>
<path d="M309.145 201.788H0.299561L45.3376 183.842H264.107L309.145 201.788Z" fill="white"/>
<path d="M309.145 202.077H0.299475C0.161115 202.077 0.0422952 201.979 0.0161968 201.843C-0.00990157 201.707 0.0640656 201.572 0.192721 201.521L45.2308 183.574C45.2647 183.561 45.3009 183.554 45.3375 183.554H264.106C264.143 183.554 264.179 183.561 264.213 183.574L309.251 201.521C309.38 201.572 309.454 201.707 309.428 201.843C309.402 201.979 309.283 202.077 309.145 202.077ZM1.80282 201.5H307.641L264.051 184.131H45.3929L1.80282 201.5Z" fill="black"/>
<path d="M218.904 199.238H90.54L109.259 191.779H200.185L218.904 199.238Z" fill="#FFF3E2"/>
<path d="M220.93 128.055C234.946 119.499 239.38 101.215 230.835 87.2165C222.289 73.2175 204 68.8046 189.985 77.36C175.969 85.9155 171.535 104.2 180.08 118.199C188.625 132.198 206.915 136.61 220.93 128.055Z" fill="white"/>
<path d="M205.492 132.714C203.13 132.714 200.75 132.434 198.396 131.865C190.605 129.985 184.016 125.185 179.843 118.348C171.229 104.234 175.716 85.7358 189.846 77.1113C203.975 68.4869 222.479 72.9525 231.094 87.0658C235.267 93.9026 236.525 101.957 234.635 109.746C232.746 117.534 227.936 124.125 221.091 128.302C216.315 131.217 210.947 132.714 205.492 132.714ZM205.451 73.2944C200.222 73.2944 194.929 74.6845 190.146 77.6035C176.288 86.0624 171.887 104.205 180.336 118.047C184.428 124.752 190.89 129.461 198.531 131.304C206.172 133.148 214.077 131.907 220.791 127.81C227.504 123.712 232.221 117.248 234.075 109.61C235.927 101.971 234.694 94.0714 230.601 87.3661C225.068 78.3012 215.375 73.2944 205.451 73.2944Z" fill="black"/>
<path d="M205.556 136.999C221.024 137.081 235.1 126.578 238.942 110.893L205.562 102.817C205.562 102.817 205.617 131.315 205.556 136.999Z" fill="#F7910A"/>
<path d="M173.322 108.837C171.656 100.366 173.541 91.696 178.252 84.7568C184.726 89.1966 204.64 102.898 204.64 102.898C204.64 102.898 178.519 107.794 173.322 108.837Z" fill="white"/>
<path d="M173.322 109.125C173.266 109.125 173.21 109.109 173.162 109.077C173.098 109.034 173.054 108.968 173.039 108.892C171.395 100.531 173.208 91.6745 178.014 84.5949C178.057 84.5315 178.123 84.4878 178.199 84.4735C178.274 84.4593 178.352 84.4756 178.415 84.519C184.816 88.908 204.604 102.524 204.804 102.661C204.9 102.727 204.946 102.844 204.922 102.958C204.898 103.072 204.808 103.16 204.693 103.182C204.432 103.231 178.515 108.089 173.379 109.119C173.36 109.123 173.341 109.125 173.322 109.125ZM178.329 85.1597C173.784 91.9914 172.049 100.464 173.551 108.497C178.76 107.462 199.83 103.507 203.905 102.743C200.639 100.496 184.322 89.2705 178.329 85.1597Z" fill="black"/>
<path d="M230.64 160.428C232.524 160.428 234.052 158.901 234.052 157.017C234.052 155.133 232.524 153.606 230.64 153.606C228.755 153.606 227.228 155.133 227.228 157.017C227.228 158.901 228.755 160.428 230.64 160.428Z" fill="#F7910A"/>
<path d="M220.682 160.428C222.566 160.428 224.094 158.901 224.094 157.017C224.094 155.133 222.566 153.606 220.682 153.606C218.797 153.606 217.269 155.133 217.269 157.017C217.269 158.901 218.797 160.428 220.682 160.428Z" fill="#F7910A"/>
<path d="M210.724 160.428C212.608 160.428 214.136 158.901 214.136 157.017C214.136 155.133 212.608 153.606 210.724 153.606C208.839 153.606 207.311 155.133 207.311 157.017C207.311 158.901 208.839 160.428 210.724 160.428Z" fill="#F7910A"/>
<path d="M202.255 157.296H172.726C172.622 157.296 172.527 157.24 172.476 157.15C172.424 157.06 172.425 156.949 172.478 156.86L191.483 124.736C191.564 124.599 191.741 124.553 191.878 124.634C192.015 124.716 192.06 124.893 191.979 125.03L173.232 156.719H202.255C202.414 156.719 202.544 156.848 202.544 157.007C202.544 157.166 202.414 157.296 202.255 157.296Z" fill="black"/>
<path d="M75.5769 74.615H66.1841V120.155H75.5769V74.615Z" fill="#FFF3E2"/>
<path d="M91.3237 74.615H81.9309V120.155H91.3237V74.615Z" fill="#FFF3E2"/>
<path d="M107.071 74.615H97.6777V120.155H107.071V74.615Z" fill="#FFF3E2"/>
<path d="M122.817 74.615H113.424V120.155H122.817V74.615Z" fill="#FFF3E2"/>
<path d="M138.564 74.615H129.171V120.155H138.564V74.615Z" fill="#FFF3E2"/>
<path d="M154.311 74.615H144.918V120.155H154.311V74.615Z" fill="#FFF3E2"/>
<path d="M75.5769 95.0405H66.1841V114.116H75.5769V95.0405Z" fill="#F7910A"/>
<path d="M91.3237 89.2478H81.9309V114.116H91.3237V89.2478Z" fill="#F7910A"/>
<path d="M107.071 80.6548H97.6777V114.116H107.071V80.6548Z" fill="#F7910A"/>
<path d="M122.817 95.0405H113.424V114.116H122.817V95.0405Z" fill="#F7910A"/>
<path d="M138.564 87.9773H129.171V114.116H138.564V87.9773Z" fill="#F7910A"/>
<path d="M154.311 93.6362H144.918V114.116H154.311V93.6362Z" fill="#F7910A"/>
<path d="M359.423 66.4284V0.28833L243.037 0.28833V66.4284L359.423 66.4284Z" fill="white"/>
<path d="M359.423 66.717H243.037C242.877 66.717 242.748 66.5878 242.748 66.4286V0.288525C242.748 0.12918 242.877 0 243.037 0H359.423C359.583 0 359.712 0.12918 359.712 0.288525V66.4286C359.712 66.5879 359.582 66.717 359.423 66.717ZM243.325 66.1401H359.135V0.576918H243.325V66.1401Z" fill="black"/>
<path d="M295.089 52.1188C305.294 41.9139 305.294 25.3684 295.089 15.1634C284.884 4.95846 268.338 4.95845 258.133 15.1634C247.928 25.3684 247.928 41.9139 258.133 52.1188C268.338 62.3238 284.884 62.3238 295.089 52.1188Z" fill="#FFF3E2"/>
<path d="M281.145 6.68335C290.475 8.25843 298.611 14.8144 301.701 24.3967L276.679 32.4658L281.145 6.68335Z" fill="#F7910A"/>
<path d="M285.484 42.3554C290.385 37.4547 290.385 29.5091 285.484 24.6084C280.584 19.7078 272.638 19.7078 267.737 24.6084C262.837 29.5091 262.837 37.4547 267.737 42.3554C272.638 47.2561 280.584 47.2561 285.484 42.3554Z" fill="white"/>
<path d="M315.802 27.9448H309.807V59.4449H315.802V27.9448Z" fill="#FFF3E2"/>
<path d="M324.915 41.6074H318.919V59.4448H324.915V41.6074Z" fill="#FFF3E2"/>
<path d="M334.027 19.5747H328.032V59.4449H334.027V19.5747Z" fill="#FFF3E2"/>
<path d="M343.14 27.9448H337.145V59.4449H343.14V27.9448Z" fill="#FFF3E2"/>
<path d="M352.253 13.5229H346.258V59.4448H352.253V13.5229Z" fill="#FFF3E2"/>
<path d="M316.633 31.8115H218.5C216.449 31.8115 214.786 33.4741 214.786 35.525V42.8014V47.8713V94.3243C214.786 96.3752 216.449 98.0378 218.5 98.0378H316.633C318.684 98.0378 320.347 96.3752 320.347 94.3243V47.8713V42.8014V35.525C320.347 33.4742 318.684 31.8115 316.633 31.8115Z" fill="white"/>
<path d="M316.633 98.3262H218.5C216.293 98.3262 214.498 96.531 214.498 94.3244V35.5249C214.498 33.3182 216.293 31.5229 218.5 31.5229H316.633C318.84 31.5229 320.635 33.3182 320.635 35.5249V94.3243C320.635 96.5309 318.84 98.3262 316.633 98.3262ZM218.5 32.1C216.611 32.1 215.074 33.6364 215.074 35.525V94.3244C215.074 96.2129 216.611 97.7493 218.5 97.7493H316.633C318.522 97.7493 320.058 96.2128 320.058 94.3244V35.5249C320.058 33.6364 318.522 32.0999 316.633 32.0999L218.5 32.1Z" fill="black"/>
<path d="M320.347 43.09H214.786C214.627 43.09 214.498 42.9608 214.498 42.8016C214.498 42.6424 214.627 42.5132 214.786 42.5132H320.347C320.506 42.5132 320.635 42.6424 320.635 42.8016C320.635 42.9608 320.506 43.09 320.347 43.09Z" fill="black"/>
<path d="M224.591 40.1024C223.278 40.1024 222.21 39.034 222.21 37.7209C222.21 36.4077 223.278 35.3394 224.591 35.3394C225.905 35.3394 226.973 36.4077 226.973 37.7209C226.973 39.034 225.904 40.1024 224.591 40.1024ZM224.591 35.9163C223.596 35.9163 222.787 36.7258 222.787 37.7209C222.787 38.7159 223.596 39.5255 224.591 39.5255C225.586 39.5255 226.396 38.7159 226.396 37.7209C226.396 36.7257 225.586 35.9163 224.591 35.9163Z" fill="black"/>
<path d="M230.699 40.1024C229.386 40.1024 228.318 39.034 228.318 37.7209C228.318 36.4077 229.386 35.3394 230.699 35.3394C232.013 35.3394 233.081 36.4077 233.081 37.7209C233.081 39.034 232.013 40.1024 230.699 40.1024ZM230.699 35.9163C229.704 35.9163 228.895 36.7258 228.895 37.7209C228.895 38.7159 229.704 39.5255 230.699 39.5255C231.695 39.5255 232.504 38.7159 232.504 37.7209C232.504 36.7257 231.695 35.9163 230.699 35.9163Z" fill="black"/>
<path d="M238.286 39.2024C239.103 38.385 239.103 37.0598 238.286 36.2425C237.468 35.4251 236.143 35.4251 235.326 36.2425C234.508 37.0598 234.508 38.385 235.326 39.2024C236.143 40.0197 237.468 40.0197 238.286 39.2024Z" fill="#F7910A"/>
<path d="M310.061 47.3774H232.031V88.9899H310.061V47.3774Z" fill="#FFF3E2"/>
<path d="M308.763 94.5789H225.072C224.913 94.5789 224.784 94.4497 224.784 94.2904V54.2863C224.784 54.127 224.913 53.9978 225.072 53.9978C225.231 53.9978 225.36 54.127 225.36 54.2863V94.0019H308.763C308.922 94.0019 309.052 94.1311 309.052 94.2904C309.052 94.4497 308.922 94.5789 308.763 94.5789Z" fill="black"/>
<path d="M235.955 92.2672H228.551C228.392 92.2672 228.263 92.138 228.263 91.9787V65.0972C228.263 64.9379 228.392 64.8088 228.551 64.8088H235.955C236.115 64.8088 236.244 64.938 236.244 65.0972V91.9788C236.244 92.138 236.115 92.2672 235.955 92.2672ZM228.84 91.6903H235.667V65.3856H228.84V91.6903Z" fill="black"/>
<path d="M247.61 92.2672H240.206C240.047 92.2672 239.917 92.138 239.917 91.9786V77.5353C239.917 77.376 240.047 77.2468 240.206 77.2468H247.61C247.769 77.2468 247.898 77.376 247.898 77.5353V91.9786C247.898 92.138 247.769 92.2672 247.61 92.2672ZM240.494 91.6902H247.321V77.8239H240.494V91.6902Z" fill="black"/>
<path d="M259.264 92.2672H251.86C251.701 92.2672 251.572 92.138 251.572 91.9787V71.9151C251.572 71.7558 251.701 71.6267 251.86 71.6267H259.264C259.423 71.6267 259.553 71.7559 259.553 71.9151V91.9788C259.553 92.1381 259.423 92.2672 259.264 92.2672ZM252.149 91.6903H258.976V72.2035H252.149V91.6903Z" fill="black"/>
<path d="M270.919 92.2671H263.515C263.355 92.2671 263.226 92.1379 263.226 91.9786V63.1232C263.226 62.9639 263.355 62.8347 263.515 62.8347H270.919C271.078 62.8347 271.207 62.9639 271.207 63.1232V91.9787C271.207 92.1379 271.078 92.2671 270.919 92.2671ZM263.803 91.6902H270.63V63.4116H263.803V91.6902Z" fill="black"/>
<path d="M282.386 92.2672H275.356C275.196 92.2672 275.067 92.138 275.067 91.9787V57.0866C275.067 56.9273 275.196 56.7981 275.356 56.7981H282.386C282.546 56.7981 282.675 56.9273 282.675 57.0866V91.9788C282.675 92.138 282.545 92.2672 282.386 92.2672ZM275.644 91.6903H282.098V57.375H275.644V91.6903Z" fill="black"/>
<path d="M294.227 92.2671H286.823C286.664 92.2671 286.535 92.1379 286.535 91.9786V55.2342C286.535 55.0749 286.664 54.9458 286.823 54.9458H294.227C294.386 54.9458 294.516 55.075 294.516 55.2342V91.9787C294.516 92.1379 294.386 92.2671 294.227 92.2671ZM287.112 91.6902H293.939V55.5226H287.112V91.6902Z" fill="black"/>
<path d="M305.882 92.2672H298.478C298.318 92.2672 298.189 92.138 298.189 91.9787V59.8115C298.189 59.6521 298.318 59.5229 298.478 59.5229H305.882C306.041 59.5229 306.17 59.6521 306.17 59.8115V91.9787C306.17 92.138 306.041 92.2672 305.882 92.2672ZM298.766 91.6903H305.593V60.1H298.766V91.6903Z" fill="black"/>
<path d="M90.7977 199.149C90.7974 199.149 90.797 199.149 90.7965 199.149L81.4087 199.114C81.2493 199.113 81.1208 198.983 81.1213 198.824C81.1219 198.665 81.2509 198.537 81.4097 198.537C81.4101 198.537 81.4104 198.537 81.4109 198.537L90.7987 198.572C90.9581 198.573 91.0866 198.703 91.0861 198.862C91.0855 199.021 90.9566 199.149 90.7977 199.149Z" fill="black"/>
<path d="M156.488 236.235C146.445 223.895 117.857 188.879 117.857 188.879L122.394 179.739C129.856 167.136 119.45 151.492 104.943 153.504L70.5374 158.276L55.2141 160.613L18.0616 161.67C12.0073 185.763 26.5422 193.444 34.3888 195.799C43.2016 199.333 64.8603 199.243 74.8003 198.994C73.559 201.279 73.5433 204.076 74.8597 206.386C79.1079 213.843 88.1087 225.775 92.7232 231.755C93.866 233.236 96.2149 232.726 96.6419 230.904L101.446 217.914L112.447 229.636C115.404 233.614 120.346 236.591 125.071 237.211L154.561 239.692C156.473 239.943 157.705 237.731 156.488 236.235Z" fill="#F7910A"/>
<path d="M100.242 217.451C100.167 217.451 100.093 217.422 100.036 217.365L82.459 199.56L75.6711 199.55C75.5117 199.55 75.3828 199.421 75.3831 199.261C75.3833 199.102 75.5124 198.973 75.6714 198.973H75.6718L82.5802 198.983C82.6573 198.983 82.7309 199.014 82.785 199.069L100.447 216.96C100.559 217.073 100.558 217.256 100.444 217.368C100.388 217.423 100.315 217.451 100.242 217.451Z" fill="black"/>
<path d="M122.822 229.255C120.055 229.255 117.209 229.083 114.388 228.659C114.23 228.636 114.122 228.489 114.145 228.331C114.169 228.174 114.317 228.065 114.473 228.089C129.447 230.335 145.205 225.444 145.363 225.394C145.515 225.346 145.676 225.43 145.724 225.582C145.772 225.734 145.688 225.896 145.536 225.944C145.407 225.985 134.877 229.255 122.822 229.255Z" fill="black"/>
<path d="M117.278 188.089C117.194 188.089 117.11 188.052 117.053 187.981L106.973 175.38C101.91 169.052 94.0637 165.642 85.9814 166.258L42.2018 169.599C42.0404 169.611 41.9044 169.492 41.8922 169.333C41.8801 169.174 41.999 169.036 42.1579 169.023L85.9374 165.683C94.2096 165.052 102.241 168.542 107.423 175.02L117.503 187.62C117.603 187.745 117.583 187.926 117.458 188.026C117.405 188.068 117.342 188.089 117.278 188.089Z" fill="black"/>
<path d="M21.6226 169.704L32.576 121.196C32.576 121.196 52.8094 120.785 59.9182 122.392C59.9182 122.392 63.5781 152.332 63.9435 159.42L21.6226 169.704Z" fill="white"/>
<path d="M73.0374 157.785C73.0374 157.785 67.0028 123.345 59.9182 122.392L61.0726 157.785H73.0374Z" fill="white"/>
<path d="M73.0374 158.074H61.0727C60.917 158.074 60.7895 157.95 60.7844 157.795L60.2499 141.705C60.2446 141.546 60.3695 141.413 60.5286 141.408C60.6905 141.406 60.8211 141.527 60.8264 141.686L61.3516 157.497H72.6925C72.0438 153.931 66.3335 123.575 59.8786 122.677C59.7208 122.655 59.6107 122.51 59.6327 122.352C59.6547 122.194 59.8006 122.084 59.9581 122.106C67.1943 123.112 73.0748 156.322 73.3215 157.735C73.3363 157.819 73.3131 157.906 73.2583 157.971C73.2036 158.036 73.1227 158.074 73.0374 158.074Z" fill="black"/>
<path d="M102.388 159.03H47.5408V157.378C47.5408 155.925 48.7186 154.747 50.1716 154.747H106.244L105.794 156.419C105.379 157.959 103.983 159.03 102.388 159.03Z" fill="black"/>
<path d="M103.952 157.091H70.8618C69.4486 157.091 68.4107 155.764 68.7508 154.393L75.0045 129.163C75.2451 128.193 76.116 127.512 77.1156 127.512H110.205C111.619 127.512 112.657 128.838 112.317 130.21L106.063 155.439C105.822 156.41 104.951 157.091 103.952 157.091Z" fill="black"/>
<path d="M92.8186 138.333C93.4191 138.274 93.8577 137.739 93.7982 137.138C93.7388 136.538 93.2038 136.099 92.6033 136.158C92.0029 136.218 91.5643 136.753 91.6237 137.353C91.6832 137.954 92.2182 138.393 92.8186 138.333Z" fill="#F7910A"/>
<path d="M59.9186 122.68C59.9089 122.68 59.899 122.68 59.8891 122.679L49.9957 121.671C49.8372 121.654 49.7218 121.513 49.7381 121.354C49.7541 121.196 49.8938 121.081 50.0543 121.097L59.9477 122.105C60.1061 122.121 60.2215 122.263 60.2052 122.421C60.1902 122.569 60.0648 122.68 59.9186 122.68Z" fill="black"/>
<path d="M45.044 133.223C45.0256 133.223 45.0072 133.222 44.9885 133.219C44.5549 133.15 43.4707 131.634 39.4639 125.496C38.3174 123.739 37.1326 121.925 36.9014 121.675C36.8196 121.624 36.7651 121.534 36.7651 121.43C36.7651 121.271 36.8943 121.142 37.0535 121.142C37.296 121.142 37.3106 121.142 39.9469 125.18C41.5739 127.673 44.2163 131.721 44.9863 132.535C45.3667 131.775 46.3783 128.839 47.2304 126.134C47.2639 126.028 47.3549 125.951 47.4648 125.935C47.5767 125.919 47.6841 125.968 47.7456 126.061C49.2179 128.269 50.8897 130.684 51.5604 131.517C51.8067 130.06 52.1662 124.995 52.3565 121.762C52.3659 121.602 52.5009 121.48 52.6613 121.491C52.8204 121.5 52.9417 121.637 52.9322 121.796C52.3352 131.946 52.0009 132.192 51.875 132.284C51.8059 132.335 51.6996 132.357 51.6163 132.336C51.4951 132.306 51.1789 132.227 47.5992 126.88C46.9177 129.018 45.6615 132.821 45.2468 133.153C45.1889 133.199 45.1183 133.223 45.044 133.223Z" fill="black"/>
<path d="M58.6988 154.747C58.6988 154.747 52.6613 144.403 44.4133 147.464C36.1653 150.524 24.4079 157.876 24.4079 157.876C24.4079 157.876 35.2631 128.389 32.5763 121.197C32.5763 121.197 18.3576 125.466 11.7809 146.722C5.20426 167.978 15.0146 175.199 21.974 175.324C28.9333 175.449 46.3828 157.083 49.134 157.091L58.6988 154.747Z" fill="white"/>
<path d="M16.8579 174.265C16.8124 174.265 16.7662 174.255 16.7232 174.232C13.1693 172.35 5.54643 165.895 11.5051 146.636C14.9228 135.59 20.4352 129.191 24.4578 125.768C28.8304 122.048 32.3456 120.964 32.4932 120.92C32.5207 120.912 32.5463 120.908 32.5787 120.908L40.4917 120.979C40.6511 120.98 40.7791 121.11 40.7776 121.27C40.7762 121.429 40.6346 121.552 40.4866 121.555L32.6197 121.485C32.2187 121.616 28.8457 122.785 24.8053 126.23C20.8502 129.603 15.4276 135.91 12.0563 146.807C6.22512 165.653 13.5662 171.908 16.9931 173.722C17.134 173.797 17.1876 173.971 17.1131 174.112C17.0613 174.21 16.9613 174.265 16.8579 174.265Z" fill="black"/>
<path d="M37.8979 165.909C37.8149 165.909 37.7325 165.873 37.6755 165.804C37.5739 165.681 37.5911 165.5 37.7139 165.398C38.7408 164.549 39.7447 163.706 40.705 162.9C45.2933 159.048 47.9649 156.85 49.0958 156.803L58.242 154.562C57.1232 152.841 51.6075 145.101 44.5135 147.734C36.388 150.749 24.6781 158.047 24.5608 158.121C24.4564 158.186 24.3219 158.178 24.2259 158.1C24.1303 158.022 24.0946 157.892 24.1371 157.776C24.1598 157.715 26.4327 151.525 28.613 144.231C28.6585 144.079 28.8192 143.992 28.9721 144.038C29.1246 144.083 29.2115 144.244 29.1658 144.397C27.431 150.2 25.6373 155.307 24.9599 157.198C27.6259 155.571 37.2884 149.8 44.3131 147.193C52.6915 144.084 58.8865 154.496 58.9481 154.601C58.9939 154.68 59 154.776 58.9645 154.86C58.929 154.943 58.856 155.005 58.7678 155.027L49.2027 157.371C49.1799 157.377 49.1581 157.379 49.133 157.38C49.1326 157.38 49.1322 157.38 49.1317 157.38C48.1792 157.38 44.7288 160.276 41.076 163.342C40.1147 164.149 39.1098 164.992 38.0816 165.843C38.0277 165.887 37.9627 165.909 37.8979 165.909Z" fill="black"/>
<path d="M51.2842 155.894C51.1647 155.894 51.0532 155.82 51.0118 155.7C50.4864 154.189 49.2985 152.903 47.8341 152.26C47.6883 152.195 47.622 152.025 47.686 151.879C47.7503 151.734 47.9204 151.668 48.0662 151.731C49.6747 152.438 50.9795 153.851 51.5566 155.511C51.609 155.661 51.5294 155.826 51.379 155.878C51.3475 155.889 51.3155 155.894 51.2842 155.894Z" fill="black"/>
<path d="M54.2903 155.291C54.1661 155.291 54.0514 155.21 54.0141 155.085C53.4615 153.235 52.088 151.639 50.3404 150.818C50.1962 150.75 50.1343 150.578 50.2021 150.434C50.2695 150.29 50.4418 150.228 50.5858 150.296C52.4797 151.186 53.9678 152.915 54.5668 154.92C54.6124 155.072 54.5256 155.233 54.3729 155.279C54.3455 155.287 54.3176 155.291 54.2903 155.291Z" fill="black"/>
<path d="M47.5408 159.03V157.378C47.5408 155.925 48.7186 154.747 50.1716 154.747H61.0727L47.5408 159.03Z" fill="black"/>
<path d="M20.1025 161.086C20.0101 161.086 19.9192 161.041 19.8635 160.959C19.7741 160.827 19.8084 160.648 19.9402 160.558L24.2457 157.637C24.3773 157.548 24.557 157.582 24.6463 157.714C24.7358 157.846 24.7014 158.025 24.5696 158.115L20.2642 161.036C20.2146 161.069 20.1583 161.086 20.1025 161.086Z" fill="black"/>
<path d="M44.413 160.27C44.2988 160.27 44.1906 160.202 44.1452 160.089L39.8976 149.546C39.8382 149.398 39.9097 149.23 40.0575 149.171C40.2054 149.111 40.3734 149.183 40.4328 149.331L44.6804 159.874C44.7399 160.021 44.6684 160.19 44.5206 160.249C44.4854 160.263 44.4488 160.27 44.413 160.27Z" fill="black"/>
<path d="M45.2741 114.444C45.2741 114.444 43.113 115.418 42.393 113.686C41.1027 110.583 37.9957 109.745 36.7825 106.258C35.5694 102.772 36.9341 94.5853 40.5734 95.6465C40.5734 95.6465 43.1512 91.0987 46.6388 90.0375C50.1264 88.9764 51.3395 91.8566 51.3395 91.8566C51.3395 91.8566 55.7369 89.2795 59.2245 90.4923C62.7121 91.705 60.7271 97.2986 60.7271 97.2986C60.7271 97.2986 64.0712 97.5626 64.0768 101.71C64.083 106.172 58.5825 108.579 55.0949 109.792C51.6073 111.004 45.2741 114.444 45.2741 114.444Z" fill="black"/>
<path d="M45.2444 109.214L40.489 121.267L47.5058 126.221L50.0251 121.384L52.913 113.12L45.2444 109.214Z" fill="white"/>
<path d="M47.5057 126.509C47.4467 126.509 47.3886 126.491 47.3394 126.457L40.3226 121.503C40.2139 121.426 40.1718 121.285 40.2206 121.161L44.976 109.109C45.0059 109.033 45.0661 108.973 45.1421 108.945C45.2182 108.916 45.3028 108.921 45.3751 108.957L53.0437 112.863C53.1722 112.928 53.2326 113.079 53.185 113.215L50.297 121.479C50.2926 121.492 50.2871 121.505 50.2805 121.517L47.7613 126.354C47.7229 126.428 47.6544 126.482 47.5735 126.501C47.5512 126.507 47.5284 126.509 47.5057 126.509ZM40.8405 121.162L47.4023 125.795L49.7595 121.269L52.5575 113.262L45.3962 109.615L40.8405 121.162Z" fill="black"/>
<path d="M58.8582 108.242C58.6833 110.074 58.1712 111.91 57.109 113.412C56.0468 114.914 54.3857 116.051 52.5529 116.213C50.9638 116.354 49.3608 115.757 48.1127 114.763C46.8645 113.77 45.9494 112.405 45.2997 110.948C43.635 111.056 41.9708 109.906 41.4826 108.311C41.2009 107.391 41.3178 106.306 41.9638 105.593C42.6099 104.879 43.8306 104.69 44.5554 105.323C44.9685 105.684 45.1772 106.24 45.605 106.583C46.0819 106.966 46.7668 107.014 47.3482 106.825C47.9296 106.636 48.4214 106.239 48.848 105.801C50.1916 104.421 51.0091 102.542 51.1017 100.618C51.0929 100.8 51.9259 101.314 52.0718 101.415C52.4388 101.667 52.8282 101.888 53.2332 102.074C54.032 102.441 54.8917 102.675 55.7658 102.767C56.2092 102.814 56.6567 102.824 57.1017 102.795C57.4551 102.772 57.9578 102.587 58.3009 102.68C59.0181 102.875 58.8609 104.24 58.8905 104.793C58.9519 105.942 58.9678 107.096 58.8582 108.242Z" fill="white"/>
<path d="M52.0945 116.522C50.6658 116.522 49.174 115.977 47.9331 114.989C46.795 114.083 45.8484 112.823 45.1172 111.243C43.3765 111.262 41.7189 110.068 41.2071 108.396C40.869 107.291 41.0771 106.143 41.7501 105.399C42.534 104.533 43.9336 104.396 44.7453 105.106C44.9711 105.303 45.1353 105.54 45.294 105.77C45.4496 105.994 45.5963 106.206 45.7855 106.358C46.1528 106.653 46.717 106.727 47.2589 106.551C47.7143 106.402 48.1537 106.1 48.6413 105.599C49.9327 104.274 50.7244 102.453 50.8135 100.604C50.8211 100.445 50.9618 100.322 51.1155 100.33C51.2464 100.336 51.3525 100.429 51.382 100.55C51.4374 100.619 51.6168 100.772 52.1315 101.108C52.1775 101.138 52.2137 101.162 52.2355 101.177C52.5853 101.418 52.9615 101.631 53.3538 101.811C54.1252 102.166 54.947 102.391 55.7962 102.48C56.2265 102.525 56.6594 102.534 57.0834 102.507C57.1884 102.5 57.32 102.475 57.4593 102.447C57.7542 102.389 58.0884 102.324 58.3766 102.402C59.1828 102.621 59.1781 103.717 59.1749 104.442C59.1744 104.57 59.1736 104.686 59.1786 104.777C59.2522 106.153 59.2415 107.262 59.1455 108.27C58.9431 110.388 58.337 112.174 57.3445 113.578C56.1643 115.248 54.3827 116.34 52.5786 116.5C52.4185 116.515 52.2568 116.522 52.0945 116.522ZM45.3 110.66C45.4132 110.66 45.5168 110.726 45.5634 110.831C46.267 112.409 47.1852 113.656 48.2926 114.538C49.5598 115.546 51.1027 116.052 52.5277 115.926C54.1652 115.781 55.7899 114.779 56.8737 113.246C57.8073 111.925 58.3785 110.232 58.5714 108.215C58.6648 107.237 58.6747 106.155 58.6029 104.808C58.5975 104.707 58.5977 104.581 58.5984 104.439C58.6006 103.924 58.6043 103.062 58.2256 102.959C58.068 102.916 57.8039 102.968 57.5709 103.014C57.4196 103.043 57.2632 103.074 57.1208 103.083C56.6641 103.112 56.1981 103.103 55.7362 103.054C54.8244 102.958 53.942 102.717 53.1133 102.336C52.691 102.142 52.2856 101.912 51.9086 101.652L51.8158 101.591C51.6232 101.465 51.4644 101.357 51.3345 101.262C51.108 103.028 50.2962 104.728 49.0549 106.002C48.4995 106.572 47.9857 106.921 47.4379 107.1C46.7132 107.335 45.9421 107.224 45.4249 106.809C45.1701 106.604 44.9922 106.347 44.82 106.098C44.675 105.889 44.5379 105.69 44.3663 105.54C43.7916 105.039 42.7488 105.156 42.1782 105.787C41.6489 106.372 41.4844 107.329 41.7591 108.227C42.2069 109.691 43.7546 110.759 45.2816 110.66C45.2875 110.66 45.2936 110.66 45.3 110.66Z" fill="black"/>
<path d="M45.244 109.503C45.1052 109.503 44.9829 109.402 44.9598 109.261C44.836 108.505 44.2281 107.856 43.4814 107.684C43.3261 107.648 43.2293 107.493 43.265 107.338C43.3009 107.183 43.4558 107.086 43.6109 107.122C44.5797 107.345 45.3684 108.186 45.5291 109.168C45.5549 109.325 45.4482 109.473 45.2911 109.499C45.2753 109.501 45.2595 109.503 45.244 109.503Z" fill="black"/>
</g>
<defs>
<clipPath id="clip0_322_1446">
<rect width="359.712" height="240" fill="white"/>
</clipPath>
</defs>
</svg>
