<svg width="305" height="241" viewBox="0 0 305 241" fill="none" xmlns="http://www.w3.org/2000/svg">
<path d="M290.245 105.54C281.118 94.0688 279.953 78.8391 278.815 64.8042C277.761 51.8089 272.298 36.736 262.857 27.1004C255.783 19.8793 246.198 16.2443 236.181 15.7993C221.045 15.1279 206.379 20.1105 191.636 22.6683C160.419 28.0848 158.858 -3.01817 93.3015 0.239857C27.7448 3.49789 13.6971 42.7719 10.5751 69.5356C7.45316 96.3001 36.3296 107.445 23.0622 127.931C9.79484 148.417 -4.25285 152.572 1.21001 178.705C6.67287 204.838 24.6228 219.907 64.425 220.885C104.227 221.861 126.86 184.297 150.273 182.577C173.686 180.856 186.173 221.301 240.023 214.221C264.579 210.993 287.982 196.996 298.79 174.132C305.107 160.77 306.251 145.242 302.78 130.94C301.119 124.095 298.416 117.365 294.607 111.423C293.297 109.38 291.772 107.459 290.245 105.54Z" fill="#FFBA6B"/>
<path opacity="0.7" d="M290.245 105.54C281.118 94.0688 279.953 78.8391 278.815 64.8042C277.761 51.8089 272.298 36.736 262.857 27.1004C255.783 19.8793 246.198 16.2443 236.181 15.7993C221.045 15.1279 206.379 20.1105 191.636 22.6683C160.419 28.0848 158.858 -3.01817 93.3015 0.239857C27.7448 3.49789 13.6971 42.7719 10.5751 69.5356C7.45316 96.3001 36.3296 107.445 23.0622 127.931C9.79484 148.417 -4.25285 152.572 1.21001 178.705C6.67287 204.838 24.6228 219.907 64.425 220.885C104.227 221.861 126.86 184.297 150.273 182.577C173.686 180.856 186.173 221.301 240.023 214.221C264.579 210.993 287.982 196.996 298.79 174.132C305.107 160.77 306.251 145.242 302.78 130.94C301.119 124.095 298.416 117.365 294.607 111.423C293.297 109.38 291.772 107.459 290.245 105.54Z" fill="white"/>
<path d="M284.446 136.527C283.253 117.515 272.072 101.219 256.09 92.8109C259.181 86.0683 260.918 78.5759 260.918 70.6737C260.918 41.2979 237.104 17.4849 207.729 17.4849C192.043 17.4849 177.946 24.2787 168.211 35.0803C160.209 15.8283 141.229 2.28796 119.08 2.28796C89.7053 2.28796 65.8915 26.1017 65.8915 55.4768C65.8915 59.9273 66.4461 64.2473 67.4761 68.3793C65.8419 68.228 64.1885 68.1408 62.5142 68.1408C33.1384 68.1408 9.32538 91.9546 9.32538 121.33C9.32538 126.612 10.1065 131.71 11.5406 136.527H284.446Z" fill="#FFBA6B" stroke="#0D2A3E" stroke-miterlimit="10" stroke-linecap="round" stroke-linejoin="round"/>
<path d="M11.5401 136.526H284.446C284.337 134.789 284.143 133.075 283.871 131.386H10.2892C10.6246 133.131 11.0399 134.847 11.5401 136.526Z" fill="#0D2A3E" stroke="#0D2A3E" stroke-width="0.75" stroke-miterlimit="10" stroke-linecap="round" stroke-linejoin="round"/>
<path d="M98.6919 50.0401L100.622 49.1606L100.213 46.8429L98.0837 46.6773C97.81 45.9578 97.4507 45.2807 97.0177 44.6589L98.1157 42.8046L96.4511 41.14L94.5816 42.25C93.526 41.5337 92.3159 41.0295 91.0123 40.7934L90.472 38.6582H88.1184L87.5766 40.807C86.8363 40.9479 86.1272 41.1752 85.4598 41.4793L83.7767 40.0227L81.8488 41.3729L82.6435 43.4552C82.1273 43.9834 81.6719 44.5717 81.2918 45.2095L79.0757 44.9806L78.2706 47.1927L80.1049 48.4371C80.0193 48.9453 79.9729 49.4671 79.9729 49.9993C79.9729 50.2218 79.9833 50.4419 79.9985 50.6604L78.0682 51.7384L78.6772 54.012L80.862 53.984C81.1853 54.6699 81.5895 55.3101 82.0617 55.8927L81.1181 57.8527L82.9212 59.366L84.6691 58.1144C85.3253 58.4921 86.0304 58.7922 86.7739 59.0027L87.1244 61.1107L89.4693 61.3156L90.1767 59.3196C90.961 59.2492 91.7173 59.0827 92.4336 58.8306L93.9133 60.3344L95.9517 59.1572L95.3915 57.13C95.9813 56.6282 96.5071 56.0552 96.9577 55.423L99.0289 55.8047L100.024 53.6711L98.399 52.3298C98.5879 51.5975 98.6887 50.83 98.6919 50.0401ZM95.2106 49.9993C95.2106 53.2453 92.5792 55.8767 89.3332 55.8767C86.0872 55.8767 83.4558 53.2453 83.4558 49.9993C83.4558 46.7533 86.0872 44.1219 89.3332 44.1219C92.5792 44.1219 95.2106 46.7533 95.2106 49.9993Z" fill="#0D2A3E"/>
<path d="M10.6349 112.113H53.3102L60.1936 118.997H280.109" stroke="#0D2A3E" stroke-miterlimit="10" stroke-linecap="round" stroke-linejoin="round"/>
<path d="M167.57 131.73V47.7562H217.473V18.8469" stroke="#0D2A3E" stroke-miterlimit="10" stroke-linecap="round" stroke-linejoin="round"/>
<path d="M140.234 29.7845L141.414 29.2467L141.165 27.8294L139.863 27.7285C139.695 27.2884 139.476 26.8754 139.211 26.4945L139.883 25.3605L138.865 24.3433L137.723 25.0219C137.077 24.5842 136.338 24.276 135.541 24.1312L135.21 22.8259H133.771L133.44 24.1392C132.988 24.2248 132.554 24.3649 132.146 24.5505L131.118 23.6598L129.939 24.4849L130.425 25.7574C130.108 26.0799 129.831 26.4401 129.598 26.8298L128.243 26.6905L127.751 28.0423L128.872 28.8034C128.82 29.1139 128.791 29.4332 128.791 29.7581C128.791 29.8942 128.798 30.0286 128.807 30.1623L127.627 30.8209L127.999 32.211L129.335 32.1942C129.532 32.6136 129.779 33.0049 130.068 33.3611L129.491 34.5591L130.593 35.4843L131.662 34.7192C132.063 34.9497 132.494 35.1337 132.949 35.2626L133.163 36.5511L134.597 36.6767L135.029 35.4563C135.508 35.413 135.97 35.3114 136.408 35.1577L137.313 36.0765L138.559 35.357L138.216 34.1174C138.577 33.8108 138.898 33.4603 139.173 33.0738L140.44 33.3074L141.048 32.0038L140.055 31.1834C140.171 30.7369 140.232 30.2679 140.234 29.7845ZM138.106 29.7597C138.106 31.7437 136.497 33.3523 134.513 33.3523C132.529 33.3523 130.921 31.7437 130.921 29.7597C130.921 27.7758 132.529 26.1672 134.513 26.1672C136.497 26.1672 138.106 27.7758 138.106 29.7597Z" fill="#0D2A3E"/>
<path d="M158.456 46.0123L159.637 45.4745L159.387 44.0572L158.085 43.9564C157.918 43.5162 157.698 43.1024 157.434 42.7223L158.105 41.5883L157.088 40.5711L155.945 41.2497C155.3 40.812 154.56 40.5039 153.763 40.359L153.433 39.0537H151.994L151.663 40.367C151.21 40.4526 150.777 40.5919 150.368 40.7784L149.34 39.8884L148.161 40.7135L148.647 41.9868C148.331 42.3093 148.053 42.6695 147.82 43.0592L146.465 42.92L145.973 44.2717L147.094 45.0328C147.042 45.3433 147.014 45.6626 147.014 45.9883C147.014 46.1244 147.02 46.2588 147.03 46.3925L145.85 47.0511L146.222 48.4412L147.558 48.4244C147.755 48.8438 148.002 49.2351 148.291 49.5913L147.715 50.7893L148.817 51.7145L149.885 50.9494C150.286 51.1799 150.717 51.3639 151.172 51.4928L151.386 52.7813L152.82 52.9069L153.252 51.6865C153.731 51.6433 154.194 51.5416 154.632 51.388L155.536 52.3067L156.782 51.5872L156.44 50.3476C156.801 50.0411 157.121 49.6905 157.397 49.304L158.663 49.5377L159.271 48.234L158.278 47.4137C158.393 46.9639 158.455 46.4949 158.456 46.0123ZM156.328 45.9875C156.328 47.9715 154.72 49.5801 152.736 49.5801C150.752 49.5801 149.143 47.9715 149.143 45.9875C149.143 44.0036 150.752 42.395 152.736 42.395C154.72 42.395 156.328 44.0028 156.328 45.9875Z" fill="#0D2A3E"/>
<path d="M36.4474 108.671C39.1082 108.671 41.2652 106.514 41.2652 103.853C41.2652 101.192 39.1082 99.0355 36.4474 99.0355C33.7866 99.0355 31.6296 101.192 31.6296 103.853C31.6296 106.514 33.7866 108.671 36.4474 108.671Z" fill="#0D2A3E"/>
<path d="M36.4474 107.639C38.5381 107.639 40.2328 105.944 40.2328 103.853C40.2328 101.763 38.5381 100.068 36.4474 100.068C34.3568 100.068 32.662 101.763 32.662 103.853C32.662 105.944 34.3568 107.639 36.4474 107.639Z" fill="#FFBA6B" stroke="#0D2A3E" stroke-miterlimit="10" stroke-linecap="round" stroke-linejoin="round"/>
<path d="M123.175 92.3841H84.6293V111.313H123.175V92.3841Z" fill="white" stroke="#0D2A3E" stroke-width="0.75" stroke-miterlimit="10" stroke-linecap="round" stroke-linejoin="round"/>
<path d="M109.409 53.1509H70.8632V131.619H109.409V53.1509Z" fill="white" stroke="#0D2A3E" stroke-width="0.75" stroke-miterlimit="10" stroke-linecap="round" stroke-linejoin="round"/>
<path d="M209.214 124.391H119.82L128.759 71.8515H200.274L209.214 124.391Z" fill="white" stroke="#0D2A3E" stroke-width="0.75" stroke-miterlimit="10" stroke-linecap="round" stroke-linejoin="round"/>
<path d="M140.383 74.4887H131.434V81.0279H140.383V74.4887Z" fill="#0D2A3E"/>
<path d="M152.084 74.4887H143.136V81.0279H152.084V74.4887Z" fill="#0D2A3E"/>
<path d="M193.727 74.4887H171.701V81.0279H193.727V74.4887Z" fill="#0D2A3E"/>
<path d="M216.441 79.0791H112.592V131.618H216.441V79.0791Z" fill="white" stroke="#0D2A3E" stroke-width="0.75" stroke-miterlimit="10" stroke-linecap="round" stroke-linejoin="round"/>
<path d="M152.772 83.7801H151.396V97.8902H152.772V83.7801Z" fill="#0D2A3E"/>
<path d="M157.59 83.78H156.213V97.8901H157.59V83.78Z" fill="#0D2A3E"/>
<path d="M162.409 83.78H161.032V97.8901H162.409V83.78Z" fill="#0D2A3E"/>
<path d="M200.955 83.78H199.578V97.8901H200.955V83.78Z" fill="#0D2A3E"/>
<path d="M205.773 83.78H204.397V97.8901H205.773V83.78Z" fill="#0D2A3E"/>
<path d="M210.591 83.78H209.214V97.8901H210.591V83.78Z" fill="#0D2A3E"/>
<path d="M216.441 95.8262H112.592V107.872H216.441V95.8262Z" fill="white" stroke="#0D2A3E" stroke-width="0.75" stroke-miterlimit="10" stroke-linecap="round" stroke-linejoin="round"/>
<path d="M155.869 97.8911H152.772V100.988H155.869V97.8911Z" fill="#0D2A3E"/>
<path d="M162.581 97.8911H159.483V100.988H162.581V97.8911Z" fill="#0D2A3E"/>
<path d="M169.292 97.8911H166.195V100.988H169.292V97.8911Z" fill="#0D2A3E"/>
<path d="M155.869 102.881H152.772V105.978H155.869V102.881Z" fill="#0D2A3E"/>
<path d="M162.581 102.881H159.483V105.978H162.581V102.881Z" fill="#0D2A3E"/>
<path d="M169.292 102.881H166.195V105.978H169.292V102.881Z" fill="#0D2A3E"/>
<path d="M92.3724 109.076H89.2752V112.173H92.3724V109.076Z" fill="#0D2A3E"/>
<path d="M99.0827 109.076H95.9855V112.173H99.0827V109.076Z" fill="#0D2A3E"/>
<path d="M105.794 109.076H102.697V112.173H105.794V109.076Z" fill="#0D2A3E"/>
<path d="M200.094 102.881H196.997V105.978H200.094V102.881Z" fill="#0D2A3E"/>
<path d="M206.805 102.881H203.708V105.978H206.805V102.881Z" fill="#0D2A3E"/>
<path d="M213.517 102.881H210.42V105.978H213.517V102.881Z" fill="#0D2A3E"/>
<path d="M216.441 107.872H112.592V112.689H216.441V107.872Z" fill="#0D2A3E" stroke="#0D2A3E" stroke-width="0.75" stroke-miterlimit="10" stroke-linecap="round" stroke-linejoin="round"/>
<path d="M106.655 77.2415C106.655 78.1923 105.884 78.9622 104.934 78.9622C103.984 78.9622 103.214 78.1915 103.214 77.2415C103.214 76.2916 103.984 75.5209 104.934 75.5209C105.884 75.5209 106.655 76.2908 106.655 77.2415Z" fill="#0D2A3E"/>
<path d="M94.1564 58.0304C94.1564 58.9812 93.3858 59.7511 92.4358 59.7511C91.4858 59.7511 90.7151 58.9804 90.7151 58.0304C90.7151 57.0796 91.4858 56.3098 92.4358 56.3098C93.3858 56.3098 94.1564 57.0804 94.1564 58.0304Z" fill="#0D2A3E"/>
<path d="M106.655 58.0304C106.655 58.9812 105.884 59.7511 104.934 59.7511C103.984 59.7511 103.214 58.9804 103.214 58.0304C103.214 57.0796 103.984 56.3098 104.934 56.3098C105.884 56.3098 106.655 57.0804 106.655 58.0304Z" fill="#0D2A3E"/>
<path d="M106.655 86.878C106.655 87.8288 105.884 88.5986 104.934 88.5986C103.984 88.5986 103.214 87.828 103.214 86.878C103.214 85.928 103.984 85.1573 104.934 85.1573C105.884 85.1573 106.655 85.9272 106.655 86.878Z" fill="#0D2A3E"/>
<path d="M106.655 96.5144C106.655 97.4652 105.884 98.2351 104.934 98.2351C103.984 98.2351 103.214 97.4644 103.214 96.5144C103.214 95.5637 103.984 94.7938 104.934 94.7938C105.884 94.7938 106.655 95.5637 106.655 96.5144Z" fill="#0D2A3E"/>
<path d="M125.927 86.8782C125.927 84.2172 123.771 82.0604 121.109 82.0604C118.448 82.0604 116.291 84.2172 116.291 86.8782C116.291 89.5392 118.448 91.6968 121.109 91.6968C123.771 91.696 125.927 89.5392 125.927 86.8782Z" fill="#0D2A3E"/>
<path d="M124.895 86.8782C124.895 84.787 123.2 83.0928 121.11 83.0928C119.018 83.0928 117.324 84.7878 117.324 86.8782C117.324 88.9686 119.019 90.6637 121.11 90.6637C123.201 90.6637 124.895 88.9686 124.895 86.8782Z" fill="white" stroke="#0D2A3E" stroke-width="0.75" stroke-miterlimit="10" stroke-linecap="round" stroke-linejoin="round"/>
<path d="M99.0837 95.1381C99.0837 92.4771 96.9269 90.3195 94.2651 90.3195C91.6041 90.3195 89.4473 92.4771 89.4473 95.1381C89.4473 97.7991 91.6041 99.9559 94.2651 99.9559C96.9261 99.9559 99.0837 97.7991 99.0837 95.1381Z" fill="#0D2A3E"/>
<path d="M98.0513 95.1381C98.0513 93.0469 96.3563 91.3527 94.2659 91.3527C92.1755 91.3527 90.4805 93.0477 90.4805 95.1381C90.4805 97.2285 92.1755 98.9235 94.2659 98.9235C96.3563 98.9235 98.0513 97.2285 98.0513 95.1381Z" fill="white" stroke="#0D2A3E" stroke-width="0.75" stroke-miterlimit="10" stroke-linecap="round" stroke-linejoin="round"/>
<path d="M108.377 105.807H80.1557V129.897" stroke="#0D2A3E" stroke-width="0.75" stroke-miterlimit="10" stroke-linecap="round" stroke-linejoin="round"/>
<path d="M107.344 62.7874H89.7922L82.7367 55.732H72.5841" stroke="#0D2A3E" stroke-width="0.75" stroke-miterlimit="10" stroke-linecap="round" stroke-linejoin="round"/>
<path d="M166.883 84.8133H173.422" stroke="#0D2A3E" stroke-width="0.75" stroke-miterlimit="10" stroke-linecap="round" stroke-linejoin="round"/>
<path d="M166.883 87.5663H173.422" stroke="#0D2A3E" stroke-width="0.75" stroke-miterlimit="10" stroke-linecap="round" stroke-linejoin="round"/>
<path d="M166.883 90.3194H173.422" stroke="#0D2A3E" stroke-width="0.75" stroke-miterlimit="10" stroke-linecap="round" stroke-linejoin="round"/>
<path d="M234.561 61.5056C234.561 61.5056 232.417 60.8749 231.155 62.8933C229.894 64.9116 231.282 69.8311 231.786 71.0924C232.29 72.3537 234.308 71.5966 234.308 71.5966L234.939 73.2364L236.705 72.9843V70.7138C236.705 70.7138 237.967 67.9392 237.715 64.9116C237.462 61.8841 235.318 61.5056 234.561 61.5056Z" fill="white" stroke="#0D2A3E" stroke-width="0.75" stroke-miterlimit="10" stroke-linecap="round" stroke-linejoin="round"/>
<path d="M234.324 83.7836L225.282 84.0317L235.439 85.2706L234.324 83.7836Z" fill="white" stroke="#0D2A3E" stroke-width="0.75" stroke-miterlimit="10" stroke-linecap="round" stroke-linejoin="round"/>
<path d="M231.281 104.643C231.281 104.643 230.872 113.929 230.62 117.588C230.368 121.246 230.241 129.696 230.241 129.696H231.251L233.269 114.055L234.435 104.516L231.281 104.643Z" fill="white" stroke="#0D2A3E" stroke-width="0.75" stroke-miterlimit="10" stroke-linecap="round" stroke-linejoin="round"/>
<path d="M235.443 104.517L237.305 118.345L242.603 129.697H243.612L239.45 117.714L239.101 104.643L235.443 104.517Z" fill="white" stroke="#0D2A3E" stroke-width="0.75" stroke-miterlimit="10" stroke-linecap="round" stroke-linejoin="round"/>
<path d="M230.241 129.697L227.592 132.598L231.25 131.21V129.697H230.241Z" fill="white" stroke="#0D2A3E" stroke-width="0.75" stroke-miterlimit="10" stroke-linecap="round" stroke-linejoin="round"/>
<path d="M242.603 129.697L239.954 132.598L243.612 131.21V129.697H242.603Z" fill="white" stroke="#0D2A3E" stroke-width="0.75" stroke-miterlimit="10" stroke-linecap="round" stroke-linejoin="round"/>
<path d="M234.939 73.2356C234.939 73.2356 232.038 79.0377 232.038 79.7948C232.038 80.5519 234.182 84.7143 234.182 84.7143L230.384 110.819H240.727L239.858 97.0757C239.858 97.0757 240.489 92.9134 239.48 89.6337C238.471 86.3541 237.588 84.0836 237.588 84.0836L238.849 78.5335L236.705 72.9835L234.939 73.2356Z" fill="#0D2A3E" stroke="#0D2A3E" stroke-width="0.75" stroke-miterlimit="10" stroke-linecap="round" stroke-linejoin="round"/>
<path d="M237.713 64.9108C237.461 61.8833 235.317 61.5056 234.56 61.5056C234.56 61.5056 232.416 60.8749 231.155 62.8933C231.009 63.1262 230.903 63.4015 230.822 63.7008C231.369 63.3511 232.362 62.9653 233.299 63.9025C234.687 65.2902 233.299 66.1729 233.93 66.93C234.56 67.6871 236.074 67.0565 235.822 68.3177C235.641 69.2205 235.797 70.2425 236.727 70.6634C236.887 70.2897 237.947 67.7103 237.713 64.9108Z" fill="#0D2A3E" stroke="#0D2A3E" stroke-width="0.75" stroke-miterlimit="10" stroke-linecap="round" stroke-linejoin="round"/>
<path d="M242.381 65.4159C242.381 66.7396 241.308 67.8128 239.984 67.8128C238.66 67.8128 237.587 66.7396 237.587 65.4159C237.587 64.0922 238.66 63.019 239.984 63.019C241.308 63.019 242.381 64.0922 242.381 65.4159Z" fill="#0D2A3E" stroke="#0D2A3E" stroke-width="0.75" stroke-miterlimit="10" stroke-linecap="round" stroke-linejoin="round"/>
<path d="M221.441 80.8113L226.892 89.9771L227.759 89.4817L222.309 80.1918L221.441 80.8113Z" fill="white" stroke="#0D2A3E" stroke-width="0.75" stroke-miterlimit="10" stroke-linecap="round" stroke-linejoin="round"/>
<path d="M236.957 76.2631C236.957 76.2631 235.57 75.759 235.318 77.2723C235.066 78.7857 234.056 85.5971 234.056 85.5971H223.84L224.849 86.4798L235.696 87.7411L237.588 78.9113C237.588 78.9113 238.597 77.5244 236.957 76.2631Z" fill="white" stroke="#0D2A3E" stroke-width="0.75" stroke-miterlimit="10" stroke-linecap="round" stroke-linejoin="round"/>
<path d="M189.8 90.1234H187.007V94.9012H189.8V90.1234Z" fill="white" stroke="#0D2A3E" stroke-width="0.75" stroke-miterlimit="10" stroke-linecap="round" stroke-linejoin="round"/>
<path d="M185.995 87.953H184.865V90.2131H185.995V87.953Z" fill="white" stroke="#0D2A3E" stroke-width="0.75" stroke-miterlimit="10" stroke-linecap="round" stroke-linejoin="round"/>
<path d="M191.801 87.953H190.671V90.2131H191.801V87.953Z" fill="white" stroke="#0D2A3E" stroke-width="0.75" stroke-miterlimit="10" stroke-linecap="round" stroke-linejoin="round"/>
<path d="M188.321 93.1229C186.936 93.1229 185.814 92.0001 185.814 90.6156V86.8109C185.814 85.4256 186.937 84.3036 188.321 84.3036C189.706 84.3036 190.829 85.4264 190.829 86.8109V90.6156C190.829 92.0001 189.707 93.1229 188.321 93.1229Z" fill="#0D2A3E" stroke="#0D2A3E" stroke-width="0.75" stroke-miterlimit="10" stroke-linecap="round" stroke-linejoin="round"/>
<path d="M181.207 113.399L176.939 113.932L178.273 131.005H179.473L179.873 118.067L182.808 117.833L181.207 113.399Z" fill="white" stroke="#0D2A3E" stroke-width="0.75" stroke-miterlimit="10" stroke-linecap="round" stroke-linejoin="round"/>
<path d="M194.813 113.399L199.081 113.932L197.747 131.005H196.547L196.147 118.067L193.212 117.833L194.813 113.399Z" fill="white" stroke="#0D2A3E" stroke-width="0.75" stroke-miterlimit="10" stroke-linecap="round" stroke-linejoin="round"/>
<path d="M179.207 93.824H197.214L193.012 117.833H182.808L179.207 93.824Z" fill="#FFBA6B" stroke="#0D2A3E" stroke-width="0.75" stroke-miterlimit="10" stroke-linecap="round" stroke-linejoin="round"/>
<path d="M179.207 93.824L174.305 102.627L172.504 99.226L171.404 99.5261L173.705 106.429L180.007 100.326L179.207 93.824Z" fill="#FFBA6B" stroke="#0D2A3E" stroke-width="0.75" stroke-miterlimit="10" stroke-linecap="round" stroke-linejoin="round"/>
<path d="M197.214 93.824L202.435 93.9481L204.327 89.5536L205.428 89.8537L203.127 96.7563L196.013 100.427L197.214 93.824Z" fill="#FFBA6B" stroke="#0D2A3E" stroke-width="0.75" stroke-miterlimit="10" stroke-linecap="round" stroke-linejoin="round"/>
<path d="M172.504 99.226L173.204 98.7258V97.6254L172.988 97.5814L172.647 98.008L171.804 96.525L170.771 97.3253L171.404 99.5261L172.504 99.226Z" fill="white" stroke="#0D2A3E" stroke-width="0.75" stroke-miterlimit="10" stroke-linecap="round" stroke-linejoin="round"/>
<path d="M204.327 89.5536L203.627 89.0534V87.953L203.843 87.909L204.185 88.3348L205.027 86.8526L206.061 87.6529L205.428 89.8537L204.327 89.5536Z" fill="white" stroke="#0D2A3E" stroke-width="0.75" stroke-miterlimit="10" stroke-linecap="round" stroke-linejoin="round"/>
<path d="M189.043 118.733H186.878V127.67H189.043V118.733Z" fill="white" stroke="#0D2A3E" stroke-width="0.75" stroke-miterlimit="10" stroke-linecap="round" stroke-linejoin="round"/>
<path d="M200.165 131.938L189.561 129.74V122.601H186.359V129.74L175.755 131.938V133.272L187.16 131.498V133.405H188.76V131.498L200.165 133.272V131.938Z" fill="#0D2A3E" stroke="#0D2A3E" stroke-width="0.75" stroke-miterlimit="10" stroke-linecap="round" stroke-linejoin="round"/>
<path d="M194.696 119.267H181.191L179.607 98.7258H196.28L194.696 119.267Z" fill="#0D2A3E" stroke="#0D2A3E" stroke-width="0.75" stroke-miterlimit="10" stroke-linecap="round" stroke-linejoin="round"/>
<path d="M191.078 92.7236H185.609V93.7904H191.078V92.7236Z" fill="white" stroke="#0D2A3E" stroke-width="0.75" stroke-miterlimit="10" stroke-linecap="round" stroke-linejoin="round"/>
<path d="M133.645 90.1233H130.852V94.9011H133.645V90.1233Z" fill="white" stroke="#0D2A3E" stroke-width="0.75" stroke-miterlimit="10" stroke-linecap="round" stroke-linejoin="round"/>
<path d="M129.84 87.9529H128.71V90.213H129.84V87.9529Z" fill="white" stroke="#0D2A3E" stroke-width="0.75" stroke-miterlimit="10" stroke-linecap="round" stroke-linejoin="round"/>
<path d="M135.646 87.9529H134.516V90.213H135.646V87.9529Z" fill="white" stroke="#0D2A3E" stroke-width="0.75" stroke-miterlimit="10" stroke-linecap="round" stroke-linejoin="round"/>
<path d="M132.166 93.1229C130.781 93.1229 129.659 92 129.659 90.6155V86.8109C129.659 85.4255 130.782 84.3035 132.166 84.3035C133.551 84.3035 134.674 85.4263 134.674 86.8109V90.6155C134.674 92 133.551 93.1229 132.166 93.1229Z" fill="#0D2A3E" stroke="#0D2A3E" stroke-width="0.75" stroke-miterlimit="10" stroke-linecap="round" stroke-linejoin="round"/>
<path d="M125.052 113.398L120.784 113.931L122.118 131.005H123.318L123.719 118.067L126.653 117.833L125.052 113.398Z" fill="white" stroke="#0D2A3E" stroke-width="0.75" stroke-miterlimit="10" stroke-linecap="round" stroke-linejoin="round"/>
<path d="M138.657 113.398L142.926 113.931L141.592 131.005H140.391L139.991 118.067L137.056 117.833L138.657 113.398Z" fill="white" stroke="#0D2A3E" stroke-width="0.75" stroke-miterlimit="10" stroke-linecap="round" stroke-linejoin="round"/>
<path d="M123.051 93.8239H141.058L136.856 117.833H126.653L123.051 93.8239Z" fill="#FFBA6B" stroke="#0D2A3E" stroke-width="0.75" stroke-miterlimit="10" stroke-linecap="round" stroke-linejoin="round"/>
<path d="M123.051 93.8239L118.149 102.627L116.349 99.2259L115.248 99.5261L117.549 106.429L123.851 100.326L123.051 93.8239Z" fill="#FFBA6B" stroke="#0D2A3E" stroke-width="0.75" stroke-miterlimit="10" stroke-linecap="round" stroke-linejoin="round"/>
<path d="M141.058 93.8239L145.96 102.627L147.76 99.2259L148.861 99.5261L146.56 106.429L139.857 100.426L141.058 93.8239Z" fill="#FFBA6B" stroke="#0D2A3E" stroke-width="0.75" stroke-miterlimit="10" stroke-linecap="round" stroke-linejoin="round"/>
<path d="M116.349 99.226L117.049 98.7258V97.6253L116.833 97.5813L116.492 98.0079L115.648 96.5249L114.615 97.3252L115.248 99.5261L116.349 99.226Z" fill="white" stroke="#0D2A3E" stroke-width="0.75" stroke-miterlimit="10" stroke-linecap="round" stroke-linejoin="round"/>
<path d="M147.761 99.226L147.06 98.7258V97.6253L147.277 97.5813L147.618 98.0079L148.461 96.5249L149.494 97.3252L148.861 99.5261L147.761 99.226Z" fill="white" stroke="#0D2A3E" stroke-width="0.75" stroke-miterlimit="10" stroke-linecap="round" stroke-linejoin="round"/>
<path d="M132.888 118.733H130.722V127.67H132.888V118.733Z" fill="white" stroke="#0D2A3E" stroke-width="0.75" stroke-miterlimit="10" stroke-linecap="round" stroke-linejoin="round"/>
<path d="M144.009 131.938L133.405 129.74V122.601H130.204V129.74L119.6 131.938V133.272L131.004 131.498V133.405H132.605V131.498L144.009 133.272V131.938Z" fill="#0D2A3E" stroke="#0D2A3E" stroke-width="0.75" stroke-miterlimit="10" stroke-linecap="round" stroke-linejoin="round"/>
<path d="M138.541 119.267H125.036L123.451 98.7258H140.125L138.541 119.267Z" fill="#0D2A3E" stroke="#0D2A3E" stroke-width="0.75" stroke-miterlimit="10" stroke-linecap="round" stroke-linejoin="round"/>
<path d="M134.922 92.7235H129.454V93.7903H134.922V92.7235Z" fill="white" stroke="#0D2A3E" stroke-width="0.75" stroke-miterlimit="10" stroke-linecap="round" stroke-linejoin="round"/>
<path d="M75.8717 66.1793V62.0946C75.8717 60.8981 76.6608 59.8265 77.8188 59.5264C78.2566 59.4128 78.7592 59.3231 79.317 59.2879C81.437 59.1551 82.3654 60.6132 82.7623 61.6736C83.1601 62.734 82.7623 68.4322 82.7623 68.4322C82.7623 68.4322 82.0996 69.3597 80.9072 68.8299V70.1552H76.0037L75.8717 66.1793Z" fill="white" stroke="#0D2A3E" stroke-width="0.75" stroke-miterlimit="10" stroke-linecap="round" stroke-linejoin="round"/>
<path d="M82.7631 61.6737C82.3653 60.6133 81.4378 59.156 79.3178 59.288C78.76 59.3232 78.2574 59.4128 77.8196 59.5265C76.6616 59.8266 75.8725 60.8982 75.8725 62.0947V66.1794L75.9293 67.8945C76.4007 68.193 76.9545 68.3986 77.5948 68.433C80.1125 68.5659 81.1729 67.1078 81.1729 67.1078L80.1125 66.4451L79.5827 64.0602L80.7752 63.7953L81.1729 65.5183H81.8355L81.7027 63.5304H82.4974L82.7631 61.6737Z" fill="#0D2A3E" stroke="#0D2A3E" stroke-width="0.75" stroke-miterlimit="10" stroke-linecap="round" stroke-linejoin="round"/>
<path d="M81.9674 69.8903H74.5462V71.7454H81.9674V69.8903Z" fill="white" stroke="#0D2A3E" stroke-width="0.75" stroke-miterlimit="10" stroke-linecap="round" stroke-linejoin="round"/>
<path d="M68.1855 83.6722L72.0285 78.371L74.0165 88.9726H84.2203L85.6785 79.1665L92.0393 81.0216L96.9427 68.5649L95.6174 68.1671L90.9789 76.251L85.8105 71.3476H71.3659L65.1379 82.8767L70.7032 93.0805L71.8965 92.6836L68.1855 83.6722Z" fill="#FFBA6B" stroke="#0D2A3E" stroke-width="0.75" stroke-miterlimit="10" stroke-linecap="round" stroke-linejoin="round"/>
<path d="M74.0164 88.9727L73.6187 94.2738L69.7756 130.981H71.2338L78.9199 97.1894H79.8474L88.3282 130.451H90.0513L84.7509 93.2135L84.2203 88.9727H74.0164Z" fill="#0D2A3E" stroke="#0D2A3E" stroke-width="0.75" stroke-miterlimit="10" stroke-linecap="round" stroke-linejoin="round"/>
<path d="M95.6174 68.1671L97.4725 63.1317L98.1352 63.2637L97.8703 64.589L99.4605 65.3837L98.7978 67.7694H98.0023L96.9427 68.5649L95.6174 68.1671Z" fill="white" stroke="#0D2A3E" stroke-width="0.75" stroke-miterlimit="10" stroke-linecap="round" stroke-linejoin="round"/>
<path d="M71.8966 92.6836L73.2267 95.6135L72.0334 96.2762L70.7033 93.0806L71.8966 92.6836Z" fill="white" stroke="#0D2A3E" stroke-width="0.75" stroke-miterlimit="10" stroke-linecap="round" stroke-linejoin="round"/>
<path d="M90.051 130.452L93.1225 132.598H88.4552L88.3279 130.452H90.051Z" fill="white" stroke="#0D2A3E" stroke-width="0.75" stroke-miterlimit="10" stroke-linecap="round" stroke-linejoin="round"/>
<path d="M69.7046 130.452L66.6339 132.598H71.3004L71.4276 130.452H69.7046Z" fill="white" stroke="#0D2A3E" stroke-width="0.75" stroke-miterlimit="10" stroke-linecap="round" stroke-linejoin="round"/>
<path d="M220.107 227.081H165.692C164.974 227.081 164.392 226.499 164.392 225.78V179.52C164.392 178.802 164.974 178.219 165.692 178.219H220.107V227.081Z" fill="white" stroke="#0D2A3E" stroke-miterlimit="10" stroke-linecap="round" stroke-linejoin="round"/>
<path d="M221.983 178.22H165.859V227.081H221.983V178.22Z" fill="#0D2A3E" stroke="#0D2A3E" stroke-miterlimit="10" stroke-linecap="round" stroke-linejoin="round"/>
<path d="M218.918 182.088H170.182V223.212H218.918V182.088Z" fill="white" stroke="#0D2A3E" stroke-miterlimit="10" stroke-linecap="round" stroke-linejoin="round"/>
<path d="M173.891 220.082H187.831V185.218H173.891V220.082Z" fill="white" stroke="#0D2A3E" stroke-miterlimit="10" stroke-linecap="round" stroke-linejoin="round"/>
<path d="M173.891 220.081H215.208V187.935H173.891V220.081Z" fill="white" stroke="#0D2A3E" stroke-miterlimit="10" stroke-linecap="round" stroke-linejoin="round"/>
<path d="M176.041 218.41H213.059V189.607H176.041V218.41Z" fill="#FFBA6B" stroke="#0D2A3E" stroke-miterlimit="10" stroke-linecap="round" stroke-linejoin="round"/>
<path d="M177.655 199.012H184.552" stroke="#0D2A3E" stroke-miterlimit="10" stroke-linecap="round" stroke-linejoin="round"/>
<path d="M177.655 201.101H184.552" stroke="#0D2A3E" stroke-miterlimit="10" stroke-linecap="round" stroke-linejoin="round"/>
<path d="M177.655 203.191H184.552" stroke="#0D2A3E" stroke-miterlimit="10" stroke-linecap="round" stroke-linejoin="round"/>
<path d="M177.655 206.743H207.959" stroke="#0D2A3E" stroke-miterlimit="10" stroke-linecap="round" stroke-linejoin="round"/>
<path d="M177.655 209.46H207.959" stroke="#0D2A3E" stroke-miterlimit="10" stroke-linecap="round" stroke-linejoin="round"/>
<path d="M177.655 212.177H207.959" stroke="#0D2A3E" stroke-miterlimit="10" stroke-linecap="round" stroke-linejoin="round"/>
<path d="M165.859 227.081L198.559 237.911H255.913L221.983 227.081H165.859Z" fill="white" stroke="#0D2A3E" stroke-miterlimit="10" stroke-linecap="round" stroke-linejoin="round"/>
<path d="M206.697 231.255L201.97 229.74L199.647 229.718L204.362 231.237L206.697 231.255Z" fill="white" stroke="#0D2A3E" stroke-width="0.25" stroke-miterlimit="10" stroke-linecap="round" stroke-linejoin="round"/>
<path d="M211.318 231.289L206.565 229.784L204.276 229.762L209.016 231.272L211.318 231.289Z" fill="white" stroke="#0D2A3E" stroke-width="0.25" stroke-miterlimit="10" stroke-linecap="round" stroke-linejoin="round"/>
<path d="M227.52 232.888L229.738 232.899L224.798 231.388L222.59 231.371L227.52 232.888Z" fill="white" stroke="#0D2A3E" stroke-width="0.25" stroke-miterlimit="10" stroke-linecap="round" stroke-linejoin="round"/>
<path d="M204.362 231.237L199.648 229.718L197.308 229.695L202.01 231.221L204.362 231.237Z" fill="white" stroke="#0D2A3E" stroke-width="0.25" stroke-miterlimit="10" stroke-linecap="round" stroke-linejoin="round"/>
<path d="M199.641 231.203L194.952 229.673L192.58 229.65L197.254 231.185L199.641 231.203Z" fill="white" stroke="#0D2A3E" stroke-width="0.25" stroke-miterlimit="10" stroke-linecap="round" stroke-linejoin="round"/>
<path d="M220.367 231.355L215.569 229.87L213.342 229.849L218.128 231.338L220.367 231.355Z" fill="white" stroke="#0D2A3E" stroke-width="0.25" stroke-miterlimit="10" stroke-linecap="round" stroke-linejoin="round"/>
<path d="M222.589 231.371L217.781 229.891L215.569 229.87L220.367 231.355L222.589 231.371Z" fill="white" stroke="#0D2A3E" stroke-width="0.25" stroke-miterlimit="10" stroke-linecap="round" stroke-linejoin="round"/>
<path d="M197.254 231.185L192.58 229.65L190.19 229.627L194.85 231.168L197.254 231.185Z" fill="white" stroke="#0D2A3E" stroke-width="0.25" stroke-miterlimit="10" stroke-linecap="round" stroke-linejoin="round"/>
<path d="M213.604 231.305L208.84 229.806L206.566 229.784L211.319 231.289L213.604 231.305Z" fill="white" stroke="#0D2A3E" stroke-width="0.25" stroke-miterlimit="10" stroke-linecap="round" stroke-linejoin="round"/>
<path d="M224.797 231.388L219.978 229.913L217.781 229.891L222.589 231.371L224.797 231.388Z" fill="white" stroke="#0D2A3E" stroke-width="0.25" stroke-miterlimit="10" stroke-linecap="round" stroke-linejoin="round"/>
<path d="M218.128 231.338L213.342 229.849L211.099 229.827L215.875 231.322L218.128 231.338Z" fill="white" stroke="#0D2A3E" stroke-width="0.25" stroke-miterlimit="10" stroke-linecap="round" stroke-linejoin="round"/>
<path d="M215.875 231.322L211.098 229.827L208.84 229.805L213.604 231.305L215.875 231.322Z" fill="white" stroke="#0D2A3E" stroke-width="0.25" stroke-miterlimit="10" stroke-linecap="round" stroke-linejoin="round"/>
<path d="M209.016 231.272L204.276 229.761L201.969 229.74L206.697 231.255L209.016 231.272Z" fill="white" stroke="#0D2A3E" stroke-width="0.25" stroke-miterlimit="10" stroke-linecap="round" stroke-linejoin="round"/>
<path d="M192.429 231.15L189.991 231.132L194.745 232.725L197.198 232.737L192.429 231.15Z" fill="white" stroke="#0D2A3E" stroke-width="0.25" stroke-miterlimit="10" stroke-linecap="round" stroke-linejoin="round"/>
<path d="M187.783 229.604L185.358 229.581L189.991 231.133L192.429 231.15L187.783 229.604Z" fill="white" stroke="#0D2A3E" stroke-width="0.25" stroke-miterlimit="10" stroke-linecap="round" stroke-linejoin="round"/>
<path d="M194.85 231.168L190.19 229.627L187.783 229.604L192.429 231.15L194.85 231.168Z" fill="white" stroke="#0D2A3E" stroke-width="0.25" stroke-miterlimit="10" stroke-linecap="round" stroke-linejoin="round"/>
<path d="M199.627 234.36L204.641 236.04H207.124L202.094 234.366L199.627 234.36Z" fill="white" stroke="#0D2A3E" stroke-width="0.25" stroke-miterlimit="10" stroke-linecap="round" stroke-linejoin="round"/>
<path d="M197.199 232.737L194.746 232.725L199.627 234.36L202.095 234.366L197.199 232.737Z" fill="white" stroke="#0D2A3E" stroke-width="0.25" stroke-miterlimit="10" stroke-linecap="round" stroke-linejoin="round"/>
<path d="M202.094 234.367L207.124 236.04H209.588L204.544 234.373L202.094 234.367Z" fill="white" stroke="#0D2A3E" stroke-width="0.25" stroke-miterlimit="10" stroke-linecap="round" stroke-linejoin="round"/>
<path d="M202.01 231.22L197.308 229.695L194.952 229.673L199.641 231.203L202.01 231.22Z" fill="white" stroke="#0D2A3E" stroke-width="0.25" stroke-miterlimit="10" stroke-linecap="round" stroke-linejoin="round"/>
<path d="M206.834 232.785L202.01 231.22L199.641 231.203L204.452 232.773L206.834 232.785Z" fill="white" stroke="#0D2A3E" stroke-width="0.25" stroke-miterlimit="10" stroke-linecap="round" stroke-linejoin="round"/>
<path d="M204.451 232.773L199.641 231.203L197.254 231.185L202.051 232.761L204.451 232.773Z" fill="white" stroke="#0D2A3E" stroke-width="0.25" stroke-miterlimit="10" stroke-linecap="round" stroke-linejoin="round"/>
<path d="M209.199 232.797L204.362 231.237L202.01 231.22L206.834 232.785L209.199 232.797Z" fill="white" stroke="#0D2A3E" stroke-width="0.25" stroke-miterlimit="10" stroke-linecap="round" stroke-linejoin="round"/>
<path d="M194.85 231.168L192.429 231.15L197.198 232.737L199.633 232.749L194.85 231.168Z" fill="white" stroke="#0D2A3E" stroke-width="0.25" stroke-miterlimit="10" stroke-linecap="round" stroke-linejoin="round"/>
<path d="M232.576 234.444L234.804 234.45L229.738 232.899L227.52 232.888L232.576 234.444Z" fill="white" stroke="#0D2A3E" stroke-width="0.25" stroke-miterlimit="10" stroke-linecap="round" stroke-linejoin="round"/>
<path d="M202.051 232.761L197.254 231.185L194.85 231.168L199.634 232.749L202.051 232.761Z" fill="white" stroke="#0D2A3E" stroke-width="0.25" stroke-miterlimit="10" stroke-linecap="round" stroke-linejoin="round"/>
<path d="M197.198 232.737L202.094 234.366L204.544 234.373L199.633 232.749L197.198 232.737Z" fill="white" stroke="#0D2A3E" stroke-width="0.25" stroke-miterlimit="10" stroke-linecap="round" stroke-linejoin="round"/>
<path d="M223.037 232.866L218.128 231.338L215.875 231.322L220.772 232.855L223.037 232.866Z" fill="white" stroke="#0D2A3E" stroke-width="0.25" stroke-miterlimit="10" stroke-linecap="round" stroke-linejoin="round"/>
<path d="M220.772 232.855L215.875 231.322L213.604 231.305L218.49 232.843L220.772 232.855Z" fill="white" stroke="#0D2A3E" stroke-width="0.25" stroke-miterlimit="10" stroke-linecap="round" stroke-linejoin="round"/>
<path d="M227.52 232.888L222.589 231.371L220.367 231.355L225.286 232.877L227.52 232.888Z" fill="white" stroke="#0D2A3E" stroke-width="0.25" stroke-miterlimit="10" stroke-linecap="round" stroke-linejoin="round"/>
<path d="M213.878 232.82L209.016 231.272L206.697 231.255L211.547 232.808L213.878 232.82Z" fill="white" stroke="#0D2A3E" stroke-width="0.25" stroke-miterlimit="10" stroke-linecap="round" stroke-linejoin="round"/>
<path d="M218.491 232.843L213.605 231.305L211.319 231.288L216.193 232.831L218.491 232.843Z" fill="white" stroke="#0D2A3E" stroke-width="0.25" stroke-miterlimit="10" stroke-linecap="round" stroke-linejoin="round"/>
<path d="M216.193 232.831L211.319 231.288L209.017 231.272L213.878 232.82L216.193 232.831Z" fill="white" stroke="#0D2A3E" stroke-width="0.25" stroke-miterlimit="10" stroke-linecap="round" stroke-linejoin="round"/>
<path d="M211.547 232.808L206.697 231.255L204.362 231.237L209.199 232.797L211.547 232.808Z" fill="white" stroke="#0D2A3E" stroke-width="0.25" stroke-miterlimit="10" stroke-linecap="round" stroke-linejoin="round"/>
<path d="M218.49 232.843L223.503 234.421L225.796 234.426L220.772 232.854L218.49 232.843Z" fill="white" stroke="#0D2A3E" stroke-width="0.25" stroke-miterlimit="10" stroke-linecap="round" stroke-linejoin="round"/>
<path d="M220.772 232.855L225.795 234.426L228.071 234.433L223.037 232.866L220.772 232.855Z" fill="white" stroke="#0D2A3E" stroke-width="0.25" stroke-miterlimit="10" stroke-linecap="round" stroke-linejoin="round"/>
<path d="M199.633 232.749L204.544 234.373L206.975 234.379L202.051 232.761L199.633 232.749Z" fill="white" stroke="#0D2A3E" stroke-width="0.25" stroke-miterlimit="10" stroke-linecap="round" stroke-linejoin="round"/>
<path d="M223.037 232.866L228.071 234.433L230.332 234.439L225.286 232.877L223.037 232.866Z" fill="white" stroke="#0D2A3E" stroke-width="0.25" stroke-miterlimit="10" stroke-linecap="round" stroke-linejoin="round"/>
<path d="M213.878 232.82L218.866 234.409L221.193 234.415L216.192 232.831L213.878 232.82Z" fill="white" stroke="#0D2A3E" stroke-width="0.25" stroke-miterlimit="10" stroke-linecap="round" stroke-linejoin="round"/>
<path d="M225.287 232.877L230.332 234.438L232.576 234.444L227.52 232.888L225.287 232.877Z" fill="white" stroke="#0D2A3E" stroke-width="0.25" stroke-miterlimit="10" stroke-linecap="round" stroke-linejoin="round"/>
<path d="M216.193 232.832L221.193 234.415L223.503 234.421L218.49 232.844L216.193 232.832Z" fill="white" stroke="#0D2A3E" stroke-width="0.25" stroke-miterlimit="10" stroke-linecap="round" stroke-linejoin="round"/>
<path d="M204.452 232.773L209.389 234.385L211.785 234.391L206.834 232.785L204.452 232.773Z" fill="white" stroke="#0D2A3E" stroke-width="0.25" stroke-miterlimit="10" stroke-linecap="round" stroke-linejoin="round"/>
<path d="M202.051 232.761L206.976 234.379L209.389 234.385L204.452 232.773L202.051 232.761Z" fill="white" stroke="#0D2A3E" stroke-width="0.25" stroke-miterlimit="10" stroke-linecap="round" stroke-linejoin="round"/>
<path d="M211.547 232.808L216.524 234.403L218.867 234.409L213.879 232.82L211.547 232.808Z" fill="white" stroke="#0D2A3E" stroke-width="0.25" stroke-miterlimit="10" stroke-linecap="round" stroke-linejoin="round"/>
<path d="M209.199 232.797L214.163 234.397L216.523 234.403L211.547 232.808L209.199 232.797Z" fill="white" stroke="#0D2A3E" stroke-width="0.25" stroke-miterlimit="10" stroke-linecap="round" stroke-linejoin="round"/>
<path d="M206.834 232.785L211.784 234.391L214.163 234.397L209.199 232.797L206.834 232.785Z" fill="white" stroke="#0D2A3E" stroke-width="0.25" stroke-miterlimit="10" stroke-linecap="round" stroke-linejoin="round"/>
<path d="M225.286 232.877L220.367 231.355L218.129 231.338L223.037 232.866L225.286 232.877Z" fill="white" stroke="#0D2A3E" stroke-width="0.25" stroke-miterlimit="10" stroke-linecap="round" stroke-linejoin="round"/>
<path d="M187.783 229.604L182.829 227.955L180.421 227.926L185.359 229.581L187.783 229.604Z" fill="white" stroke="#0D2A3E" stroke-width="0.25" stroke-miterlimit="10" stroke-linecap="round" stroke-linejoin="round"/>
<path d="M185.359 229.581L183.106 229.559L187.724 231.116L189.991 231.132L185.359 229.581Z" fill="white" stroke="#0D2A3E" stroke-width="0.25" stroke-miterlimit="10" stroke-linecap="round" stroke-linejoin="round"/>
<path d="M180.421 227.926L178.183 227.9L183.106 229.559L185.358 229.581L180.421 227.926Z" fill="white" stroke="#0D2A3E" stroke-width="0.25" stroke-miterlimit="10" stroke-linecap="round" stroke-linejoin="round"/>
<path d="M189.991 231.133L187.723 231.116L192.464 232.713L194.745 232.725L189.991 231.133Z" fill="white" stroke="#0D2A3E" stroke-width="0.25" stroke-miterlimit="10" stroke-linecap="round" stroke-linejoin="round"/>
<path d="M194.745 232.725L192.464 232.713L197.332 234.355L199.627 234.36L194.745 232.725Z" fill="white" stroke="#0D2A3E" stroke-width="0.25" stroke-miterlimit="10" stroke-linecap="round" stroke-linejoin="round"/>
<path d="M199.627 234.36L197.332 234.354L202.333 236.04H204.641L199.627 234.36Z" fill="white" stroke="#0D2A3E" stroke-width="0.25" stroke-miterlimit="10" stroke-linecap="round" stroke-linejoin="round"/>
<path d="M226.99 231.404L231.94 232.911L233.876 232.92L228.916 231.417L226.99 231.404Z" fill="white" stroke="#0D2A3E" stroke-width="0.25" stroke-miterlimit="10" stroke-linecap="round" stroke-linejoin="round"/>
<path d="M237.016 234.455L238.96 234.46L233.875 232.92L231.94 232.911L237.016 234.455Z" fill="white" stroke="#0D2A3E" stroke-width="0.25" stroke-miterlimit="10" stroke-linecap="round" stroke-linejoin="round"/>
<path d="M242.221 236.04H244.173L238.959 234.46L237.015 234.455L242.221 236.04Z" fill="white" stroke="#0D2A3E" stroke-width="0.25" stroke-miterlimit="10" stroke-linecap="round" stroke-linejoin="round"/>
<path d="M206.566 229.784L201.496 228.178L199.219 228.151L204.276 229.761L206.566 229.784Z" fill="white" stroke="#0D2A3E" stroke-width="0.25" stroke-miterlimit="10" stroke-linecap="round" stroke-linejoin="round"/>
<path d="M226.99 231.404L228.916 231.417L224.077 229.952L222.16 229.934L226.99 231.404Z" fill="white" stroke="#0D2A3E" stroke-width="0.25" stroke-miterlimit="10" stroke-linecap="round" stroke-linejoin="round"/>
<path d="M234.804 234.45L237.016 234.455L231.94 232.911L229.738 232.9L234.804 234.45Z" fill="white" stroke="#0D2A3E" stroke-width="0.25" stroke-miterlimit="10" stroke-linecap="round" stroke-linejoin="round"/>
<path d="M190.19 229.627L185.22 227.984L182.829 227.955L187.782 229.604L190.19 229.627Z" fill="white" stroke="#0D2A3E" stroke-width="0.25" stroke-miterlimit="10" stroke-linecap="round" stroke-linejoin="round"/>
<path d="M219.978 229.913L224.797 231.388L226.989 231.404L222.159 229.934L219.978 229.913Z" fill="white" stroke="#0D2A3E" stroke-width="0.25" stroke-miterlimit="10" stroke-linecap="round" stroke-linejoin="round"/>
<path d="M224.077 229.952L218.911 228.387L217.003 228.364L222.16 229.934L224.077 229.952Z" fill="white" stroke="#0D2A3E" stroke-width="0.25" stroke-miterlimit="10" stroke-linecap="round" stroke-linejoin="round"/>
<path d="M222.16 229.933L217.003 228.364L214.833 228.338L219.978 229.913L222.16 229.933Z" fill="white" stroke="#0D2A3E" stroke-width="0.25" stroke-miterlimit="10" stroke-linecap="round" stroke-linejoin="round"/>
<path d="M228.071 234.433L233.237 236.04H235.507L230.331 234.439L228.071 234.433Z" fill="white" stroke="#0D2A3E" stroke-width="0.25" stroke-miterlimit="10" stroke-linecap="round" stroke-linejoin="round"/>
<path d="M239.999 236.04H242.221L237.016 234.455L234.804 234.45L239.999 236.04Z" fill="white" stroke="#0D2A3E" stroke-width="0.25" stroke-miterlimit="10" stroke-linecap="round" stroke-linejoin="round"/>
<path d="M219.978 229.913L214.833 228.338L212.648 228.312L217.782 229.891L219.978 229.913Z" fill="white" stroke="#0D2A3E" stroke-width="0.25" stroke-miterlimit="10" stroke-linecap="round" stroke-linejoin="round"/>
<path d="M232.575 234.444L237.761 236.04H239.999L234.803 234.45L232.575 234.444Z" fill="white" stroke="#0D2A3E" stroke-width="0.25" stroke-miterlimit="10" stroke-linecap="round" stroke-linejoin="round"/>
<path d="M230.332 234.438L235.507 236.04H237.762L232.576 234.444L230.332 234.438Z" fill="white" stroke="#0D2A3E" stroke-width="0.25" stroke-miterlimit="10" stroke-linecap="round" stroke-linejoin="round"/>
<path d="M229.738 232.899L231.94 232.911L226.99 231.404L224.798 231.388L229.738 232.899Z" fill="white" stroke="#0D2A3E" stroke-width="0.25" stroke-miterlimit="10" stroke-linecap="round" stroke-linejoin="round"/>
<path d="M199.647 229.717L194.618 228.096L192.293 228.068L197.308 229.695L199.647 229.717Z" fill="white" stroke="#0D2A3E" stroke-width="0.25" stroke-miterlimit="10" stroke-linecap="round" stroke-linejoin="round"/>
<path d="M217.782 229.891L212.648 228.312L210.448 228.286L215.569 229.87L217.782 229.891Z" fill="white" stroke="#0D2A3E" stroke-width="0.25" stroke-miterlimit="10" stroke-linecap="round" stroke-linejoin="round"/>
<path d="M197.308 229.695L192.293 228.068L189.952 228.04L194.952 229.673L197.308 229.695Z" fill="white" stroke="#0D2A3E" stroke-width="0.25" stroke-miterlimit="10" stroke-linecap="round" stroke-linejoin="round"/>
<path d="M204.276 229.762L199.219 228.151L196.926 228.124L201.97 229.74L204.276 229.762Z" fill="white" stroke="#0D2A3E" stroke-width="0.25" stroke-miterlimit="10" stroke-linecap="round" stroke-linejoin="round"/>
<path d="M194.952 229.673L189.952 228.04L187.594 228.012L192.58 229.649L194.952 229.673Z" fill="white" stroke="#0D2A3E" stroke-width="0.25" stroke-miterlimit="10" stroke-linecap="round" stroke-linejoin="round"/>
<path d="M192.58 229.649L187.595 228.012L185.22 227.984L190.19 229.627L192.58 229.649Z" fill="white" stroke="#0D2A3E" stroke-width="0.25" stroke-miterlimit="10" stroke-linecap="round" stroke-linejoin="round"/>
<path d="M201.97 229.74L196.926 228.124L194.618 228.096L199.647 229.718L201.97 229.74Z" fill="white" stroke="#0D2A3E" stroke-width="0.25" stroke-miterlimit="10" stroke-linecap="round" stroke-linejoin="round"/>
<path d="M215.569 229.87L210.447 228.286L208.233 228.259L213.342 229.849L215.569 229.87Z" fill="white" stroke="#0D2A3E" stroke-width="0.25" stroke-miterlimit="10" stroke-linecap="round" stroke-linejoin="round"/>
<path d="M213.342 229.849L208.233 228.259L206.002 228.232L211.099 229.827L213.342 229.849Z" fill="white" stroke="#0D2A3E" stroke-width="0.25" stroke-miterlimit="10" stroke-linecap="round" stroke-linejoin="round"/>
<path d="M208.84 229.805L203.757 228.206L201.496 228.178L206.566 229.784L208.84 229.805Z" fill="white" stroke="#0D2A3E" stroke-width="0.25" stroke-miterlimit="10" stroke-linecap="round" stroke-linejoin="round"/>
<path d="M228.072 234.433L225.796 234.426L223.503 234.421L221.193 234.415L218.867 234.409L216.524 234.403L214.163 234.397L211.785 234.391L209.39 234.385L206.976 234.379L204.545 234.373L209.588 236.04H212.033H214.46H216.868H219.259H221.632H223.987H226.326H228.646H230.95H233.237L228.072 234.433Z" fill="white" stroke="#0D2A3E" stroke-width="0.25" stroke-miterlimit="10" stroke-linecap="round" stroke-linejoin="round"/>
<path d="M211.099 229.827L206.002 228.232L203.757 228.206L208.84 229.806L211.099 229.827Z" fill="white" stroke="#0D2A3E" stroke-width="0.25" stroke-miterlimit="10" stroke-linecap="round" stroke-linejoin="round"/>
<path d="M165.859 227.081V228.712L198.545 240L198.559 237.911L165.859 227.081Z" fill="white" stroke="#0D2A3E" stroke-miterlimit="10" stroke-linecap="round" stroke-linejoin="round"/>
<path d="M255.913 237.911H198.559V240H255.913V237.911Z" fill="#0D2A3E" stroke="#0D2A3E" stroke-miterlimit="10" stroke-linecap="round" stroke-linejoin="round"/>
<path d="M182.734 160.152L195.27 179.275L207.806 160.152H202.56V136.579H187.981V160.152H182.734Z" fill="#FFBA6B" stroke="#0D2A3E" stroke-miterlimit="10" stroke-linecap="round" stroke-linejoin="round"/>
<path d="M69.3733 227.081H123.788C124.506 227.081 125.089 226.499 125.089 225.78V179.52C125.089 178.802 124.507 178.219 123.788 178.219H69.3733V227.081Z" fill="white" stroke="#0D2A3E" stroke-miterlimit="10" stroke-linecap="round" stroke-linejoin="round"/>
<path d="M67.4975 227.081H123.622V178.219H67.4975V227.081Z" fill="#0D2A3E" stroke="#0D2A3E" stroke-miterlimit="10" stroke-linecap="round" stroke-linejoin="round"/>
<path d="M70.5632 223.212H119.299V182.088H70.5632V223.212Z" fill="white" stroke="#0D2A3E" stroke-miterlimit="10" stroke-linecap="round" stroke-linejoin="round"/>
<path d="M74.2728 220.082H88.2125V185.218H74.2728V220.082Z" fill="white" stroke="#0D2A3E" stroke-miterlimit="10" stroke-linecap="round" stroke-linejoin="round"/>
<path d="M74.2728 220.082H115.589V187.935H74.2728V220.082Z" fill="white" stroke="#0D2A3E" stroke-miterlimit="10" stroke-linecap="round" stroke-linejoin="round"/>
<path d="M76.4219 218.41H113.441V189.607H76.4219V218.41Z" fill="#FFBA6B" stroke="#0D2A3E" stroke-miterlimit="10" stroke-linecap="round" stroke-linejoin="round"/>
<path d="M78.0367 199.012H84.9329" stroke="#0D2A3E" stroke-miterlimit="10" stroke-linecap="round" stroke-linejoin="round"/>
<path d="M78.0367 201.101H84.9329" stroke="#0D2A3E" stroke-miterlimit="10" stroke-linecap="round" stroke-linejoin="round"/>
<path d="M78.0367 203.191H84.9329" stroke="#0D2A3E" stroke-miterlimit="10" stroke-linecap="round" stroke-linejoin="round"/>
<path d="M78.0367 206.744H108.339" stroke="#0D2A3E" stroke-miterlimit="10" stroke-linecap="round" stroke-linejoin="round"/>
<path d="M78.0367 209.461H108.339" stroke="#0D2A3E" stroke-miterlimit="10" stroke-linecap="round" stroke-linejoin="round"/>
<path d="M78.0367 212.178H108.339" stroke="#0D2A3E" stroke-miterlimit="10" stroke-linecap="round" stroke-linejoin="round"/>
<path d="M123.622 227.081L90.922 237.911H33.5684L67.4972 227.081H123.622Z" fill="white" stroke="#0D2A3E" stroke-miterlimit="10" stroke-linecap="round" stroke-linejoin="round"/>
<path d="M82.7837 231.255L87.5111 229.74L89.8343 229.718L85.119 231.238L82.7837 231.255Z" fill="white" stroke="#0D2A3E" stroke-width="0.25" stroke-miterlimit="10" stroke-linecap="round" stroke-linejoin="round"/>
<path d="M78.1625 231.289L82.9147 229.784L85.2051 229.762L80.4649 231.272L78.1625 231.289Z" fill="white" stroke="#0D2A3E" stroke-width="0.25" stroke-miterlimit="10" stroke-linecap="round" stroke-linejoin="round"/>
<path d="M61.9614 232.889L59.7438 232.9L64.684 231.388L66.8913 231.371L61.9614 232.889Z" fill="white" stroke="#0D2A3E" stroke-width="0.25" stroke-miterlimit="10" stroke-linecap="round" stroke-linejoin="round"/>
<path d="M85.119 231.237L89.8343 229.718L92.1728 229.695L87.471 231.221L85.119 231.237Z" fill="white" stroke="#0D2A3E" stroke-width="0.25" stroke-miterlimit="10" stroke-linecap="round" stroke-linejoin="round"/>
<path d="M89.8403 231.203L94.5284 229.673L96.9013 229.65L92.2268 231.185L89.8403 231.203Z" fill="white" stroke="#0D2A3E" stroke-width="0.25" stroke-miterlimit="10" stroke-linecap="round" stroke-linejoin="round"/>
<path d="M69.1137 231.355L73.9123 229.87L76.1396 229.849L71.3521 231.338L69.1137 231.355Z" fill="white" stroke="#0D2A3E" stroke-width="0.25" stroke-miterlimit="10" stroke-linecap="round" stroke-linejoin="round"/>
<path d="M66.891 231.371L71.7 229.892L73.912 229.871L69.1134 231.355L66.891 231.371Z" fill="white" stroke="#0D2A3E" stroke-width="0.25" stroke-miterlimit="10" stroke-linecap="round" stroke-linejoin="round"/>
<path d="M92.2271 231.185L96.9017 229.65L99.2914 229.627L94.6304 231.168L92.2271 231.185Z" fill="white" stroke="#0D2A3E" stroke-width="0.25" stroke-miterlimit="10" stroke-linecap="round" stroke-linejoin="round"/>
<path d="M75.8764 231.305L80.6406 229.806L82.9151 229.784L78.1629 231.289L75.8764 231.305Z" fill="white" stroke="#0D2A3E" stroke-width="0.25" stroke-miterlimit="10" stroke-linecap="round" stroke-linejoin="round"/>
<path d="M64.6839 231.388L69.5033 229.913L71.7001 229.891L66.8911 231.371L64.6839 231.388Z" fill="white" stroke="#0D2A3E" stroke-width="0.25" stroke-miterlimit="10" stroke-linecap="round" stroke-linejoin="round"/>
<path d="M71.3521 231.338L76.1395 229.849L78.3819 229.827L73.6065 231.322L71.3521 231.338Z" fill="white" stroke="#0D2A3E" stroke-width="0.25" stroke-miterlimit="10" stroke-linecap="round" stroke-linejoin="round"/>
<path d="M73.6068 231.322L78.3822 229.828L80.6407 229.806L75.8765 231.306L73.6068 231.322Z" fill="white" stroke="#0D2A3E" stroke-width="0.25" stroke-miterlimit="10" stroke-linecap="round" stroke-linejoin="round"/>
<path d="M80.4648 231.272L85.205 229.762L87.5107 229.74L82.7833 231.255L80.4648 231.272Z" fill="white" stroke="#0D2A3E" stroke-width="0.25" stroke-miterlimit="10" stroke-linecap="round" stroke-linejoin="round"/>
<path d="M97.0516 231.15L99.4909 231.133L94.7363 232.725L92.2826 232.737L97.0516 231.15Z" fill="white" stroke="#0D2A3E" stroke-width="0.25" stroke-miterlimit="10" stroke-linecap="round" stroke-linejoin="round"/>
<path d="M101.698 229.604L104.122 229.581L99.4909 231.133L97.0516 231.15L101.698 229.604Z" fill="white" stroke="#0D2A3E" stroke-width="0.25" stroke-miterlimit="10" stroke-linecap="round" stroke-linejoin="round"/>
<path d="M94.6304 231.168L99.2913 229.627L101.698 229.604L97.0513 231.15L94.6304 231.168Z" fill="white" stroke="#0D2A3E" stroke-width="0.25" stroke-miterlimit="10" stroke-linecap="round" stroke-linejoin="round"/>
<path d="M89.8542 234.36L84.8395 236.04H82.357L87.3861 234.367L89.8542 234.36Z" fill="white" stroke="#0D2A3E" stroke-width="0.25" stroke-miterlimit="10" stroke-linecap="round" stroke-linejoin="round"/>
<path d="M92.2825 232.737L94.7362 232.725L89.8544 234.36L87.3862 234.367L92.2825 232.737Z" fill="white" stroke="#0D2A3E" stroke-width="0.25" stroke-miterlimit="10" stroke-linecap="round" stroke-linejoin="round"/>
<path d="M87.386 234.367L82.3569 236.04H79.8936L84.9363 234.373L87.386 234.367Z" fill="white" stroke="#0D2A3E" stroke-width="0.25" stroke-miterlimit="10" stroke-linecap="round" stroke-linejoin="round"/>
<path d="M87.4706 231.221L92.1724 229.695L94.5285 229.673L89.8403 231.203L87.4706 231.221Z" fill="white" stroke="#0D2A3E" stroke-width="0.25" stroke-miterlimit="10" stroke-linecap="round" stroke-linejoin="round"/>
<path d="M82.6477 232.785L87.4711 231.221L89.8408 231.203L85.0302 232.774L82.6477 232.785Z" fill="white" stroke="#0D2A3E" stroke-width="0.25" stroke-miterlimit="10" stroke-linecap="round" stroke-linejoin="round"/>
<path d="M85.0299 232.774L89.8405 231.203L92.227 231.186L87.4292 232.762L85.0299 232.774Z" fill="white" stroke="#0D2A3E" stroke-width="0.25" stroke-miterlimit="10" stroke-linecap="round" stroke-linejoin="round"/>
<path d="M80.282 232.797L85.119 231.238L87.4711 231.221L82.6477 232.785L80.282 232.797Z" fill="white" stroke="#0D2A3E" stroke-width="0.25" stroke-miterlimit="10" stroke-linecap="round" stroke-linejoin="round"/>
<path d="M94.6307 231.168L97.0516 231.15L92.2826 232.737L89.8473 232.749L94.6307 231.168Z" fill="white" stroke="#0D2A3E" stroke-width="0.25" stroke-miterlimit="10" stroke-linecap="round" stroke-linejoin="round"/>
<path d="M56.9058 234.444L54.6778 234.45L59.7437 232.9L61.9613 232.889L56.9058 234.444Z" fill="white" stroke="#0D2A3E" stroke-width="0.25" stroke-miterlimit="10" stroke-linecap="round" stroke-linejoin="round"/>
<path d="M87.4292 232.761L92.227 231.185L94.6303 231.168L89.8469 232.749L87.4292 232.761Z" fill="white" stroke="#0D2A3E" stroke-width="0.25" stroke-miterlimit="10" stroke-linecap="round" stroke-linejoin="round"/>
<path d="M92.2821 232.737L87.3858 234.367L84.9361 234.373L89.8467 232.749L92.2821 232.737Z" fill="white" stroke="#0D2A3E" stroke-width="0.25" stroke-miterlimit="10" stroke-linecap="round" stroke-linejoin="round"/>
<path d="M66.444 232.866L71.3522 231.338L73.6067 231.322L68.7096 232.855L66.444 232.866Z" fill="white" stroke="#0D2A3E" stroke-width="0.25" stroke-miterlimit="10" stroke-linecap="round" stroke-linejoin="round"/>
<path d="M68.7097 232.855L73.6067 231.323L75.8764 231.306L70.9905 232.844L68.7097 232.855Z" fill="white" stroke="#0D2A3E" stroke-width="0.25" stroke-miterlimit="10" stroke-linecap="round" stroke-linejoin="round"/>
<path d="M61.961 232.889L66.8909 231.371L69.1133 231.355L64.1938 232.877L61.961 232.889Z" fill="white" stroke="#0D2A3E" stroke-width="0.25" stroke-miterlimit="10" stroke-linecap="round" stroke-linejoin="round"/>
<path d="M75.6036 232.821L80.4655 231.272L82.7839 231.255L77.9341 232.809L75.6036 232.821Z" fill="white" stroke="#0D2A3E" stroke-width="0.25" stroke-miterlimit="10" stroke-linecap="round" stroke-linejoin="round"/>
<path d="M70.9902 232.844L75.8761 231.306L78.1625 231.289L73.2887 232.832L70.9902 232.844Z" fill="white" stroke="#0D2A3E" stroke-width="0.25" stroke-miterlimit="10" stroke-linecap="round" stroke-linejoin="round"/>
<path d="M73.2888 232.832L78.1626 231.289L80.4651 231.272L75.6032 232.821L73.2888 232.832Z" fill="white" stroke="#0D2A3E" stroke-width="0.25" stroke-miterlimit="10" stroke-linecap="round" stroke-linejoin="round"/>
<path d="M77.9335 232.809L82.7833 231.255L85.1186 231.238L80.2816 232.797L77.9335 232.809Z" fill="white" stroke="#0D2A3E" stroke-width="0.25" stroke-miterlimit="10" stroke-linecap="round" stroke-linejoin="round"/>
<path d="M70.9903 232.844L65.9788 234.421L63.6859 234.427L68.7094 232.855L70.9903 232.844Z" fill="white" stroke="#0D2A3E" stroke-width="0.25" stroke-miterlimit="10" stroke-linecap="round" stroke-linejoin="round"/>
<path d="M68.7096 232.855L63.6861 234.427L61.4092 234.433L66.4439 232.866L68.7096 232.855Z" fill="white" stroke="#0D2A3E" stroke-width="0.25" stroke-miterlimit="10" stroke-linecap="round" stroke-linejoin="round"/>
<path d="M89.8475 232.749L84.9368 234.373L82.5055 234.379L87.4297 232.761L89.8475 232.749Z" fill="white" stroke="#0D2A3E" stroke-width="0.25" stroke-miterlimit="10" stroke-linecap="round" stroke-linejoin="round"/>
<path d="M66.4438 232.866L61.4091 234.433L59.149 234.439L64.1942 232.877L66.4438 232.866Z" fill="white" stroke="#0D2A3E" stroke-width="0.25" stroke-miterlimit="10" stroke-linecap="round" stroke-linejoin="round"/>
<path d="M75.6031 232.821L70.6141 234.409L68.2876 234.416L73.2887 232.832L75.6031 232.821Z" fill="white" stroke="#0D2A3E" stroke-width="0.25" stroke-miterlimit="10" stroke-linecap="round" stroke-linejoin="round"/>
<path d="M64.1943 232.877L59.1492 234.439L56.906 234.444L61.9615 232.889L64.1943 232.877Z" fill="white" stroke="#0D2A3E" stroke-width="0.25" stroke-miterlimit="10" stroke-linecap="round" stroke-linejoin="round"/>
<path d="M73.2889 232.832L68.2878 234.415L65.9789 234.421L70.9904 232.844L73.2889 232.832Z" fill="white" stroke="#0D2A3E" stroke-width="0.25" stroke-miterlimit="10" stroke-linecap="round" stroke-linejoin="round"/>
<path d="M85.0298 232.773L80.092 234.385L77.6959 234.392L82.6473 232.785L85.0298 232.773Z" fill="white" stroke="#0D2A3E" stroke-width="0.25" stroke-miterlimit="10" stroke-linecap="round" stroke-linejoin="round"/>
<path d="M87.4293 232.761L82.505 234.38L80.0921 234.385L85.03 232.773L87.4293 232.761Z" fill="white" stroke="#0D2A3E" stroke-width="0.25" stroke-miterlimit="10" stroke-linecap="round" stroke-linejoin="round"/>
<path d="M77.9338 232.809L72.9575 234.404L70.6143 234.409L75.6033 232.821L77.9338 232.809Z" fill="white" stroke="#0D2A3E" stroke-width="0.25" stroke-miterlimit="10" stroke-linecap="round" stroke-linejoin="round"/>
<path d="M80.2817 232.797L75.3182 234.397L72.9573 234.403L77.9336 232.808L80.2817 232.797Z" fill="white" stroke="#0D2A3E" stroke-width="0.25" stroke-miterlimit="10" stroke-linecap="round" stroke-linejoin="round"/>
<path d="M82.6476 232.785L77.6961 234.391L75.3184 234.397L80.2819 232.797L82.6476 232.785Z" fill="white" stroke="#0D2A3E" stroke-width="0.25" stroke-miterlimit="10" stroke-linecap="round" stroke-linejoin="round"/>
<path d="M64.1939 232.877L69.1134 231.355L71.3518 231.339L66.4436 232.866L64.1939 232.877Z" fill="white" stroke="#0D2A3E" stroke-width="0.25" stroke-miterlimit="10" stroke-linecap="round" stroke-linejoin="round"/>
<path d="M101.698 229.604L106.652 227.956L109.06 227.927L104.122 229.581L101.698 229.604Z" fill="white" stroke="#0D2A3E" stroke-width="0.25" stroke-miterlimit="10" stroke-linecap="round" stroke-linejoin="round"/>
<path d="M104.122 229.581L106.376 229.559L101.758 231.116L99.4908 231.133L104.122 229.581Z" fill="white" stroke="#0D2A3E" stroke-width="0.25" stroke-miterlimit="10" stroke-linecap="round" stroke-linejoin="round"/>
<path d="M109.06 227.927L111.299 227.9L106.376 229.559L104.122 229.581L109.06 227.927Z" fill="white" stroke="#0D2A3E" stroke-width="0.25" stroke-miterlimit="10" stroke-linecap="round" stroke-linejoin="round"/>
<path d="M99.4905 231.133L101.758 231.116L97.0168 232.713L94.7359 232.725L99.4905 231.133Z" fill="white" stroke="#0D2A3E" stroke-width="0.25" stroke-miterlimit="10" stroke-linecap="round" stroke-linejoin="round"/>
<path d="M94.7362 232.725L97.0171 232.713L92.1488 234.355L89.8544 234.36L94.7362 232.725Z" fill="white" stroke="#0D2A3E" stroke-width="0.25" stroke-miterlimit="10" stroke-linecap="round" stroke-linejoin="round"/>
<path d="M89.8539 234.36L92.1483 234.355L87.1472 236.04H84.8392L89.8539 234.36Z" fill="white" stroke="#0D2A3E" stroke-width="0.25" stroke-miterlimit="10" stroke-linecap="round" stroke-linejoin="round"/>
<path d="M62.4921 231.404L57.5414 232.911L55.6063 232.921L60.5649 231.418L62.4921 231.404Z" fill="white" stroke="#0D2A3E" stroke-width="0.25" stroke-miterlimit="10" stroke-linecap="round" stroke-linejoin="round"/>
<path d="M52.4655 234.456L50.5215 234.46L55.6059 232.921L57.541 232.911L52.4655 234.456Z" fill="white" stroke="#0D2A3E" stroke-width="0.25" stroke-miterlimit="10" stroke-linecap="round" stroke-linejoin="round"/>
<path d="M47.2598 236.04H45.3079L50.5218 234.461L52.4658 234.456L47.2598 236.04Z" fill="white" stroke="#0D2A3E" stroke-width="0.25" stroke-miterlimit="10" stroke-linecap="round" stroke-linejoin="round"/>
<path d="M82.915 229.784L87.9857 228.179L90.2626 228.152L85.2055 229.762L82.915 229.784Z" fill="white" stroke="#0D2A3E" stroke-width="0.25" stroke-miterlimit="10" stroke-linecap="round" stroke-linejoin="round"/>
<path d="M62.4923 231.404L60.5652 231.417L65.4038 229.952L67.3221 229.934L62.4923 231.404Z" fill="white" stroke="#0D2A3E" stroke-width="0.25" stroke-miterlimit="10" stroke-linecap="round" stroke-linejoin="round"/>
<path d="M54.6781 234.45L52.4661 234.455L57.5416 232.911L59.744 232.9L54.6781 234.45Z" fill="white" stroke="#0D2A3E" stroke-width="0.25" stroke-miterlimit="10" stroke-linecap="round" stroke-linejoin="round"/>
<path d="M99.2915 229.627L104.261 227.984L106.652 227.956L101.698 229.604L99.2915 229.627Z" fill="white" stroke="#0D2A3E" stroke-width="0.25" stroke-miterlimit="10" stroke-linecap="round" stroke-linejoin="round"/>
<path d="M69.5031 229.913L64.6837 231.388L62.4917 231.404L67.3215 229.934L69.5031 229.913Z" fill="white" stroke="#0D2A3E" stroke-width="0.25" stroke-miterlimit="10" stroke-linecap="round" stroke-linejoin="round"/>
<path d="M65.4037 229.952L70.5705 228.387L72.4784 228.365L67.3221 229.934L65.4037 229.952Z" fill="white" stroke="#0D2A3E" stroke-width="0.25" stroke-miterlimit="10" stroke-linecap="round" stroke-linejoin="round"/>
<path d="M67.3217 229.934L72.478 228.365L74.6484 228.338L69.5033 229.913L67.3217 229.934Z" fill="white" stroke="#0D2A3E" stroke-width="0.25" stroke-miterlimit="10" stroke-linecap="round" stroke-linejoin="round"/>
<path d="M61.4092 234.433L56.2441 236.04H53.9736L59.1492 234.439L61.4092 234.433Z" fill="white" stroke="#0D2A3E" stroke-width="0.25" stroke-miterlimit="10" stroke-linecap="round" stroke-linejoin="round"/>
<path d="M49.4818 236.04H47.2602L52.4662 234.455L54.6782 234.45L49.4818 236.04Z" fill="white" stroke="#0D2A3E" stroke-width="0.25" stroke-miterlimit="10" stroke-linecap="round" stroke-linejoin="round"/>
<path d="M69.5037 229.913L74.6489 228.338L76.8337 228.312L71.7005 229.891L69.5037 229.913Z" fill="white" stroke="#0D2A3E" stroke-width="0.25" stroke-miterlimit="10" stroke-linecap="round" stroke-linejoin="round"/>
<path d="M56.9057 234.444L51.719 236.04H49.4813L54.6777 234.45L56.9057 234.444Z" fill="white" stroke="#0D2A3E" stroke-width="0.25" stroke-miterlimit="10" stroke-linecap="round" stroke-linejoin="round"/>
<path d="M59.1489 234.439L53.9733 236.04H51.7189L56.9056 234.445L59.1489 234.439Z" fill="white" stroke="#0D2A3E" stroke-width="0.25" stroke-miterlimit="10" stroke-linecap="round" stroke-linejoin="round"/>
<path d="M59.7438 232.9L57.5414 232.911L62.4921 231.404L64.6841 231.388L59.7438 232.9Z" fill="white" stroke="#0D2A3E" stroke-width="0.25" stroke-miterlimit="10" stroke-linecap="round" stroke-linejoin="round"/>
<path d="M89.834 229.718L94.8631 228.096L97.188 228.068L92.1725 229.695L89.834 229.718Z" fill="white" stroke="#0D2A3E" stroke-width="0.25" stroke-miterlimit="10" stroke-linecap="round" stroke-linejoin="round"/>
<path d="M71.6998 229.891L76.833 228.312L79.033 228.286L73.9119 229.871L71.6998 229.891Z" fill="white" stroke="#0D2A3E" stroke-width="0.25" stroke-miterlimit="10" stroke-linecap="round" stroke-linejoin="round"/>
<path d="M92.1724 229.695L97.1879 228.068L99.5288 228.04L94.5285 229.673L92.1724 229.695Z" fill="white" stroke="#0D2A3E" stroke-width="0.25" stroke-miterlimit="10" stroke-linecap="round" stroke-linejoin="round"/>
<path d="M85.205 229.762L90.2621 228.152L92.5541 228.124L87.5106 229.74L85.205 229.762Z" fill="white" stroke="#0D2A3E" stroke-width="0.25" stroke-miterlimit="10" stroke-linecap="round" stroke-linejoin="round"/>
<path d="M94.5287 229.673L99.529 228.04L101.887 228.012L96.9017 229.65L94.5287 229.673Z" fill="white" stroke="#0D2A3E" stroke-width="0.25" stroke-miterlimit="10" stroke-linecap="round" stroke-linejoin="round"/>
<path d="M96.9016 229.65L101.887 228.012L104.26 227.984L99.2912 229.627L96.9016 229.65Z" fill="white" stroke="#0D2A3E" stroke-width="0.25" stroke-miterlimit="10" stroke-linecap="round" stroke-linejoin="round"/>
<path d="M87.5113 229.74L92.5548 228.124L94.8637 228.096L89.8346 229.718L87.5113 229.74Z" fill="white" stroke="#0D2A3E" stroke-width="0.25" stroke-miterlimit="10" stroke-linecap="round" stroke-linejoin="round"/>
<path d="M73.9124 229.871L79.0335 228.286L81.2488 228.26L76.1396 229.849L73.9124 229.871Z" fill="white" stroke="#0D2A3E" stroke-width="0.25" stroke-miterlimit="10" stroke-linecap="round" stroke-linejoin="round"/>
<path d="M76.1398 229.849L81.249 228.26L83.4794 228.232L78.3823 229.827L76.1398 229.849Z" fill="white" stroke="#0D2A3E" stroke-width="0.25" stroke-miterlimit="10" stroke-linecap="round" stroke-linejoin="round"/>
<path d="M80.6407 229.806L85.7243 228.206L87.9859 228.179L82.9152 229.784L80.6407 229.806Z" fill="white" stroke="#0D2A3E" stroke-width="0.25" stroke-miterlimit="10" stroke-linecap="round" stroke-linejoin="round"/>
<path d="M61.4092 234.433L63.686 234.427L65.9789 234.421L68.2878 234.416L70.6142 234.409L72.9575 234.404L75.3184 234.397L77.6961 234.392L80.0922 234.385L82.5051 234.38L84.9364 234.373L79.8937 236.04H77.4488H75.0215H72.6134H70.2229H67.8492H65.4939H63.1562H60.8353H58.5313H56.244L61.4092 234.433Z" fill="white" stroke="#0D2A3E" stroke-width="0.25" stroke-miterlimit="10" stroke-linecap="round" stroke-linejoin="round"/>
<path d="M78.3821 229.827L83.4792 228.232L85.724 228.206L80.6405 229.806L78.3821 229.827Z" fill="white" stroke="#0D2A3E" stroke-width="0.25" stroke-miterlimit="10" stroke-linecap="round" stroke-linejoin="round"/>
<path d="M123.622 227.081V228.712L90.9349 240L90.9221 237.911L123.622 227.081Z" fill="white" stroke="#0D2A3E" stroke-miterlimit="10" stroke-linecap="round" stroke-linejoin="round"/>
<path d="M33.5676 240H90.9213V237.911H33.5676V240Z" fill="#0D2A3E" stroke="#0D2A3E" stroke-miterlimit="10" stroke-linecap="round" stroke-linejoin="round"/>
<path d="M110.35 149.833L97.8131 130.71L85.2764 149.833H90.5232V178.743H105.102V149.833H110.35Z" fill="#FFBA6B" stroke="#0D2A3E" stroke-miterlimit="10" stroke-linecap="round" stroke-linejoin="round"/>
</svg>
