<svg xmlns="http://www.w3.org/2000/svg" width="40" height="40" viewBox="0 0 40 40" fill="none">
  <g clip-path="url(#clip0_322_2707)">
    <path d="M20 23.5156C18.0615 23.5156 16.4844 25.0927 16.4844 27.0312C16.4844 28.9697 18.0615 30.5468 20 30.5468C21.9385 30.5468 23.5156 28.9697 23.5156 27.0312C23.5156 25.0927 21.9385 23.5156 20 23.5156ZM20 28.2031C19.3538 28.2031 18.8281 27.6774 18.8281 27.0312C18.8281 26.385 19.3538 25.8593 20 25.8593C20.6462 25.8593 21.1719 26.385 21.1719 27.0312C21.1719 27.6774 20.6462 28.2031 20 28.2031Z" fill="#F7910A"/>
    <path d="M34.8491 14.1922C34.0892 12.0002 32.2646 10.3082 30.0023 9.70978C28.6006 5.38283 24.5886 2.42181 20 2.42181C16.383 2.42181 13.0723 4.27385 11.1409 7.3165C10.5891 7.17877 10.0246 7.10931 9.45312 7.10931C5.55305 7.10931 2.34375 10.2678 2.34375 14.1406C2.34375 14.5013 2.37805 14.8706 2.44789 15.2556C0.918203 16.3456 0 18.091 0 19.9999C0 23.2308 2.62852 25.8593 5.85938 25.8593H9.45312V29.3749C9.45312 30.0221 9.97781 30.5468 10.625 30.5468H11.9773C12.5334 30.5468 12.8176 30.9352 12.9139 31.1021C13.1256 31.4688 13.128 31.9026 12.9203 32.2624L12.2678 33.3924C11.9477 33.9468 12.1317 34.6555 12.6812 34.9841L16.7407 37.412C17.3074 37.751 18.0436 37.5546 18.3657 36.9771L19.0852 35.6869C19.3487 35.2143 19.7981 35.1633 19.9791 35.1633C20.3821 35.1633 20.7405 35.3744 20.9377 35.7281L21.6343 36.9771C21.9595 37.56 22.6974 37.7481 23.2593 37.412L27.3187 34.9841C27.8681 34.6555 28.0523 33.9468 27.7321 33.3924L27.1083 32.3118C26.8426 31.8516 26.9352 31.3631 27.1104 31.0595C27.2209 30.8681 27.4793 30.5468 27.9677 30.5468H29.375C30.0222 30.5468 30.5469 30.0221 30.5469 29.3749V25.8593H34.0625C37.3013 25.8593 40 23.2394 40 19.9999C40 17.0062 37.7014 14.5692 34.8491 14.1922ZM28.2031 28.2031H27.9677C26.7688 28.2031 25.6896 28.8328 25.0806 29.8876C24.4396 30.9979 24.4388 32.3759 25.0785 33.4837L25.1254 33.5649L23.0929 34.7805L22.9846 34.5864C22.3769 33.4966 21.2252 32.8195 19.9792 32.8195C19.9791 32.8195 19.9793 32.8195 19.9792 32.8195C18.7405 32.8195 17.6409 33.4648 17.0383 34.5453L16.9071 34.7806L14.8746 33.565L14.9501 33.4344C15.5815 32.3408 15.5791 31.0309 14.9437 29.9303C14.3193 28.8488 13.2103 28.2031 11.9773 28.2031H11.7969V25.8594H12.1208C13.2648 25.8594 14.2981 25.2524 14.8851 24.2358C15.5455 23.0918 15.5447 21.6666 14.8835 20.5131L16.9133 19.3412L17.0373 19.556C17.6473 20.6127 18.7485 21.2435 19.983 21.2435C21.2388 21.2435 22.3601 20.5996 22.9827 19.5213L23.0866 19.3413L25.1163 20.5131L25.0922 20.5549C24.4439 21.6777 24.4429 23.0709 25.0895 24.1908C25.6928 25.2356 26.7589 25.8595 27.9414 25.8595H28.2031V28.2031ZM34.0625 23.5156C32.8577 23.5156 29.2318 23.5156 27.9415 23.5156C27.4757 23.5156 27.2265 23.2043 27.1194 23.0188C26.9397 22.7075 26.846 22.2046 27.122 21.7266L27.7321 20.67C28.0555 20.1099 27.8636 19.3928 27.3032 19.0692L23.2437 16.7255C22.6831 16.4017 21.9665 16.5938 21.643 17.1544L20.953 18.3493C20.7541 18.6939 20.3915 18.8997 19.9831 18.8997C19.7973 18.8997 19.3358 18.8495 19.0672 18.3842L18.3572 17.1544C18.0336 16.5938 17.3169 16.4019 16.7564 16.7255L12.6969 19.0692C12.1368 19.3925 11.9443 20.1096 12.268 20.6701L12.8479 21.6745C13.0938 22.1004 13.0968 22.6458 12.8554 23.0639C12.7365 23.27 12.5124 23.5156 12.1209 23.5156C10.8097 23.5156 7.03969 23.5156 5.85945 23.5156C3.92094 23.5156 2.34383 21.9385 2.34383 20C2.34383 18.6676 3.0968 17.4662 4.30891 16.8646C4.82031 16.6108 5.07438 16.0253 4.91039 15.4784C4.75828 14.9712 4.6875 14.5461 4.6875 14.1406C4.6875 11.5559 6.82531 9.45306 9.45312 9.45306C10.0634 9.45306 10.6636 9.57299 11.2369 9.80947C11.8009 10.0421 12.4491 9.80306 12.727 9.25986C14.1453 6.48767 16.9321 4.76556 20 4.76556C23.7597 4.76556 27.0221 7.3272 27.9334 10.9949C28.0478 11.4552 28.4283 11.8011 28.8973 11.8713C30.8456 12.1628 32.4126 13.6432 32.7967 15.555C32.9119 16.1281 33.4438 16.5676 34.1199 16.4848C36.0428 16.516 37.6562 18.113 37.6562 19.9999C37.6562 21.9056 36.0105 23.5156 34.0625 23.5156Z" fill="#F7910A"/>
  </g>
  <defs>
    <clipPath id="clip0_322_2707">
      <rect width="40" height="40" fill="white"/>
    </clipPath>
  </defs>
</svg>