<svg width="448" height="240" viewBox="0 0 448 240" fill="none" xmlns="http://www.w3.org/2000/svg">
<g clip-path="url(#clip0_322_2277)">
<path d="M427.757 201.785C422.313 172.285 396.782 145.876 366.79 145.295C355.65 145.079 343.895 148.115 333.725 143.564C326.204 140.197 320.982 133.24 314.287 128.437C304.071 121.11 290.775 119.154 278.273 120.483C265.771 121.811 253.811 126.14 241.996 130.433C223.819 109.11 195.383 96.9588 167.41 98.5593C139.436 100.161 112.573 115.478 96.949 138.737C65.8584 138.349 36.341 162.943 31.1083 193.593C28.4236 209.318 32.3115 225.653 40.7019 239.185H424.42C428.64 226.877 429.91 213.455 427.757 201.785Z" fill="#F6F5F5"/>
<path d="M393 239.487L392.651 238.882C399.68 234.829 406.123 228.726 411.796 220.742C417.17 213.18 421.644 204.105 424.732 194.497C430.877 175.382 433.042 155.003 435.104 135.274C418.692 140.286 403.245 153.441 392.656 171.447C381.947 189.656 376.346 212.59 377.287 234.369L376.591 234.399C375.645 212.49 381.281 189.417 392.056 171.095C402.841 152.754 418.642 139.4 435.409 134.455L435.909 134.307L435.854 134.825C433.771 154.752 431.617 175.359 425.397 194.711C422.287 204.386 417.78 213.528 412.366 221.146C406.634 229.213 400.118 235.384 393 239.487Z" fill="#DADADA"/>
<path d="M378.912 235.496L378.217 235.437C378.849 228.098 381.14 220.726 385.222 212.896C389.162 205.339 394.24 198.436 398.226 193.268C399.198 192.008 400.195 190.726 401.16 189.488C409.596 178.657 418.321 167.456 422.405 153.801L423.074 154.001C418.953 167.781 410.188 179.033 401.712 189.915C400.747 191.154 399.75 192.435 398.78 193.692C394.813 198.838 389.757 205.709 385.842 213.217C381.803 220.964 379.536 228.251 378.912 235.496Z" fill="#DADADA"/>
<path d="M397.364 199.453C396.399 199.453 395.44 199.39 394.493 199.263L394.586 198.571C398.759 199.133 403.166 198.409 407.332 196.478C411.508 194.545 415.235 191.498 418.113 187.665L418.671 188.083C415.726 192.008 411.906 195.13 407.627 197.111C404.281 198.66 400.784 199.453 397.364 199.453Z" fill="#DADADA"/>
<path d="M404.237 185.701C401.953 177.666 403.52 168.01 408.228 161.098L408.804 161.49C404.207 168.238 402.677 177.666 404.907 185.51L404.237 185.701Z" fill="#DADADA"/>
<path d="M416.846 239.574L416.599 238.921C424.509 235.934 431.635 229.828 436.666 221.728C440.936 214.855 443.826 206.464 445.259 196.786C436.488 197.18 427.716 200.712 421.134 206.518L420.672 205.995C427.478 199.993 436.584 196.377 445.654 196.073L446.07 196.059L446.011 196.47C444.585 206.421 441.64 215.043 437.258 222.097C432.148 230.326 424.898 236.532 416.846 239.574Z" fill="#DADADA"/>
<path d="M395.635 237.726L395.339 237.094C411.109 229.681 425.701 219.003 437.537 206.215L438.048 206.69C426.153 219.544 411.487 230.276 395.635 237.726Z" fill="#DADADA"/>
<path d="M334.716 240C328.602 237.705 323.03 233.419 318.605 227.608C314.532 222.259 311.492 215.759 309.814 208.808C306.492 195.056 308.065 180.388 309.799 167.719L309.877 167.152L310.345 167.481C321.484 175.287 333.003 183.357 341.358 194.492C350.662 206.891 353.968 221.468 350.199 233.485L349.533 233.276C353.234 221.473 349.969 207.13 340.8 194.91C332.628 184.02 321.362 176.053 310.412 168.38C308.718 180.854 307.248 195.214 310.491 208.644C312.146 215.502 315.145 221.912 319.16 227.185C323.506 232.892 328.969 237.097 334.961 239.345L334.716 240Z" fill="#DADADA"/>
<path d="M317.432 180.369L316.806 180.678L343.714 235.149L344.34 234.84L317.432 180.369Z" fill="#DADADA"/>
<path d="M331.432 211.696C327.873 211.696 324.293 210.751 321.047 208.955C317.659 207.081 314.866 204.404 312.968 201.217L313.568 200.86C315.402 203.941 318.105 206.529 321.384 208.343C324.664 210.158 328.295 211.071 331.877 210.991L331.893 211.689C331.737 211.694 331.584 211.696 331.432 211.696Z" fill="#DADADA"/>
<path d="M69.7753 239.004C61.8289 237.372 54.4005 233.419 47.6976 227.257C41.6686 221.714 36.5003 214.554 32.7491 206.551C25.4815 191.045 23.2665 173.875 21.1239 157.269L21.0499 156.695L21.592 156.898C42.2799 164.638 56.7362 173.545 67.089 184.927C80.3212 199.474 85.919 218.567 81.7013 234.756L81.0257 234.581C85.1855 218.617 79.6472 199.771 66.5727 185.397C56.3871 174.2 42.1802 165.409 21.8895 157.755C24.0032 174.127 26.2424 191.025 33.3812 206.255C37.0938 214.176 42.2075 221.262 48.1705 226.744C54.7785 232.819 62.0944 236.714 69.9169 238.321L69.7753 239.004Z" fill="#DADADA"/>
<path d="M77.0172 234.935C71.3293 223.821 64.5346 213.163 56.8199 203.254C49.1051 193.345 40.4381 184.144 31.0585 175.905L31.5185 175.38C40.9303 183.648 49.6279 192.882 57.37 202.824C65.1121 212.767 71.9309 223.464 77.6381 234.616L77.0172 234.935Z" fill="#DADADA"/>
<path d="M52.4413 199.382C45.7705 197.051 39.1641 194.304 32.8086 191.215L33.1142 190.588C39.4456 193.663 46.0263 196.401 52.6729 198.724L52.4413 199.382Z" fill="#DADADA"/>
<path d="M64.7896 195.373L63.23 210.876L63.9246 210.946L65.4843 195.443L64.7896 195.373Z" fill="#DADADA"/>
<path d="M41.5029 238.816C37.4123 238.816 33.2011 237.6 29.2568 235.271C25.3448 232.961 21.7914 229.644 18.9828 225.679C16.7405 222.515 14.3115 216.835 11.7603 208.799C9.86541 202.826 8.6075 197.711 8.59624 197.661L8.46594 197.125L9.00643 197.236C9.73189 197.384 26.8504 200.942 32.9759 206.437L32.5094 206.957C30.0418 204.743 25.1775 202.48 18.4407 200.411C14.3759 199.163 10.7485 198.33 9.41179 198.037C10.2466 201.315 14.7844 218.545 19.5539 225.277C22.3062 229.162 25.7855 232.411 29.6139 234.671C33.7753 237.129 38.2343 238.311 42.5083 238.094L42.5437 238.791C42.1962 238.807 41.8504 238.816 41.5029 238.816Z" fill="#DADADA"/>
<path d="M39.2172 230.054C32.3308 220.477 24.3635 211.654 15.5341 203.831L15.9973 203.308C24.8654 211.166 32.8681 220.026 39.7834 229.646L39.2172 230.054Z" fill="#DADADA"/>
<path d="M127.311 239.798L126.856 239.268C135.753 231.608 142.105 221.088 144.745 209.648C147.364 198.296 146.297 186.159 141.745 175.437C135.801 176.485 130.034 179.471 125.051 184.084C120.388 188.402 116.527 193.982 113.887 200.222C108.901 212.008 107.949 225.214 107.347 238.839L106.65 238.808C107.255 225.116 108.214 211.842 113.246 199.95C115.924 193.618 119.842 187.956 124.578 183.571C129.737 178.795 135.727 175.728 141.901 174.702L142.171 174.656L142.279 174.907C146.979 185.826 148.097 198.219 145.425 209.804C142.752 221.389 136.319 232.041 127.311 239.798Z" fill="#DADADA"/>
<path d="M116.405 237.33L115.74 237.116C120.647 221.892 127.525 207.356 136.189 193.91L136.776 194.288C128.146 207.682 121.292 222.163 116.405 237.33Z" fill="#DADADA"/>
<path d="M126.693 211.226L126.296 210.652C130.692 207.605 135.804 205.522 141.077 204.629L141.195 205.318C136.02 206.194 131.006 208.237 126.693 211.226Z" fill="#DADADA"/>
<path d="M288.732 217.901C287.096 217.901 285.766 216.571 285.766 214.935C285.766 213.299 287.096 211.969 288.732 211.969C290.368 211.969 291.698 213.299 291.698 214.935C291.698 216.571 290.366 217.901 288.732 217.901ZM288.732 212.667C287.482 212.667 286.464 213.685 286.464 214.935C286.464 216.185 287.482 217.203 288.732 217.203C289.982 217.203 291 216.185 291 214.935C291 213.685 289.982 212.667 288.732 212.667Z" fill="#DADADA"/>
<path d="M405.619 132.764C403.983 132.764 402.653 131.434 402.653 129.798C402.653 128.162 403.983 126.832 405.619 126.832C407.255 126.832 408.586 128.162 408.586 129.798C408.586 131.434 407.255 132.764 405.619 132.764ZM405.619 127.53C404.369 127.53 403.351 128.548 403.351 129.798C403.351 131.048 404.369 132.066 405.619 132.066C406.869 132.066 407.887 131.048 407.887 129.798C407.887 128.548 406.871 127.53 405.619 127.53Z" fill="#DADADA"/>
<path d="M444.7 179.695C446.145 179.695 447.317 178.523 447.317 177.077C447.317 175.632 446.145 174.46 444.7 174.46C443.254 174.46 442.083 175.632 442.083 177.077C442.083 178.523 443.254 179.695 444.7 179.695Z" fill="#DADADA"/>
<path d="M25.4718 130.845C26.9173 130.845 28.089 129.673 28.089 128.228C28.089 126.783 26.9173 125.611 25.4718 125.611C24.0264 125.611 22.8547 126.783 22.8547 128.228C22.8547 129.673 24.0264 130.845 25.4718 130.845Z" fill="#DADADA"/>
<path d="M2.96622 176.728C1.33029 176.728 0 175.398 0 173.762C0 172.126 1.33029 170.796 2.96622 170.796C4.60214 170.796 5.93244 172.126 5.93244 173.762C5.93244 175.398 4.60054 176.728 2.96622 176.728ZM2.96622 171.494C1.71635 171.494 0.698123 172.512 0.698123 173.762C0.698123 175.012 1.71475 176.03 2.96622 176.03C4.21769 176.03 5.23432 175.012 5.23432 173.762C5.23432 172.512 4.21609 171.494 2.96622 171.494Z" fill="#DADADA"/>
<path d="M164.342 211.097C162.706 211.097 161.376 209.767 161.376 208.131C161.376 206.495 162.706 205.165 164.342 205.165C165.978 205.165 167.308 206.495 167.308 208.131C167.307 209.767 165.976 211.097 164.342 211.097ZM164.342 205.863C163.092 205.863 162.074 206.881 162.074 208.131C162.074 209.381 163.091 210.399 164.342 210.399C165.592 210.399 166.61 209.381 166.61 208.131C166.61 206.881 165.592 205.863 164.342 205.863Z" fill="#DADADA"/>
<path d="M55.0713 51.2332C55.0713 45.5806 47.2601 40.9978 37.6247 40.9978C27.9893 40.9978 20.178 45.5806 20.178 51.2332C20.178 56.8857 27.9893 61.4686 37.6247 61.4686C39.7287 61.4686 41.7459 61.2498 43.6134 60.8493C44.918 62.4193 47.178 63.8219 50.9872 64.631C50.9872 64.631 49.5893 62.0654 48.7335 59.1249C52.6038 57.2477 55.0713 54.4101 55.0713 51.2332Z" fill="white"/>
<path d="M51.9909 65.3791L50.8794 65.1427C47.5046 64.4252 44.9984 63.1754 43.4204 61.4236C41.5609 61.8 39.6129 61.9915 37.6263 61.9915C32.8746 61.9915 28.3995 60.9008 25.0247 58.9223C21.563 56.8906 19.6569 54.1609 19.6569 51.2333C19.6569 48.3057 21.563 45.5759 25.0247 43.5443C28.3995 41.5641 32.8746 40.4751 37.6263 40.4751C42.378 40.4751 46.8531 41.5657 50.2279 43.5443C53.6896 45.5759 55.5957 48.3057 55.5957 51.2333C55.5957 54.399 53.3309 57.3571 49.3625 59.3968C50.1957 62.0703 51.4343 64.3577 51.4472 64.3818L51.9909 65.3791ZM43.8129 60.2703L44.0156 60.5132C45.2638 62.014 47.2778 63.1384 50.0124 63.8606C49.5185 62.8311 48.7721 61.1325 48.23 59.2697L48.1062 58.8451L48.5035 58.652C52.3432 56.7893 54.5469 54.0853 54.5469 51.2301C54.5469 45.8751 46.9561 41.5191 37.6247 41.5191C28.2933 41.5191 20.7024 45.8751 20.7024 51.2301C20.7024 56.585 28.2933 60.941 37.6247 60.941C39.6451 60.941 41.6236 60.7368 43.5024 60.333L43.8129 60.2703Z" fill="#FFB24D"/>
<path d="M47.4531 48.6741H27.5646V49.3722H47.4531V48.6741Z" fill="#FFB24D"/>
<path d="M42.2188 52.5122H27.5646V53.2103H42.2188V52.5122Z" fill="#FFB24D"/>
<path d="M387.185 39.3699C387.185 33.7174 394.996 29.1345 404.632 29.1345C414.267 29.1345 422.078 33.7174 422.078 39.3699C422.078 45.0225 414.267 49.6053 404.632 49.6053C402.528 49.6053 400.51 49.3865 398.643 48.986C397.338 50.556 395.078 51.9587 391.269 52.7678C391.269 52.7678 392.667 50.2021 393.523 47.2616C389.653 45.3844 387.185 42.5469 387.185 39.3699Z" fill="white"/>
<path d="M390.265 53.5157L390.809 52.5168C390.822 52.4927 392.061 50.2053 392.894 47.5318C388.925 45.4921 386.661 42.534 386.661 39.3683C386.661 36.4407 388.567 33.7109 392.028 31.6793C395.403 29.6991 399.878 28.6101 404.63 28.6101C409.382 28.6101 413.857 29.7007 417.232 31.6793C420.693 33.7109 422.599 36.4407 422.599 39.3683C422.599 42.2959 420.693 45.0257 417.232 47.0573C413.857 49.0375 409.382 50.1265 404.63 50.1265C402.643 50.1265 400.697 49.935 398.836 49.5586C397.258 51.3104 394.75 52.5618 391.377 53.2777L390.265 53.5157ZM404.632 29.6589C395.3 29.6589 387.709 34.0149 387.709 39.3699C387.709 42.2235 389.912 44.9291 393.753 46.7919L394.15 46.9849L394.026 47.4096C393.484 49.2723 392.738 50.971 392.244 52.0005C394.979 51.2782 396.992 50.1538 398.241 48.653L398.443 48.4101L398.754 48.4761C400.634 48.8782 402.611 49.0841 404.632 49.0841C413.963 49.0841 421.554 44.7281 421.554 39.3731C421.554 34.0182 413.963 29.6589 404.632 29.6589Z" fill="#FFB24D"/>
<path d="M414.692 36.8105H394.803V37.5087H414.692V36.8105Z" fill="#FFB24D"/>
<path d="M409.457 40.6487H394.803V41.3468H409.457V40.6487Z" fill="#FFB24D"/>
<path d="M252.624 170.797H191.912V239.186H252.624V170.797Z" fill="#FFEAD3"/>
<path d="M253.147 239.709H191.387V170.273H253.147V239.709ZM192.434 238.662H252.1V171.32H192.434V238.662Z" fill="#0D2A3E"/>
<path opacity="0.2" d="M252.624 170.797H191.912V199.942H252.624V170.797Z" fill="#B66B17"/>
<path d="M233.695 204.675C240.008 198.362 240.008 188.126 233.695 181.813C227.382 175.5 217.146 175.5 210.833 181.813C204.52 188.126 204.52 198.362 210.833 204.675C217.146 210.988 227.382 210.988 233.695 204.675Z" fill="white"/>
<path d="M347.628 189.45H96.9056C93.9442 189.45 91.5426 187.049 91.5426 184.087V5.88571C91.5426 2.92431 93.9426 0.522705 96.9056 0.522705H347.628C350.59 0.522705 352.991 2.92431 352.991 5.88571V184.087C352.991 187.049 350.59 189.45 347.628 189.45Z" fill="#FFEAD3"/>
<path d="M347.175 189.973H97.3592C93.8638 189.973 91.0198 187.129 91.0198 183.634V6.33941C91.0198 2.84397 93.8638 0 97.3592 0H347.175C350.67 0 353.514 2.84397 353.514 6.33941V183.635C353.514 187.129 350.67 189.973 347.175 189.973ZM97.3592 1.04719C94.4413 1.04719 92.067 3.42145 92.067 6.33941V183.635C92.067 186.553 94.4413 188.928 97.3592 188.928H347.175C350.093 188.928 352.467 186.553 352.467 183.635V6.33941C352.467 3.42145 350.093 1.04719 347.175 1.04719H97.3592Z" fill="#0D2A3E"/>
<path d="M348.244 7.18555H96.2895V162.335H348.244V7.18555Z" fill="white"/>
<path d="M348.769 162.859H95.7667V6.66284H348.769V162.859ZM96.8123 161.812H347.72V7.70842H96.8123V161.812Z" fill="#0D2A3E"/>
<path d="M248.53 20.7634H191.542V27.4246H248.53V20.7634Z" fill="#FCD5A8"/>
<path d="M293.918 33.9297H146.151V36.4214H293.918V33.9297Z" fill="#FCD5A8"/>
<path d="M322.345 108.489H265.332V110.98H322.345V108.489Z" fill="#0D2A3E"/>
<path d="M314.424 114.68H265.332V117.172H314.424V114.68Z" fill="#0D2A3E"/>
<path d="M296.297 120.872H265.332V123.363H296.297V120.872Z" fill="#0D2A3E"/>
<path d="M315.478 132.396H265.332V134.887H315.478V132.396Z" fill="#FCD5A8"/>
<path d="M308.513 138.587H265.332V141.079H308.513V138.587Z" fill="#FCD5A8"/>
<path d="M142.099 102.38H117.899V140.312H142.099V102.38Z" fill="#FCD5A8"/>
<path d="M175.445 102.32H148.242V114.849H175.445V102.32Z" fill="#0D2A3E"/>
<path d="M175.445 120.956H148.242V140.363H175.445V120.956Z" fill="#FCD5A8"/>
<path d="M245.22 140.636H194.85C192.705 140.636 190.959 138.891 190.959 136.745V111.445C190.959 109.3 192.705 107.554 194.85 107.554H245.22C247.366 107.554 249.111 109.3 249.111 111.445V136.745C249.111 138.891 247.366 140.636 245.22 140.636ZM194.85 108.164C193.041 108.164 191.567 109.637 191.567 111.447V136.745C191.567 138.555 193.039 140.028 194.85 140.028H245.22C247.029 140.028 248.503 138.555 248.503 136.745V111.445C248.503 109.636 247.029 108.162 245.22 108.162H194.85V108.164Z" fill="#0D2A3E"/>
<path d="M197.012 133.623L196.467 133.349L199.908 126.468L204.161 130.922L209.225 119.985L216.016 126.365L223.486 118.893L230.789 123.355L240.159 113.586L240.598 114.008L230.889 124.131L223.578 119.662L216.029 127.213L209.422 121.007L204.338 131.99L200.065 127.515L197.012 133.623Z" fill="#EA9B3A"/>
<path d="M228.404 132.217H222.619V135.262H228.404V132.217Z" fill="#0D2A3E"/>
<path d="M242.257 133.436H232.21V134.046H242.257V133.436Z" fill="#EA9B3A"/>
<path d="M242.743 66.8574C240.7 59.2456 234.935 53.1635 227.516 50.675L220.036 72.9667L242.743 66.8574Z" fill="#FCD5A8"/>
<path d="M220.036 72.9668L209.628 94.0521C212.767 95.6043 216.298 96.481 220.036 96.481C233.022 96.481 243.55 85.9529 243.55 72.9668C243.55 70.8531 243.267 68.8054 242.744 66.8574L220.036 72.9668Z" fill="#0D2A3E"/>
<path d="M227.516 50.6766C225.166 49.8884 222.651 49.4541 220.036 49.4541C207.05 49.4541 196.522 59.9822 196.522 72.9683C196.522 82.216 201.864 90.2139 209.627 94.0536L220.034 72.9683L227.516 50.6766Z" fill="#EA9B3A"/>
<path d="M163.232 89.4788H130.112V91.9704H163.232V89.4788Z" fill="#FCD5A8"/>
<path d="M175.748 84.0241H117.595V50.4048H175.748V84.0241ZM118.203 83.4144H175.139V51.0144H118.203V83.4144Z" fill="#0D2A3E"/>
<path d="M171.487 57.7447C169.557 57.357 167.646 58.615 166.425 60.164C165.846 60.8975 165.37 61.7034 164.9 62.5142C164.379 63.415 163.866 64.3206 163.237 65.1458C162.04 66.7141 160.182 68.0251 158.238 67.7292C155.081 67.2482 153.355 62.9163 150.164 62.9726C148.673 62.9983 147.396 64.0294 146.381 65.1249C145.364 66.2203 144.438 67.4638 143.117 68.1554C141.269 69.1222 138.988 68.8085 137.072 67.9865C135.156 67.1629 133.477 65.8825 131.654 64.8659C128.603 63.1624 125.136 62.2632 121.647 62.1715V78.6176H171.698V63.489V57.801C171.627 57.7801 171.56 57.7592 171.487 57.7447Z" fill="#FCD5A8"/>
<path d="M137.07 67.9866C138.986 68.8102 141.267 69.1223 143.115 68.1555C144.437 67.4638 145.364 66.2204 146.379 65.125C147.394 64.0295 148.671 62.9984 150.162 62.9727C153.354 62.9164 155.08 67.2483 158.236 67.7292C160.182 68.0252 162.039 66.7142 163.235 65.1459C163.864 64.3207 164.377 63.4134 164.899 62.5142C162.959 62.6027 161.02 62.6992 159.341 61.8032C157.67 60.9121 156.574 59.1732 154.908 58.2724C151.917 56.6542 148.259 58.1984 145.28 59.836C143.5 60.8156 141.513 61.866 139.541 61.3834C137.31 60.8365 136.002 58.5636 134.144 57.2091C130.586 54.6145 125.244 55.874 122.202 59.0622C122.2 59.0638 122.199 59.067 122.196 59.0687C121.832 59.4515 121.644 59.9421 121.644 60.4424V62.17C125.131 62.2617 128.599 63.1609 131.651 64.8644C133.473 65.881 135.154 67.163 137.07 67.9866Z" fill="#0D2A3E"/>
<path d="M322.634 97.4862H264.392V50.3596H322.634V97.4862ZM265.089 96.7896H321.935V51.0577H265.089V96.7896Z" fill="#0D2A3E"/>
<path d="M280.118 69.9924H274.028V90.4938H280.118V69.9924Z" fill="#0D2A3E"/>
<path d="M280.118 59.6411H274.028V69.9923H280.118V59.6411Z" fill="#FCD5A8"/>
<path d="M291.077 59.6411H284.987V75.0159H291.077V59.6411Z" fill="#FCD5A8"/>
<path d="M291.077 75.0159H284.987V90.4936H291.077V75.0159Z" fill="#0D2A3E"/>
<path d="M302.038 66.4148H295.948V90.4936H302.038V66.4148Z" fill="#0D2A3E"/>
<path d="M302.038 59.6411H295.948V66.4148H302.038V59.6411Z" fill="#FCD5A8"/>
<path d="M312.999 75.3972H306.909V90.4937H312.999V75.3972Z" fill="#0D2A3E"/>
<path d="M312.999 59.6411H306.909V75.3971H312.999V59.6411Z" fill="#FCD5A8"/>
<path d="M102.349 239.184L90.9523 227.321L90.9764 218.569L77.1313 218.981L78.275 239.184H102.349Z" fill="#102048"/>
<path d="M91.0681 185.683L75.3668 187.777L75.9861 198.73L91.0327 198.365L91.0681 185.683Z" fill="#E28B6D"/>
<path d="M91.0327 198.365L75.9861 198.73L77.1314 218.981L90.9764 218.569L91.0327 198.365Z" fill="#F9B384"/>
<path d="M90.6527 226.686L84.7218 229.477L85.3163 230.74L91.2472 227.949L90.6527 226.686Z" fill="white"/>
<path d="M124.216 182.078L109.095 181.496L107.11 193.067L121.594 195.182L124.216 182.078Z" fill="#E28B6D"/>
<path d="M127.588 227.439L118.284 211.737L119.487 205.721C115.383 204.782 109.049 203.334 105.484 202.54L102.349 220.81L127.588 227.439Z" fill="#102048"/>
<path d="M121.594 195.182L107.11 193.067L105.486 202.54C109.05 203.334 115.385 204.782 119.488 205.721L121.594 195.182Z" fill="#F9B384"/>
<path d="M118.064 211.065L112.19 213.043L112.635 214.366L118.509 212.388L118.064 211.065Z" fill="white"/>
<path d="M134.334 183.825C134.334 183.825 128.054 191.731 116.421 189.171C104.794 186.616 106.888 193.358 100.371 194.754C93.859 196.15 75.7158 184.753 69.6659 195.452C69.6659 195.452 66.0643 154.943 67.7051 129.304C68.1523 122.381 68.9759 116.54 70.3641 112.877L98.2005 112.493L104.328 112.409C104.328 112.409 104.349 112.541 104.397 112.807C104.501 113.358 104.71 114.481 105.06 116.086C107.336 126.643 115.317 157.956 134.334 183.825Z" fill="#FBC343"/>
<path d="M105.06 116.086C98.8343 120.196 85.8547 127.26 67.7035 129.304C68.1507 122.381 68.9743 116.54 70.3625 112.877L98.1989 112.493L104.395 112.807C104.501 113.357 104.71 114.481 105.06 116.086Z" fill="#E49B31"/>
<path d="M74.2749 150.73L80.9824 127.971L50.5261 118.995L43.8187 141.753L74.2749 150.73Z" fill="white"/>
<path d="M74.5078 151.158L43.3818 141.984L50.2874 118.557L81.4134 127.731L74.5078 151.158ZM44.2488 141.513L74.0349 150.293L80.548 128.204L50.7619 119.424L44.2488 141.513Z" fill="#86A7FF"/>
<path d="M75.01 129.708L73.0128 136.485L73.6824 136.682L75.6796 129.906L75.01 129.708Z" fill="#86A7FF"/>
<path d="M70.8255 128.474L66.017 144.79L66.6867 144.987L71.4951 128.672L70.8255 128.474Z" fill="#86A7FF"/>
<path d="M66.642 127.246L61.8336 143.561L62.5032 143.758L67.3117 127.443L66.642 127.246Z" fill="#86A7FF"/>
<path d="M62.4587 126.009L57.6502 142.324L58.3198 142.522L63.1283 126.206L62.4587 126.009Z" fill="#86A7FF"/>
<path d="M58.2763 124.778L54.602 137.245L55.2716 137.442L58.946 124.975L58.2763 124.778Z" fill="#86A7FF"/>
<path d="M121.934 71.2376C121.934 71.2376 122.794 62.9454 123.568 63.0853C124.342 63.2253 124.256 65.2505 124.256 65.2505C124.256 65.2505 126.066 60.6258 126.907 60.6306C127.749 60.6354 126.89 62.5207 126.89 62.5207C126.89 62.5207 127.824 60.6306 128.522 60.7754C129.22 60.9202 128.648 62.5255 128.648 62.5255C128.648 62.5255 129.378 60.9749 130.084 61.2499C130.792 61.525 130.346 62.7942 130.346 62.7942C130.346 62.7942 130.732 61.7888 131.392 62.4596C132.051 63.1287 128.669 72.8381 128.669 72.8381L123.901 74.199L121.934 71.2376Z" fill="#F9B384"/>
<path d="M128.691 72.8686C128.691 72.8686 124.531 89.9727 114.043 94.9689C111.587 96.148 108.782 96.6579 105.606 96.1271L103.729 92.7845L91.4188 70.8869L95.7169 69.3796C95.7169 69.3796 105.375 72.9812 110.609 81.0064C110.609 81.0064 115.494 80.5464 122.004 70.7759L128.691 72.8686Z" fill="#3A6BEA"/>
<path d="M114.043 94.9691C111.587 96.1482 108.782 96.6581 105.606 96.1272L103.729 92.7846L104.21 84.613C104.21 84.613 111.328 88.6538 114.043 94.9691Z" fill="#102048"/>
<path d="M70.7147 127.967C70.7147 127.967 69.7737 136.02 68.9501 135.883C68.1265 135.747 68.2263 133.72 68.2263 133.72C68.2263 133.72 66.2783 138.354 65.3823 138.352C64.4863 138.351 65.4096 136.461 65.4096 136.461C65.4096 136.461 64.4059 138.357 63.6627 138.214C62.9196 138.071 63.5373 136.464 63.5373 136.464C63.5373 136.464 62.7523 138.018 62.0011 137.746C61.2499 137.474 61.7276 136.202 61.7276 136.202C61.7276 136.202 61.311 137.209 60.6129 136.541C59.9147 135.874 63.5614 126.147 63.5614 126.147L68.6445 124.763L70.7147 127.967Z" fill="#F9B384"/>
<path d="M87.4037 69.5518C66.7592 72.0531 60.682 100.663 63.037 127.531L70.7131 127.996C70.7131 127.996 71.9919 101.71 82.5764 89.1491L91.4155 70.8885L87.4037 69.5518Z" fill="#3A6BEA"/>
<path d="M91.4171 70.8887L105.722 80.5418C105.722 80.5418 109.676 99.034 109.444 115.433C109.444 115.433 81.7641 125.669 68.0397 114.969L78.8558 79.8436L91.4171 70.8887Z" fill="#3A6BEA"/>
<path d="M99.629 54.1707C100.954 49.5476 96.3024 44.1396 87.4054 48.7337C87.4054 48.7337 78.5662 50.2457 80.1362 65.598L89.4402 65.9471L99.629 54.1707Z" fill="#102048"/>
<path d="M89.2649 48.4135C90.4809 43.5283 85.1742 42.7465 84.2895 45.7433C84.1721 46.1422 81.5855 44.717 80.8616 47.0462C80.0316 49.7165 82.9142 51.4939 86.1683 50.8248L89.2649 48.4135Z" fill="#102048"/>
<path d="M95.7185 60.1884V69.3798L91.7051 75.0179L87.407 69.5535L87.637 60.0146L95.7185 60.1884Z" fill="#F9B384"/>
<path d="M95.7185 63.3298V69.2269C92.844 67.977 91.6086 64.2017 91.6086 64.2017L95.7185 63.3298Z" fill="#102048"/>
<path d="M99.629 54.1705C99.629 54.1705 102.487 69.2606 91.6102 64.2016L88.0375 60.1014L90.2606 51.814L95.9759 50.4177L99.629 54.1705Z" fill="#F9B384"/>
<path d="M99.6289 54.1706C99.6289 54.1706 97.3496 50.6237 94.4992 52.3384C91.6504 54.0532 91.7952 60.0725 88.8289 58.5604C85.8627 57.0483 87.5791 52.3963 87.5791 52.3963L91.9399 49.0811L96.8252 49.6328L99.6289 54.1706Z" fill="#102048"/>
<path d="M89.2487 61.1509C90.2357 60.581 90.5087 59.2059 89.8584 58.0796C89.2081 56.9533 87.8808 56.5022 86.8937 57.0721C85.9066 57.642 85.6336 59.0171 86.2839 60.1434C86.9342 61.2697 88.2616 61.7208 89.2487 61.1509Z" fill="#F9B384"/>
<path d="M91.7662 81.3572C92.5374 81.3572 93.1625 80.7321 93.1625 79.9609C93.1625 79.1898 92.5374 78.5647 91.7662 78.5647C90.9951 78.5647 90.37 79.1898 90.37 79.9609C90.37 80.7321 90.9951 81.3572 91.7662 81.3572Z" fill="#102048"/>
<path d="M71.8713 117.304L71.186 117.171C71.1957 117.119 72.2123 111.941 73.919 106.147C76.2225 98.3327 78.6225 93.1756 81.0547 90.8174L81.5405 91.3176C75.9281 96.7627 71.9115 117.1 71.8713 117.304Z" fill="#102048"/>
<path d="M69.2847 100.826C68.0027 99.8639 65.0011 99.9636 64.9705 99.9652L64.9448 99.2687C65.0783 99.2639 68.2263 99.1609 69.7029 100.269L69.2847 100.826Z" fill="#102048"/>
<path d="M372.066 217.901L371.833 231.159L368.809 239.184H385.208L384.278 217.552L372.066 217.901Z" fill="#102048"/>
<path d="M347.932 219.296V230.287L335.022 239.184H361.017L359.447 218.075L347.932 219.296Z" fill="#102048"/>
<path d="M348.358 229.734L347.513 230.845L351.409 233.811L352.254 232.7L348.358 229.734Z" fill="white"/>
<path d="M369.737 111.479L369.668 111.745L367.351 120.88L362.299 140.789C361.594 143.964 361.063 147.391 360.672 150.978C358.21 173.636 361.391 202.597 363.045 215.088C363.478 218.368 360.923 221.271 357.616 221.271H348.425C346.311 221.271 344.384 220.05 343.47 218.144C331.753 193.608 333.658 156.965 336.01 147.997C339.729 133.81 342.29 112.644 342.29 112.644L350.099 112.309L369.737 111.479Z" fill="#3A6BEA"/>
<path d="M387.33 214.866C387.253 218.02 384.677 220.539 381.524 220.539H373.652C370.742 220.539 368.279 218.382 367.901 215.493C366.401 204.048 362.744 175.214 360.672 150.978C359.591 138.264 358.948 126.819 359.284 119.812C359.403 117.153 359.669 115.136 360.108 113.929L369.668 111.745L379.403 109.525C379.403 109.525 381.817 112.1 384.037 125.812C386.345 140.12 388.432 166.56 387.33 214.866Z" fill="#3A6BEA"/>
<path d="M359.68 170.349C359.249 161.411 359.522 153.791 360.52 147.055C360.84 144.886 361.983 142.924 363.738 141.529L370.279 136.33L370.713 136.877L364.173 142.076C362.556 143.36 361.504 145.165 361.21 147.158C360.22 153.849 359.947 161.426 360.376 170.316L359.68 170.349Z" fill="#102048"/>
<path d="M340.067 173.236L339.981 172.544C344.363 172 348.119 171.923 351.462 172.311L351.381 173.004C348.093 172.623 344.392 172.7 340.067 173.236Z" fill="#102048"/>
<path d="M371.469 171.608L371.384 170.916C375.766 170.373 379.522 170.295 382.864 170.683L382.784 171.376C379.496 170.995 375.795 171.071 371.469 171.608Z" fill="#102048"/>
<path d="M352.2 212.981C346.232 212.981 341.81 211.917 341.743 211.901L341.91 211.224C342.011 211.248 352.168 213.687 362.434 211.087L362.606 211.763C358.982 212.68 355.372 212.981 352.2 212.981Z" fill="#102048"/>
<path d="M376.786 213.021C375.843 213.021 374.95 212.994 374.138 212.95C370.279 212.747 367.34 212.181 367.311 212.175L367.444 211.49C367.559 211.512 379.041 213.698 386.683 210.872L386.924 211.527C383.759 212.698 379.985 213.021 376.786 213.021Z" fill="#102048"/>
<path d="M384.035 125.813C379.591 123.441 373.456 121.892 367.35 120.88C364.607 120.42 361.864 120.077 359.283 119.812C351.111 118.982 344.558 118.982 344.558 118.982L350.099 112.311L369.737 111.481L369.668 111.746L379.403 109.527C379.403 109.527 381.817 112.102 384.035 125.813Z" fill="#1F3C88"/>
<path d="M357.692 58.9609H349.618V72.436H357.692V58.9609Z" fill="#E28B6D"/>
<path d="M353.4 64.5635C353.4 64.5635 352.583 67.5008 349.618 69.5115V63.6289L353.4 64.5635Z" fill="#102048"/>
<path d="M345.455 52.0842L344.887 57.7561C344.887 57.7561 342.246 61.3014 343.895 61.3014C345.668 61.3014 345.384 62.0108 345.384 62.0108C345.384 62.0108 344.392 69.3845 353.397 64.5636L355.311 53.503L345.455 52.0842Z" fill="#E28B6D"/>
<path d="M345.455 52.0843C345.455 52.0843 347.902 51.7658 348.539 54.3524C349.178 56.9406 350.028 58.5347 352.19 56.7283L354.566 52.8291L350.49 51.1272L345.455 52.0843Z" fill="#102048"/>
<path d="M345.455 52.0842C345.455 50.2407 347.641 45.8445 354.531 47.0155C361.115 48.1335 362.152 57.3668 358.75 61.5861C358.75 61.5861 357.013 64.3158 354.674 59.318L350.669 53.9292L349.818 52.2273L345.455 52.0842Z" fill="#102048"/>
<path d="M355.034 58.9785C354.383 60.1061 353.059 60.5597 352.075 59.9919C351.092 59.4241 350.822 58.0504 351.473 56.9227C352.124 55.7951 353.448 55.3415 354.433 55.9093C355.416 56.4772 355.686 57.8509 355.034 58.9785Z" fill="#E28B6D"/>
<path d="M370.321 69.4939C385.789 74.495 398.001 95.4306 383.696 95.7797C369.391 96.1287 360.668 82.8692 360.668 82.8692L370.321 69.4939Z" fill="#E49B31"/>
<path d="M301.872 85.4623C301.872 85.4623 294.23 82.1325 293.971 82.8741C293.712 83.6172 295.517 84.539 295.517 84.539C295.517 84.539 290.601 83.8392 290.191 84.5744C289.782 85.3095 291.846 85.4896 291.846 85.4896C291.846 85.4896 289.741 85.3738 289.523 86.0526C289.306 86.7315 290.986 87.0226 290.986 87.0226C290.986 87.0226 289.277 86.8955 289.168 87.6467C289.06 88.3979 290.384 88.636 290.384 88.636C290.384 88.636 289.319 88.4784 289.578 89.3808C289.837 90.2832 299.953 92.117 299.953 92.117L303.483 88.636L301.872 85.4623Z" fill="#E28B6D"/>
<path d="M378.264 116.183L343.728 119.952C340.818 120.265 338.299 117.943 338.389 115.012L338.821 100.761L339.024 94.1953L339.031 94.0344C339.031 94.0344 338.78 94.3352 338.276 94.8017C338.276 94.8081 338.27 94.8081 338.262 94.8162C337.934 95.117 337.501 95.4853 336.964 95.8907C332.379 99.3524 320.152 105.298 299.95 92.1154L301.869 85.4655L323.677 86.3582C323.677 86.3582 333.454 78.4585 342.135 73.036C347.809 69.4907 354.375 67.5298 361.06 67.7052C364.081 67.7824 367.327 68.2633 370.321 69.4923C377.683 72.5341 381.333 99.695 382.533 110.881C382.821 113.526 380.91 115.898 378.264 116.183Z" fill="#FBC343"/>
<path d="M321.272 92.7764C320.64 88.4429 323.345 86.1812 323.461 86.0879L323.904 86.6284C323.897 86.6332 323.263 87.1624 322.712 88.1694C321.975 89.5126 321.724 91.0294 321.964 92.6766L321.272 92.7764Z" fill="#E49B31"/>
<path d="M342.116 91.5911C342.116 91.5911 341.9 97.2163 338.821 100.76L339.024 94.1937C340.176 93.2592 341.495 92.1637 342.116 91.5911Z" fill="#E49B31"/>
<path d="M331.892 99.087L331.755 98.4034C336.806 97.3932 343.607 88.9305 343.676 88.8452L344.221 89.2811C344.204 89.3037 342.457 91.4849 340.091 93.7643C336.888 96.8479 334.129 98.6399 331.892 99.087Z" fill="#E49B31"/>
<path d="M442.954 238.662H6.80426V239.709H442.954V238.662Z" fill="#102048"/>
</g>
<defs>
<clipPath id="clip0_322_2277">
<rect width="447.315" height="240" fill="white"/>
</clipPath>
</defs>
</svg>
