<svg xmlns="http://www.w3.org/2000/svg" width="40" height="40" viewBox="0 0 40 40" fill="none">
  <g clip-path="url(#clip0_322_2258)">
    <path d="M34.1406 14.1406H38.8281C39.4753 14.1406 40 13.6159 40 12.9687V8.28123C40 7.63404 39.4753 7.10935 38.8281 7.10935H34.1406C33.4934 7.10935 32.9688 7.63404 32.9688 8.28123V9.4531H27.8906C27.8906 9.4531 27.8835 7.10146 27.8835 7.0367C27.8835 5.76904 27.101 3.96662 23.3733 2.57826C20.8291 1.63076 17.4796 1.10889 13.9418 1.10889C10.404 1.10889 7.05445 1.63076 4.51031 2.57826C0.7825 3.96662 0 5.76912 0 7.0367C0 7.12412 0.00710937 32.9633 0.00710937 32.9633C0.00710937 34.2333 0.788359 36.0383 4.51023 37.4244C7.04977 38.3702 10.4018 38.8911 13.9489 38.8911C17.496 38.8911 20.848 38.3702 23.3875 37.4244C27.1094 36.0383 27.8906 34.2333 27.8906 32.9633V31.4844H32.9688V32.6562C32.9688 33.3034 33.4934 33.8281 34.1406 33.8281H38.8281C39.4753 33.8281 40 33.3034 40 32.6562V27.9687C40 27.3215 39.4753 26.7969 38.8281 26.7969H34.1406C33.4934 26.7969 32.9688 27.3215 32.9688 27.9687V29.1406H27.8906V21.3281H32.9688V22.8125C32.9688 23.4597 33.4934 23.9844 34.1406 23.9844H38.8281C39.4753 23.9844 40 23.4597 40 22.8125V18.125C40 17.4778 39.4753 16.9531 38.8281 16.9531H34.1406C33.4934 16.9531 32.9688 17.4778 32.9688 18.125V18.9844H27.8906V11.7969H32.9688V12.9687C32.9688 13.6159 33.4934 14.1406 34.1406 14.1406ZM35.3125 29.1406H37.6562V31.4844H35.3125V29.1406ZM35.3125 19.2969H37.6562V21.6406H35.3125V19.2969ZM25.5469 24.3309C25.5469 24.8641 24.7672 25.7772 22.5696 26.5956C20.2853 27.4464 17.2237 27.9149 13.949 27.9149C10.6741 27.9149 7.61258 27.4464 5.32828 26.5956C3.1307 25.7771 2.35094 24.8641 2.35094 24.3309V19.0913C2.92812 19.4501 3.63742 19.7983 4.51023 20.1234C7.04977 21.0692 10.4018 21.5901 13.9489 21.5901C17.496 21.5901 20.848 21.0692 23.3875 20.1234C24.2603 19.7983 24.9696 19.4501 25.5469 19.0913V24.3309ZM4.51031 11.4952C7.05445 12.4427 10.4039 12.9646 13.9418 12.9646C17.4797 12.9646 20.8291 12.4427 23.3733 11.4952C24.253 11.1676 24.9668 10.8168 25.5469 10.4555V15.6622C25.5469 16.1954 24.7672 17.1086 22.5696 17.927C20.2853 18.7778 17.2237 19.2463 13.949 19.2463C10.6741 19.2463 7.61258 18.7778 5.32828 17.927C3.1307 17.1085 2.35094 16.1954 2.35094 15.6622V10.4644C2.92844 10.8225 3.63781 11.1702 4.51031 11.4952ZM5.32828 4.77459C7.61727 3.92217 10.6762 3.45264 13.9417 3.45264C17.2072 3.45264 20.2662 3.92217 22.5552 4.77459C24.6169 5.54248 25.5397 6.46404 25.5397 7.0367C25.5397 7.60935 24.6169 8.53092 22.5552 9.29881C20.2662 10.1512 17.2072 10.6208 13.9417 10.6208C10.6762 10.6208 7.61719 10.1512 5.32828 9.29881C3.26656 8.53092 2.34375 7.60935 2.34375 7.0367C2.34375 6.46404 3.26656 5.54248 5.32828 4.77459ZM22.5696 35.228C20.2853 36.0788 17.2237 36.5473 13.949 36.5473C10.6741 36.5473 7.61258 36.0788 5.32828 35.228C3.1307 34.4095 2.35094 33.4965 2.35094 32.9633V27.7599C2.92812 28.1187 3.63742 28.4669 4.51023 28.792C7.04977 29.7378 10.4018 30.2586 13.9489 30.2586C17.496 30.2586 20.848 29.7378 23.3875 28.792C24.2603 28.4669 24.9696 28.1187 25.5469 27.7599V32.9633C25.5469 33.4965 24.7672 34.4095 22.5696 35.228ZM35.3125 9.4531H37.6562V11.7969H35.3125V9.4531Z" fill="#F7910A"/>
  </g>
  <defs>
    <clipPath id="clip0_322_2258">
      <rect width="40" height="40" fill="white"/>
    </clipPath>
  </defs>
</svg>