<svg width="295" height="240" viewBox="0 0 295 240" fill="none" xmlns="http://www.w3.org/2000/svg">
<path d="M284.966 139.813C291.015 120.387 293.982 99.9091 294.291 80.2742C294.617 59.4979 292.36 37.0277 278.606 21.4521C265.154 6.21814 243.569 1.01349 223.265 0.13061C215.041 -0.227243 206.644 0.0124439 198.836 2.62215C183.07 7.89192 172.018 21.865 158.035 30.8536C131.039 48.2064 94.5638 46.1526 68.6111 65.0302C61.9421 69.8811 56.2191 75.9773 51.4979 82.7389C32.5774 109.838 31.101 147.38 45.5393 177.111C59.9776 206.841 89.0234 228.409 121.117 236.308C153.21 244.206 187.853 239.034 217.587 224.604C252.25 207.781 273.831 175.579 284.966 139.813Z" fill="#FFAC4E"/>
<path opacity="0.7" d="M284.966 139.813C291.015 120.387 293.982 99.9091 294.291 80.2742C294.617 59.4979 292.36 37.0277 278.606 21.4521C265.154 6.21814 243.569 1.01349 223.265 0.13061C215.041 -0.227243 206.644 0.0124439 198.836 2.62215C183.07 7.89192 172.018 21.865 158.035 30.8536C131.039 48.2064 94.5638 46.1526 68.6111 65.0302C61.9421 69.8811 56.2191 75.9773 51.4979 82.7389C32.5774 109.838 31.101 147.38 45.5393 177.111C59.9776 206.841 89.0234 228.409 121.117 236.308C153.21 244.206 187.853 239.034 217.587 224.604C252.25 207.781 273.831 175.579 284.966 139.813Z" fill="white"/>
<path d="M237.082 14.7762V150.747C237.082 154.789 233.806 158.065 229.757 158.065H48.4072C47.7022 158.065 47.0174 157.964 46.3729 157.776C43.318 156.897 41.089 154.084 41.089 150.747V14.7762C41.089 10.7277 44.3654 7.45129 48.4072 7.45129H229.757C233.806 7.45129 237.082 10.7277 237.082 14.7762Z" fill="white"/>
<path d="M237.083 18.979V150.747C237.083 154.789 233.806 158.065 229.758 158.065H48.4077C47.7028 158.065 47.018 157.964 46.3734 157.776L237.083 18.979Z" fill="#263238"/>
<path opacity="0.9" d="M237.083 18.979V150.747C237.083 154.789 233.806 158.065 229.758 158.065H48.4077C47.7028 158.065 47.018 157.964 46.3734 157.776L237.083 18.979Z" fill="white"/>
<path d="M186.815 92.584L196.691 88.1259L194.583 76.3094L183.7 75.4366C182.33 71.7909 180.49 68.3332 178.228 65.1643L181.645 59.3769L183.834 55.664L175.361 47.2515L165.867 52.9516C160.416 49.1918 154.225 46.6405 147.706 45.4656L144.974 34.589H132.969L130.156 45.5461C126.457 46.2847 122.851 47.4462 119.407 49.0038L110.806 41.5916L100.991 48.2787L105.073 58.8733C102.474 61.5656 100.232 64.5734 98.3857 67.823L87.0861 66.6816L83.0242 77.961L92.3633 84.3057C91.9067 86.951 91.6852 89.6366 91.6986 92.3221C91.6247 93.4299 91.6247 94.5378 91.6986 95.6456L81.8224 101.191L84.9578 112.739H96.1096C97.1772 115.042 98.4327 117.244 99.856 119.346C100.581 120.42 101.353 121.467 102.166 122.481L97.3584 132.431L106.57 140.159L115.459 133.499C118.843 135.452 122.448 136.977 126.208 138.037L127.994 148.786L139.958 149.847L143.55 139.709C147.465 139.313 151.325 138.46 155.038 137.165L162.638 144.758L173.045 138.756L170.178 128.403C173.199 125.872 175.891 122.958 178.188 119.749L188.728 121.642L193.804 110.779L185.519 104.098C186.412 100.325 186.849 96.4646 186.815 92.584ZM159.449 92.584C159.449 103.83 150.331 112.947 139.086 112.947C131.767 112.947 125.349 109.087 121.757 103.286C119.83 100.177 118.722 96.5049 118.722 92.584C118.722 81.3449 127.84 72.2273 139.086 72.2273C144.685 72.2273 149.754 74.4899 153.44 78.1423C153.809 78.5116 154.165 78.8876 154.494 79.2837C157.556 82.8219 159.422 87.421 159.449 92.4564V92.584Z" fill="#FFAC4E" stroke="#263238" stroke-miterlimit="10"/>
<path opacity="0.2" d="M185.519 104.098L193.804 110.779L188.728 121.642L178.187 119.749C175.891 122.958 173.199 125.872 170.178 128.403L173.044 138.756L162.638 144.758L155.038 137.165C151.325 138.46 147.464 139.313 143.55 139.709L139.958 149.847L127.994 148.786L126.208 138.037C122.448 136.977 118.843 135.453 115.459 133.499L106.57 140.159L97.3582 132.431L102.165 122.481C101.353 121.467 100.581 120.42 99.8558 119.346L121.757 103.286C125.349 109.087 131.767 112.947 139.085 112.947C150.331 112.947 159.449 103.83 159.449 92.5841V92.4565C159.422 87.4211 157.555 82.822 154.494 79.2838L181.645 59.377L178.228 65.1644C180.49 68.3333 182.33 71.791 183.699 75.4367L194.583 76.3095L196.691 88.126L186.815 92.5841C186.848 96.4647 186.412 100.325 185.519 104.098Z" fill="black"/>
<path d="M227.976 61.1863L228.473 60.9581C229.044 60.7069 229.367 60.0946 229.251 59.481L229.151 58.8767C229.049 58.2617 228.538 57.7971 227.915 57.7555L227.318 57.7085C226.836 57.6729 226.41 57.3802 226.203 56.9431C226.042 56.6007 225.868 56.2717 225.68 55.9495C225.44 55.5339 225.44 55.0223 225.68 54.6067L225.989 54.083C226.297 53.5445 226.209 52.8664 225.774 52.4246L225.344 51.9949C224.904 51.5471 224.213 51.4632 223.679 51.7935L223.149 52.1091C222.733 52.3488 222.221 52.3488 221.806 52.1091C220.949 51.6163 220.03 51.2416 219.073 50.9946C218.595 50.8704 218.224 50.4937 218.106 50.0143L217.952 49.3899C217.806 48.7709 217.245 48.3392 216.609 48.356H216.005C215.371 48.3385 214.811 48.7669 214.662 49.3832L214.494 50.0546C214.376 50.5239 214.014 50.8932 213.548 51.0214C213.212 51.1154 212.876 51.2161 212.561 51.337C212.101 51.5048 211.586 51.4095 211.218 51.0886L210.681 50.6253C210.217 50.2184 209.536 50.1795 209.029 50.5313L208.552 50.8536C208.023 51.2054 207.813 51.8808 208.049 52.4716L208.291 53.1027C208.47 53.5553 208.39 54.0689 208.082 54.4455C207.868 54.7013 207.666 54.9685 207.478 55.2445C207.2 55.652 206.72 55.8736 206.229 55.8219L205.558 55.7615C204.936 55.6923 204.347 56.0629 204.141 56.6544L203.927 57.2452C203.712 57.8193 203.914 58.4658 204.417 58.8163L205.034 59.2527C205.43 59.5307 205.645 60 205.598 60.4814C205.56 60.8312 205.543 61.1836 205.545 61.5354C205.528 62.0048 205.275 62.4344 204.873 62.6768L204.242 63.0259C203.68 63.3193 203.4 63.9659 203.571 64.5769L203.725 65.161C203.882 65.7693 204.439 66.1882 205.068 66.1681H205.739C206.223 66.164 206.672 66.4205 206.914 66.8395C207.096 67.1617 207.29 67.4706 207.498 67.7727C207.77 68.1702 207.809 68.6824 207.599 69.1155L207.324 69.6862C207.045 70.2481 207.193 70.9283 207.68 71.3244L208.143 71.7138C208.618 72.1213 209.311 72.1462 209.815 71.7742L210.291 71.4385C210.683 71.1579 211.196 71.1095 211.634 71.3109C211.975 71.4721 212.324 71.6198 212.682 71.7541C213.13 71.9219 213.454 72.316 213.534 72.788L213.635 73.3721C213.736 73.9871 214.248 74.4517 214.87 74.4934L215.488 74.5471C216.107 74.6048 216.685 74.2295 216.884 73.6407L217.072 73.117C217.234 72.6564 217.632 72.3201 218.113 72.2375C218.493 72.1777 218.87 72.0971 219.241 71.9958C219.708 71.8716 220.205 72.0072 220.544 72.3516L220.94 72.7544C221.371 73.1989 222.051 73.2902 222.585 72.976L223.115 72.6739C223.677 72.3805 223.957 71.7333 223.786 71.123L223.639 70.5993C223.495 70.1226 223.627 69.6063 223.981 69.2565C224.256 68.9812 224.525 68.6925 224.773 68.3904C225.086 68.0164 225.577 67.8419 226.056 67.9338L226.593 68.0345C227.205 68.1554 227.82 67.8385 228.077 67.2692L228.332 66.7186C228.604 66.1506 228.445 65.4691 227.949 65.0804L227.546 64.7514C227.169 64.454 226.98 63.978 227.049 63.5026C227.115 63.1025 227.157 62.699 227.177 62.2941C227.221 61.8067 227.527 61.3824 227.976 61.1863ZM223.155 61.5348C223.155 65.2946 220.107 68.3427 216.347 68.3427C212.588 68.3427 209.539 65.2946 209.539 61.5348C209.539 57.775 212.588 54.7268 216.347 54.7268C220.091 54.7235 223.13 57.7508 223.142 61.4945L223.155 61.5348Z" fill="#FFAC4E" stroke="#263238" stroke-miterlimit="10"/>
<path d="M237.084 14.7775V15.1468H41.0909V14.7775C41.0909 10.729 44.3673 7.45264 48.4091 7.45264H229.759C233.808 7.45264 237.084 10.729 237.084 14.7775Z" fill="#263238"/>
<path d="M237.084 14.7775V150.748C237.084 154.79 233.808 158.066 229.759 158.066H48.4091C44.3673 158.066 41.0909 154.79 41.0909 150.748V14.7775C41.0909 10.729 44.3673 7.45264 48.4091 7.45264H229.759C233.808 7.45264 237.084 10.729 237.084 14.7775Z" stroke="#263238" stroke-miterlimit="10" stroke-linecap="round" stroke-linejoin="round"/>
<path d="M41.0909 14.7776H237.084" stroke="#263238" stroke-miterlimit="10" stroke-linecap="round" stroke-linejoin="round"/>
<path d="M57.4308 11.2997C57.4308 12.1201 56.7661 12.7848 55.9456 12.7848C55.1252 12.7848 54.4605 12.1201 54.4605 11.2997C54.4605 10.4793 55.1252 9.81458 55.9456 9.81458C56.7661 9.81458 57.4308 10.4793 57.4308 11.2997Z" fill="#FFAC4E"/>
<path d="M64.4679 11.2997C64.4679 12.1201 63.8033 12.7848 62.9828 12.7848C62.1624 12.7848 61.4977 12.1201 61.4977 11.2997C61.4977 10.4793 62.1624 9.81458 62.9828 9.81458C63.8026 9.81458 64.4679 10.4793 64.4679 11.2997Z" fill="#FFAC4E"/>
<path d="M71.5038 11.2997C71.5038 12.1201 70.8391 12.7848 70.0186 12.7848C69.1982 12.7848 68.5335 12.1201 68.5335 11.2997C68.5335 10.4793 69.1982 9.81458 70.0186 9.81458C70.8391 9.81458 71.5038 10.4793 71.5038 11.2997Z" fill="#FFAC4E"/>
<path d="M170.39 92.5874C170.39 109.782 156.451 123.721 139.257 123.721C122.062 123.721 108.123 109.782 108.123 92.5874C108.123 75.393 122.062 61.4542 139.257 61.4542C156.375 61.4542 170.282 75.2729 170.39 92.39V92.5874Z" stroke="#263238" stroke-width="4" stroke-miterlimit="10"/>
<path d="M285.947 61.641H175.144C171.101 61.641 167.823 58.3632 167.823 54.3201V29.7249C167.823 25.6818 171.101 22.4041 175.144 22.4041H285.947C289.99 22.4041 293.268 25.6818 293.268 29.7249V54.3201C293.268 58.3632 289.99 61.641 285.947 61.641Z" fill="white" stroke="#263238" stroke-miterlimit="10"/>
<path d="M189.781 41.8462H275.269" stroke="#263238" stroke-miterlimit="10"/>
<path d="M187.116 41.8462L200.617 32.3298H234.999L249.029 41.8462" stroke="#263238" stroke-miterlimit="10"/>
<path d="M251.694 41.8463C251.694 43.318 250.501 44.511 249.029 44.511C247.557 44.511 246.364 43.318 246.364 41.8463C246.364 40.3746 247.557 39.1815 249.029 39.1815C250.501 39.1815 251.694 40.3746 251.694 41.8463Z" fill="#FFAC4E" stroke="#263238" stroke-miterlimit="10"/>
<path d="M200.617 34.9946C202.089 34.9946 203.282 33.8015 203.282 32.3298C203.282 30.8581 202.089 29.665 200.617 29.665C199.145 29.665 197.952 30.8581 197.952 32.3298C197.952 33.8015 199.145 34.9946 200.617 34.9946Z" fill="#FFAC4E" stroke="#263238" stroke-miterlimit="10"/>
<path d="M237.664 32.3298C237.664 33.8015 236.471 34.9946 234.999 34.9946C233.527 34.9946 232.334 33.8015 232.334 32.3298C232.334 30.8581 233.527 29.665 234.999 29.665C236.471 29.665 237.664 30.8581 237.664 32.3298Z" fill="#FFAC4E" stroke="#263238" stroke-miterlimit="10"/>
<path d="M187.116 41.8462L200.617 51.3619H263.988L275.269 41.8462" stroke="#263238" stroke-miterlimit="10"/>
<path d="M223.926 51.3618C223.926 52.8335 222.733 54.0265 221.261 54.0265C219.789 54.0265 218.596 52.8335 218.596 51.3618C218.596 49.8901 219.789 48.697 221.261 48.697C222.733 48.697 223.926 49.8901 223.926 51.3618Z" fill="#FFAC4E" stroke="#263238" stroke-miterlimit="10"/>
<path d="M203.282 51.3618C203.282 52.8335 202.089 54.0265 200.617 54.0265C199.145 54.0265 197.952 52.8335 197.952 51.3618C197.952 49.8901 199.145 48.697 200.617 48.697C202.089 48.697 203.282 49.8901 203.282 51.3618Z" fill="#FFAC4E" stroke="#263238" stroke-miterlimit="10"/>
<path d="M266.653 51.3618C266.653 52.8335 265.46 54.0265 263.988 54.0265C262.517 54.0265 261.324 52.8335 261.324 51.3618C261.324 49.8901 262.517 48.697 263.988 48.697C265.46 48.697 266.653 49.8901 266.653 51.3618Z" fill="#FFAC4E" stroke="#263238" stroke-miterlimit="10"/>
<path d="M275.269 44.511C276.741 44.511 277.934 43.318 277.934 41.8463C277.934 40.3746 276.741 39.1815 275.269 39.1815C273.797 39.1815 272.604 40.3746 272.604 41.8463C272.604 43.318 273.797 44.511 275.269 44.511Z" fill="#FFAC4E" stroke="#263238" stroke-miterlimit="10"/>
<path d="M189.78 41.8463C189.78 43.318 188.587 44.511 187.116 44.511C185.644 44.511 184.451 43.318 184.451 41.8463C184.451 40.3746 185.644 39.1815 187.116 39.1815C188.587 39.1815 189.78 40.3746 189.78 41.8463Z" fill="#FFAC4E" stroke="#263238" stroke-miterlimit="10"/>
<path d="M109.358 183.518H45.5269C41.4837 183.518 38.206 180.24 38.206 176.197V112.365C38.206 108.322 41.4837 105.045 45.5269 105.045H109.358C113.401 105.045 116.679 108.322 116.679 112.365V176.197C116.679 180.241 113.401 183.518 109.358 183.518Z" fill="white" stroke="#263238" stroke-miterlimit="10"/>
<path d="M67.6332 149.848L57.469 169.6H103.535" stroke="#263238" stroke-miterlimit="10" stroke-linecap="round" stroke-linejoin="round"/>
<path d="M103.535 120L82.0365 134.292L103.535 140.759" stroke="#263238" stroke-miterlimit="10" stroke-linecap="round" stroke-linejoin="round"/>
<path d="M108.618 114.917H98.4528V125.082H108.618V114.917Z" fill="#FFAC4E" stroke="#263238" stroke-miterlimit="10"/>
<path d="M108.618 135.677H98.4528V145.842H108.618V135.677Z" fill="#FFAC4E" stroke="#263238" stroke-miterlimit="10"/>
<path d="M87.1187 129.209H76.9538V139.374H87.1187V129.209Z" fill="#FFAC4E" stroke="#263238" stroke-miterlimit="10"/>
<path d="M72.7152 144.766H62.5503V154.931H72.7152V144.766Z" fill="#FFAC4E" stroke="#263238" stroke-miterlimit="10"/>
<path d="M62.5512 164.518H52.3863V174.683H62.5512V164.518Z" fill="#FFAC4E" stroke="#263238" stroke-miterlimit="10"/>
<path d="M108.618 164.518H98.4528V174.683H108.618V164.518Z" fill="#FFAC4E" stroke="#263238" stroke-miterlimit="10"/>
<path d="M72.1523 152.762H8.32088C4.27774 152.762 1 149.485 1 145.442V81.6108C1 77.5677 4.27774 74.2899 8.32088 74.2899H72.1516C76.1948 74.2899 79.4725 77.5677 79.4725 81.6108V145.442C79.4732 149.485 76.1954 152.762 72.1523 152.762Z" fill="white" stroke="#263238" stroke-miterlimit="10"/>
<path d="M61.4982 81.8834H9.29865V85.9279H61.4982V81.8834Z" fill="#FFAC4E"/>
<path d="M39.4555 88.5403H9.29846V92.5848H39.4555V88.5403Z" fill="#FFAC4E"/>
<path d="M26.8648 95.1979H9.29846V99.2424H26.8648V95.1979Z" fill="#FFAC4E"/>
<path d="M38.2067 101.855H9.29846V105.899H38.2067V101.855Z" fill="#FFAC4E"/>
<path d="M54.3618 108.512H9.29846V112.557H54.3618V108.512Z" fill="#FFAC4E"/>
<path d="M39.4555 115.169H9.29846V119.214H39.4555V115.169Z" fill="#FFAC4E"/>
<path d="M30.3379 121.826H9.29846V125.87H30.3379V121.826Z" fill="#FFAC4E"/>
<path d="M43.363 128.483H9.29846V132.528H43.363V128.483Z" fill="#FFAC4E"/>
<path d="M50.5993 135.14H9.29846V139.185H50.5993V135.14Z" fill="#FFAC4E"/>
<path d="M61.498 141.797H9.29846V145.842H61.498V141.797Z" fill="#FFAC4E"/>
<path opacity="0.3" d="M61.4982 81.8834H9.29865V85.9279H61.4982V81.8834Z" fill="black"/>
<path opacity="0.3" d="M39.4555 88.5403H9.29846V92.5848H39.4555V88.5403Z" fill="black"/>
<path opacity="0.3" d="M26.8648 95.1979H9.29846V99.2424H26.8648V95.1979Z" fill="black"/>
<path opacity="0.3" d="M38.2067 101.855H9.29846V105.899H38.2067V101.855Z" fill="black"/>
<path opacity="0.3" d="M54.3618 108.512H9.29846V112.557H54.3618V108.512Z" fill="black"/>
<path opacity="0.3" d="M39.4555 115.169H9.29846V119.214H39.4555V115.169Z" fill="black"/>
<path opacity="0.3" d="M30.3379 121.826H9.29846V125.87H30.3379V121.826Z" fill="black"/>
<path opacity="0.3" d="M43.363 128.483H9.29846V132.528H43.363V128.483Z" fill="black"/>
<path opacity="0.3" d="M50.5993 135.14H9.29846V139.185H50.5993V135.14Z" fill="black"/>
<path opacity="0.3" d="M61.498 141.797H9.29846V145.842H61.498V141.797Z" fill="black"/>
<path d="M61.9097 67.3933H42.9146C41.0045 67.3933 39.4563 68.9415 39.4563 70.8523V74.2905H65.3687V70.8523C65.3681 68.9415 63.8198 67.3933 61.9097 67.3933Z" fill="white" stroke="#263238" stroke-miterlimit="10"/>
<path d="M48.8398 67.3933H30.0704C28.0978 67.3933 26.4985 68.9926 26.4985 70.9651V74.2899H52.411V70.9651C52.4117 68.9919 50.8124 67.3933 48.8398 67.3933Z" fill="#FFAC4E" stroke="#263238" stroke-miterlimit="10"/>
<path d="M34.8633 67.3933H15.6366C13.7902 67.3933 12.2937 68.8898 12.2937 70.7362V74.2899H38.2062V70.7362C38.2062 68.8898 36.7096 67.3933 34.8633 67.3933Z" fill="white" stroke="#263238" stroke-miterlimit="10"/>
<path d="M260.11 211.256H274.373" stroke="#263238" stroke-miterlimit="10" stroke-linecap="round" stroke-linejoin="round"/>
<path d="M35.3984 211.256H252.602" stroke="#263238" stroke-miterlimit="10" stroke-linecap="round" stroke-linejoin="round"/>
<path d="M256.192 202.899C256.192 202.899 258.722 200.832 259.924 203.092C260.964 205.048 258.475 207.233 255.641 207.231V208.882C255.641 208.882 261.716 209.043 262.189 203.927C262.661 198.81 256.192 200.223 256.192 200.223V202.899Z" fill="#FFAC4E" stroke="#263238" stroke-linecap="round" stroke-linejoin="round"/>
<path d="M255.984 211.225H243.814L241.99 195.942H257.815L255.984 211.225Z" fill="#FFAC4E" stroke="#263238" stroke-linecap="round" stroke-linejoin="round"/>
<path d="M242.013 195.211H257.786C258.247 195.211 258.62 195.584 258.62 196.045V196.125C258.62 196.585 258.247 196.958 257.786 196.958H242.013C241.552 196.958 241.179 196.585 241.179 196.125V196.045C241.179 195.584 241.552 195.211 242.013 195.211Z" fill="white" stroke="#263238" stroke-linecap="round" stroke-linejoin="round"/>
<path d="M247.831 193.546C247.831 193.546 253.43 190.189 251.604 186.335C249.778 182.481 243.601 179.943 243.601 173.948C243.601 168.785 249.093 166.871 252.678 164.803" stroke="#263238" stroke-linecap="round" stroke-linejoin="round"/>
<path d="M249.673 168.453C248.218 169.441 247.179 171.022 246.85 172.75C246.521 174.478 246.905 176.331 247.896 177.784" stroke="#263238" stroke-linecap="round" stroke-linejoin="round"/>
<path d="M252.721 183.687C253.83 185.803 254.145 188.324 253.59 190.649" stroke="#263238" stroke-linecap="round" stroke-linejoin="round"/>
<path d="M102.81 209.989C102.81 209.989 102.555 205.605 98.6879 204.061C94.8207 202.517 92.7528 203.154 84.1186 205.477C78.6777 206.901 73.1051 207.764 67.4882 208.056V209.989H102.81Z" fill="white" stroke="#263238" stroke-linecap="round" stroke-linejoin="round"/>
<path d="M102.669 209.989C102.669 209.989 102.925 205.605 106.792 204.061C110.659 202.517 112.72 203.154 121.361 205.477C126.8 206.901 132.371 207.764 137.985 208.056V209.989H102.669Z" fill="white" stroke="#263238" stroke-linecap="round" stroke-linejoin="round"/>
<path d="M139.421 209.217H66.5886V210.634H139.421V209.217Z" fill="#263238" stroke="#263238" stroke-linecap="round" stroke-linejoin="round"/>
<path d="M104.551 209.911C105.231 207.845 106.835 206.103 108.838 205.253" stroke="#263238" stroke-linecap="round" stroke-linejoin="round"/>
<path d="M106.756 209.603C107.767 207.823 109.589 206.527 111.602 206.155C114.011 205.71 116.461 206.539 118.732 207.46C121.003 208.382 124.948 209.595 127.398 209.602" stroke="#263238" stroke-linecap="round" stroke-linejoin="round"/>
<path d="M81.5344 209.199C83.9433 208.943 86.3154 208.349 88.5598 207.438C89.9449 206.876 91.2904 206.191 92.7426 205.838C94.1948 205.485 95.8122 205.498 97.0886 206.276C97.6727 206.632 98.1574 207.129 98.5831 207.664C99.1585 208.388 99.6358 209.189 99.9977 210.04" stroke="#263238" stroke-linecap="round" stroke-linejoin="round"/>
<path d="M94.8534 207.229C95.6383 207.311 96.3506 207.753 96.9038 208.316C97.4571 208.879 97.8727 209.56 98.2829 210.234" stroke="#263238" stroke-linecap="round" stroke-linejoin="round"/>
<path d="M157.976 209.289C157.976 209.289 153.988 211.256 149.481 211.256C144.974 211.256 135.782 201.931 135.782 201.931C135.782 201.931 135.449 200.924 136.166 197.168C136.883 193.413 143.625 158.937 143.625 158.937C143.625 158.937 144.422 150.915 148.981 145.99C153.541 141.066 162.488 139.314 162.488 139.314C162.488 139.314 182.282 130.693 193.38 133.355C204.495 137.763 216.581 142.234 220.626 145.704C224.67 149.172 234.61 176.998 238.054 191.307C238.054 191.307 230.466 207.425 223.394 211.956C216.321 216.487 199.231 215.006 199.231 215.006L157.976 209.289Z" fill="#FFAC4E"/>
<path opacity="0.3" d="M155.464 181.274L152.605 143.281C152.605 143.281 146.596 145.352 145.11 152.145C143.624 158.937 134.685 200.765 135.782 201.931C136.878 203.096 142.729 208.092 142.729 208.092C142.729 208.092 149.021 213.473 155.464 210.259C161.906 207.043 155.464 181.274 155.464 181.274Z" fill="black"/>
<path opacity="0.3" d="M183.877 146.8C183.542 147.937 182.117 148.299 180.931 148.315C177.555 148.363 174.176 147.13 171.625 144.919C171.151 144.51 162.757 149.694 161.789 150.213C160.267 151.03 158.771 151.936 157.22 152.695C155.768 153.404 154.402 153.758 153.455 155.197C152.779 156.222 152.413 157.415 152.055 158.589C150.021 165.253 147.872 171.901 146.021 178.613C144.419 184.421 142.256 190.857 142.349 196.954C142.356 197.39 142.371 197.825 142.442 198.257C143.72 206.051 157.976 209.289 157.976 209.289C157.976 209.289 152.939 212.374 149.481 211.256C146.024 210.139 137.994 205.526 135.457 201.215L142.442 164.662C142.442 164.662 142.355 147.074 155.045 141.817C167.735 136.559 172.723 135.795 172.723 135.795L183.877 146.8Z" fill="black"/>
<path opacity="0.3" d="M230.718 204.256C230.718 204.256 236.259 198.131 238.053 191.309C238.053 191.309 229.553 163.303 227.368 158.067C225.182 152.83 221.601 146.84 219.097 144.283L215.041 201.931L214.187 214.059C214.187 214.059 218.729 214.254 221.918 212.755C225.108 211.256 230.718 204.256 230.718 204.256Z" fill="black"/>
<path d="M214.187 214.059L219.098 144.282C219.098 144.282 195.322 133.17 189.119 132.136C182.917 131.102 152.681 142.99 152.681 142.99L157.074 209.924" stroke="#263238" stroke-miterlimit="10" stroke-linecap="round" stroke-linejoin="round"/>
<path d="M171.323 98.0554L168.879 109.764C168.879 109.764 165.751 107.556 165.086 110.053C164.421 112.551 166.457 115.986 170.39 116.176C170.39 116.176 171.46 121.478 174.941 125.082C178.423 128.686 180.14 130.065 180.14 130.065C180.14 130.065 181.514 138.955 186.002 139.294C190.49 139.632 191.372 135.587 192.28 129.968C192.28 129.968 196.159 123.235 197.292 119.596C197.292 119.596 202.056 116.275 198.877 111.425C198.877 111.425 200.451 99.8399 197.718 97.8795C194.987 95.9203 176.09 96.9321 171.323 98.0554Z" fill="white"/>
<path d="M185.823 140.223C185.823 140.223 184.312 147.814 183.376 148.008C182.44 148.202 178.72 144.65 175.472 140.223C172.223 135.796 172.723 135.795 172.723 135.795C172.723 135.795 174.23 129.989 175.472 129.141C176.714 128.293 181.175 128.402 181.175 128.402L190.963 128.028C190.963 128.028 194.25 127.562 196.236 128.86C198.222 130.158 199.23 135.795 199.23 135.795C199.23 135.795 193.382 146.616 188.577 148.008C188.577 148.008 187.075 144.561 185.823 140.223Z" fill="white"/>
<path d="M153.752 197.235L155.045 179.025" stroke="#263238" stroke-miterlimit="10"/>
<path d="M199.23 101.419C199.23 101.419 193.676 103.571 188.764 103.157C188.764 103.157 183.575 108.383 176.936 105.276C176.936 105.276 170.948 121.493 184.677 132.1C184.677 132.1 173.657 128.55 170.39 116.176C170.39 116.176 166.488 116.786 165.086 110.944C165.086 110.944 163.958 108.696 169.105 108.681L168.879 97.3993L182.106 100.051L191.595 98.6655L199.23 101.419Z" fill="#FFAC4E"/>
<path opacity="0.4" d="M199.23 101.419C199.23 101.419 193.676 103.571 188.764 103.157C188.764 103.157 183.575 108.383 176.936 105.276C176.936 105.276 172.098 122.638 184.116 131.808C184.116 131.808 173.221 128.028 170.39 116.176C170.39 116.176 166.514 115.764 165.086 110.944C165.086 110.944 163.958 108.696 169.105 108.681L168.879 97.3993L182.106 100.051L191.595 98.6655L199.23 101.419Z" fill="white"/>
<path d="M184.116 123.895C184.549 124.242 185.002 124.565 185.472 124.861C185.778 125.053 186.239 125.212 186.457 124.927C186.541 124.817 186.554 124.671 186.563 124.534C186.76 121.329 186.014 118.096 186.47 114.917" stroke="#263238" stroke-miterlimit="10" stroke-linecap="round" stroke-linejoin="round"/>
<path d="M188.571 113.098C188.571 113.098 190.163 109.587 194.267 112.741" stroke="#263238" stroke-width="2" stroke-miterlimit="10" stroke-linecap="round" stroke-linejoin="round"/>
<path d="M183.415 113.747C183.415 113.747 180.416 110.014 176.694 113.863" stroke="#263238" stroke-width="2" stroke-miterlimit="10" stroke-linecap="round" stroke-linejoin="round"/>
<path d="M179.363 129.507C179.363 129.507 180.963 139.079 186.597 139.369C191.169 139.604 192.063 131.692 192.239 128.86" stroke="#263238" stroke-miterlimit="10" stroke-linecap="round" stroke-linejoin="round"/>
<path d="M169.654 110.832C169.654 110.832 167.168 107.865 165.484 109.315C163.801 110.764 166.324 117.145 170.391 116.177" stroke="#263238" stroke-miterlimit="10" stroke-linecap="round" stroke-linejoin="round"/>
<path d="M180.406 125.082C180.406 125.082 182.087 127.333 185.184 128.028" stroke="#263238" stroke-miterlimit="10" stroke-linecap="round" stroke-linejoin="round"/>
<path d="M180.141 119.527C180.497 119.527 180.786 118.914 180.786 118.157C180.786 117.4 180.497 116.786 180.141 116.786C179.785 116.786 179.496 117.4 179.496 118.157C179.496 118.914 179.785 119.527 180.141 119.527Z" fill="#263238"/>
<path d="M191.254 118.157C191.254 118.913 190.965 119.527 190.609 119.527C190.252 119.527 189.963 118.913 189.963 118.157C189.963 117.4 190.252 116.786 190.609 116.786C190.964 116.786 191.254 117.4 191.254 118.157Z" fill="#263238"/>
<path d="M186.004 139.294C186.004 139.294 184.436 147.816 183.377 148.008C182.317 148.201 174.301 140.916 172.724 135.795C172.724 135.795 174.423 129.103 175.964 128.86C176.704 128.743 177.548 128.633 178.226 128.55" stroke="#263238" stroke-miterlimit="10" stroke-linecap="round" stroke-linejoin="round"/>
<path d="M186.003 139.294C186.003 139.294 187.518 147.816 188.577 148.008C189.637 148.201 197.653 140.916 199.23 135.795C199.23 135.795 197.314 129.151 195.857 128.592C194.386 128.028 193.001 127.778 193.001 127.778" stroke="#263238" stroke-miterlimit="10" stroke-linecap="round" stroke-linejoin="round"/>
<path d="M171.158 118.326C172.187 120.108 173.468 113.814 172.924 111.829C172.561 110.503 171.847 109.253 171.786 107.88C171.717 106.354 172.461 104.928 172.999 103.498C173.538 102.068 173.853 100.364 173.014 99.0872C175.945 101.228 179.452 102.376 183.067 102.699C183.992 102.781 184.95 102.795 185.821 102.472C186.692 102.148 187.465 101.424 187.612 100.507C190.999 100.939 194.359 101.382 197.741 100.922C200.575 100.537 204.983 99.819 206.442 96.9253C208.574 92.6942 203.078 88.3053 199.838 86.8269C191.985 83.2436 181.436 82.6401 174.363 88.259C173.612 88.8558 172.902 89.5111 172.089 90.02C170.527 90.9989 166.976 91.7569 165.734 93.1185C164.063 94.9507 166.159 109.105 166.159 109.105C166.159 109.105 168.88 107.844 170.008 112.058C170.772 114.916 170.115 116.52 171.158 118.326Z" fill="#263238"/>
<path d="M196.806 100.008C196.761 100.188 196.73 100.368 196.717 100.545C196.599 102.143 196.88 103.756 197.28 105.298C197.458 105.989 197.713 106.663 197.823 107.362C198.086 109.043 198.082 110.661 199.321 112.025C199.321 112.025 201.699 103.719 200.742 97.7861C200.631 97.0986 200.411 95.3704 199.362 95.69C198.595 95.923 198.042 97.2436 197.72 97.8808C197.392 98.5307 196.987 99.2746 196.806 100.008Z" fill="#263238"/>
<path d="M164.035 92.2168C165.073 91.4575 168.136 89.9858 171.323 91.2379C174.323 85.76 179.04 82.7603 179.04 82.7603" stroke="#263238" stroke-miterlimit="10" stroke-linecap="round" stroke-linejoin="round"/>
<path opacity="0.47" d="M174.239 90.1994C174.239 90.1994 187.021 99.2908 194.763 97.0409C202.504 94.7904 200.344 88.1295 200.344 88.1295" stroke="white" stroke-miterlimit="10" stroke-linecap="round" stroke-linejoin="round"/>
<path opacity="0.47" d="M175.472 88.6692C175.472 88.6692 191.522 96.0505 194.223 85.6083" stroke="white" stroke-miterlimit="10" stroke-linecap="round" stroke-linejoin="round"/>
<path d="M179.363 129.507C179.363 129.507 182.418 135.44 184.81 135.339C187.203 135.238 191.596 128.86 191.596 128.86C191.596 128.86 189.227 131.914 185.63 132.231C183.265 132.439 179.363 129.507 179.363 129.507Z" fill="#263238"/>
<path d="M197.835 172.798L198.332 172.569C198.903 172.317 199.226 171.706 199.111 171.092L199.01 170.488C198.909 169.873 198.397 169.408 197.775 169.367L197.177 169.32C196.695 169.284 196.27 168.991 196.063 168.554C195.902 168.212 195.727 167.883 195.539 167.561C195.299 167.145 195.299 166.633 195.539 166.218L195.848 165.694C196.157 165.156 196.069 164.478 195.633 164.036L195.203 163.606C194.764 163.158 194.072 163.074 193.538 163.405L193.008 163.72C192.592 163.96 192.081 163.96 191.665 163.72C190.808 163.227 189.889 162.853 188.933 162.606C188.455 162.482 188.083 162.105 187.966 161.626L187.811 161.001C187.665 160.382 187.104 159.95 186.469 159.967H185.864C185.231 159.95 184.671 160.378 184.522 160.994L184.354 161.666C184.236 162.135 183.874 162.504 183.407 162.633C183.071 162.727 182.736 162.827 182.42 162.948C181.961 163.116 181.446 163.021 181.077 162.7L180.54 162.237C180.077 161.83 179.395 161.791 178.889 162.143L178.412 162.465C177.882 162.817 177.672 163.492 177.908 164.083L178.15 164.714C178.329 165.166 178.249 165.68 177.942 166.057C177.727 166.313 177.526 166.58 177.338 166.856C177.059 167.263 176.58 167.485 176.089 167.433L175.417 167.373C174.795 167.304 174.207 167.674 174.001 168.266L173.786 168.856C173.572 169.431 173.773 170.077 174.276 170.428L174.894 170.864C175.289 171.142 175.505 171.611 175.458 172.093C175.42 172.442 175.402 172.795 175.404 173.147C175.387 173.616 175.135 174.046 174.733 174.288L174.102 174.637C173.54 174.931 173.26 175.578 173.43 176.188L173.585 176.772C173.742 177.38 174.3 177.799 174.927 177.779H175.599C176.083 177.775 176.532 178.032 176.774 178.451C176.955 178.773 177.15 179.082 177.358 179.384C177.63 179.781 177.668 180.294 177.458 180.727L177.183 181.297C176.905 181.859 177.052 182.539 177.539 182.936L178.002 183.325C178.478 183.733 179.171 183.757 179.674 183.385L180.151 183.05C180.543 182.769 181.056 182.721 181.494 182.922C181.834 183.083 182.183 183.231 182.541 183.365C182.989 183.533 183.314 183.927 183.394 184.399L183.494 184.983C183.596 185.598 184.107 186.063 184.73 186.105L185.347 186.158C185.966 186.216 186.544 185.841 186.744 185.252L186.932 184.728C187.093 184.268 187.492 183.931 187.973 183.849C188.353 183.789 188.729 183.708 189.1 183.607C189.567 183.483 190.065 183.618 190.403 183.963L190.799 184.366C191.231 184.81 191.91 184.901 192.444 184.587L192.974 184.285C193.536 183.992 193.816 183.345 193.646 182.734L193.498 182.21C193.354 181.734 193.487 181.217 193.841 180.868C194.116 180.592 194.384 180.304 194.633 180.002C194.946 179.628 195.436 179.453 195.915 179.545L196.452 179.646C197.065 179.767 197.68 179.45 197.936 178.88L198.191 178.33C198.464 177.762 198.305 177.08 197.808 176.692L197.406 176.363C197.028 176.065 196.839 175.589 196.909 175.114C196.975 174.714 197.017 174.31 197.036 173.905C197.081 173.418 197.387 172.994 197.835 172.798ZM189.752 173.147C189.752 175.105 188.165 176.692 186.207 176.692C184.248 176.692 182.661 175.104 182.661 173.147C182.661 171.188 184.249 169.601 186.207 169.601C188.156 169.599 189.74 171.176 189.746 173.126L189.752 173.147Z" fill="#263238"/>
<path d="M153.889 194.778C153.413 195.428 152.722 195.845 152.148 196.394C150.527 197.946 149.093 200.161 148.434 202.315C148.115 203.357 148.045 204.513 148.456 205.523C149.243 207.452 151.747 209.45 153.752 208.183" stroke="#263238" stroke-miterlimit="10" stroke-linecap="round" stroke-linejoin="round"/>
<path d="M153.728 191.347C151.82 191.049 149.943 192.155 148.636 193.576C147.33 194.996 146.424 196.736 145.235 198.257" stroke="#263238" stroke-miterlimit="10" stroke-linecap="round" stroke-linejoin="round"/>
<path d="M153.584 210.95C151.267 211.429 148.15 211.176 146.024 210.139C144.485 209.389 143.15 208.287 141.831 207.195C140.18 205.829 138.53 204.463 136.879 203.096C136.083 202.436 135.198 201.502 135.528 200.521C135.528 200.521 143.808 156.863 145.11 152.145C146.613 146.697 152.68 142.99 152.68 142.99" stroke="#263238" stroke-miterlimit="10" stroke-linecap="round" stroke-linejoin="round"/>
<path d="M215.731 195.267C217.729 196.654 219.622 199.258 220.439 201.548C221.256 203.839 221.589 206.269 221.918 208.678C220.633 209.397 217.99 211.256 215.731 211.256" stroke="#263238" stroke-miterlimit="10" stroke-linecap="round" stroke-linejoin="round"/>
<path d="M216.012 191.616C218.021 191.085 220.014 192.451 221.53 193.872C223.045 195.294 224.614 196.946 226.68 197.168" stroke="#263238" stroke-miterlimit="10" stroke-linecap="round" stroke-linejoin="round"/>
<path d="M216.399 214.301C220.29 213.891 223.838 211.762 226.65 209.041C229.463 206.322 231.634 203.021 233.782 199.75C235.521 197.1 237.291 194.384 238.053 191.307C238.053 191.307 231.184 168.605 227.367 158.065C223.392 147.085 219.097 144.281 219.097 144.281" stroke="#263238" stroke-miterlimit="10" stroke-linecap="round" stroke-linejoin="round"/>
<path d="M216.012 191.616C219.554 188.64 224.987 191.052 228.797 193.043" stroke="#263238" stroke-miterlimit="10" stroke-linecap="round" stroke-linejoin="round"/>
<path d="M215.731 179.463H153.889V215.007H215.731V179.463Z" fill="white"/>
<path d="M216.012 215.007H153.579V216.865H216.012V215.007Z" fill="#263238"/>
<path d="M153.578 215.008L215.731 179.463L216.011 215.008H153.578Z" fill="#263238"/>
<path opacity="0.9" d="M153.578 215.008L215.731 179.463L216.011 215.008H153.578Z" fill="white"/>
<path d="M189.366 200.386C191.423 198.329 191.423 194.993 189.366 192.935C187.308 190.877 183.972 190.877 181.914 192.935C179.856 194.993 179.856 198.329 181.914 200.386C183.972 202.444 187.308 202.444 189.366 200.386Z" fill="#263238"/>
<path d="M215.731 179.463H153.889V215.007H215.731V179.463Z" stroke="#263238" stroke-miterlimit="10" stroke-linecap="round" stroke-linejoin="round"/>
<path d="M169.368 107.232C169.368 107.232 170.721 119.651 172.442 121.864C174.164 124.078 179.697 132.193 185.722 132.07C191.747 131.947 195.682 124.201 196.666 120.881C197.65 117.561 198.633 112.888 198.88 107.97" stroke="#263238" stroke-miterlimit="10" stroke-linecap="round" stroke-linejoin="round"/>
<path d="M197.293 119.597C197.293 119.597 201.763 117.289 198.879 111.426" stroke="#263238" stroke-miterlimit="10" stroke-linecap="round" stroke-linejoin="round"/>
</svg>
