<svg xmlns="http://www.w3.org/2000/svg" width="40" height="40" viewBox="0 0 40 40" fill="none">
  <g clip-path="url(#clip0_322_1426)">
    <path d="M37.2142 14.6059C36.9006 10.966 35.3023 7.49842 32.7138 4.84191C30.1225 2.18267 26.6968 0.498717 23.0676 0.100287C20.7291 -0.156505 18.4314 0.0804435 16.2377 0.804336C14.136 1.49784 12.2307 2.60204 10.5746 4.08622C7.23538 7.0789 5.29988 11.347 5.2455 15.8225L2.865 22.9638C2.58782 23.7954 2.72836 24.7164 3.24093 25.4274C3.75342 26.1384 4.58262 26.5628 5.45909 26.5628H7.58803V30.0784C7.58803 32.4476 9.51557 34.3752 11.8848 34.3752H14.6192V38.8282C14.6192 39.4754 15.1439 40.0001 15.7911 40.0001H31.4158C32.0629 40.0001 32.5876 39.4754 32.5876 38.8282V27.3165C35.9412 23.959 37.6233 19.356 37.2142 14.6059ZM30.613 25.9671C30.3774 26.1886 30.2438 26.4975 30.2438 26.8209V37.6563H16.9628V33.2032C16.9628 32.5561 16.4382 32.0314 15.791 32.0314H11.8847C10.8078 32.0314 9.93166 31.1552 9.93166 30.0783V25.3909C9.93166 24.7437 9.40698 24.219 8.75981 24.219H5.45909C5.28511 24.219 5.18589 24.1174 5.14222 24.0568C5.09847 23.9963 5.03347 23.8699 5.08847 23.7048L7.52796 16.3866C7.5678 16.2672 7.58811 16.142 7.58811 16.0161C7.58811 12.1355 9.24675 8.4234 12.1388 5.8315C15.0704 3.20413 18.8605 1.99603 22.8119 2.42993C25.902 2.76922 28.8224 4.20669 31.0352 6.47758C33.2468 8.7473 34.6119 11.7055 34.8791 14.8071C35.2411 19.0097 33.6861 23.0773 30.613 25.9671Z" fill="#F7910A"/>
    <path d="M22.3713 4.74981C19.593 4.44122 16.8145 5.32589 14.7483 7.17578C12.6804 9.02707 11.4944 11.6797 11.4944 14.4535C11.4944 16.8496 12.3728 19.1541 13.9679 20.9425C14.8917 21.9785 15.4006 23.2589 15.4006 24.5479V27.7345C15.4006 29.2422 16.6272 30.4688 18.1349 30.4688H24.3848C25.8925 30.4688 27.1191 29.2422 27.1191 27.7345V24.5507C27.1191 23.27 27.6391 21.976 28.5833 20.9071C30.4368 18.8084 31.2806 16.1088 30.9593 13.3057C30.4476 8.84324 26.8359 5.24488 22.3713 4.74981ZM24.7754 27.7345C24.7754 27.9499 24.6001 28.1251 24.3848 28.1251H18.1349C17.9195 28.1251 17.7443 27.9499 17.7443 27.7345V25.7814H24.7754V27.7345ZM26.8267 19.3555C25.7697 20.5522 25.0922 21.9708 24.8625 23.4377H22.4317V17.2826L24.4321 15.2822C24.8897 14.8246 24.8897 14.0826 24.4321 13.6249C23.9745 13.1674 23.2325 13.1674 22.7749 13.6249L21.2597 15.1401L19.7446 13.6249C19.287 13.1674 18.545 13.1674 18.0874 13.6249C17.6297 14.0825 17.6297 14.8245 18.0874 15.2822L20.0878 17.2826V23.4377H17.6591C17.4333 21.9654 16.7632 20.5558 15.7168 19.3826C14.5052 18.0241 13.8379 16.2736 13.8379 14.4535C13.8379 12.3454 14.7395 10.3292 16.3115 8.92191C17.9049 7.49546 19.9651 6.84117 22.1128 7.07914C25.5012 7.45491 28.2424 10.1859 28.6308 13.5727C28.8756 15.7074 28.2348 17.7612 26.8267 19.3555Z" fill="#F7910A"/>
  </g>
  <defs>
    <clipPath id="clip0_322_1426">
      <rect width="40" height="40" fill="white"/>
    </clipPath>
  </defs>
</svg>