<svg xmlns="http://www.w3.org/2000/svg" width="48" height="48" viewBox="0 0 48 48" fill="none">
  <path d="M24.0544 0C24.0544 0 17.533 3.88172 17.5247 8.17361V8.1806C17.5247 9.25087 17.7276 10.1418 18.1001 10.9342C18.4693 11.7215 19.0047 12.4102 19.6709 13.0779C19.7006 13.1078 19.7289 13.1358 19.7592 13.1663C19.7605 13.1663 19.7605 13.1676 19.7605 13.1676C19.7882 13.1949 19.8153 13.221 19.843 13.2477V13.249H19.8443C20.0453 13.4436 20.2573 13.6375 20.4802 13.8302C20.4802 13.8315 20.4802 13.8315 20.4815 13.8315C20.5228 13.8684 20.5646 13.904 20.6072 13.9402C20.6188 13.9517 20.6317 13.9625 20.6445 13.9733L23.8714 10.8674C23.8791 10.8598 23.8869 10.8521 23.8939 10.8452C23.9184 10.8229 23.9384 10.8025 23.9558 10.7873C23.9932 10.7517 24.0125 10.732 24.0125 10.732C24.0125 10.732 24.0241 10.7453 24.0479 10.7707L24.0834 10.8114C24.0911 10.8203 24.0988 10.8286 24.1079 10.8388L26.1659 13.1351C26.1955 13.1682 26.2258 13.2013 26.2542 13.2331C26.2825 13.2649 26.3121 13.296 26.3399 13.3259L26.8592 13.9059L26.9436 13.9987C26.9436 13.9987 26.9655 13.9796 27.0042 13.9453C27.01 13.9402 27.0171 13.9345 27.0235 13.9288C27.037 13.9173 27.0531 13.9033 27.0699 13.8893C27.0776 13.8824 27.0854 13.876 27.0944 13.869C27.2445 13.738 27.3985 13.6083 27.5506 13.4785C27.5519 13.4773 27.5525 13.4766 27.5525 13.4766C27.577 13.4563 27.6028 13.4353 27.6272 13.4137C27.6285 13.4124 27.6305 13.4118 27.6324 13.4099C28.481 12.6919 29.3264 11.9688 29.8779 10.9494V10.9482C29.8856 10.9335 29.8934 10.9202 29.9005 10.9056C29.925 10.8598 29.9488 10.8134 29.9713 10.7663C29.9771 10.7548 29.9829 10.7428 29.9887 10.7313C30.3154 10.0477 30.5126 9.23307 30.5003 8.20986V8.17806C30.4269 3.72782 24.0544 0 24.0544 0ZM22.6987 7.38633L24.0383 6.06423L25.3779 7.38633L24.0383 8.70843L22.6987 7.38633ZM24.7793 9.69348L27.1169 7.38633L24.0383 4.34785L20.9596 7.38633L23.2264 9.62353L20.9429 11.7323C19.6142 10.5819 18.6316 9.27822 19.401 7.00095C20.1697 4.72369 24.0486 2.33132 24.0486 2.33132C24.0486 2.33132 27.4526 4.38283 28.6414 7.11606C29.6698 9.47917 27.8515 10.7542 26.7484 11.7323L24.7793 9.69348Z" fill="#0A2E45"/>
  <path d="M31.5132 10.9768L31.5061 10.973L29.8753 10.9476L29.8231 10.9463C29.209 12.0846 28.2277 12.8522 27.2831 13.6566C27.2097 13.7196 27.1368 13.7825 27.064 13.8455C27.1839 13.7469 27.3553 13.6089 27.5479 13.4767C27.5492 13.4754 27.5492 13.4754 27.5499 13.4747C27.7812 13.3132 28.0428 13.1561 28.276 13.0728C28.5202 12.9857 28.9416 12.9393 29.3553 12.9151C29.9236 12.8833 30.4777 12.891 30.5499 12.8916V14.4585C29.9249 14.4585 29.488 14.503 29.1659 14.5787C28.7586 14.6773 28.5396 14.8274 28.3424 15.0029C28.0041 15.305 27.037 16.3326 26.9648 16.4089C26.9616 16.4121 26.9609 16.414 26.9609 16.414L28.0061 17.497L28.0112 17.4919L29.4384 16.0833H31.2774V17.8493L29.7786 19.3228L29.7735 19.3278L29.7773 19.3329L30.7265 20.3167C30.7284 20.3148 30.7297 20.3135 30.7316 20.3116C31.5351 19.5581 31.7896 19.2763 32.2078 18.8649C32.6511 18.4274 32.7935 17.132 32.7761 16.4554H35.4269C35.5016 16.4554 35.5719 16.4407 35.6357 16.4147C35.7929 16.3517 35.9134 16.2201 35.9585 16.0573C35.9643 16.035 35.9694 16.0127 35.9733 15.9905V11.0633L31.5132 10.9768ZM34.4417 14.903H32.0815V12.5736H34.4417V14.903Z" fill="#0A2E45"/>
  <path d="M38.8853 30.4311C39.3782 30.9907 40.4691 32.4934 40.9916 34.7624C41.406 36.5583 41.1927 38.5621 41.1044 41.0988C36.9671 41.9033 33.1546 42.5214 30.4464 39.7252C30.4342 39.7157 30.4187 39.7036 30.4 39.6896C30.3865 38.8514 30.2467 38.1246 29.9967 37.4689C29.9393 37.3182 29.8762 37.1707 29.8079 37.0276C29.8897 36.9996 29.9593 36.9774 30.0108 36.9615C29.9528 37.0053 29.9342 37.0937 29.987 37.1592C30.0559 37.2438 30.1442 37.3494 30.2505 37.4683C30.8807 38.178 32.1339 39.3875 33.6468 39.7869C34.2145 39.937 34.9555 40.0311 35.7197 40.0794C35.9748 40.0953 36.2319 40.1068 36.4864 40.1138C36.8479 40.1227 37.2042 40.1227 37.5386 40.1144C37.7893 40.108 38.0283 40.0966 38.2481 40.0813C38.8157 40.0425 39.2577 39.9745 39.4575 39.8855C39.3737 39.5891 39.8293 35.4473 38.643 33.0212C37.9581 31.6196 37.2422 30.8584 36.5618 30.4425C35.9097 30.0438 35.2886 29.9624 34.757 29.9376C34.7216 29.9363 34.6868 29.9351 34.652 29.9332C34.6372 29.9325 34.6217 29.9319 34.6062 29.9319C34.5824 29.9313 34.5579 29.9306 34.5341 29.93C34.4806 29.9281 34.4291 29.9274 34.3775 29.9255C34.3034 29.9236 34.2319 29.9211 34.1629 29.9185C34.2963 28.9621 33.6436 28.1208 33.1752 27.7246C33.1752 27.7246 33.6178 27.2902 34.1977 26.7185C35.2403 25.6909 36.7268 24.2193 36.8879 24.0286C36.8879 24.0286 33.2931 20.5805 33.1094 20.3656C33.5779 19.9694 34.3305 19.1605 34.1964 18.2041C35.3002 18.1545 37.3228 17.4944 38.6095 15.1675C39.8969 12.8413 39.3415 8.33634 39.4246 8.04H39.4104C39.404 8.03936 39.3976 8.03936 39.3898 8.03936C39.2403 8.033 38.8093 7.99612 38.2216 7.9656H38.2158C38.1334 7.96114 38.0483 7.95733 37.96 7.95351C37.9587 7.95351 37.9581 7.95288 37.9562 7.95351C37.8672 7.94906 37.7758 7.94588 37.6817 7.9427H37.6797C37.585 7.93889 37.4877 7.93634 37.3891 7.93444C37.0141 7.92617 36.6089 7.92362 36.1945 7.93507C36.1391 7.93634 36.0837 7.93889 36.0283 7.94016C35.9188 7.94397 35.8079 7.94843 35.6971 7.95479C35.6404 7.9586 35.5837 7.96114 35.5264 7.96432C34.8556 8.00566 34.1855 8.08897 33.5953 8.23714C32.0115 8.63459 30.5153 10.1589 29.9999 10.7287C29.9309 10.8044 29.8794 10.8642 29.8472 10.9004L30.4458 8.2613C32.7486 5.76146 37.154 6.01711 41.1166 6.71854C41.1166 8.00566 41.3422 12.4362 40.9156 13.7481C40.4891 15.0594 39.5374 16.8031 38.6089 17.5446C42.8841 17.3246 46.3455 21.6311 48.0001 23.8836C47.4614 24.6022 43.964 30.4559 38.8853 30.4311Z" fill="#0A2E45"/>
  <path d="M36.0198 31.9982C36.0031 32.1146 35.9032 36.9318 35.9032 36.9318H30.0977C30.0681 36.9318 30.0417 36.9407 30.021 36.9534C30.0172 36.9566 30.0133 36.9585 30.0114 36.961C29.9592 36.9763 29.8896 36.9986 29.8071 37.0272C29.407 36.1903 28.8181 35.4641 28.0829 34.7531C28.4173 34.9102 28.8039 34.9884 29.2105 35.0253C29.7188 35.0736 30.2588 35.059 30.764 35.059V34.4383C30.764 33.8787 30.3303 33.4126 29.7652 33.3623C29.6377 33.3515 29.5081 33.3382 29.3844 33.3248C29.0127 33.2841 28.6924 33.2339 28.6177 33.1773C28.4469 33.0494 26.8393 31.3305 26.7523 31.2364L26.751 31.2351C26.7491 31.2332 26.7478 31.232 26.7478 31.232L30.7015 27.3286C30.7028 27.3299 30.7047 27.3318 30.7053 27.3337C30.7897 27.4265 31.3239 28.0186 32.09 28.7149C32.927 29.4742 32.7601 30.8606 32.7601 31.5537C32.9425 31.5035 35.0327 31.6021 35.4509 31.6021C35.8697 31.6021 36.0366 31.8831 36.0198 31.9982Z" fill="#0A2E45"/>
  <path d="M17.2198 33.8387C17.2823 33.5277 17.5581 33.302 17.879 33.2975C18.6445 33.2886 19.1045 33.2536 19.3925 32.9974C19.7437 32.6838 20.9428 31.3516 20.9428 31.3516L21.082 31.4889L21.0375 31.4425L20.0343 30.3907L18.56 31.8457H16.7211V30.0797L18.1915 28.6336L18.225 28.6005L17.272 27.6123C17.2527 27.6307 17.2327 27.6492 17.214 27.6676C16.4518 28.3837 16.2005 28.6616 15.7913 29.0641C15.348 29.5017 15.2063 30.797 15.223 31.4737H12.5722C12.4975 31.4737 12.4279 31.4883 12.3634 31.5144C12.2062 31.5773 12.0857 31.709 12.0406 31.8718C12.0348 31.894 12.0297 31.9163 12.0271 31.9385V36.8657L16.4866 36.9522L16.4943 36.956L18.0942 36.9815L18.1767 36.9827C18.839 35.7567 19.9273 34.9592 20.9351 34.0835C20.8359 34.1668 20.7005 34.2743 20.5472 34.385C20.5453 34.385 20.5433 34.3869 20.542 34.3881C20.3951 34.4956 20.2308 34.6044 20.0678 34.6953C20.0639 34.6972 20.0588 34.7004 20.0543 34.7029C19.9022 34.7958 19.7463 34.8765 19.6007 34.9274C19.205 35.0679 18.1915 35.1029 17.542 35.1093C17.2424 35.1125 17.0169 34.8441 17.0748 34.5541L17.2198 33.8387ZM15.9189 35.3554H13.5587V33.026H15.9189V35.3554Z" fill="#0A2E45"/>
  <path d="M17.9519 37.2528C17.3965 37.8582 15.9409 39.3049 14.4042 39.6909C13.8146 39.8391 13.1439 39.9224 12.4731 39.9644C12.4164 39.9682 12.3591 39.9701 12.3036 39.9739C12.1928 39.9809 12.082 39.9854 11.9718 39.9885C11.917 39.9904 11.861 39.9924 11.8062 39.9936C11.3919 40.0051 10.9866 40.0032 10.6116 39.9949C10.5124 39.993 10.4151 39.9898 10.3204 39.986H10.3184C10.225 39.9841 10.1329 39.9803 10.0446 39.9765C10.0427 39.9765 10.0427 39.9765 10.0407 39.9765C9.95245 39.9726 9.86804 39.9688 9.78557 39.9637H9.77977C9.69407 39.9586 9.61289 39.9548 9.53557 39.9504C9.44407 39.9453 9.35773 39.9396 9.27847 39.9351C9.03685 39.9199 8.84677 39.9052 8.72499 39.8976C8.67795 39.8944 8.64058 39.8925 8.61223 39.8906C8.6045 39.8906 8.5987 39.8906 8.59161 39.8893H8.57808C8.66055 39.593 8.10513 35.0881 9.39252 32.7618C10.6793 30.4356 12.7025 29.7755 13.8056 29.7253C13.6722 28.7695 14.4248 27.9606 14.8932 27.5644C14.709 27.3494 11.1142 23.9014 11.1142 23.9014C11.2759 23.7106 12.7631 22.2391 13.805 21.2114C14.3842 20.6391 14.8275 20.2054 14.8275 20.2054C14.3584 19.8092 13.7057 18.9679 13.8391 18.0108C13.8069 18.0095 13.774 18.0076 13.7412 18.007C13.7031 18.0057 13.6638 18.0051 13.6245 18.0038C13.5736 18.0025 13.5214 18.0019 13.4686 18C13.4448 17.9987 13.4203 17.9981 13.3958 17.9981C13.381 17.9981 13.3655 17.9968 13.3507 17.9962C13.3165 17.9949 13.2811 17.993 13.2457 17.9924C13.1123 17.9854 12.9738 17.9758 12.8307 17.9586C12.8043 17.9548 12.7766 17.9517 12.7495 17.9478C12.3429 17.8919 11.8996 17.7679 11.4415 17.4881C10.7605 17.0715 10.0452 16.311 9.36031 14.9087C8.17472 12.4833 8.63027 8.34211 8.54586 8.0445C8.72177 7.96628 9.08453 7.90396 9.5549 7.86453C9.58647 7.86262 9.61868 7.85944 9.6509 7.8569C9.68505 7.85372 9.72049 7.85181 9.75593 7.84927C9.975 7.83401 10.2141 7.8232 10.4647 7.8162C10.7991 7.80857 11.1554 7.80857 11.5176 7.81747C11.7714 7.82447 12.0292 7.83591 12.2843 7.85245C13.0479 7.90078 13.7888 7.9949 14.3572 8.1437C15.8694 8.54243 17.1227 9.75261 17.7535 10.4623C17.8591 10.5812 17.948 10.6868 18.0163 10.7714C18.0692 10.8375 18.0505 10.9253 17.9925 10.9698C18.0228 10.9609 18.0595 10.9494 18.1014 10.9361C18.131 10.9265 18.162 10.9157 18.1955 10.9043C18.1265 10.7612 18.064 10.6137 18.006 10.4623C17.756 9.80666 17.6162 9.07916 17.6027 8.24164C17.584 8.22828 17.5685 8.21556 17.5563 8.20603C17.5466 8.19649 17.537 8.18568 17.526 8.17614C14.8204 5.41493 11.0208 6.03051 6.89764 6.83305C6.81001 9.36978 6.59609 11.3736 7.0104 13.1695C7.53361 15.4378 8.62383 16.9412 9.1161 17.5008C4.03743 17.4728 0.538667 23.3265 0 24.0445C1.65466 26.2963 5.11605 30.6035 9.39059 30.3828C8.46339 31.1249 7.51105 32.868 7.0845 34.1793C6.65859 35.4919 6.88347 39.9218 6.88347 41.2089C10.7766 41.8976 15.0962 42.1571 17.4319 39.7946C17.4732 39.7532 17.5144 39.7094 17.5544 39.6655L18.1523 37.0264C18.1207 37.0633 18.0692 37.123 18.0002 37.1987C17.9848 37.2159 17.9687 37.2343 17.9519 37.2528ZM6.21529 27.7113C3.63729 25.9192 2.34475 23.9758 2.34475 23.9758C2.34475 23.9758 4.69787 20.6518 7.46659 19.4779C8.7121 18.9507 9.93377 19.0353 10.8629 19.1739C11.4241 19.2572 10.4331 20.5214 11.2527 21.4817C11.361 21.6095 11.3545 21.7952 11.2334 21.911L9.84678 23.296L7.46724 20.9482L4.38988 23.9854L7.46724 27.0238L9.89317 24.6296L11.3384 26.0254C11.4866 26.1685 11.4699 26.4032 11.3101 26.5342C10.7205 27.0194 10.8971 27.7577 11.0414 28.241C11.1039 28.4489 10.955 28.6601 10.736 28.6747C9.84485 28.7332 7.70371 28.7466 6.21529 27.7113ZM8.80682 23.9854L7.46595 25.3081L6.12637 23.9854L7.46595 22.6633L8.80682 23.9854Z" fill="#0A2E45"/>
  <path d="M20.787 16.3658C20.4874 16.0949 19.1768 14.8917 19.0009 14.7588C18.8024 14.6106 17.0904 14.4751 17.0904 14.4751V12.7937C18.1916 12.8052 18.8295 12.884 19.1858 12.9553C19.1877 12.9553 19.1897 12.9553 19.1929 12.9565C19.3585 12.9864 19.5189 13.0252 19.671 13.0774C19.7567 13.1054 19.8385 13.1384 19.9184 13.1759C19.1832 12.465 18.5943 11.7387 18.1942 10.9019C18.1607 10.9133 18.1291 10.9241 18.1001 10.9337C18.0582 10.947 18.0215 10.9591 17.9912 10.9674C17.988 10.9705 17.9841 10.9724 17.9815 10.975C17.9596 10.9877 17.9332 10.9966 17.9042 10.9966H12.0987C12.0987 10.9966 11.9988 15.8144 11.9821 15.9302C11.9653 16.0453 12.1322 16.3263 12.5504 16.3263C12.9686 16.3263 15.0588 16.4249 15.2424 16.3747C15.2424 17.0685 15.0756 18.4542 15.9119 19.2135C15.9854 19.2802 16.0562 19.3451 16.1252 19.41C16.1664 19.4475 16.2057 19.4856 16.245 19.5225C16.4048 19.6745 16.5511 19.8182 16.68 19.9467C16.7141 19.9817 16.7476 20.0154 16.7798 20.0472C16.863 20.1324 16.9377 20.21 17.0034 20.2786L18.093 19.1893L19.787 17.4926L20.8888 16.3893C20.8469 16.388 20.805 16.381 20.787 16.3658ZM15.7489 14.7009H13.4544L13.4956 12.5476H15.7489V14.7009Z" fill="#0A2E45"/>
  <path d="M34.1899 23.8946L31.329 26.7188L30.7104 27.3293L30.7053 27.3344C30.704 27.3325 30.7021 27.3306 30.7014 27.3293L26.7478 31.2326C26.7478 31.2326 26.7491 31.2339 26.7516 31.2364L23.7909 34.1585L23.789 34.1573L21.0383 31.4425L20.035 30.3907L20.0035 30.4218L18.1916 28.6336L18.2251 28.6005L17.2721 27.6123C17.2528 27.6307 17.2328 27.6492 17.2141 27.6676L13.3906 23.894L17.0002 20.2794L18.0898 19.19L19.7838 17.4934L20.8856 16.39L20.9255 16.3493L20.9384 16.3366L23.2123 14.0593L23.9533 13.3166L23.9668 13.3032L26.9559 16.3996L26.9649 16.4091C26.9617 16.4123 26.961 16.4142 26.961 16.4142L28.0062 17.4972L28.0113 17.4921L28.0152 17.4972L29.7787 19.3229L29.7736 19.328L29.7774 19.3331L30.7266 20.3169C30.7285 20.315 30.7298 20.3137 30.7317 20.3118L30.7356 20.3169L30.7427 20.3239L34.1899 23.8946Z" fill="#0A2E45"/>
  <path d="M17.2728 27.6128L18.2258 28.601L18.1923 28.6341L17.2148 27.6688C17.2335 27.6497 17.2535 27.6312 17.2728 27.6128Z" fill="#0A2E45"/>
  <path d="M20.0357 30.3906L21.0383 31.4425L20.0042 30.4218L20.0357 30.3906Z" fill="#0A2E45"/>
  <path d="M28.0075 17.4973L26.9624 16.4143C26.9624 16.4143 26.9637 16.4124 26.9663 16.4092L28.0127 17.4922L28.0075 17.4973Z" fill="#0A2E45"/>
  <path d="M30.7021 27.3291C30.7034 27.3304 30.7053 27.3323 30.706 27.3342L29.5958 28.4299L27.8902 30.1145L26.7568 31.2331L26.7549 31.235L26.7517 31.2369C26.7484 31.2337 26.7478 31.2331 26.7478 31.2331L30.7021 27.3291Z" fill="#0A2E45"/>
  <path d="M30.7324 20.3116L30.7272 20.3167L29.7788 19.3323L29.7749 19.3278L29.7794 19.3228L29.7833 19.3278L30.7324 20.3116Z" fill="#0A2E45"/>
  <path d="M31.6082 23.8729L23.8113 16.1777L16.0144 23.8729L23.8113 31.568L31.6082 23.8729Z" fill="#FBFDFB"/>
  <path d="M28.9532 23.8728L23.8635 18.8496L18.7739 23.8728L23.8635 28.896L28.9532 23.8728Z" fill="#0D2D42"/>
  <path d="M26.3758 23.873L23.8635 21.3936L21.3513 23.873L23.8635 26.3525L26.3758 23.873Z" fill="#F19215"/>
  <path d="M24.6171 23.8731L23.8635 23.1294L23.1099 23.8731L23.8635 24.6169L24.6171 23.8731Z" fill="#0D2D42"/>
  <path d="M26.7491 11.732L24.7793 9.69322L27.117 7.38606L24.0383 4.34759L20.9597 7.38606L23.2265 9.62327L20.9429 11.732C19.6143 10.5816 18.6317 9.27795 19.401 7.00069C20.1697 4.72342 24.0487 2.33105 24.0487 2.33105C24.0487 2.33105 27.4527 4.38257 28.6415 7.11579C29.6705 9.47891 27.8522 10.7539 26.7491 11.732Z" fill="#FF9B19"/>
  <path d="M24.0384 4.34766L20.9597 7.38613L23.2265 9.62333L24.0113 8.89774L24.7787 9.69265L27.1164 7.38549L24.0384 4.34766ZM24.0384 8.70823L22.6988 7.38613L24.0384 6.06403L25.3779 7.38613L24.0384 8.70823Z" fill="#FF9B19"/>
  <path d="M24.0384 4.34766L20.9597 7.38613L23.2265 9.62333L24.0384 10.4246L24.7794 9.69328L27.117 7.38613L24.0384 4.34766ZM24.0384 8.70823L22.6988 7.38613L24.0384 6.06403L25.3779 7.38613L24.0384 8.70823Z" fill="#0A2E45"/>
  <path d="M24.0382 6.0647L22.6987 7.38672L24.0382 8.70874L25.3777 7.38672L24.0382 6.0647Z" fill="#FF9B19"/>
  <path d="M30.5508 12.8917V14.4586C29.9258 14.4586 29.4889 14.5031 29.1668 14.5788C28.7499 14.6768 28.5218 14.8268 28.3246 15.003C27.9966 15.2955 27.0772 16.2717 26.9567 16.3995L23.9676 13.3031L23.9541 13.3165L23.9412 13.3031L23.2131 14.0599L20.9392 16.3372L20.9263 16.3499L20.8864 16.3906C20.8471 16.3887 20.8052 16.3817 20.7871 16.3664C20.4875 16.0955 19.1769 14.8923 19.001 14.7594C18.8026 14.6113 17.0906 14.4758 17.0906 14.4758V12.7944C18.1918 12.8058 18.8296 12.8847 19.186 12.9559C19.1879 12.9559 19.1898 12.9559 19.1931 12.9572C19.5049 13.0202 19.5983 13.0774 19.5983 13.0774C19.6492 13.1016 19.7034 13.1314 19.7594 13.1664C19.7607 13.1664 19.7607 13.1677 19.7607 13.1677C19.7884 13.195 19.8155 13.2211 19.8432 13.2478V13.2491H19.8445C20.0455 13.4437 20.2575 13.6376 20.4804 13.8303C20.4804 13.8316 20.4804 13.8316 20.4817 13.8316C20.5159 13.8793 20.5475 13.9264 20.5739 13.9728C20.5848 13.962 20.5964 13.9505 20.6074 13.9397C20.619 13.9512 20.6319 13.962 20.6447 13.9728L23.8716 10.8669C23.8793 10.8593 23.8871 10.8516 23.8941 10.8446C23.9186 10.8224 23.9386 10.802 23.956 10.7868C23.9934 10.7512 24.0127 10.7314 24.0127 10.7314C24.0127 10.7314 24.0243 10.7448 24.0481 10.7702C24.0572 10.7817 24.07 10.7957 24.0836 10.8109C24.0913 10.8198 24.099 10.8281 24.1081 10.8383C24.4212 11.1906 25.4406 12.3378 26.1661 13.1346C26.1957 13.1677 26.226 13.2008 26.2544 13.2326C26.2827 13.2644 26.3123 13.2955 26.3401 13.3254L26.8594 13.9054L26.9438 13.9982C26.9438 13.9982 26.9657 13.9791 27.0044 13.9448C27.0102 13.9397 27.0173 13.934 27.0237 13.9283C27.0372 13.9168 27.0533 13.9028 27.0701 13.8888C27.0778 13.8818 27.0856 13.8755 27.0946 13.8685C27.2447 13.7375 27.3987 13.6078 27.5508 13.478C27.5521 13.4768 27.5527 13.4761 27.5527 13.4761C27.784 13.3146 28.0456 13.1575 28.2789 13.0742C28.5231 12.9871 28.9445 12.9407 29.3581 12.9165C29.9252 12.8828 30.4793 12.8904 30.5508 12.8917Z" fill="#FF9B19"/>
  <path d="M20.479 13.8291C20.2561 13.6365 20.0441 13.4425 19.843 13.2479H19.8418V13.2466C19.814 13.2193 19.787 13.1932 19.7593 13.1665C20.0119 13.3229 20.2967 13.5805 20.479 13.8291Z" fill="#FF9B19"/>
  <path d="M20.9398 16.3363L23.2137 14.0591L20.9694 16.3885C20.9694 16.3885 20.9675 16.3885 20.9656 16.3898C20.954 16.3898 20.9211 16.3917 20.887 16.3898L20.9269 16.3491L20.9398 16.3363Z" fill="#FF9B19"/>
  <path d="M23.9539 10.7845C23.9365 10.7997 23.9165 10.8201 23.892 10.8423C23.8849 10.8493 23.8772 10.857 23.8694 10.8646L20.6426 13.9705C20.6297 13.9597 20.6168 13.9489 20.6052 13.9374C21.5395 13.0172 23.2902 11.3466 23.7986 10.864C23.8063 10.8563 23.814 10.8487 23.8224 10.8417C23.8462 10.8195 23.8669 10.7991 23.883 10.7838C23.9203 10.7482 24.0106 10.7285 24.0106 10.7285C24.0106 10.7285 23.9912 10.7489 23.9539 10.7845Z" fill="#FF9B19"/>
  <path d="M23.9681 13.3032L26.9572 16.3996C26.9482 16.4091 26.9437 16.4142 26.9437 16.4142L23.9546 13.3166L23.9681 13.3032Z" fill="#FF9B19"/>
  <path d="M28.258 13.0727C28.5042 12.9856 28.9339 12.9392 29.356 12.915C28.9417 12.9392 28.5209 12.9856 28.2767 13.0727C28.0435 13.1561 27.7819 13.3131 27.5505 13.4747C27.5492 13.4759 27.5486 13.4766 27.5486 13.4766C27.3965 13.6063 27.2425 13.736 27.0924 13.867C27.0834 13.874 27.0757 13.8804 27.0679 13.8874C27.0512 13.902 27.0357 13.9154 27.0215 13.9268C27.0144 13.9325 27.008 13.9383 27.0022 13.9433C26.9629 13.977 26.9416 13.9968 26.9416 13.9968L26.8572 13.9039L26.3379 13.3239C26.6781 13.6966 26.921 13.9535 26.9313 13.944C26.9384 13.9389 26.9442 13.9332 26.9507 13.9274C26.9642 13.916 26.9803 13.902 26.9977 13.888C27.0048 13.881 27.0125 13.8747 27.0215 13.8677C27.0911 13.8098 27.1807 13.7367 27.2838 13.6578C27.3869 13.5796 27.5029 13.4944 27.6253 13.413C27.6266 13.4117 27.6285 13.4111 27.6304 13.4092C27.8353 13.2712 28.057 13.144 28.258 13.0727Z" fill="#FF9B19"/>
  <path d="M30.5589 12.8916V14.4585H30.5513V12.8916C30.5557 12.8916 30.5589 12.8916 30.5589 12.8916Z" fill="#FF9B19"/>
  <path d="M30.4057 39.8195C30.4038 44.1139 23.8754 48.0001 23.8754 48.0001C23.8754 48.0001 17.5016 44.2723 17.432 39.8246V39.7953C17.4191 38.7619 17.6195 37.9403 17.952 37.2529C17.9964 37.16 18.0441 37.0697 18.0944 36.982C18.6988 35.9041 19.635 35.1581 20.5428 34.388C20.5441 34.3867 20.5461 34.3848 20.548 34.3848C20.6563 34.292 20.7639 34.1998 20.8721 34.1057C20.8966 34.084 20.9185 34.0662 20.9359 34.0503C20.9507 34.0376 20.9617 34.0281 20.97 34.0204C20.9778 34.0128 20.9849 34.0077 20.9874 34.0052C20.9874 34.0039 20.9887 34.0039 20.9887 34.0039L23.9179 37.27C23.9179 37.27 23.9179 37.27 23.9192 37.27V37.2688C23.9205 37.2675 23.9211 37.2669 23.923 37.2656C23.9282 37.2605 23.9379 37.2522 23.9527 37.2382C23.9598 37.2306 23.9675 37.223 23.9765 37.2141H23.9778C23.9907 37.2014 24.0055 37.188 24.0223 37.1727C24.0313 37.1638 24.039 37.1556 24.0487 37.1467C24.0584 37.1378 24.068 37.1282 24.0783 37.1187L25.675 35.5804L27.2884 34.0281H27.2897C27.2897 34.0293 27.291 34.03 27.291 34.03C27.5726 34.2704 27.8387 34.5101 28.0887 34.7518C28.09 34.7518 28.0906 34.753 28.0906 34.753C28.0919 34.7549 28.0926 34.7562 28.0939 34.7568C28.8271 35.4659 29.4141 36.1915 29.8129 37.0265L29.8142 37.0278C29.8832 37.1708 29.9457 37.3184 30.0037 37.4697C30.2537 38.1254 30.3935 38.8529 30.407 39.6904V39.6942C30.4057 39.7349 30.4057 39.7769 30.4057 39.8195Z" fill="#0A2E45"/>
  <path d="M21.2276 36.2676C20.1245 37.245 18.3062 38.52 19.3345 40.8838C20.5234 43.617 23.928 45.6692 23.928 45.6692C23.928 45.6692 27.807 43.2768 28.5757 40.9995C29.3443 38.7223 28.3624 37.4192 27.0331 36.2682L23.9648 39.1019L21.2276 36.2676Z" fill="#FF9B19"/>
  <path d="M20.8601 40.6144L23.9382 43.6523L27.0163 40.6144L23.9382 37.5765L20.8601 40.6144Z" fill="#0A2E45"/>
  <path d="M22.5983 40.6141L23.9382 41.9365L25.2782 40.6141L23.9382 39.2916L22.5983 40.6141Z" fill="#FF9B19"/>
  <path d="M30.764 34.4382V35.0589C30.2588 35.0589 29.7188 35.0735 29.2105 35.0252C28.8065 34.9876 28.4211 34.9088 28.0887 34.753C27.7607 34.5997 27.4843 34.3701 27.2877 34.0286C26.8631 34.4477 26.2562 35.0341 25.6743 35.5918C24.9056 36.3307 24.1807 37.0207 23.9765 37.2153C23.9391 37.2509 23.9185 37.2706 23.9185 37.2706L20.9893 34.0038C20.9893 34.0038 20.9881 34.0038 20.9874 34.0058C20.9842 34.0089 20.9777 34.0134 20.97 34.021C20.961 34.0287 20.9507 34.0382 20.9359 34.0509C20.8044 34.1654 20.4475 34.4643 20.0692 34.6951C20.0654 34.697 20.0602 34.7002 20.0557 34.7027C19.9036 34.7956 19.7477 34.8763 19.6021 34.9272C19.2065 35.0678 18.1929 35.1027 17.5434 35.1091C17.2438 35.1123 17.0183 34.8439 17.0763 34.5539L17.2206 33.8379C17.2831 33.5269 17.5589 33.3011 17.8798 33.2967C18.6452 33.2878 19.1053 33.2528 19.3933 32.9965C19.7445 32.683 20.9436 31.3507 20.9436 31.3507L21.086 31.4913L23.7883 34.1577L26.751 31.2344L26.7523 31.2356C26.8399 31.3298 28.4469 33.0487 28.6177 33.1765C28.6924 33.2325 29.012 33.2833 29.3844 33.324C29.5081 33.3374 29.6377 33.3514 29.7652 33.3616C30.3303 33.4124 30.764 33.8786 30.764 34.4382Z" fill="#FF9B19"/>
  <path d="M28.6233 33.1772C28.6968 33.2326 29.0151 33.2828 29.3837 33.3248C29.0119 33.2841 28.6916 33.2338 28.6169 33.1772C28.4461 33.0494 26.8385 31.3305 26.7515 31.2364L26.7502 31.2351L26.7522 31.2319C26.7522 31.2319 28.4474 33.0456 28.6233 33.1772Z" fill="#FF9B19"/>
  <path d="M30.7699 34.4382V35.0589H30.764V34.4382C30.764 33.8786 30.3304 33.4125 29.7653 33.3622C29.6377 33.3514 29.5082 33.3381 29.3845 33.3247C29.5102 33.3381 29.6416 33.3508 29.7711 33.3622C30.3362 33.4125 30.7699 33.8786 30.7699 34.4382Z" fill="#FF9B19"/>
  <path d="M34.4418 12.5742H32.0815V14.903H34.4418V12.5742Z" fill="#BAD6E2"/>
  <path d="M34.4418 12.5742H32.0815V14.903H34.4418V12.5742Z" fill="#FF9B19"/>
  <path d="M39.4424 39.8854C39.244 39.9738 38.8078 40.0412 38.2472 40.0813C38.0275 40.0965 37.7891 40.108 37.5378 40.1143C37.2034 40.1226 36.847 40.1226 36.4856 40.1137C36.231 40.1067 35.974 40.0953 35.7188 40.0794C34.9553 40.031 34.2136 39.9369 33.646 39.7868C32.1331 39.3881 30.8798 38.1779 30.2497 37.4682C30.1433 37.3493 30.0551 37.2438 29.9861 37.1592C29.9333 37.0937 29.952 37.0053 30.01 36.9614C30.0125 36.9589 30.0164 36.9557 30.0196 36.9538C30.0409 36.9404 30.0673 36.9322 30.0963 36.9322H35.9024C35.9024 36.9322 36.0023 32.1143 36.0197 31.9986C36.0358 31.8829 35.8689 31.6024 35.4514 31.6024C35.0339 31.6024 32.943 31.5039 32.76 31.5535C32.76 30.8603 32.9269 29.474 32.0905 28.7153C31.3089 28.005 30.769 27.404 30.7013 27.329C30.6968 27.3239 30.6949 27.3213 30.6949 27.3213L34.1666 23.895L30.72 20.3236C30.722 20.3217 30.7252 20.3191 30.7271 20.3166C31.5351 19.5592 31.7896 19.2781 32.2078 18.8647C32.6511 18.4272 32.7935 17.1318 32.7761 16.4552H35.4263C35.501 16.4552 35.5712 16.4406 35.6357 16.4145C35.7923 16.3516 35.9127 16.2193 35.9585 16.0571C35.9643 16.0355 35.9694 16.0132 35.9727 15.9903C35.9765 15.9643 35.9785 15.9382 35.9785 15.9115L35.9862 11.0434L31.5055 10.9735L29.8231 10.9468H29.8096C29.8096 10.9468 29.816 10.9392 29.8283 10.9252C29.8334 10.9194 29.8392 10.9124 29.8463 10.9042L29.8476 10.9023C29.8798 10.866 29.9314 10.8062 30.0003 10.7306C30.5151 10.1601 32.0119 8.63645 33.5957 8.23899C34.1859 8.09082 34.856 8.00752 35.5268 7.96618C35.5835 7.96236 35.6402 7.95982 35.6975 7.95664C35.8077 7.95092 35.9185 7.94583 36.0287 7.94201C36.0841 7.94074 36.1396 7.9382 36.195 7.93693C36.6093 7.92548 37.0139 7.92802 37.3896 7.93629C37.4882 7.9382 37.5854 7.94138 37.6802 7.94456H37.6821C37.7762 7.94837 37.8677 7.95155 37.9566 7.95537C37.9579 7.95473 37.9585 7.95537 37.9605 7.95537C38.0487 7.95982 38.1338 7.963 38.2163 7.96745H38.2214C38.8213 7.99925 39.2562 8.03677 39.3896 8.04122C39.3973 8.04122 39.4038 8.04122 39.4102 8.04186C39.3271 8.3382 39.8825 12.8438 38.5951 15.1694C37.3084 17.4962 35.2852 18.1563 34.1821 18.2059C34.3154 19.1624 33.5635 19.9713 33.0951 20.3675C33.2793 20.5818 36.8735 24.0304 36.8735 24.0304C36.7124 24.2212 35.2259 25.6934 34.1833 26.7204C33.6034 27.2927 33.1608 27.7264 33.1608 27.7264C33.6292 28.1226 34.2819 28.964 34.1485 29.9204C34.222 29.9242 34.2987 29.9261 34.3773 29.9274C34.4282 29.9287 34.4804 29.9293 34.5339 29.9318C34.5577 29.9325 34.5822 29.9331 34.606 29.9337C34.6208 29.9337 34.6363 29.9344 34.6518 29.935C34.6866 29.9363 34.7214 29.9376 34.7568 29.9395C35.289 29.9655 35.9095 30.0501 36.5616 30.4527C37.2381 30.8705 37.9489 31.631 38.6286 33.0231C39.8136 35.4473 39.3587 39.5891 39.4424 39.8854Z" fill="#FF9B19"/>
  <path d="M36.7678 26.0182C36.646 26.1327 36.6396 26.3196 36.7478 26.4462C37.5668 27.4071 36.5758 28.6713 37.1377 28.7546C38.0668 28.8926 39.2891 28.9778 40.534 28.45C43.3033 27.2767 45.6558 23.9527 45.6558 23.9527C45.6558 23.9527 44.3633 22.0087 41.7853 20.2166C40.2962 19.1813 38.1551 19.1953 37.2653 19.2545C37.0462 19.2691 36.8973 19.4802 36.9592 19.6882C37.1042 20.1715 37.2807 20.9091 36.6905 21.3944C36.5314 21.5254 36.5146 21.76 36.6628 21.9031L38.8097 23.9769L36.7678 26.0182Z" fill="#FF9B19"/>
  <path d="M40.5347 26.9813L43.6128 23.9434L40.5347 20.9054L37.4566 23.9434L40.5347 26.9813Z" fill="#0A2E45"/>
  <path d="M37.0042 10.21H33.3927C33.0667 10.21 33.0415 9.36865 33.6936 9.36865C34.3457 9.36865 37.9069 9.36865 37.9069 9.36865C37.9069 9.36865 37.9069 11.6955 37.9069 12.4377C37.9069 13.1804 37.5558 14.1763 37.0042 14.9032C37.0042 14.5413 37.0042 10.21 37.0042 10.21Z" fill="#AF2609"/>
  <path d="M37.0011 37.7273H33.3895C33.0635 37.7273 33.0384 38.5687 33.6904 38.5687C34.3425 38.5687 37.9038 38.5687 37.9038 38.5687C37.9038 38.5687 37.9038 36.2418 37.9038 35.4997C37.9038 34.7569 37.5526 33.761 37.0011 33.0342C37.0011 33.396 37.0011 37.7273 37.0011 37.7273Z" fill="#AF2609"/>
  <path d="M32.2517 33.228H34.5468L34.505 35.3813H32.2517V33.228Z" fill="#FF9B19"/>
  <path d="M40.5343 25.2658L41.8743 23.9434L40.5343 22.6209L39.1944 23.9434L40.5343 25.2658Z" fill="#FF9B19"/>
  <path d="M31.7111 5.70707C32.2243 5.70707 32.6403 5.29651 32.6403 4.79006C32.6403 4.28361 32.2243 3.87305 31.7111 3.87305C31.198 3.87305 30.782 4.28361 30.782 4.79006C30.782 5.29651 31.198 5.70707 31.7111 5.70707Z" fill="#0A2E45"/>
  <path d="M42.2944 17.001C42.8075 17.001 43.2235 16.5905 43.2235 16.084C43.2235 15.5776 42.8075 15.167 42.2944 15.167C41.7812 15.167 41.3652 15.5776 41.3652 16.084C41.3652 16.5905 41.7812 17.001 42.2944 17.001Z" fill="#0A2E45"/>
  <path d="M42.3652 32.8453C42.8783 32.8453 43.2943 32.4347 43.2943 31.9282C43.2943 31.4218 42.8783 31.0112 42.3652 31.0112C41.852 31.0112 41.436 31.4218 41.436 31.9282C41.436 32.4347 41.852 32.8453 42.3652 32.8453Z" fill="#0A2E45"/>
  <path d="M31.5649 44.3296C32.078 44.3296 32.494 43.9191 32.494 43.4126C32.494 42.9062 32.078 42.4956 31.5649 42.4956C31.0517 42.4956 30.6357 42.9062 30.6357 43.4126C30.6357 43.9191 31.0517 44.3296 31.5649 44.3296Z" fill="#0A2E45"/>
  <path d="M15.9183 33.0259H13.5581V35.3547H15.9183V33.0259Z" fill="#FF9B19"/>
  <path d="M16.4951 36.9565L12.0144 36.8859L12.0221 32.0179C12.0221 31.9905 12.0241 31.9657 12.0279 31.9396C12.0312 31.9174 12.0357 31.8951 12.0415 31.8729C12.0866 31.7101 12.2071 31.5784 12.3643 31.5155C12.4294 31.4894 12.499 31.4748 12.5731 31.4748H15.2239C15.2071 30.7975 15.3482 29.5028 15.7922 29.0652C16.2013 28.6621 16.4526 28.3842 17.2149 27.6687L13.3914 23.8951L17.0009 20.2805C16.9352 20.2118 16.8605 20.1342 16.7774 20.049C16.7451 20.0172 16.7116 19.9829 16.6775 19.9485C16.5486 19.8194 16.403 19.6764 16.2426 19.5244C16.2033 19.4875 16.1639 19.45 16.1227 19.4118C16.0538 19.347 15.9835 19.2821 15.9094 19.2153C15.0731 18.456 15.24 17.0697 15.24 16.3765C15.0563 16.4268 12.9661 16.3282 12.5479 16.3282C12.1297 16.3282 11.9629 16.0471 11.9796 15.932C11.9964 15.8156 12.0962 10.9985 12.0962 10.9985H17.9017C17.9314 10.9985 17.9578 10.9896 17.979 10.9768C17.9823 10.9737 17.9861 10.9718 17.9887 10.9692C18.0467 10.9247 18.0654 10.8363 18.0126 10.7708C17.9436 10.6862 17.8553 10.5807 17.7497 10.4617C17.1189 9.75204 15.8656 8.54186 14.3534 8.14314C13.785 7.99369 13.0441 7.90021 12.2805 7.85188C12.0254 7.83535 11.7683 7.8239 11.5138 7.8169C11.1516 7.808 10.7953 7.808 10.4609 7.81563C10.2109 7.82263 9.97121 7.8328 9.75214 7.8487C9.7167 7.85188 9.68126 7.85379 9.64711 7.85633C9.61489 7.85951 9.58203 7.86206 9.5511 7.86396C9.08782 7.90657 8.73086 7.96635 8.55689 8.04393C8.64001 8.34155 8.1851 12.4827 9.37133 14.9082C10.0505 16.3002 10.7618 17.0601 11.4384 17.4786C11.8965 17.7616 12.3404 17.8875 12.7464 17.9473C12.7741 17.9511 12.8011 17.9543 12.8276 17.9581C12.9706 17.9753 13.1091 17.9854 13.2425 17.9918C13.278 17.9931 13.3134 17.995 13.3475 17.9956C13.3624 17.9969 13.3778 17.9975 13.3926 17.9975C13.4171 17.9975 13.4416 17.9988 13.4655 17.9994C13.5183 18.0013 13.5705 18.0026 13.6214 18.0032C13.6607 18.0045 13.7 18.0051 13.738 18.0064C13.776 18.0077 13.8134 18.0083 13.8508 18.0102C13.7174 18.9673 14.3701 19.8086 14.8379 20.2048C14.8379 20.2048 14.3952 20.6385 13.8153 21.2109C12.7734 22.2385 11.2863 23.7094 11.1252 23.9008C11.1252 23.9008 14.72 27.3489 14.9036 27.5638C14.4358 27.96 13.6826 28.7689 13.8173 29.7247C12.7135 29.7749 10.6909 30.4344 9.40419 32.7613C8.1168 35.0875 8.67222 39.5924 8.58846 39.8888C8.59555 39.89 8.60135 39.89 8.60908 39.89C8.6355 39.8913 8.67287 39.8932 8.72184 39.897C8.84362 39.9047 9.0337 39.9193 9.27533 39.9346C9.35458 39.9396 9.44092 39.9454 9.53242 39.9498C9.60974 39.9549 9.69157 39.9587 9.77662 39.9632H9.78242C9.86489 39.9683 9.9493 39.9708 10.0376 39.9759C10.0395 39.9759 10.0395 39.9759 10.0414 39.9759C10.1297 39.9791 10.2219 39.9829 10.3153 39.9854H10.3172C10.4126 39.9892 10.5099 39.9924 10.6085 39.9943C10.9835 40.0032 11.3888 40.0051 11.8031 39.9931C11.8578 39.9918 11.9139 39.9899 11.9687 39.988C12.0788 39.9842 12.1897 39.9791 12.3005 39.9733C12.3566 39.9695 12.4133 39.9676 12.47 39.9638C13.1414 39.9225 13.8115 39.8392 14.401 39.6904C15.9378 39.305 17.3933 37.8576 17.9488 37.2522C17.9932 37.1594 18.0409 37.0691 18.0912 36.9813L16.4951 36.9565ZM11.0002 10.2016C11.0002 10.2016 11.0002 14.533 11.0002 14.8942C10.448 14.1679 10.0975 13.1708 10.0975 12.4293C10.0975 11.6865 10.0975 9.35967 10.0975 9.35967C10.0975 9.35967 13.6581 9.35967 14.3102 9.35967C14.9616 9.35967 14.9371 10.2016 14.6104 10.2016H11.0002ZM14.3063 38.5603C13.6549 38.5603 10.0936 38.5603 10.0936 38.5603C10.0936 38.5603 10.0936 36.2341 10.0936 35.4919C10.0936 34.7492 10.4448 33.7533 10.9964 33.0258C10.9964 33.3883 10.9964 37.7196 10.9964 37.7196H14.6079C14.9333 37.7196 14.959 38.5603 14.3063 38.5603Z" fill="#FF9B19"/>
  <path d="M14.3062 38.5604C13.6548 38.5604 10.0935 38.5604 10.0935 38.5604C10.0935 38.5604 10.0935 36.2341 10.0935 35.492C10.0935 34.7493 10.4447 33.7534 10.9962 33.0259C10.9962 33.3884 10.9962 37.7197 10.9962 37.7197H14.6077C14.9331 37.7197 14.9589 38.5604 14.3062 38.5604Z" fill="#FF9B19"/>
  <path d="M14.6104 10.2013H11.0001C11.0001 10.2013 11.0001 14.5327 11.0001 14.8939C10.4479 14.1676 10.0974 13.1705 10.0974 12.429C10.0974 11.6862 10.0974 9.35938 10.0974 9.35938C10.0974 9.35938 13.658 9.35938 14.3101 9.35938C14.9622 9.36001 14.937 10.2013 14.6104 10.2013Z" fill="#FF9B19"/>
  <path d="M18.1903 36.9826C18.1903 36.9826 18.1832 36.9902 18.1716 37.0048C18.1665 37.0099 18.1607 37.0175 18.1542 37.0252C18.1529 37.0264 18.1523 37.0271 18.1523 37.0271C18.1207 37.064 18.0692 37.1237 18.0002 37.1994C17.9848 37.216 17.9687 37.2344 17.9519 37.2528C17.9964 37.16 18.044 37.0697 18.0943 36.9819L18.1768 36.9832L18.1903 36.9826Z" fill="#FF9B19"/>
  <path d="M11.3094 26.5338C10.7198 27.019 10.8964 27.7573 11.0407 28.2406C11.1032 28.4486 10.9544 28.6597 10.7353 28.6743C9.84547 28.7335 7.70369 28.7468 6.21527 27.7115C3.63727 25.9195 2.34473 23.9761 2.34473 23.9761C2.34473 23.9761 4.69785 20.6521 7.46657 19.4781C8.71208 18.9509 9.93374 19.0355 10.8629 19.1742C11.4241 19.2575 10.4331 20.5217 11.2527 21.4819C11.361 21.6098 11.3545 21.7955 11.2334 21.9112L9.84676 23.2963L7.46722 20.9484L4.38986 23.9856L7.46722 27.0241L9.89315 24.6298L11.3384 26.0257C11.486 26.1688 11.4692 26.4034 11.3094 26.5338Z" fill="#FF9B19"/>
  <path d="M9.19028 23.9517L9.84557 23.2961L7.46603 20.9482L4.38867 23.9854L7.46603 27.0239L9.89197 24.6296L9.19028 23.9517ZM7.46603 25.3088L6.12645 23.9861L7.46603 22.664L8.8069 23.9861L7.46603 25.3088Z" fill="#FF9B19"/>
  <path d="M9.84606 23.2961L7.46652 20.9482L4.38916 23.9854L7.46652 27.0239L10.5452 23.9854L9.84606 23.2961ZM7.46588 25.3088L6.1263 23.9861L7.46588 22.664L8.80675 23.9861L7.46588 25.3088Z" fill="#0A2E45"/>
  <path d="M14.3062 38.5604C13.6548 38.5604 10.0935 38.5604 10.0935 38.5604C10.0935 38.5604 10.0935 36.2341 10.0935 35.492C10.0935 34.7493 10.4447 33.7534 10.9962 33.0259C10.9962 33.3884 10.9962 37.7197 10.9962 37.7197H14.6077C14.9331 37.7197 14.9589 38.5604 14.3062 38.5604Z" fill="#AF2609"/>
  <path d="M14.6104 10.2013H11.0001C11.0001 10.2013 11.0001 14.5327 11.0001 14.8939C10.4479 14.1676 10.0974 13.1705 10.0974 12.429C10.0974 11.6862 10.0974 9.35938 10.0974 9.35938C10.0974 9.35938 13.658 9.35938 14.3101 9.35938C14.9622 9.36001 14.937 10.2013 14.6104 10.2013Z" fill="#AF2609"/>
  <path d="M15.7488 12.5474V14.7006H13.4543L13.4956 12.5474H15.7488Z" fill="#FF9B19"/>
  <path d="M7.46617 22.6634L6.12622 23.9858L7.46617 25.3083L8.80613 23.9858L7.46617 22.6634Z" fill="#FF9B19"/>
  <path d="M16.2895 44.0562C16.8026 44.0562 17.2186 43.6456 17.2186 43.1392C17.2186 42.6327 16.8026 42.2222 16.2895 42.2222C15.7763 42.2222 15.3604 42.6327 15.3604 43.1392C15.3604 43.6456 15.7763 44.0562 16.2895 44.0562Z" fill="#0A2E45"/>
  <path d="M5.70697 32.7622C6.22012 32.7622 6.6361 32.3517 6.6361 31.8452C6.6361 31.3388 6.22012 30.9282 5.70697 30.9282C5.19382 30.9282 4.77783 31.3388 4.77783 31.8452C4.77783 32.3517 5.19382 32.7622 5.70697 32.7622Z" fill="#0A2E45"/>
  <path d="M5.63544 16.918C6.14858 16.918 6.56457 16.5074 6.56457 16.001C6.56457 15.4945 6.14858 15.084 5.63544 15.084C5.12229 15.084 4.7063 15.4945 4.7063 16.001C4.7063 16.5074 5.12229 16.918 5.63544 16.918Z" fill="#0A2E45"/>
  <path d="M16.436 5.43363C16.9491 5.43363 17.3651 5.02307 17.3651 4.51662C17.3651 4.01017 16.9491 3.59961 16.436 3.59961C15.9228 3.59961 15.5068 4.01017 15.5068 4.51662C15.5068 5.02307 15.9228 5.43363 16.436 5.43363Z" fill="#0A2E45"/>
  <path d="M31.2872 16.084V17.85L29.7839 19.3285L28.9965 20.1024L28.6537 19.8709C28.6537 19.7221 28.5281 19.3673 28.2858 19.277C28.1273 19.1199 28.0184 18.7733 27.626 18.7078C27.4546 18.5387 27.2085 18.2957 27.2085 18.2957L28.0171 17.4977L29.4489 16.0846L31.2872 16.084Z" fill="#FBFDFB"/>
  <path d="M31.22 31.7421H29.5344L28.1233 30.3436L27.3843 29.6117L27.6053 29.2931C27.747 29.2931 28.086 29.1761 28.1723 28.951C28.3224 28.8034 28.653 28.7023 28.7161 28.3373C28.8772 28.1783 29.1098 27.9487 29.1098 27.9487L29.8714 28.7004L31.2207 30.032L31.22 31.7421Z" fill="#FBFDFB"/>
  <path d="M16.7804 16.1875H18.466L19.8771 17.5859L20.6162 18.3179L20.3952 18.6365C20.2534 18.6365 19.9145 18.7535 19.8282 18.9786C19.678 19.1261 19.3475 19.2272 19.2843 19.5923C19.1232 19.7513 18.8906 19.9808 18.8906 19.9808L18.129 19.2292L16.7798 17.8975L16.7804 16.1875Z" fill="#FBFDFB"/>
  <path d="M16.7224 31.8544V30.0884L18.2257 28.6099L19.013 27.8359L19.3558 28.0674C19.3558 28.2162 19.4815 28.5711 19.7237 28.6614C19.8822 28.8184 19.9911 29.165 20.3835 29.2305C20.5549 29.3997 20.8011 29.6426 20.8011 29.6426L19.9924 30.4407L18.5607 31.8537L16.7224 31.8544Z" fill="#FBFDFB"/>
</svg>