<svg width="345" height="240" viewBox="0 0 345 240" fill="none" xmlns="http://www.w3.org/2000/svg">
<path d="M248.7 70.201H153.709V2.33179H248.7V70.201ZM154.315 69.5949H248.094V2.93793H154.315V69.5949Z" fill="white"/>
<path d="M156.344 0.30307H151.681V4.96674H156.344V0.30307Z" fill="#121936"/>
<path d="M156.647 5.26981H151.378V0H156.647V5.26981ZM151.984 4.66367H156.041V0.606143H151.984V4.66367Z" fill="white"/>
<path d="M250.582 0.475861H245.918V5.13953H250.582V0.475861Z" fill="#121936"/>
<path d="M250.885 5.44251H245.615V0.172699H250.885V5.44251ZM246.221 4.83636H250.279V0.778842H246.221V4.83636Z" fill="white"/>
<path d="M156.344 67.566H151.68V72.2297H156.344V67.566Z" fill="#121936"/>
<path d="M156.647 72.5329H151.378V67.2631H156.647V72.5329ZM151.984 71.9267H156.041V67.8692H151.984V71.9267Z" fill="white"/>
<path d="M250.582 67.566H245.918V72.2297H250.582V67.566Z" fill="#121936"/>
<path d="M250.885 72.5329H245.615V67.2631H250.885V72.5329ZM246.221 71.9267H250.279V67.8692H246.221V71.9267Z" fill="white"/>
<path d="M342.358 173.028H248.838V106.207H342.358V173.028ZM249.444 172.422H341.752V106.813H249.444V172.422Z" fill="white"/>
<path d="M251.436 104.214H246.846V108.805H251.436V104.214Z" fill="#121936"/>
<path d="M251.74 109.108H246.543V103.911H251.74V109.108ZM247.149 108.502H251.134V104.517H247.149V108.502Z" fill="white"/>
<path d="M344.206 104.384H339.615V108.975H344.206V104.384Z" fill="#121936"/>
<path d="M344.509 109.278H339.312V104.081H344.509V109.278ZM339.918 108.672H343.903V104.687H339.918V108.672Z" fill="white"/>
<path d="M251.436 170.43H246.845V175.021H251.436V170.43Z" fill="#121936"/>
<path d="M251.739 175.323H246.542V170.126H251.739V175.323ZM247.149 174.717H251.133V170.732H247.149V174.717Z" fill="white"/>
<path d="M344.206 170.43H339.615V175.021H344.206V170.43Z" fill="#121936"/>
<path d="M344.509 175.323H339.312V170.126H344.509V175.323ZM339.918 174.717H343.903V170.732H339.918V174.717Z" fill="white"/>
<path d="M281.774 239.692L188.276 239.65C179.648 239.647 172.658 233.426 172.663 225.758L172.774 26.3315C172.778 18.6626 179.775 12.449 188.402 12.4532L281.9 12.4945C290.528 12.4981 297.518 18.7183 297.514 26.3867L297.403 225.813C297.398 233.482 290.401 239.696 281.774 239.692Z" fill="#F9CAD0"/>
<path d="M281.782 239.995C281.779 239.995 281.776 239.995 281.774 239.995L188.275 239.953C184.028 239.951 180.035 238.478 177.031 235.804C174.016 233.122 172.358 229.554 172.359 225.757L172.47 26.3308C172.475 18.5104 179.619 12.1495 188.394 12.1495C188.397 12.1495 188.399 12.1495 188.402 12.1495L281.9 12.1913C286.147 12.1931 290.141 13.6667 293.145 16.3398C296.16 19.022 297.818 22.5903 297.816 26.3872L297.705 225.813C297.701 233.635 290.558 239.995 281.782 239.995ZM281.774 239.389C281.776 239.389 281.779 239.389 281.781 239.389C290.225 239.389 297.095 233.301 297.099 225.814L297.211 26.3872C297.213 22.7661 295.626 19.359 292.743 16.7932C289.849 14.2183 285.999 12.7999 281.901 12.7981L188.402 12.7556C188.399 12.7556 188.397 12.7556 188.394 12.7556C179.951 12.7556 173.081 18.8444 173.076 26.3314L172.966 225.757C172.964 229.379 174.55 232.786 177.433 235.351C180.327 237.926 184.177 239.345 188.275 239.347L281.774 239.389Z" fill="#121936"/>
<path d="M278.196 236.067L192.009 236.028C184.056 236.025 177.613 230.012 177.617 222.598L177.724 29.7883C177.729 22.3739 184.179 16.3665 192.131 16.3701L278.318 16.4089C286.27 16.4125 292.713 22.4255 292.709 29.8398L292.602 222.649C292.598 230.063 286.148 236.071 278.196 236.067Z" fill="#121936"/>
<path opacity="0.89" d="M219.213 30.7545C218.783 30.7539 218.376 30.6018 218.07 30.326C217.754 30.0417 217.579 29.6617 217.58 29.255C217.58 28.8488 217.754 28.4688 218.071 28.1845C218.378 27.9093 218.784 27.7572 219.213 27.7572H219.214C219.644 27.7578 220.051 27.9093 220.357 28.1851C220.674 28.4694 220.848 28.85 220.847 29.2562C220.846 30.0823 220.114 30.7545 219.213 30.7545ZM219.213 28.3633C218.933 28.3633 218.671 28.4603 218.476 28.6355C218.289 28.8028 218.186 29.0228 218.186 29.255C218.186 29.4871 218.288 29.7071 218.475 29.875C218.67 30.0508 218.933 30.1478 219.213 30.1478C219.779 30.1478 220.24 29.7477 220.24 29.2556C220.24 29.0234 220.138 28.8034 219.951 28.6361C219.757 28.4603 219.494 28.3633 219.213 28.3633Z" fill="white"/>
<path opacity="0.89" d="M213.349 30.0145C212.903 30.0145 212.539 29.6738 212.539 29.255C212.54 28.8361 212.904 28.4961 213.349 28.4961C213.35 28.4961 213.35 28.4961 213.351 28.4961C213.797 28.4961 214.16 28.8367 214.16 29.255C214.159 29.6738 213.796 30.0145 213.349 30.0145ZM213.35 29.1028C213.238 29.1028 213.145 29.1731 213.145 29.2562C213.145 29.4204 213.553 29.4216 213.554 29.2556C213.554 29.1725 213.461 29.1028 213.35 29.1028Z" fill="white"/>
<path opacity="0.89" d="M245.415 30.3605L225.019 30.3514C224.363 30.3508 223.83 29.8574 223.83 29.2513C223.83 28.9512 223.957 28.6706 224.19 28.4621C224.413 28.2614 224.708 28.1511 225.019 28.1511H225.02L245.416 28.1602C245.728 28.1602 246.022 28.2711 246.245 28.4718C246.478 28.6809 246.606 28.9615 246.605 29.261C246.605 29.8671 246.071 30.3605 245.415 30.3605ZM225.019 28.7573C224.856 28.7573 224.706 28.8124 224.594 28.913C224.492 29.0052 224.435 29.1252 224.435 29.2513C224.435 29.5234 224.697 29.7453 225.018 29.7453L245.415 29.7544C245.737 29.7544 245.999 29.5331 245.999 29.261C245.999 29.1349 245.942 29.0149 245.84 28.9227C245.728 28.8221 245.577 28.767 245.415 28.767L225.019 28.7579L225.019 28.7573Z" fill="white"/>
<path d="M246.163 229.437H246.162L224.051 229.426C223.066 229.426 222.142 229.042 221.446 228.346C220.75 227.65 220.368 226.724 220.369 225.74V225.582C220.37 223.552 222.023 221.901 224.053 221.901H224.054L246.165 221.911C247.149 221.911 248.074 222.295 248.769 222.991C249.465 223.687 249.847 224.613 249.846 225.597V225.755C249.846 227.785 248.194 229.437 246.163 229.437ZM224.053 222.507C222.357 222.507 220.976 223.886 220.975 225.582V225.74C220.975 226.562 221.294 227.336 221.875 227.918C222.456 228.5 223.229 228.82 224.051 228.82L246.162 228.831H246.164C247.861 228.831 249.241 227.451 249.242 225.755V225.597C249.242 224.774 248.923 224.001 248.341 223.42C247.761 222.838 246.988 222.517 246.166 222.517L224.055 222.507C224.053 222.507 224.053 222.507 224.053 222.507Z" fill="white"/>
<path d="M289.266 41.6094H181.519V212.964H289.266V41.6094Z" fill="white"/>
<path opacity="0.81" d="M292.704 41.6063H177.676V212.961H292.704V41.6063Z" fill="white"/>
<path opacity="0.69" d="M280.844 79.6169L233.735 79.5441C233.568 79.5435 233.433 79.4078 233.433 79.2405C233.433 79.0732 233.569 78.938 233.736 78.938H233.736L280.845 79.0107C281.012 79.0113 281.148 79.1471 281.148 79.3144C281.148 79.4817 281.011 79.6169 280.844 79.6169Z" fill="#353148"/>
<path opacity="0.69" d="M257.257 100.291L233.702 100.254C233.535 100.254 233.399 100.118 233.399 99.9505C233.399 99.7832 233.536 99.6481 233.702 99.6481L257.258 99.6844C257.425 99.685 257.56 99.8208 257.56 99.9881C257.56 100.155 257.424 100.291 257.257 100.291Z" fill="#353148"/>
<path opacity="0.69" d="M247.41 85.7838L233.718 85.7565C233.551 85.7565 233.415 85.6201 233.415 85.4529C233.416 85.2856 233.552 85.1504 233.718 85.1504H233.719L247.411 85.1777C247.578 85.1783 247.714 85.314 247.713 85.4813C247.712 85.6486 247.577 85.7838 247.41 85.7838Z" fill="#353148"/>
<path opacity="0.69" d="M280.828 85.8292L250.708 85.8019C250.541 85.8013 250.405 85.6662 250.405 85.4983C250.405 85.331 250.541 85.1958 250.708 85.1958L280.828 85.2231C280.995 85.2237 281.131 85.3589 281.131 85.5268C281.131 85.6941 280.995 85.8292 280.828 85.8292Z" fill="#353148"/>
<path opacity="0.69" d="M260.349 93.1333H260.348L233.718 93.106C233.551 93.1054 233.415 92.9696 233.415 92.8023C233.415 92.635 233.551 92.4999 233.718 92.4999H233.719L260.35 92.5272C260.517 92.5278 260.652 92.6635 260.652 92.8308C260.652 92.9981 260.517 93.1333 260.349 93.1333Z" fill="#353148"/>
<path opacity="0.69" d="M280.828 93.1787H280.827L263.239 93.1514C263.072 93.1508 262.937 93.015 262.937 92.8477C262.937 92.6805 263.073 92.5453 263.24 92.5453L280.829 92.5726C280.996 92.5726 281.131 92.7089 281.131 92.8762C281.131 93.0435 280.995 93.1787 280.828 93.1787Z" fill="#353148"/>
<path opacity="0.69" d="M280.844 59.1778L233.735 59.105C233.568 59.1044 233.433 58.9687 233.433 58.8014C233.433 58.6341 233.569 58.4989 233.736 58.4989H233.736L280.845 58.5716C281.012 58.5723 281.148 58.708 281.148 58.8753C281.148 59.042 281.011 59.1778 280.844 59.1778Z" fill="#353148"/>
<path opacity="0.69" d="M247.41 65.3441L233.718 65.3168C233.551 65.3162 233.415 65.1805 233.415 65.0132C233.416 64.8459 233.552 64.7107 233.718 64.7107H233.719L247.411 64.738C247.578 64.7386 247.714 64.8744 247.713 65.0417C247.712 65.2089 247.577 65.3441 247.41 65.3441Z" fill="#353148"/>
<path opacity="0.69" d="M280.828 65.3901L250.708 65.3629C250.541 65.3623 250.405 65.2271 250.405 65.0592C250.405 64.8919 250.541 64.7567 250.708 64.7567L280.828 64.784C280.995 64.784 281.131 64.9198 281.131 65.0871C281.131 65.2544 280.995 65.3901 280.828 65.3901Z" fill="#353148"/>
<path opacity="0.69" d="M260.349 72.6936H260.348L233.718 72.6663C233.551 72.6657 233.415 72.5299 233.415 72.3627C233.415 72.1954 233.551 72.0602 233.718 72.0602H233.719L260.35 72.0875C260.517 72.0881 260.652 72.2238 260.652 72.3911C260.652 72.5578 260.517 72.6936 260.349 72.6936Z" fill="#353148"/>
<path opacity="0.69" d="M280.828 72.739H280.827L263.239 72.7117C263.072 72.7111 262.937 72.5753 262.937 72.4081C262.937 72.2408 263.073 72.1056 263.24 72.1056L280.829 72.1329C280.996 72.1335 281.131 72.2692 281.131 72.4365C281.131 72.6038 280.995 72.739 280.828 72.739Z" fill="#353148"/>
<path d="M226.313 54.6172H191.808V104.225H226.313V54.6172Z" fill="#FF9C9C"/>
<path d="M226.313 54.6172H191.808V66.3048H226.313V54.6172Z" fill="#708CF5"/>
<path d="M250.319 157.431H191.614V113.371H250.319V157.431ZM192.221 156.825H249.712V113.978H192.22V156.825H192.221Z" fill="#121936"/>
<path d="M193.353 112.168H190.482V115.181H193.353V112.168Z" fill="#121936"/>
<path d="M251.361 112.28H248.49V115.293H251.361V112.28Z" fill="#121936"/>
<path d="M193.353 155.621H190.482V158.634H193.353V155.621Z" fill="#121936"/>
<path d="M251.361 155.621H248.49V158.634H251.361V155.621Z" fill="#121936"/>
<path d="M220.826 125.491H197.839C196.822 125.491 195.997 124.666 195.997 123.648C195.997 122.63 196.822 121.805 197.839 121.805H220.826C221.844 121.805 222.669 122.63 222.669 123.648C222.669 124.666 221.844 125.491 220.826 125.491Z" fill="#708CF5"/>
<path d="M220.826 140.569H197.839C196.822 140.569 195.997 139.744 195.997 138.727C195.997 137.709 196.822 136.884 197.839 136.884H220.826C221.844 136.884 222.669 137.709 222.669 138.727C222.669 139.744 221.844 140.569 220.826 140.569Z" fill="#F9CAD0"/>
<path d="M226.498 132.763H212.245C211.228 132.763 210.403 131.938 210.403 130.92C210.403 129.902 211.228 129.077 212.245 129.077H226.498C227.515 129.077 228.34 129.902 228.34 130.92C228.34 131.938 227.515 132.763 226.498 132.763Z" fill="#708CF5"/>
<path d="M234.972 125.491H227.57C226.552 125.491 225.727 124.666 225.727 123.648C225.727 122.63 226.552 121.805 227.57 121.805H234.972C235.99 121.805 236.815 122.63 236.815 123.648C236.815 124.666 235.99 125.491 234.972 125.491Z" fill="#F9CAD0"/>
<path d="M218.813 148.869H197.839C196.822 148.869 195.997 148.044 195.997 147.026C195.997 146.009 196.822 145.184 197.839 145.184H218.813C219.831 145.184 220.656 146.009 220.656 147.026C220.656 148.044 219.831 148.869 218.813 148.869Z" fill="#708CF5"/>
<path d="M231.892 148.869H225.326C224.308 148.869 223.483 148.044 223.483 147.026C223.483 146.009 224.308 145.184 225.326 145.184H231.892C232.909 145.184 233.734 146.009 233.734 147.026C233.734 148.044 232.909 148.869 231.892 148.869Z" fill="#F9CAD0"/>
<path d="M205.242 132.765H197.839C196.822 132.765 195.997 131.94 195.997 130.922C195.997 129.905 196.822 129.08 197.839 129.08H205.242C206.259 129.08 207.084 129.905 207.084 130.922C207.084 131.94 206.259 132.765 205.242 132.765Z" fill="#F9CAD0"/>
<path d="M192.427 199.735H244.933C245.412 199.735 245.8 199.346 245.8 198.867V170.17C245.8 169.691 245.412 169.303 244.933 169.303H192.427C191.949 169.303 191.56 169.691 191.56 170.17V198.867C191.56 199.346 191.948 199.735 192.427 199.735Z" fill="#FFA742"/>
<path d="M204.056 191.532C208.595 191.532 212.275 187.852 212.275 183.313C212.275 178.774 208.595 175.094 204.056 175.094C199.517 175.094 195.837 178.774 195.837 183.313C195.837 187.852 199.517 191.532 204.056 191.532Z" fill="white"/>
<path d="M238.203 177.113H218.337C218.169 177.113 218.034 176.978 218.034 176.81C218.034 176.643 218.169 176.507 218.337 176.507H238.203C238.37 176.507 238.506 176.643 238.506 176.81C238.506 176.978 238.37 177.113 238.203 177.113Z" fill="white"/>
<path d="M241.546 188.439H230.598C230.431 188.439 230.295 188.303 230.295 188.136C230.295 187.968 230.431 187.833 230.598 187.833H241.546C241.713 187.833 241.849 187.968 241.849 188.136C241.849 188.303 241.713 188.439 241.546 188.439Z" fill="white"/>
<path d="M227.967 192.529H217.019C216.852 192.529 216.716 192.394 216.716 192.226C216.716 192.059 216.852 191.923 217.019 191.923H227.967C228.135 191.923 228.27 192.059 228.27 192.226C228.27 192.394 228.135 192.529 227.967 192.529Z" fill="white"/>
<path d="M229.297 184.497H217.02C216.852 184.497 216.717 184.361 216.717 184.194C216.717 184.026 216.852 183.891 217.02 183.891H229.297C229.464 183.891 229.6 184.026 229.6 184.194C229.6 184.361 229.464 184.497 229.297 184.497Z" fill="white"/>
<path d="M240.915 184.497H232.856C232.689 184.497 232.553 184.361 232.553 184.194C232.553 184.026 232.689 183.891 232.856 183.891H240.915C241.082 183.891 241.218 184.026 241.218 184.194C241.218 184.361 241.082 184.497 240.915 184.497Z" fill="#9DD3FF"/>
<path d="M224.49 188.439H216.473C216.305 188.439 216.17 188.303 216.17 188.136C216.17 187.968 216.305 187.833 216.473 187.833H224.49C224.657 187.833 224.793 187.968 224.793 188.136C224.793 188.303 224.658 188.439 224.49 188.439Z" fill="#9DD3FF"/>
<path d="M305.081 165.315H253.272V204.065H305.081V165.315Z" fill="white"/>
<g opacity="0.48">
<path d="M305.385 204.367H252.969V165.011H305.385V204.367ZM253.575 203.761H304.779V165.617H253.575V203.761Z" fill="#121936"/>
<path d="M254.552 163.971H251.992V166.657H254.552V163.971Z" fill="#121936"/>
<path d="M306.28 164.071H303.721V166.758H306.28V164.071Z" fill="#121936"/>
<path d="M254.552 202.721H251.992V205.407H254.552V202.721Z" fill="#121936"/>
<path d="M306.28 202.721H303.721V205.407H306.28V202.721Z" fill="#121936"/>
</g>
<path d="M283.645 174.888H260.658C259.64 174.888 258.815 174.063 258.815 173.045C258.815 172.027 259.64 171.202 260.658 171.202H283.645C284.662 171.202 285.487 172.027 285.487 173.045C285.487 174.063 284.662 174.888 283.645 174.888Z" fill="#708CF5"/>
<path d="M283.645 189.966H260.658C259.64 189.966 258.815 189.141 258.815 188.123C258.815 187.106 259.64 186.281 260.658 186.281H283.645C284.662 186.281 285.487 187.106 285.487 188.123C285.487 189.141 284.662 189.966 283.645 189.966Z" fill="#F9CAD0"/>
<path d="M289.317 182.16H275.065C274.047 182.16 273.222 181.335 273.222 180.317C273.222 179.299 274.047 178.474 275.065 178.474H289.317C290.334 178.474 291.159 179.299 291.159 180.317C291.159 181.335 290.334 182.16 289.317 182.16Z" fill="#708CF5"/>
<path d="M297.791 174.888H290.389C289.371 174.888 288.546 174.063 288.546 173.045C288.546 172.027 289.371 171.202 290.389 171.202H297.791C298.808 171.202 299.633 172.027 299.633 173.045C299.633 174.063 298.808 174.888 297.791 174.888Z" fill="#F9CAD0"/>
<path d="M281.632 198.266H260.659C259.641 198.266 258.816 197.441 258.816 196.423C258.816 195.406 259.641 194.581 260.659 194.581H281.632C282.65 194.581 283.475 195.406 283.475 196.423C283.474 197.441 282.649 198.266 281.632 198.266Z" fill="#708CF5"/>
<path d="M294.711 198.266H288.145C287.127 198.266 286.302 197.441 286.302 196.423C286.302 195.406 287.127 194.581 288.145 194.581H294.711C295.729 194.581 296.554 195.406 296.554 196.423C296.553 197.441 295.728 198.266 294.711 198.266Z" fill="#F9CAD0"/>
<path d="M268.061 182.162H260.659C259.641 182.162 258.816 181.337 258.816 180.319C258.816 179.302 259.641 178.477 260.659 178.477H268.061C269.079 178.477 269.903 179.302 269.903 180.319C269.903 181.337 269.078 182.162 268.061 182.162Z" fill="#F9CAD0"/>
<path d="M316.082 100.557H277.489C277.01 100.557 276.621 100.169 276.621 99.6897V65.7779C276.621 65.299 277.01 64.9105 277.489 64.9105H316.082C316.561 64.9105 316.949 65.299 316.949 65.7779V99.6897C316.949 100.169 316.561 100.557 316.082 100.557Z" fill="#FFA742"/>
<path d="M282.902 70.7444C282.824 70.7444 282.747 70.7147 282.687 70.6559L279.892 67.8604C279.774 67.7422 279.774 67.55 279.892 67.4318C280.011 67.3137 280.203 67.3137 280.321 67.4318L283.116 70.2274C283.234 70.3456 283.234 70.5377 283.116 70.6559C283.057 70.7147 282.98 70.7444 282.902 70.7444Z" fill="white"/>
<path d="M280.107 70.7445C280.029 70.7445 279.952 70.7148 279.893 70.656C279.775 70.5378 279.775 70.3456 279.893 70.2274L282.688 67.4319C282.806 67.3137 282.998 67.3137 283.117 67.4319C283.235 67.5501 283.235 67.7423 283.117 67.8605L280.322 70.656C280.262 70.7148 280.185 70.7445 280.107 70.7445Z" fill="white"/>
<path d="M290.699 79.234V80.5063L284.487 83.1255L290.699 85.6888V86.9611L283.103 83.7619V82.4896L290.699 79.234Z" fill="white"/>
<path d="M301.195 75.7911L293.842 89.9355H292.532L299.885 75.7911H301.195Z" fill="white"/>
<path d="M303.029 79.234L310.625 82.4896V83.7619L303.029 86.9611V85.6888L309.24 83.1255L303.029 80.5063V79.234Z" fill="white"/>
<path d="M329.87 153.23H241.783C241.304 153.23 240.915 152.841 240.915 152.362V118.451C240.915 117.972 241.304 117.583 241.783 117.583H329.87C330.349 117.583 330.738 117.972 330.738 118.451V152.362C330.738 152.842 330.349 153.23 329.87 153.23Z" fill="#FFA742"/>
<path d="M247.196 123.418C247.118 123.418 247.04 123.388 246.982 123.329L244.187 120.534C244.068 120.416 244.068 120.223 244.187 120.105C244.305 119.987 244.497 119.987 244.615 120.105L247.41 122.901C247.528 123.019 247.528 123.211 247.41 123.329C247.351 123.388 247.273 123.418 247.196 123.418Z" fill="white"/>
<path d="M244.401 123.418C244.323 123.418 244.245 123.388 244.187 123.329C244.068 123.211 244.068 123.019 244.187 122.901L246.982 120.105C247.1 119.987 247.292 119.987 247.41 120.105C247.528 120.223 247.528 120.416 247.41 120.534L244.615 123.329C244.556 123.388 244.478 123.418 244.401 123.418Z" fill="white"/>
<path d="M269.954 130.687H249.958C249.79 130.687 249.655 130.551 249.655 130.384C249.655 130.217 249.79 130.081 249.958 130.081H269.954C270.122 130.081 270.257 130.217 270.257 130.384C270.257 130.551 270.122 130.687 269.954 130.687Z" fill="white"/>
<path d="M292.978 130.687H275.153C274.986 130.687 274.85 130.551 274.85 130.384C274.85 130.217 274.986 130.081 275.153 130.081H292.978C293.145 130.081 293.281 130.217 293.281 130.384C293.281 130.551 293.146 130.687 292.978 130.687Z" fill="white"/>
<path d="M267.781 141.945H249.958C249.79 141.945 249.654 141.809 249.654 141.642C249.654 141.475 249.79 141.339 249.958 141.339H267.781C267.948 141.339 268.084 141.475 268.084 141.642C268.084 141.809 267.948 141.945 267.781 141.945Z" fill="white"/>
<path d="M284.65 135.999H266.827C266.659 135.999 266.523 135.863 266.523 135.696C266.523 135.529 266.659 135.393 266.827 135.393H284.65C284.818 135.393 284.953 135.529 284.953 135.696C284.953 135.863 284.818 135.999 284.65 135.999Z" fill="white"/>
<path d="M261.658 135.999H249.958C249.79 135.999 249.654 135.863 249.654 135.696C249.654 135.529 249.79 135.393 249.958 135.393H261.658C261.825 135.393 261.961 135.529 261.961 135.696C261.961 135.863 261.825 135.999 261.658 135.999Z" fill="white"/>
<path d="M280.455 141.945H273.262C273.095 141.945 272.959 141.809 272.959 141.642C272.959 141.475 273.095 141.339 273.262 141.339H280.455C280.623 141.339 280.758 141.475 280.758 141.642C280.758 141.809 280.623 141.945 280.455 141.945Z" fill="white"/>
<path d="M308.456 130.687H288.46C288.292 130.687 288.156 130.551 288.156 130.384C288.156 130.217 288.292 130.081 288.46 130.081H308.456C308.624 130.081 308.759 130.217 308.759 130.384C308.759 130.551 308.624 130.687 308.456 130.687Z" fill="white"/>
<path d="M318.695 130.687H302.852C302.685 130.687 302.549 130.551 302.549 130.384C302.549 130.217 302.685 130.081 302.852 130.081H318.695C318.863 130.081 318.998 130.217 318.998 130.384C318.998 130.551 318.863 130.687 318.695 130.687Z" fill="white"/>
<path d="M306.284 141.945H288.46C288.293 141.945 288.157 141.809 288.157 141.642C288.157 141.475 288.293 141.339 288.46 141.339H306.284C306.451 141.339 306.587 141.475 306.587 141.642C306.587 141.809 306.451 141.945 306.284 141.945Z" fill="white"/>
<path d="M323.153 135.999H305.328C305.161 135.999 305.025 135.863 305.025 135.696C305.025 135.529 305.161 135.393 305.328 135.393H323.153C323.32 135.393 323.456 135.529 323.456 135.696C323.456 135.863 323.32 135.999 323.153 135.999Z" fill="white"/>
<path d="M300.16 135.999H288.46C288.292 135.999 288.156 135.863 288.156 135.696C288.156 135.529 288.292 135.393 288.46 135.393H300.16C300.327 135.393 300.463 135.529 300.463 135.696C300.463 135.863 300.327 135.999 300.16 135.999Z" fill="white"/>
<path d="M318.958 141.945H311.764C311.597 141.945 311.461 141.809 311.461 141.642C311.461 141.475 311.597 141.339 311.764 141.339H318.958C319.125 141.339 319.261 141.475 319.261 141.642C319.261 141.809 319.125 141.945 318.958 141.945Z" fill="white"/>
<path d="M85.33 136.208H52.5595V112.68H85.33V136.208ZM53.1657 135.602H84.7239V113.286H53.1657V135.602Z" fill="white"/>
<path d="M53.6575 112.188H52.0682V113.778H53.6575V112.188Z" fill="#121936"/>
<path d="M53.9597 114.081H51.7649V111.885H53.9597V114.081ZM52.371 113.474H53.3536V112.491H52.371V113.474Z" fill="white"/>
<path d="M85.7724 112.247H84.183V113.836H85.7724V112.247Z" fill="#121936"/>
<path d="M86.0755 114.139H83.8801V111.944H86.0755V114.139ZM84.4862 113.533H85.4694V112.55H84.4862V113.533Z" fill="white"/>
<path d="M53.6577 135.11H52.0684V136.699H53.6577V135.11Z" fill="#121936"/>
<path d="M53.9599 137.002H51.7651V134.808H53.9599V137.002ZM52.3712 136.396H53.3538V135.414H52.3712V136.396Z" fill="white"/>
<path d="M85.7724 135.11H84.183V136.699H85.7724V135.11Z" fill="#121936"/>
<path d="M86.0755 137.002H83.8801V134.808H86.0755V137.002ZM84.4862 136.396H85.4694V135.414H84.4862V136.396Z" fill="white"/>
<path d="M63.5613 148.651H18.4443C17.9854 148.651 17.5666 148.392 17.3611 147.982L0.433935 114.253C0.0296373 113.447 0.615173 112.497 1.51711 112.497H46.9142C47.3755 112.497 47.7967 112.759 48.001 113.173L64.6481 146.902C65.0458 147.708 64.4596 148.651 63.5613 148.651Z" fill="white"/>
<path d="M63.5614 148.953H18.4438C17.8679 148.953 17.3485 148.633 17.0903 148.118L0.162506 114.389C-0.0751019 113.916 -0.0508545 113.365 0.226759 112.914C0.504979 112.463 0.986861 112.194 1.51663 112.194H46.9137C47.4944 112.194 48.0151 112.517 48.2721 113.039L64.9198 146.767C65.1532 147.24 65.1265 147.791 64.8483 148.238C64.5701 148.686 64.0888 148.953 63.5614 148.953ZM1.51724 112.8C1.19962 112.8 0.90988 112.962 0.743797 113.232C0.577108 113.502 0.562563 113.833 0.705007 114.117L17.6322 147.846C17.7873 148.155 18.0989 148.347 18.4444 148.347H63.562C63.8778 148.347 64.167 148.186 64.3337 147.918C64.5004 147.649 64.5167 147.32 64.3767 147.036L47.729 113.307C47.5744 112.994 47.2622 112.8 46.9137 112.8H1.51724Z" fill="#121936"/>
<path d="M88.6285 148.525C88.6285 147.289 87.6265 146.287 86.3912 146.287H62.2558L46.4791 114.683C46.3767 114.478 46.1663 114.348 45.9366 114.348H1.29233C0.84197 114.348 0.549205 114.821 0.749838 115.224L17.5024 148.85C17.6055 149.057 17.817 149.187 18.0473 149.186L62.628 148.991C62.6389 148.991 62.6486 148.987 62.6595 148.986H88.6285V148.525Z" fill="#121936"/>
<path d="M67.9039 148.109H65.0859C65.0411 148.109 65.0047 148.072 65.0047 148.028V147.445C65.0047 147.4 65.0411 147.363 65.0859 147.363H67.9039C67.9487 147.363 67.9851 147.4 67.9851 147.445V148.028C67.9857 148.072 67.9487 148.109 67.9039 148.109Z" fill="white"/>
<path d="M73.0419 148.109H70.224C70.1791 148.109 70.1422 148.072 70.1422 148.028V147.445C70.1422 147.4 70.1785 147.363 70.224 147.363H73.0419C73.0868 147.363 73.1238 147.4 73.1238 147.445V148.028C73.1238 148.072 73.0874 148.109 73.0419 148.109Z" fill="white"/>
<path d="M32.445 134.561C31.1394 135.867 28.7045 135.549 27.0067 133.851C25.3089 132.153 24.9906 129.719 26.2969 128.413C27.6025 127.107 30.0374 127.425 31.7352 129.123C33.433 130.821 33.7506 133.255 32.445 134.561Z" fill="white"/>
<path d="M30.3713 135.664C29.1668 135.664 27.8418 135.116 26.792 134.065C24.979 132.252 24.6602 129.62 26.0822 128.198C27.5042 126.776 30.1355 127.094 31.9497 128.908C33.7626 130.721 34.0815 133.354 32.6594 134.776C32.0606 135.374 31.2471 135.664 30.3713 135.664ZM28.3728 127.91C27.6539 127.91 26.9938 128.144 26.5107 128.627C25.3251 129.813 25.6433 132.06 27.2205 133.637C28.7977 135.214 31.0459 135.533 32.2309 134.348C33.4165 133.162 33.0983 130.914 31.5211 129.337C30.587 128.403 29.4172 127.91 28.3728 127.91Z" fill="#121936"/>
<path d="M30.7843 136.724C29.2683 136.724 27.5929 136.027 26.2624 134.696C23.9791 132.413 23.5615 129.115 25.3314 127.345C27.1001 125.576 30.3987 125.994 32.6821 128.277C34.966 130.561 35.3837 133.858 33.6137 135.628C32.8748 136.367 31.8705 136.724 30.7843 136.724ZM28.1566 126.549C27.1189 126.549 26.2073 126.898 25.5454 127.56C23.8936 129.212 24.3113 132.317 26.4764 134.482C27.5305 135.536 28.8355 136.211 30.1502 136.383C31.4492 136.554 32.6039 136.209 33.3986 135.414C34.1932 134.619 34.5375 133.466 34.3678 132.165C34.1962 130.851 33.5216 129.546 32.4669 128.492C31.4128 127.438 30.1078 126.762 28.7931 126.591C28.5767 126.562 28.3639 126.549 28.1566 126.549Z" fill="white"/>
<path d="M74.2128 131.529H63.7326C59.7157 131.529 56.4589 128.272 56.4589 124.255C56.4589 120.238 59.7157 116.982 63.7326 116.982H74.2128C78.2297 116.982 81.4865 120.238 81.4865 124.255C81.4865 128.272 78.2303 131.529 74.2128 131.529Z" fill="#FFA742"/>
<path d="M65.1955 121.837V122.627L61.3405 124.253L65.1955 125.844V126.633L60.4816 124.648V123.858L65.1955 121.837Z" fill="white"/>
<path d="M71.7099 119.701L67.1469 128.479H66.334L70.8971 119.701H71.7099Z" fill="white"/>
<path d="M72.8477 121.837L77.5617 123.858V124.648L72.8477 126.633V125.843L76.7022 124.252L72.8477 122.627V121.837Z" fill="white"/>
<path d="M81.1662 72.23C81.1662 73.012 80.5328 73.6454 79.7509 73.6454C78.9695 73.6454 78.3355 73.012 78.3355 72.23C78.3355 71.4487 78.9689 70.8147 79.7509 70.8147C80.5328 70.8147 81.1662 71.4487 81.1662 72.23Z" fill="#F9CAD0"/>
<path d="M27.1105 97.1837C27.1105 97.5746 26.7935 97.8911 26.4032 97.8911C26.0122 97.8911 25.6958 97.574 25.6958 97.1837C25.6958 96.7933 26.0128 96.4763 26.4032 96.4763C26.7935 96.4757 27.1105 96.7927 27.1105 97.1837Z" fill="#F8F8F6"/>
<path d="M40.0674 77.506C40.0674 77.8969 39.7504 78.2133 39.3601 78.2133C38.9697 78.2133 38.6527 77.8963 38.6527 77.506C38.6527 77.1156 38.9697 76.7986 39.3601 76.7986C39.7504 76.7986 40.0674 77.115 40.0674 77.506Z" fill="#F8F8F6"/>
<path d="M47.0695 40.8809C47.0695 41.2719 46.7524 41.5883 46.3621 41.5883C45.9717 41.5883 45.6547 41.2712 45.6547 40.8809C45.6547 40.4899 45.9717 40.1735 46.3621 40.1735C46.7524 40.1735 47.0695 40.4899 47.0695 40.8809Z" fill="#F8F8F6"/>
<path opacity="0.49" d="M21.1693 58.7185C21.1693 59.1094 20.8522 59.4258 20.4619 59.4258C20.0715 59.4258 19.7545 59.1088 19.7545 58.7185C19.7545 58.3275 20.0715 58.0111 20.4619 58.0111C20.8522 58.0111 21.1693 58.3281 21.1693 58.7185Z" fill="#F8F8F6"/>
<path opacity="0.49" d="M62.5326 62.9591C62.5326 63.35 62.2156 63.6664 61.8252 63.6664C61.4343 63.6664 61.1179 63.3494 61.1179 62.9591C61.1179 62.5687 61.4349 62.2517 61.8252 62.2517C62.2156 62.2517 62.5326 62.5681 62.5326 62.9591Z" fill="#F8F8F6"/>
<path d="M57.075 83.2369C57.075 84.0183 56.4416 84.6523 55.6597 84.6523C54.8783 84.6523 54.2443 84.0189 54.2443 83.2369C54.2443 82.4556 54.8777 81.8216 55.6597 81.8216C56.4416 81.8222 57.075 82.4556 57.075 83.2369Z" fill="#F8F8F6"/>
<path d="M14.9355 239.335C14.3027 239.335 13.7074 239.09 13.2571 238.644C12.8049 238.196 12.554 237.597 12.5509 236.961L12.1806 156.001C12.1775 155.364 12.4224 154.765 12.8716 154.312C13.3195 153.86 13.9178 153.609 14.5542 153.606L100.867 153.211C100.87 153.211 100.873 153.211 100.877 153.211C102.187 153.211 103.257 154.274 103.263 155.585L103.633 236.544C103.636 237.182 103.391 237.781 102.942 238.234C102.494 238.686 101.896 238.937 101.259 238.94L14.947 239.335C14.9434 239.335 14.9391 239.335 14.9355 239.335ZM100.877 153.816C100.874 153.816 100.871 153.816 100.869 153.816L14.5566 154.211C14.082 154.214 13.6359 154.401 13.3019 154.738C12.9673 155.076 12.7843 155.523 12.7867 155.998L13.1571 236.958C13.1595 237.432 13.3468 237.879 13.6838 238.213C14.0196 238.545 14.4633 238.728 14.9349 238.728C14.9379 238.728 14.9409 238.728 14.944 238.728L101.256 238.333C101.73 238.331 102.176 238.143 102.51 237.806C102.845 237.469 103.028 237.021 103.026 236.546L102.655 155.587C102.651 154.609 101.854 153.816 100.877 153.816Z" fill="#121936"/>
<path d="M99.7865 159.803L100.13 234.741C100.135 235.891 99.2071 236.827 98.0572 236.832L18.1451 237.199C16.9953 237.204 16.0594 236.276 16.0539 235.126L15.7108 160.188C15.7054 159.038 16.6334 158.102 17.7832 158.097L97.6953 157.731C98.8452 157.726 99.7817 158.654 99.7865 159.803Z" fill="white"/>
<path d="M103.24 150.832L103.263 155.843L12.1294 156.261L12.1057 151.147C12.1009 150.047 12.9889 149.151 14.089 149.146L101.135 148.747C102.293 148.742 103.235 149.675 103.24 150.832Z" fill="#FFA742"/>
<path d="M16.6124 154.1C15.8183 154.1 15.1728 153.455 15.1728 152.661C15.1728 151.867 15.8183 151.221 16.6124 151.221C17.4058 151.221 18.052 151.867 18.052 152.661C18.052 153.454 17.4058 154.1 16.6124 154.1ZM16.6124 151.676C16.0687 151.676 15.6274 152.118 15.6274 152.661C15.6274 153.204 16.0687 153.646 16.6124 153.646C17.1555 153.646 17.5974 153.204 17.5974 152.661C17.5974 152.117 17.1555 151.676 16.6124 151.676Z" fill="white"/>
<path d="M21.674 154.1C20.8806 154.1 20.2344 153.455 20.2344 152.661C20.2344 151.867 20.8806 151.221 21.674 151.221C22.4681 151.221 23.1136 151.867 23.1136 152.661C23.1136 153.454 22.4681 154.1 21.674 154.1ZM21.674 151.676C21.1309 151.676 20.689 152.118 20.689 152.661C20.689 153.204 21.1309 153.646 21.674 153.646C22.2177 153.646 22.659 153.204 22.659 152.661C22.659 152.117 22.2177 151.676 21.674 151.676Z" fill="white"/>
<path d="M26.5966 154.1C25.8025 154.1 25.157 153.455 25.157 152.661C25.157 151.867 25.8025 151.221 26.5966 151.221C27.39 151.221 28.0362 151.867 28.0362 152.661C28.0362 153.454 27.39 154.1 26.5966 154.1ZM26.5966 151.676C26.0535 151.676 25.6116 152.118 25.6116 152.661C25.6116 153.204 26.0535 153.646 26.5966 153.646C27.1397 153.646 27.5816 153.204 27.5816 152.661C27.5816 152.117 27.1397 151.676 26.5966 151.676Z" fill="white"/>
<path d="M56.2576 182.557H25.0788C24.9115 182.557 24.7758 182.421 24.7758 182.253C24.7758 182.086 24.9115 181.95 25.0788 181.95H56.2576C56.4249 181.95 56.5607 182.086 56.5607 182.253C56.5607 182.421 56.4255 182.557 56.2576 182.557Z" fill="#599AF2"/>
<path d="M65.1856 169.079H25.0783C24.911 169.079 24.7753 168.943 24.7753 168.776C24.7753 168.609 24.911 168.473 25.0783 168.473H65.1856C65.3529 168.473 65.4887 168.609 65.4887 168.776C65.4887 168.943 65.3529 169.079 65.1856 169.079Z" fill="#708CF5"/>
<path opacity="0.69" d="M78.5548 169.079H70.2307C70.0634 169.079 69.9276 168.943 69.9276 168.776C69.9276 168.609 70.0634 168.473 70.2307 168.473H78.5548C78.7221 168.473 78.8579 168.609 78.8579 168.776C78.8579 168.943 78.7228 169.079 78.5548 169.079Z" fill="#353148"/>
<path d="M65.1856 197.318H25.0783C24.911 197.318 24.7753 197.183 24.7753 197.015C24.7753 196.848 24.911 196.712 25.0783 196.712H65.1856C65.3529 196.712 65.4887 196.848 65.4887 197.015C65.4887 197.183 65.3529 197.318 65.1856 197.318Z" fill="#708CF5"/>
<path d="M78.5548 197.318H70.2307C70.0634 197.318 69.9276 197.183 69.9276 197.015C69.9276 196.848 70.0634 196.712 70.2307 196.712H78.5548C78.7221 196.712 78.8579 196.848 78.8579 197.015C78.8579 197.183 78.7228 197.318 78.5548 197.318Z" fill="#599AF2"/>
<path d="M78.5548 182.556H70.2307C70.0634 182.556 69.9276 182.421 69.9276 182.253C69.9276 182.086 70.0634 181.95 70.2307 181.95H78.5548C78.7221 181.95 78.8579 182.086 78.8579 182.253C78.8579 182.421 78.7228 182.556 78.5548 182.556Z" fill="#708CF5"/>
<path opacity="0.69" d="M92.2599 182.556H83.9364C83.7691 182.556 83.6333 182.421 83.6333 182.253C83.6333 182.086 83.7691 181.95 83.9364 181.95H92.2599C92.4272 181.95 92.563 182.086 92.563 182.253C92.563 182.421 92.4272 182.556 92.2599 182.556Z" fill="#353148"/>
<path opacity="0.69" d="M51.8165 175.711H25.0783C24.911 175.711 24.7753 175.575 24.7753 175.408C24.7753 175.24 24.911 175.105 25.0783 175.105H51.8165C51.9838 175.105 52.1196 175.24 52.1196 175.408C52.1196 175.575 51.9838 175.711 51.8165 175.711Z" fill="#353148"/>
<path d="M68.4646 175.711H56.7351C56.5678 175.711 56.432 175.575 56.432 175.408C56.432 175.24 56.5678 175.105 56.7351 175.105H68.4646C68.6318 175.105 68.7676 175.24 68.7676 175.408C68.7676 175.575 68.6318 175.711 68.4646 175.711Z" fill="#F7A9B4"/>
<path opacity="0.69" d="M68.4647 189.913H41.7265C41.5592 189.913 41.4235 189.778 41.4235 189.61C41.4235 189.443 41.5592 189.307 41.7265 189.307H68.4647C68.632 189.307 68.7678 189.443 68.7678 189.61C68.7678 189.778 68.632 189.913 68.4647 189.913Z" fill="#353148"/>
<path d="M36.8072 189.913H25.0777C24.9104 189.913 24.7747 189.778 24.7747 189.61C24.7747 189.443 24.9104 189.307 25.0777 189.307H36.8072C36.9745 189.307 37.1103 189.443 37.1103 189.61C37.1103 189.778 36.9751 189.913 36.8072 189.913Z" fill="#F7A9B4"/>
<path d="M65.1856 206.839H25.0783C24.911 206.839 24.7753 206.703 24.7753 206.535C24.7753 206.368 24.911 206.232 25.0783 206.232H65.1856C65.3529 206.232 65.4887 206.368 65.4887 206.535C65.4887 206.703 65.3529 206.839 65.1856 206.839Z" fill="#F7A9B4"/>
<path opacity="0.69" d="M78.5548 206.839H70.2307C70.0634 206.839 69.9276 206.703 69.9276 206.535C69.9276 206.368 70.0634 206.232 70.2307 206.232H78.5548C78.7221 206.232 78.8579 206.368 78.8579 206.535C78.8579 206.703 78.7228 206.839 78.5548 206.839Z" fill="#353148"/>
<path d="M65.1856 220.316H25.0783C24.911 220.316 24.7753 220.18 24.7753 220.013C24.7753 219.846 24.911 219.71 25.0783 219.71H65.1856C65.3529 219.71 65.4887 219.846 65.4887 220.013C65.4887 220.18 65.3529 220.316 65.1856 220.316Z" fill="#599AF2"/>
<path d="M78.5548 220.316H70.2307C70.0634 220.316 69.9276 220.18 69.9276 220.013C69.9276 219.846 70.0634 219.71 70.2307 219.71H78.5548C78.7221 219.71 78.8579 219.846 78.8579 220.013C78.8579 220.18 78.7228 220.316 78.5548 220.316Z" fill="#708CF5"/>
<path opacity="0.69" d="M92.2599 220.316H83.9364C83.7691 220.316 83.6333 220.18 83.6333 220.013C83.6333 219.846 83.7691 219.71 83.9364 219.71H92.2599C92.4272 219.71 92.563 219.846 92.563 220.013C92.563 220.18 92.4272 220.316 92.2599 220.316Z" fill="#353148"/>
<path opacity="0.69" d="M51.8165 213.47H25.0783C24.911 213.47 24.7753 213.334 24.7753 213.167C24.7753 212.999 24.911 212.864 25.0783 212.864H51.8165C51.9838 212.864 52.1196 212.999 52.1196 213.167C52.1196 213.334 51.9838 213.47 51.8165 213.47Z" fill="#353148"/>
<path d="M68.4646 213.47H56.7351C56.5678 213.47 56.432 213.334 56.432 213.167C56.432 212.999 56.5678 212.864 56.7351 212.864H68.4646C68.6318 212.864 68.7676 212.999 68.7676 213.167C68.7676 213.334 68.6318 213.47 68.4646 213.47Z" fill="#F7A9B4"/>
<path opacity="0.69" d="M68.4647 227.672H41.7265C41.5592 227.672 41.4235 227.537 41.4235 227.369C41.4235 227.202 41.5592 227.066 41.7265 227.066H68.4647C68.632 227.066 68.7678 227.202 68.7678 227.369C68.7678 227.537 68.632 227.672 68.4647 227.672Z" fill="#353148"/>
<path d="M36.8072 227.672H25.0777C24.9104 227.672 24.7747 227.537 24.7747 227.369C24.7747 227.202 24.9104 227.066 25.0777 227.066H36.8072C36.9745 227.066 37.1103 227.202 37.1103 227.369C37.1103 227.537 36.9751 227.672 36.8072 227.672Z" fill="#F7A9B4"/>
<path d="M67.012 239.609H122.492C124.041 239.609 125.296 238.354 125.296 236.805V215.232C125.296 213.684 124.041 212.428 122.492 212.428H67.012C65.4633 212.428 64.2079 213.684 64.2079 215.232V236.805C64.2079 238.354 65.4633 239.609 67.012 239.609Z" fill="#FFA742"/>
<path d="M110.973 226.131H91.6549C91.4876 226.131 91.3519 225.995 91.3519 225.828C91.3519 225.661 91.4876 225.525 91.6549 225.525H110.973C111.141 225.525 111.276 225.661 111.276 225.828C111.276 225.995 111.141 226.131 110.973 226.131Z" fill="white"/>
<path d="M97.769 220.036H78.4507C78.2834 220.036 78.1476 219.901 78.1476 219.733C78.1476 219.566 78.2834 219.43 78.4507 219.43H97.769C97.9363 219.43 98.0721 219.566 98.0721 219.733C98.0721 219.901 97.9363 220.036 97.769 220.036Z" fill="white"/>
<path d="M116.052 220.036H103.371C103.203 220.036 103.068 219.901 103.068 219.733C103.068 219.566 103.203 219.43 103.371 219.43H116.052C116.219 219.43 116.355 219.566 116.355 219.733C116.355 219.901 116.219 220.036 116.052 220.036Z" fill="#9DD3FF"/>
<path d="M97.769 231.974H78.4507C78.2834 231.974 78.1476 231.838 78.1476 231.671C78.1476 231.503 78.2834 231.368 78.4507 231.368H97.769C97.9363 231.368 98.0721 231.503 98.0721 231.671C98.0721 231.838 97.9363 231.974 97.769 231.974Z" fill="white"/>
<path d="M111.724 231.974H103.371C103.203 231.974 103.068 231.838 103.068 231.671C103.068 231.503 103.203 231.368 103.371 231.368H111.724C111.891 231.368 112.027 231.503 112.027 231.671C112.027 231.838 111.891 231.974 111.724 231.974Z" fill="#9DD3FF"/>
<path d="M85.7153 226.131H77.9191C77.7518 226.131 77.616 225.995 77.616 225.828C77.616 225.661 77.7518 225.525 77.9191 225.525H85.7153C85.8826 225.525 86.0184 225.661 86.0184 225.828C86.0184 225.995 85.8826 226.131 85.7153 226.131Z" fill="#9DD3FF"/>
<path d="M70.8294 218.943C70.7518 218.943 70.6742 218.913 70.6148 218.854L67.8198 216.059C67.7017 215.941 67.7017 215.749 67.8198 215.631C67.938 215.513 68.1302 215.513 68.2484 215.631L71.0433 218.426C71.1615 218.544 71.1615 218.736 71.0433 218.854C70.9845 218.913 70.9069 218.943 70.8294 218.943Z" fill="white"/>
<path d="M68.0344 218.943C67.9568 218.943 67.8793 218.913 67.8198 218.854C67.7017 218.736 67.7017 218.544 67.8198 218.426L70.6148 215.631C70.733 215.513 70.9251 215.513 71.0433 215.631C71.1615 215.749 71.1615 215.941 71.0433 216.059L68.2484 218.854C68.1896 218.913 68.112 218.943 68.0344 218.943Z" fill="white"/>
<path d="M208.632 86.8662H149.52C148.011 86.8662 146.789 85.8328 146.789 84.558V45.7285V41.3594C146.789 40.0847 148.011 39.0512 149.52 39.0512H208.632C210.141 39.0512 211.363 40.0847 211.363 41.3594V84.558C211.363 85.8328 210.14 86.8662 208.632 86.8662Z" fill="white"/>
<path d="M208.632 87.1693H149.52C147.846 87.1693 146.485 86.0377 146.485 84.646V47.4045L211.667 47.1202V84.646C211.667 86.0377 210.305 87.1693 208.632 87.1693ZM147.091 48.0088V84.6466C147.091 85.7037 148.181 86.5638 149.52 86.5638H208.632C209.971 86.5638 211.06 85.7037 211.06 84.6466V47.7294L147.091 48.0088Z" fill="#121936"/>
<path d="M146.439 47.9931V41.3195C146.439 40.0666 147.673 39.0513 149.195 39.0513H208.86C210.382 39.0513 211.617 40.0666 211.617 41.3195V47.7015" fill="#4268FF"/>
<path d="M151.448 44.9769C150.722 44.9769 150.13 44.3641 150.13 43.6113C150.13 42.8578 150.722 42.2456 151.448 42.2456C152.175 42.2456 152.767 42.8584 152.767 43.6113C152.767 44.3647 152.175 44.9769 151.448 44.9769ZM151.448 42.8518C151.056 42.8518 150.736 43.193 150.736 43.6113C150.736 44.0295 151.056 44.3708 151.448 44.3708C151.841 44.3708 152.161 44.0301 152.161 43.6113C152.161 43.1924 151.841 42.8518 151.448 42.8518Z" fill="white"/>
<path d="M155.258 44.9769C154.531 44.9769 153.939 44.3641 153.939 43.6113C153.939 42.8578 154.531 42.2456 155.258 42.2456C155.984 42.2456 156.576 42.8584 156.576 43.6113C156.576 44.3647 155.985 44.9769 155.258 44.9769ZM155.258 42.8518C154.865 42.8518 154.545 43.193 154.545 43.6113C154.545 44.0295 154.865 44.3708 155.258 44.3708C155.65 44.3708 155.97 44.0301 155.97 43.6113C155.97 43.1924 155.65 42.8518 155.258 42.8518Z" fill="white"/>
<path d="M158.994 44.9769C158.268 44.9769 157.676 44.3641 157.676 43.6113C157.676 42.8578 158.268 42.2456 158.994 42.2456C159.721 42.2456 160.313 42.8584 160.313 43.6113C160.313 44.3647 159.722 44.9769 158.994 44.9769ZM158.994 42.8518C158.602 42.8518 158.282 43.193 158.282 43.6113C158.282 44.0295 158.602 44.3708 158.994 44.3708C159.387 44.3708 159.707 44.0301 159.707 43.6113C159.707 43.1924 159.387 42.8518 158.994 42.8518Z" fill="white"/>
<g opacity="0.31">
<path d="M206.616 83.9047H151.536C150.359 83.9047 149.401 82.947 149.401 81.7698V51.2135C149.401 50.0364 150.359 49.0787 151.536 49.0787H206.616C207.793 49.0787 208.75 50.0364 208.75 51.2135V81.7698C208.75 82.947 207.793 83.9047 206.616 83.9047ZM151.536 49.6848C150.693 49.6848 150.007 50.3704 150.007 51.2135V81.7698C150.007 82.613 150.693 83.2985 151.536 83.2985H206.616C207.459 83.2985 208.144 82.613 208.144 81.7698V51.2135C208.144 50.3704 207.458 49.6848 206.616 49.6848H151.536Z" fill="#103463"/>
<path opacity="0.69" d="M171.224 78.8907H156.053V61.541H171.224V78.8907ZM156.659 78.2845H170.618V62.1472H156.659V78.2845Z" fill="#353148"/>
<path d="M170.921 60.0953H156.356V54.1866H156.69H170.921V60.0953Z" fill="#708CF5"/>
<path d="M178.595 67.7194V54.1866H201.903V54.4976V67.7194H178.595Z" fill="#708CF5"/>
<path d="M170.852 60.0953H156.286V54.1866H156.62H170.852V60.0953Z" fill="#F9CAD0"/>
<path d="M178.525 67.7194V54.1866H201.833V54.4976V67.7194H178.525Z" fill="#F9CAD0"/>
<path opacity="0.69" d="M202.206 79.6587H178.292V71.4285H202.206V79.6587ZM178.898 79.0525H201.6V72.0346H178.898V79.0525Z" fill="#353148"/>
</g>
<path d="M170.851 60.0953H156.286V54.1866H156.62H170.851V60.0953Z" fill="#F9CAD0"/>
<path d="M178.525 67.7194V54.1866H201.833V54.4976V67.7194H178.525Z" fill="#F9CAD0"/>
<path d="M183.252 62.5453C182.199 62.5453 181.342 61.6888 181.342 60.636C181.342 59.5831 182.199 58.7266 183.252 58.7266C184.305 58.7266 185.162 59.5831 185.162 60.636C185.162 61.6888 184.305 62.5453 183.252 62.5453ZM183.252 59.1806C182.45 59.1806 181.797 59.8334 181.797 60.6354C181.797 61.4379 182.45 62.0901 183.252 62.0901C184.054 62.0901 184.707 61.4373 184.707 60.6354C184.707 59.8334 184.054 59.1806 183.252 59.1806Z" fill="white"/>
<path d="M190.276 62.5453C189.223 62.5453 188.367 61.6888 188.367 60.636C188.367 59.5831 189.223 58.7266 190.276 58.7266C191.329 58.7266 192.186 59.5831 192.186 60.636C192.186 61.6888 191.329 62.5453 190.276 62.5453ZM190.276 59.1806C189.474 59.1806 188.821 59.8334 188.821 60.6354C188.821 61.4379 189.474 62.0901 190.276 62.0901C191.078 62.0901 191.731 61.4373 191.731 60.6354C191.731 59.8334 191.078 59.1806 190.276 59.1806Z" fill="white"/>
<path d="M197.106 62.5453C196.054 62.5453 195.197 61.6888 195.197 60.636C195.197 59.5831 196.054 58.7266 197.106 58.7266C198.159 58.7266 199.016 59.5831 199.016 60.636C199.016 61.6888 198.16 62.5453 197.106 62.5453ZM197.106 59.1806C196.305 59.1806 195.652 59.8334 195.652 60.6354C195.652 61.4379 196.305 62.0901 197.106 62.0901C197.908 62.0901 198.561 61.4373 198.561 60.6354C198.562 59.8334 197.909 59.1806 197.106 59.1806Z" fill="white"/>
<path d="M118.83 195.366L116.859 197.567L105.696 210.418C104.957 211.27 103.558 210.751 103.552 209.624L103.384 181.34C103.38 180.585 103.997 179.973 104.752 179.983L117.997 179.759L118.83 195.366Z" fill="#FFB969"/>
<path d="M105.576 181.34C105.571 180.585 106.188 179.973 106.943 179.983L117.998 179.796L117.997 179.759L104.752 179.983C103.997 179.973 103.38 180.584 103.384 181.34L103.552 209.624C103.559 210.751 104.958 211.27 105.697 210.418L105.897 210.188C105.808 210.023 105.745 209.839 105.743 209.624L105.576 181.34Z" fill="#121936"/>
<path d="M105.82 206.615C105.655 206.615 105.519 206.482 105.517 206.316L105.228 179.997C105.226 179.83 105.361 179.692 105.528 179.691C105.529 179.691 105.53 179.691 105.531 179.691C105.697 179.691 105.833 179.825 105.834 179.99L106.123 206.309C106.125 206.476 105.991 206.614 105.824 206.615C105.823 206.615 105.822 206.615 105.82 206.615Z" fill="white"/>
<path d="M112.059 188.482C111.913 188.482 111.765 188.469 111.616 188.444C110.183 188.201 109.215 186.838 109.458 185.403C109.575 184.709 109.956 184.103 110.531 183.695C111.105 183.287 111.802 183.129 112.498 183.245C113.932 183.488 114.9 184.852 114.658 186.286C114.439 187.571 113.321 188.482 112.059 188.482ZM112.053 183.814C111.636 183.814 111.229 183.943 110.881 184.189C110.439 184.503 110.146 184.971 110.055 185.505C109.868 186.61 110.614 187.66 111.718 187.847C112.818 188.035 113.872 187.288 114.059 186.184C114.149 185.65 114.026 185.111 113.713 184.669C113.398 184.228 112.931 183.934 112.396 183.843C112.282 183.824 112.166 183.814 112.053 183.814Z" fill="white"/>
<path d="M116.859 197.87C116.788 197.87 116.716 197.845 116.659 197.794L114.028 195.478C113.902 195.367 113.89 195.176 114.001 195.051C114.112 194.926 114.303 194.912 114.428 195.024L117.059 197.34C117.185 197.451 117.197 197.642 117.086 197.767C117.026 197.835 116.942 197.87 116.859 197.87Z" fill="white"/>
<path d="M115.064 199.849C114.993 199.849 114.922 199.824 114.864 199.773L112.233 197.457C112.107 197.346 112.095 197.155 112.206 197.03C112.316 196.905 112.508 196.891 112.633 197.003L115.264 199.319C115.39 199.43 115.402 199.621 115.291 199.746C115.231 199.815 115.148 199.849 115.064 199.849Z" fill="white"/>
<path d="M113.298 201.714C113.227 201.714 113.156 201.689 113.098 201.638L110.467 199.322C110.341 199.211 110.329 199.02 110.44 198.894C110.55 198.769 110.742 198.756 110.867 198.867L113.498 201.183C113.624 201.294 113.636 201.485 113.526 201.611C113.466 201.679 113.382 201.714 113.298 201.714Z" fill="white"/>
<path d="M119.791 196.03C118.662 196.03 117.44 195.91 117.186 195.436C117.132 195.334 117.131 195.212 117.183 195.099C117.471 194.487 120.718 193.05 121.223 192.946C121.618 192.865 122.023 192.942 122.361 193.165C122.699 193.387 122.93 193.728 123.011 194.124C123.179 194.942 122.65 195.744 121.833 195.912C121.716 195.936 120.79 196.03 119.791 196.03ZM117.869 195.237C118.539 195.487 120.961 195.473 121.711 195.319C122.202 195.218 122.518 194.736 122.417 194.246C122.369 194.008 122.23 193.804 122.028 193.671C121.825 193.537 121.582 193.491 121.345 193.539C120.793 193.654 118.501 194.76 117.869 195.237Z" fill="white"/>
<path d="M119.524 200.215C119.407 200.215 119.287 200.202 119.17 200.173C118.777 200.079 118.443 199.838 118.232 199.493C118.062 199.217 116.693 195.493 117.304 195.104C117.392 195.046 117.546 194.988 117.768 195.041C118.682 195.25 120.501 197.402 120.812 197.908C121.024 198.252 121.089 198.659 120.995 199.052C120.901 199.446 120.659 199.779 120.315 199.991C120.073 200.139 119.801 200.215 119.524 200.215ZM117.726 195.652C117.787 196.363 118.445 198.682 118.748 199.176C118.876 199.382 119.075 199.527 119.311 199.584C119.55 199.641 119.791 199.6 119.998 199.474C120.424 199.211 120.558 198.651 120.295 198.225C119.9 197.581 118.319 195.888 117.726 195.652Z" fill="white"/>
<path d="M165.69 134.955L144.059 119.82C143.894 119.713 130.701 119.016 130.701 119.016C130.527 118.984 130.354 118.985 130.188 119.011L103.847 113.279L102.321 118.677C100.826 123.964 100.825 129.562 102.318 134.849L113.906 175.891L113.554 176.135C113.05 176.488 112.81 177.11 112.946 177.709L118.357 201.528C118.604 202.617 119.907 203.072 120.778 202.373L121.272 201.977L127.931 225.562C128.051 225.99 128.485 226.249 128.919 226.153L150.072 221.499C150.965 221.302 151.535 220.426 151.354 219.531L144.099 183.669L167.243 165.107C177.15 157.16 176.362 141.842 165.69 134.955ZM139.014 158.539L137.412 150.618L146.176 153.589L139.014 158.539Z" fill="#121936"/>
<path d="M144.668 186.787C144.526 186.787 144.398 186.687 144.371 186.542L134.521 135.46C134.49 135.295 134.597 135.137 134.762 135.105C134.924 135.074 135.085 135.18 135.117 135.345L144.966 186.427C144.998 186.591 144.891 186.75 144.726 186.782C144.706 186.786 144.687 186.787 144.668 186.787Z" fill="white"/>
<path d="M152.049 155.924C152.016 155.924 151.983 155.919 151.951 155.908L137.678 151.028C137.52 150.974 137.435 150.802 137.489 150.643C137.543 150.485 137.716 150.4 137.874 150.454L152.147 155.334C152.305 155.388 152.389 155.561 152.335 155.719C152.293 155.845 152.175 155.924 152.049 155.924Z" fill="white"/>
<path d="M146.145 222.407L148.645 223.983L163.181 232.841C164.144 233.427 163.867 234.893 162.756 235.088L134.897 239.979C134.153 240.11 133.447 239.604 133.33 238.858L130.897 225.837L146.145 222.407Z" fill="#FFB969"/>
<path d="M163.181 232.842L162.676 232.533C162.503 232.763 162.256 232.943 161.922 233.002L134.063 237.894C133.72 237.954 133.388 237.874 133.115 237.703L133.331 238.858C133.447 239.605 134.154 240.11 134.898 239.98L162.757 235.088C163.867 234.893 164.143 233.428 163.181 232.842Z" fill="#121936"/>
<path d="M133.211 238.391C133.067 238.391 132.94 238.289 132.913 238.142C132.883 237.978 132.993 237.82 133.157 237.79L159.058 233.106C159.218 233.08 159.38 233.185 159.41 233.351C159.44 233.515 159.33 233.673 159.166 233.703L133.266 238.387C133.247 238.39 133.229 238.391 133.211 238.391Z" fill="white"/>
<path d="M137.89 233.313C136.437 233.313 135.253 232.129 135.253 230.675C135.253 229.222 136.436 228.038 137.89 228.038C139.344 228.038 140.527 229.221 140.527 230.675C140.527 232.129 139.344 233.313 137.89 233.313ZM137.89 228.645C136.77 228.645 135.859 229.556 135.859 230.676C135.859 231.796 136.77 232.707 137.89 232.707C139.01 232.707 139.921 231.796 139.921 230.676C139.921 229.556 139.01 228.645 137.89 228.645Z" fill="white"/>
<path d="M146.8 227.267C146.745 227.267 146.69 227.253 146.64 227.222C146.498 227.134 146.454 226.947 146.542 226.805L148.387 223.824C148.475 223.681 148.661 223.638 148.804 223.726C148.946 223.814 148.99 224 148.902 224.143L147.057 227.124C147 227.216 146.901 227.267 146.8 227.267Z" fill="white"/>
<path d="M149.052 228.706C148.998 228.706 148.942 228.691 148.893 228.66C148.75 228.572 148.706 228.386 148.795 228.243L150.639 225.262C150.727 225.119 150.914 225.076 151.056 225.164C151.198 225.252 151.243 225.439 151.154 225.581L149.31 228.562C149.253 228.655 149.153 228.706 149.052 228.706Z" fill="white"/>
<path d="M151.185 230.136C151.13 230.136 151.075 230.121 151.025 230.09C150.883 230.002 150.839 229.816 150.927 229.673L152.772 226.692C152.859 226.55 153.046 226.506 153.189 226.594C153.331 226.682 153.375 226.869 153.287 227.011L151.442 229.992C151.386 230.085 151.286 230.136 151.185 230.136Z" fill="white"/>
<path d="M146.267 224.091C146.23 224.091 146.194 224.086 146.156 224.076C145.504 223.895 143.546 220.934 143.36 220.454C143.056 219.676 143.443 218.797 144.222 218.493C144.599 218.346 145.01 218.356 145.38 218.519C145.75 218.683 146.035 218.98 146.181 219.357C146.273 219.593 147.292 223.397 146.488 224.017C146.425 224.065 146.348 224.091 146.267 224.091ZM144.769 218.996C144.66 218.996 144.549 219.016 144.442 219.058C143.975 219.24 143.743 219.767 143.924 220.234C144.129 220.759 145.602 222.834 146.179 223.378C146.315 222.676 145.894 220.289 145.617 219.576C145.477 219.216 145.133 218.996 144.769 218.996Z" fill="white"/>
<path d="M146.431 224.048C146.299 224.048 146.199 224.02 146.141 223.956C146.07 223.878 145.989 223.737 146.002 223.509C146.055 222.574 147.874 220.421 148.32 220.03C148.948 219.481 149.907 219.543 150.457 220.171C151.007 220.799 150.944 221.758 150.315 222.307C150.1 222.496 147.403 224.048 146.431 224.048ZM149.318 220.261C149.105 220.261 148.892 220.335 148.72 220.485C148.152 220.982 146.746 222.824 146.613 223.448C147.304 223.269 149.48 222.233 149.916 221.852C150.098 221.692 150.207 221.47 150.224 221.228C150.24 220.986 150.161 220.753 150.001 220.57C149.822 220.366 149.57 220.261 149.318 220.261Z" fill="white"/>
<path d="M144.151 47.795C143.79 47.1821 143.44 46.6257 143.114 46.1299C141.982 44.4066 140.554 42.5852 140.658 40.6407C141.319 28.3784 128.4 24.6809 118.879 27.1061C118.755 26.7727 118.611 26.4405 118.436 26.1132C116.878 23.1959 113.851 21.7732 111.673 22.9358C110.559 23.5311 109.886 24.6894 109.701 26.0678C107.456 26.1278 105.518 27.1515 104.721 28.9512C103.639 31.3915 105.013 34.4283 107.824 36.2031C106.359 37.4881 104.668 38.578 102.66 39.6339L102.168 39.8927C95.4765 43.4107 94.0381 51.5961 97.4816 56.1161L98.4721 57.4302C98.6254 57.6333 98.7861 57.8303 98.9528 58.0218C99.5607 58.7183 99.7583 59.5911 99.4613 60.3997C98.9097 61.9011 98.6557 63.5262 98.7945 65.247C99.3116 71.6467 105.191 77.1256 112.691 78.1379C117.893 78.8398 122.765 77.3766 126.143 74.581C130.181 71.2394 134.798 68.445 139.515 65.8065C143.37 63.6498 146.028 60.0609 146.396 55.807C146.646 52.9157 145.792 50.1498 144.151 47.795Z" fill="#121936"/>
<path d="M140.39 52.5347L139.404 42.9788C137.719 40.3972 133.336 39.7244 131.705 37.8514C130.403 36.3549 129.884 36.0615 129.812 34.7801C129.185 41.1537 124.579 45.918 119.51 45.4555L119.518 45.5264L117.862 45.584C115.63 45.6616 113.867 47.551 113.945 49.7828L113.948 49.8755C114.025 52.1073 115.915 53.87 118.146 53.7924L119.399 53.7488L117.468 66.1553C117.036 69.9013 132.603 70.7517 133.035 67.0057L133.576 62.2978C137.886 61.1995 140.86 57.091 140.39 52.5347Z" fill="#FF9C9C"/>
<path d="M117.579 51.1094C117.481 51.1094 117.384 51.0609 117.325 50.9718C117.235 50.8318 117.274 50.6439 117.414 50.5524L118.443 49.882L117.263 48.5697C117.151 48.4448 117.161 48.2533 117.286 48.1411C117.41 48.0296 117.602 48.0393 117.714 48.1642L119.131 49.7401C119.19 49.8062 119.217 49.8947 119.206 49.982C119.194 50.0699 119.145 50.1481 119.071 50.1966L117.745 51.0603C117.694 51.093 117.636 51.1094 117.579 51.1094Z" fill="#FFB969"/>
<path d="M140.08 47.2203C140.171 47.6452 139.9 48.0629 139.475 48.1538C139.05 48.2441 138.633 47.9732 138.542 47.5483C138.452 47.1234 138.723 46.7057 139.147 46.6148C139.572 46.5245 139.989 46.7954 140.08 47.2203Z" fill="#121936"/>
<path d="M133.672 47.6725C133.65 48.1471 133.249 48.515 132.774 48.4944C132.299 48.4732 131.931 48.0714 131.952 47.5967C131.973 47.1221 132.375 46.7542 132.85 46.7748C133.325 46.7954 133.693 47.1973 133.672 47.6725Z" fill="#121936"/>
<path d="M132.31 50.9444C132.31 50.9444 132.085 53.7381 135.828 53.7309L132.31 50.9444Z" fill="#FF9C9C"/>
<path d="M135.814 54.0339C134.44 54.0339 133.409 53.6715 132.748 52.9574C131.925 52.067 132.003 50.9668 132.007 50.9202C132.02 50.7529 132.171 50.6292 132.333 50.642C132.499 50.6553 132.624 50.8008 132.611 50.9675C132.61 50.9802 132.556 51.8627 133.199 52.5519C133.741 53.1332 134.621 53.4278 135.814 53.4278C135.819 53.4278 135.823 53.4278 135.828 53.4278H135.828C135.995 53.4278 136.131 53.563 136.131 53.7303C136.132 53.9024 135.982 54.0394 135.814 54.0339Z" fill="#FFB969"/>
<path d="M134.183 58.3376C134.148 58.348 134.11 58.3467 134.073 58.3322C134.036 58.317 133.159 57.9637 132.537 58.6638C132.477 58.731 132.374 58.7371 132.306 58.6777C132.239 58.6177 132.233 58.514 132.293 58.4468C133.073 57.5691 134.189 58.0261 134.201 58.0309C134.284 58.0661 134.322 58.1619 134.287 58.2449C134.268 58.291 134.229 58.3243 134.183 58.3376Z" fill="#FFB969"/>
<path d="M129.683 44.6182C129.993 44.6879 130.358 44.5812 130.716 44.4993C131.075 44.409 131.438 44.3266 131.756 44.2666C132.074 44.206 132.442 44.1496 132.809 44.1023C133.173 44.0478 133.553 44.0126 133.812 43.835C134.063 43.6677 134.111 43.3155 133.71 42.97C133.331 42.6318 132.456 42.3518 131.402 42.5488C130.35 42.7506 129.65 43.3295 129.433 43.7811C129.201 44.2472 129.384 44.5551 129.683 44.6182Z" fill="#121936"/>
<path d="M140.818 43.9815C140.605 44.0512 140.35 43.9858 140.101 43.9391C139.851 43.8857 139.599 43.8391 139.378 43.8082C139.157 43.7766 138.901 43.75 138.647 43.7312C138.395 43.7063 138.131 43.6972 137.949 43.5712C137.772 43.4524 137.731 43.179 138 42.888C138.255 42.6038 138.854 42.3413 139.586 42.4443C140.317 42.551 140.813 42.9705 140.972 43.3142C141.143 43.6675 141.022 43.9179 140.818 43.9815Z" fill="#121936"/>
<path d="M131.952 48.5635C131.952 48.5635 132.703 47.9877 133.469 48.6229L131.952 48.5635Z" fill="#FF9C9C"/>
<path d="M133.469 48.926C133.401 48.926 133.332 48.903 133.275 48.8563C132.701 48.3805 132.158 48.7872 132.136 48.8048C132.003 48.9054 131.814 48.8818 131.712 48.7484C131.61 48.6157 131.635 48.4254 131.767 48.3235C132.093 48.0738 132.91 47.7653 133.663 48.3902C133.791 48.4969 133.809 48.6878 133.702 48.8169C133.642 48.8891 133.556 48.926 133.469 48.926Z" fill="#FFB969"/>
<path d="M138.891 48.0502C138.891 48.0502 139.356 47.7168 139.787 48.1514L138.891 48.0502Z" fill="#FF9C9C"/>
<path d="M139.787 48.4544C139.708 48.4544 139.63 48.4247 139.571 48.3647C139.347 48.1374 139.126 48.2574 139.063 48.2986C138.927 48.3919 138.738 48.358 138.644 48.2216C138.549 48.0858 138.58 47.9004 138.714 47.804C138.947 47.6367 139.516 47.4482 140.002 47.9379C140.12 48.0567 140.119 48.2489 140 48.3665C139.941 48.4253 139.863 48.4544 139.787 48.4544Z" fill="#FFB969"/>
<path d="M133.574 62.3096C133.574 62.3096 126.168 62.877 124.699 60.0597C124.699 60.0597 124.538 64.7694 133.092 66.4981L133.574 62.3096Z" fill="#FFB969"/>
<path d="M136.447 45.0041L136.367 46.831C136.337 47.5281 136.877 48.1178 137.574 48.1482C137.923 48.1633 138.193 48.4585 138.177 48.807C138.128 49.9339 137.174 50.8079 136.047 50.7582L135.307 50.7261" fill="#FF9C9C"/>
<path d="M136.139 51.0631C136.104 51.0631 136.069 51.0625 136.034 51.0607L135.293 51.0286C135.126 51.0213 134.996 50.8795 135.004 50.7128C135.011 50.5461 135.156 50.4019 135.32 50.4237L136.06 50.4558C136.517 50.4782 136.969 50.3146 137.311 50.0006C137.654 49.6866 137.854 49.2581 137.874 48.7938C137.878 48.7059 137.847 48.6222 137.788 48.5574C137.728 48.4925 137.648 48.4549 137.56 48.4513C137.142 48.4331 136.756 48.2531 136.474 47.9445C136.191 47.636 136.045 47.236 136.064 46.8177L136.143 44.9908C136.151 44.8241 136.292 44.6841 136.459 44.7011C136.626 44.7083 136.756 44.8502 136.749 45.0169L136.669 46.8438C136.657 47.1002 136.747 47.3451 136.92 47.5342C137.094 47.7233 137.33 47.8336 137.586 47.8451C137.836 47.856 138.066 47.9633 138.234 48.1476C138.403 48.3319 138.49 48.5707 138.479 48.8198C138.451 49.446 138.182 50.0236 137.72 50.4467C137.285 50.8468 136.727 51.0631 136.139 51.0631Z" fill="#FFB969"/>
<path d="M117.431 55.5124C117.394 55.5124 117.356 55.5112 117.317 55.5088C116.83 55.4791 116.384 55.2615 116.061 54.896C115.738 54.5305 115.576 54.0613 115.606 53.574C115.668 52.569 116.552 51.8028 117.541 51.8634C118.028 51.8931 118.475 52.1107 118.798 52.4763C119.121 52.8418 119.283 53.3109 119.253 53.7982C119.194 54.765 118.387 55.5124 117.431 55.5124ZM116.211 53.6116C116.191 53.9371 116.299 54.2504 116.515 54.4947C116.731 54.739 117.029 54.8845 117.355 54.9045C118.015 54.9433 118.606 54.4335 118.649 53.7619C118.669 53.4364 118.56 53.123 118.344 52.8793C118.129 52.6351 117.83 52.4896 117.504 52.4696C116.816 52.4272 116.252 52.94 116.211 53.6116Z" fill="white"/>
<path d="M178.099 71.4623L174.234 68.4892L176.739 61.7216C177.042 60.9039 176.725 59.9862 175.982 59.5292L175.9 59.4783C175.569 59.2752 175.135 59.3746 174.926 59.7013L168.877 70.8465L168.757 70.7234L167.415 67.6224C167.143 66.9938 166.503 66.6065 165.819 66.658L165.551 66.678C165.079 66.7138 164.756 67.1714 164.882 67.6279L166.082 71.9891L166.572 75.1707C166.64 75.6108 166.821 75.9914 167.077 76.3012L167.044 76.3484L156.366 91.7202L147.654 80.4708L137.336 98.8818L146.174 111.155C152.009 119.258 164.575 117.307 167.678 107.816L174.958 85.5557L179.338 76.9582C180.302 75.0671 179.781 72.757 178.099 71.4623Z" fill="#FF9C9C"/>
<path d="M153.181 96.7761C153.122 96.7761 153.064 96.7597 153.012 96.7246C152.874 96.6312 152.836 96.4427 152.929 96.3039L156.406 91.1323C156.5 90.9929 156.689 90.9571 156.826 91.0498C156.964 91.1432 157.002 91.3317 156.909 91.4705L153.432 96.6421C153.374 96.7288 153.278 96.7761 153.181 96.7761Z" fill="#FFB969"/>
<path d="M173.541 77.0775C173.377 77.0775 173.243 76.9484 173.238 76.7842C173.094 72.2139 168.982 71.1834 168.806 71.1416C168.643 71.1028 168.543 70.9397 168.581 70.7767C168.62 70.6142 168.782 70.5142 168.945 70.5512C168.993 70.5627 173.684 71.7229 173.844 76.7648C173.85 76.9321 173.718 77.0721 173.551 77.0769C173.548 77.0775 173.544 77.0775 173.541 77.0775Z" fill="#FFB969"/>
<path d="M174.743 67.8646L174.712 67.9895L172.764 75.0771C172.578 75.7566 172.905 76.4712 173.541 76.7737L173.966 76.9756C174.217 77.0944 174.514 76.9689 174.603 76.7064L176.888 70.0067C177.067 69.4394 176.799 68.8266 176.26 68.5744L174.743 67.8646Z" fill="#FF9C9C"/>
<path d="M174.166 77.3242C174.052 77.3242 173.941 77.2993 173.837 77.2502L173.412 77.0484C172.641 76.6822 172.247 75.8197 172.472 74.9972L174.537 67.4331L176.389 68.3011C177.062 68.6163 177.402 69.3891 177.178 70.0989L174.891 76.8053C174.821 77.012 174.665 77.1793 174.464 77.2641C174.368 77.3041 174.267 77.3242 174.166 77.3242ZM174.943 68.2932L173.057 75.1578C172.909 75.6967 173.168 76.261 173.672 76.501L174.097 76.7029C174.153 76.7289 174.203 76.7156 174.228 76.7059C174.252 76.6956 174.297 76.6689 174.317 76.6101L176.602 69.9104C176.733 69.4964 176.532 69.0382 176.133 68.8509L174.943 68.2932Z" fill="#FFB969"/>
<path d="M177.099 69.3237L177.071 69.4358L175.321 75.8021C175.154 76.4125 175.448 77.0544 176.02 77.326L176.401 77.5072C176.626 77.6139 176.894 77.5011 176.974 77.266L179.026 71.2488C179.187 70.739 178.945 70.1892 178.461 69.9625L177.099 69.3237Z" fill="#FF9C9C"/>
<path d="M176.58 77.8509C176.474 77.8509 176.368 77.8273 176.271 77.7812L175.889 77.6C175.185 77.2648 174.823 76.475 175.029 75.7222L176.893 68.8928L178.59 69.688C179.209 69.9778 179.521 70.6882 179.315 71.3404L177.261 77.3642C177.194 77.5582 177.047 77.7152 176.859 77.7946C176.77 77.8322 176.675 77.8509 176.58 77.8509ZM177.299 69.7517L175.615 75.8822C175.486 76.3513 175.711 76.8435 176.151 77.0521L176.533 77.2333C176.572 77.2527 176.608 77.2424 176.624 77.2351C176.642 77.2278 176.673 77.209 176.688 77.1672L178.74 71.15C178.853 70.7936 178.678 70.3972 178.333 70.236L177.299 69.7517Z" fill="#FFB969"/>
<path d="M179.012 70.4287L178.986 70.5305L177.401 76.2986C177.249 76.8514 177.516 77.4333 178.033 77.6794L178.379 77.8437C178.582 77.9406 178.825 77.8382 178.898 77.6248L180.757 72.1726C180.903 71.7107 180.684 71.2125 180.246 71.007L179.012 70.4287Z" fill="#FF9C9C"/>
<path d="M178.541 78.1837C178.441 78.1837 178.341 78.1619 178.249 78.1176L177.903 77.9534C177.252 77.6436 176.917 76.9138 177.108 76.218L178.806 69.9977L180.374 70.7324C180.948 71.0009 181.237 71.6592 181.046 72.2635L179.185 77.7224C179.122 77.9061 178.984 78.054 178.805 78.1291C178.72 78.1655 178.631 78.1837 178.541 78.1837ZM179.21 70.8566L177.694 76.3792C177.58 76.7908 177.778 77.223 178.164 77.406L178.51 77.5703C178.583 77.566 178.602 77.5533 178.611 77.5273L180.47 72.075C180.568 71.7659 180.417 71.4222 180.117 71.2816L179.21 70.8566Z" fill="#FFB969"/>
<path d="M149.026 78.884L139.299 70.3264C137.12 68.3928 134.339 67.2715 131.427 67.1509L119.123 66.6435L118.654 66.5902C118.244 66.5435 117.837 66.5205 117.433 66.5083L117.43 66.4968L117.207 66.5011C116.881 66.4968 116.557 66.5023 116.236 66.5199L108.012 66.6762C102.113 67.1781 97.2125 71.429 95.8814 77.1971L93.7296 88.0064C93.5562 88.8787 94.1502 89.7182 95.0309 89.8436L102.642 90.9299L102.516 117.642L144.767 119.855C146.216 119.931 147.219 118.43 146.596 117.12L138.074 99.231L149.549 84.038C150.751 82.4493 150.523 80.2011 149.026 78.884Z" fill="#4268FF"/>
<path d="M96.8131 148.184C96.9356 147.894 97.0362 147.594 97.112 147.282L115.01 92.9137L97.7163 90.2278L85.6831 144.45L81.6571 144C79.015 143.705 76.7031 145.773 76.7031 148.432V148.696V154.337C76.7031 154.743 77.0329 155.073 77.4396 155.073C78.7161 155.073 79.7514 154.038 79.7514 152.761V154.336C79.7514 154.743 80.0812 155.072 80.4879 155.072C81.7644 155.072 82.7997 154.037 82.7997 152.761V154.335C82.7997 154.742 83.1295 155.072 83.5362 155.072C84.7903 155.072 85.8056 154.072 85.8413 152.826C86.2311 153.125 86.7124 153.31 87.2415 153.31H89.2285C90.3632 153.31 91.3415 152.682 91.8664 151.762C94.0764 151.582 95.9548 150.18 96.801 148.208L96.8034 148.209L96.8131 148.184Z" fill="#FF9C9C"/>
<path d="M79.7522 153.415C79.6267 153.415 79.5249 153.313 79.5249 153.188V148.432C79.5249 148.307 79.6267 148.205 79.7522 148.205C79.8777 148.205 79.9795 148.307 79.9795 148.432V153.188C79.9795 153.313 79.8777 153.415 79.7522 153.415Z" fill="#FFB969"/>
<path d="M82.7995 153.415C82.674 153.415 82.5722 153.313 82.5722 153.188V148.432C82.5722 148.307 82.674 148.205 82.7995 148.205C82.925 148.205 83.0268 148.307 83.0268 148.432V153.188C83.0268 153.313 82.925 153.415 82.7995 153.415Z" fill="#FFB969"/>
<path d="M117.154 93.5496C117.043 93.5496 116.931 93.5405 116.818 93.5217L112.242 92.7616C112.077 92.7343 111.966 92.5779 111.993 92.413C112.021 92.2482 112.18 92.1354 112.341 92.1639L116.917 92.924C117.698 93.055 118.449 92.5264 118.592 91.7481L120.759 79.972C120.79 79.8071 120.944 79.6968 121.112 79.7289C121.277 79.7592 121.386 79.9174 121.355 80.0817L119.188 91.8578C119.007 92.8464 118.13 93.5496 117.154 93.5496Z" fill="white"/>
<path d="M138.074 99.5358C138.034 99.5358 137.992 99.5273 137.953 99.5104C137.799 99.4431 137.73 99.2643 137.797 99.1109L139.728 94.7115C141.118 91.5444 141.208 88.0197 139.982 84.7865L137.672 78.6948C137.613 78.5384 137.691 78.3632 137.848 78.3038C138.007 78.2438 138.179 78.3238 138.239 78.4796L140.549 84.5714C141.832 87.9542 141.738 91.642 140.284 94.9552L138.353 99.3546C138.302 99.4679 138.191 99.5358 138.074 99.5358Z" fill="white"/>
<path d="M132.99 67.6164C132.984 67.6164 132.979 67.6164 132.974 67.6164L117.414 66.8005C117.248 66.7914 117.119 66.649 117.128 66.4817C117.136 66.315 117.282 66.1853 117.446 66.195L133.006 67.0108C133.172 67.0199 133.301 67.1624 133.292 67.3297C133.284 67.4909 133.151 67.6164 132.99 67.6164Z" fill="white"/>
</svg>
