<svg xmlns="http://www.w3.org/2000/svg" width="40" height="40" viewBox="0 0 40 40" fill="none">
  <path d="M37.3828 21.6429L36.0553 20.8764C36.0848 20.5855 36.0997 20.2926 36.0997 19.9999C36.0997 19.7073 36.0848 19.4144 36.0553 19.1234L37.3828 18.357C37.652 18.2016 37.8484 17.9455 37.9288 17.6454C38.0092 17.3452 37.9671 17.0253 37.8117 16.7562L35.468 12.6967C35.1444 12.1361 34.4277 11.9441 33.8672 12.2678L32.5331 13.038C32.0587 12.6938 31.5536 12.4011 31.0216 12.1622V10.625C31.0216 9.97781 30.4969 9.45312 29.8497 9.45312H26.3341V4.29688C26.3341 1.92758 24.4065 0 22.0372 0H6.32812C3.95883 0 2.03125 1.92758 2.03125 4.29688V35.7031C2.03125 38.0724 3.95883 40 6.32812 40H22.0372C24.4065 40 26.3341 38.0724 26.3341 35.7031V30.5469H29.8497C30.4969 30.5469 31.0216 30.0222 31.0216 29.375V27.8377C31.5536 27.5987 32.0586 27.3061 32.5331 26.9619L33.8672 27.732C34.4276 28.0557 35.1444 27.8635 35.468 27.3031L37.8117 23.2437C37.9671 22.9745 38.0092 22.6546 37.9288 22.3545C37.8484 22.0543 37.652 21.7984 37.3828 21.6429ZM4.375 31.4062V7.03125H23.9903V31.4062H4.375ZM26.3341 18.4507C26.6717 18.1884 27.0765 18.0469 27.5059 18.0469C28.5829 18.0469 29.4591 18.923 29.4591 20C29.4591 21.077 28.5829 21.9531 27.5059 21.9531C27.0765 21.9531 26.6717 21.8116 26.3341 21.5493V18.4507ZM6.32812 2.34375H22.0372C23.1141 2.34375 23.9903 3.21992 23.9903 4.29688V4.6875H4.375V4.29688C4.375 3.21992 5.25117 2.34375 6.32812 2.34375ZM22.0372 37.6562H6.32812C5.25117 37.6562 4.375 36.7801 4.375 35.7031V33.75H13.0109V34.9219C13.0109 35.5691 13.5355 36.0938 14.1827 36.0938C14.8299 36.0938 15.3546 35.5691 15.3546 34.9219V33.75H23.9904V35.7031C23.9903 36.7801 23.1141 37.6562 22.0372 37.6562ZM33.6295 18.7422C33.7134 19.1537 33.7559 19.5768 33.7559 20C33.7559 20.4232 33.7134 20.8463 33.6295 21.2578C33.5287 21.7517 33.7551 22.2548 34.1917 22.5069L35.196 23.0867L34.0241 25.1164L33.0114 24.5318C32.5743 24.2795 32.025 24.3352 31.6476 24.6702C31.0084 25.2374 30.279 25.6601 29.4794 25.9263C29.0007 26.0857 28.6777 26.5336 28.6777 27.0381V28.2031H26.334V24.1296C26.7122 24.2389 27.1061 24.2969 27.5059 24.2969C29.8752 24.2969 31.8027 22.3693 31.8027 20C31.8027 17.6307 29.8752 15.7031 27.5059 15.7031C27.1061 15.7031 26.7122 15.7611 26.334 15.8704V11.7969H28.6777V12.9618C28.6777 13.4663 29.0007 13.9142 29.4794 14.0736C30.279 14.3398 31.0084 14.7625 31.6476 15.3298C32.025 15.6648 32.5745 15.7204 33.0114 15.4681L34.0241 14.8835L35.196 16.9132L34.1917 17.493C33.7551 17.7452 33.5287 18.2483 33.6295 18.7422Z" fill="#F7910A"/>
</svg>